<svg width="10" height="18" viewBox="0 0 10 18" fill="none" xmlns="http://www.w3.org/2000/svg">
<path d="M1.65923 8.70089e-05C1.87269 -0.000565286 2.0836 0.0418236 2.27646 0.124137C2.46932 0.206453 2.63924 0.326602 2.77372 0.475757L9.67496 8.18931C9.88511 8.41935 10 8.70789 10 9.00567C10 9.30344 9.88511 9.59198 9.67496 9.82202L2.53081 17.5356C2.28829 17.7981 1.93978 17.9632 1.56196 17.9946C1.18414 18.0259 0.807956 17.9209 0.516165 17.7027C0.224375 17.4845 0.0408784 17.1709 0.00604449 16.831C-0.0287903 16.491 0.0878898 16.1526 0.330418 15.89L6.71728 8.99924L0.544744 2.10846C0.370022 1.91975 0.259035 1.68997 0.224915 1.44628C0.190795 1.2026 0.234971 0.955222 0.352214 0.73342C0.469458 0.511621 0.654863 0.324681 0.88649 0.19472C1.11812 0.0647594 1.38627 -0.00278167 1.65923 8.70089e-05Z" fill="#232323"/>
</svg>
