<svg width="190" height="164" viewBox="0 0 190 164" fill="none" xmlns="http://www.w3.org/2000/svg">
<path d="M57.5482 87.7786C57.5482 87.7786 54.5692 111.426 49.6837 116.727C43.8151 123.107 39.5552 122.171 37.1869 125.462C34.8186 122.166 30.5587 123.107 24.6851 116.722C19.7996 111.406 16.8306 87.7736 16.8306 87.7736C29.7097 81.5711 37.1869 74.6147 37.1869 74.6147C37.4203 74.8414 44.8677 81.6745 57.5482 87.7786Z" fill="#F5BA1F"/>
<path d="M37.1869 74.6246L37.1869 125.462C34.8186 122.166 30.5587 123.107 24.6851 116.722C19.7996 111.406 16.8306 87.7736 16.8306 87.7736C29.7097 81.5711 37.1869 74.6147 37.1869 74.6147L37.1869 74.6246Z" fill="#DFA91B"/>
<path d="M54.3856 89.6852C54.3856 89.6852 51.8733 109.643 47.7474 114.136C42.7824 119.555 39.1828 118.742 37.182 121.526C35.196 118.747 31.5815 119.555 26.6215 114.136C22.4906 109.643 19.9833 89.6852 19.9833 89.6852C30.8665 84.4384 37.182 78.5659 37.182 78.5659C37.182 78.5659 43.5073 84.4187 54.3856 89.6852Z" fill="#DFA91B"/>
<path d="M19.9883 89.6847C19.9883 89.6847 22.5006 109.642 26.6314 114.14C31.5964 119.53 35.186 118.742 37.1869 121.53L37.1869 78.5703C36.9933 78.7526 30.7027 84.5216 19.9883 89.6847Z" fill="#F5BA1F"/>
<path d="M37.1869 107.963C41.5935 107.963 45.1656 104.418 45.1656 100.046C45.1656 95.6735 41.5935 92.1289 37.1869 92.1289C32.7804 92.1289 29.2083 95.6735 29.2083 100.046C29.2083 104.418 32.7804 107.963 37.1869 107.963Z" fill="#FABC1B"/>
<path d="M36.2782 105.184L32.7233 101.519L34.0439 100.262L36.0001 102.282L40.2204 95.8579L41.7545 96.8482L36.2782 105.184Z" fill="white"/>
<path d="M162.146 150.939C162.146 150.939 131.58 242.213 128.581 249.014C127.894 250.556 106.698 340.097 106.698 340.097L68.9264 330.929C68.9264 330.929 88.4182 254.183 93.4228 240.387C98.4274 226.592 128.254 143.249 128.254 143.249L162.146 150.939Z" fill="#F5BA1F"/>
<path d="M156.072 153.894C148.068 176.023 140.053 198.159 132.511 220.445C128.77 231.502 125.096 242.584 121.77 253.776C118.444 264.968 115.511 276.435 112.692 287.855C109.531 300.762 106.239 313.65 103.46 326.654C103.433 326.771 103.62 326.813 103.657 326.698C110.064 304.073 115.026 281.058 121.521 258.453C128.017 235.848 135.778 213.602 143.565 191.424C147.914 179.034 152.194 166.535 156.466 154.076C156.588 153.815 156.156 153.666 156.072 153.894Z" fill="#263238"/>
<path d="M139.455 346.542L180.521 344.654C180.521 344.654 168.329 265.308 167.892 259.961C167.553 256.076 168.197 209.773 169.292 189.719C169.292 189.719 177.542 176.783 171.238 152.972L128.261 143.219C128.261 143.219 124.785 165.635 126.992 179.636C129.784 180.518 132.471 181.697 135.007 183.153C135.007 183.153 132.136 256.313 132.705 263.069C133.941 277.684 139.455 346.542 139.455 346.542Z" fill="#F5BA1F"/>
<path d="M135.881 173.823C136.78 172.534 136.693 170.796 136.77 169.291C136.857 167.386 136.953 165.484 137.049 163.581C137.231 159.28 137.33 154.981 137.39 150.672L137.311 150.655C136.967 154.007 136.66 157.367 136.388 160.735C136.114 164.131 135.997 167.562 135.642 170.949C135.534 172.046 134.911 174.117 133.391 173.782C132.081 173.485 131.733 171.348 131.545 170.276C131.111 167.102 131.003 163.891 131.222 160.695C131.3 156.895 131.522 153.097 131.722 149.304C131.751 149.177 131.515 149.164 131.505 149.255C130.898 152.966 130.486 156.705 130.271 160.459C130.036 163.997 129.751 167.708 130.47 171.205C130.737 172.521 131.158 174.161 132.462 174.847C132.644 174.938 132.838 175.006 133.037 175.05C132.913 176.174 132.823 177.286 132.801 178.413C132.751 179.585 132.789 180.76 132.914 181.927C132.907 181.961 132.913 181.996 132.931 182.025C132.95 182.055 132.979 182.075 133.013 182.083C133.047 182.091 133.083 182.085 133.112 182.066C133.142 182.048 133.163 182.019 133.171 181.985C133.344 180.844 133.436 179.692 133.446 178.539C133.478 177.407 133.451 176.275 133.368 175.146C133.866 175.159 134.359 175.044 134.8 174.812C135.24 174.58 135.613 174.24 135.881 173.823Z" fill="#263238"/>
<path d="M169.768 315.315C168.966 309.433 168.158 303.549 167.344 297.663C165.743 285.981 163.994 274.357 162.408 262.699C160.822 251.04 161.718 239.503 162.128 227.916C162.307 222.009 162.508 216.097 162.687 210.19C162.867 204.282 162.809 198.414 163.455 192.593C164.102 186.771 166.205 181.517 166.993 175.851C167.698 170.789 167.478 165.644 166.345 160.659C166.06 159.397 165.71 158.15 165.298 156.923C165.284 156.9 165.262 156.883 165.237 156.873C165.211 156.864 165.183 156.864 165.157 156.872C165.132 156.88 165.109 156.897 165.094 156.92C165.079 156.942 165.072 156.969 165.074 156.996C167.266 164.824 167.316 173.09 165.217 180.943C164.492 183.731 163.65 186.483 163.141 189.321C162.116 194.985 162.153 200.807 161.971 206.549C161.788 212.291 161.608 218.249 161.43 224.105C161.252 229.961 161.072 235.919 160.881 241.833C160.569 247.565 160.637 253.311 161.085 259.034C161.658 264.782 162.589 270.509 163.345 276.227C164.101 281.945 164.98 287.989 165.825 293.861C167.495 305.559 169.074 317.288 170.943 328.98C171.167 330.348 171.356 331.687 171.656 333.042C171.696 333.226 171.991 333.118 171.971 332.979C171.488 327.066 170.571 321.188 169.768 315.315Z" fill="#263238"/>
<path d="M120.478 112.827L126.057 115.616C129.23 113.244 131.577 109.949 132.772 106.191C133.061 105.34 132.729 110.873 128.892 117.041C134.778 119.982 142.786 123.98 149.813 127.417C151.259 124.741 152.728 122.326 152.728 122.326C152.106 124.239 151.653 126.202 151.376 128.194L154.173 129.559C155.998 125.643 158.037 121.829 160.28 118.133C158.846 122.44 158.136 126.951 158.177 131.486C162.664 133.616 165.678 134.938 165.572 134.636C162.47 123.703 169.613 121.599 170.896 113.874C172.478 104.622 166.008 99.9846 169.156 93.9281C171.698 89.0202 176.65 80.2654 171.231 75.3415C170.31 72.8642 168.674 70.7111 166.527 69.1514C164.38 67.5917 161.817 66.6945 159.159 66.572C147.307 65.663 143.923 82.9131 141.743 85.7114C138.632 89.7182 135.742 90.2871 131.703 94.6288C127.664 98.9705 128.287 103.557 126.885 107.211C125.482 110.865 119.358 112.284 120.478 112.827Z" fill="#263238"/>
<path d="M166.247 133.636C165.966 131.852 165.938 130.038 166.162 128.246C166.49 126.533 167.262 124.935 168.403 123.609C169.545 122.154 170.61 120.64 171.594 119.075C172.601 117.432 173.265 115.606 173.547 113.704C173.793 111.785 173.593 109.835 172.963 108.005C172.335 106.258 171.563 104.565 170.656 102.943C169.785 101.384 169.123 99.7183 168.686 97.989C168.303 96.2235 168.418 94.3874 169.017 92.6823C168.141 94.3448 167.793 96.232 168.019 98.0948C168.306 99.9387 168.873 101.729 169.699 103.405C170.46 105.026 171.114 106.694 171.659 108.398C172.171 110.051 172.317 111.793 172.089 113.507C171.809 115.22 171.215 116.867 170.336 118.368C169.48 119.923 168.416 121.389 167.406 122.94C166.883 123.726 166.423 124.55 166.028 125.406C165.648 126.293 165.429 127.24 165.384 128.203C165.35 130.05 165.643 131.889 166.247 133.636Z" fill="#263238"/>
<path d="M150.71 69.6141C149.099 71.2118 147.685 72.9949 146.5 74.9253C145.283 76.8307 144.158 78.7878 143.082 80.7561L141.424 83.6728C140.899 84.619 140.283 85.513 139.585 86.3426C138.096 87.9265 136.334 89.2341 134.382 90.2039C133.347 90.7588 132.353 91.3861 131.408 92.0812C130.469 92.7986 129.615 93.6198 128.863 94.529C128.152 95.4509 127.508 96.4226 126.938 97.4365C126.362 98.4539 125.914 99.5375 125.604 100.663C125.342 101.798 125.087 102.903 124.909 103.994C124.696 105.068 124.384 106.12 123.977 107.137C123.54 108.153 122.863 109.049 122.003 109.749C121.143 110.45 120.125 110.934 119.036 111.161C120.199 111.05 121.315 110.656 122.287 110.012C123.259 109.369 124.055 108.497 124.604 107.475C125.119 106.444 125.527 105.365 125.824 104.253C126.081 103.138 126.331 102.053 126.69 101.033C127.423 98.9929 128.523 97.1017 129.936 95.4517C130.637 94.64 131.422 93.9041 132.278 93.2561C133.162 92.6074 134.088 92.0166 135.05 91.4875C136.02 90.9255 137.023 90.3506 137.98 89.6623C138.951 88.972 139.833 88.1665 140.607 87.2639C141.327 86.345 141.96 85.3622 142.497 84.3279C143.048 83.3313 143.55 82.3235 144.052 81.3158C145.063 79.3123 146.018 77.2857 147.114 75.3219C148.113 73.3025 149.318 71.39 150.71 69.6141Z" fill="#263238"/>
<path d="M152.359 111.057C143.977 118.313 124.744 137.421 113.748 135.769C104.878 134.436 90.4456 112.597 86.7119 106.749C84.2826 102.936 104.045 87.2926 106.74 91.1662C110.202 96.1706 117.719 112.869 120.035 113.395C121.316 113.685 130.106 110.823 147.382 104.258C154.079 101.702 157.36 106.727 152.359 111.057Z" fill="#D3766A"/>
<path d="M77.0403 95.4374C79.1347 100.389 87.4314 108.847 90.2481 110.124C93.0649 111.401 108 97.8939 107.743 94.7793C107.486 91.6648 99.112 75.5333 94.2596 72.9195C89.4071 70.3058 74.8615 90.3124 77.0403 95.4374Z" fill="#D3766A"/>
<path d="M73.1062 134.104L76.2359 135.133L116.701 14.0179L113.571 12.9884L73.1062 134.104Z" fill="#A6A6A6"/>
<path d="M115.009 6.31243L119.543 7.81237L122.67 -4.56448L119.958 -5.457L115.009 6.31243Z" fill="#DBDBDB"/>
<path d="M58.446 148.333C66.833 151.09 73.38 146.045 75.5148 139.665L78.2529 131.468L73.7004 129.967L70.9622 138.165C69.9697 141.267 66.4415 145.945 59.9312 143.806C54.1841 141.922 54.223 135.638 55.1423 132.885L57.7228 125.142L53.1703 123.641L50.5804 131.393C49.6756 134.322 49.6674 137.451 50.5568 140.384C51.1055 142.254 52.1137 143.959 53.4907 145.347C54.8677 146.734 56.5704 147.76 58.446 148.333Z" fill="#263238"/>
<path d="M36.4624 23.565C36.4624 23.565 48.2767 22.3421 54.5571 24.6002C60.8375 26.8583 70.9793 34.9409 70.9793 34.9409C70.9793 34.9409 82.8312 34.3214 89.3915 36.2904C95.9518 38.2595 104.33 45.9071 104.33 45.9071C104.33 45.9071 115.672 44.7251 122.104 47.0503C128.537 49.3756 137.671 56.873 137.671 56.873C137.671 56.873 150.641 56.4371 157.059 58.3033C163.478 60.1695 172.189 68.186 172.189 68.186C168.618 43.8106 150.672 14.5996 118.328 3.96663C85.9832 -6.66632 53.9648 6.15099 36.4624 23.565Z" fill="#DFA91B"/>
<path d="M36.462 23.5649C39.5499 21.6893 42.6724 19.8686 45.8471 18.1302C49.0218 16.3919 52.1859 14.7072 55.4141 12.9973C61.8131 9.66633 68.477 6.86257 75.3385 4.61429C78.7414 3.4777 82.2742 2.76795 85.8546 2.50156C89.4865 2.24138 93.112 2.2148 96.6821 2.22267C100.252 2.23055 103.926 2.42109 107.542 2.71796C111.159 3.01484 114.773 3.38359 118.329 3.91259C111.21 2.48451 103.981 1.66678 96.7212 1.46844C93.0992 1.36923 89.4738 1.39581 85.8429 1.62005C82.1888 1.85866 78.5798 2.55437 75.1014 3.69065C71.6354 4.80103 68.235 6.10379 64.9162 7.59279C61.5951 9.05738 58.3165 10.622 55.1243 12.3419C48.7005 15.74 42.4703 19.4867 36.462 23.5649Z" fill="#F5BA1F"/>
<path d="M70.9709 34.9131C72.3326 32.8733 73.7473 30.88 75.2596 28.9612C76.7719 27.0424 78.2933 25.1239 79.9478 23.3079C83.106 19.6105 86.73 16.3312 90.7309 13.5506C94.9103 11.0224 99.396 9.0303 104.081 7.62209C106.404 6.85848 108.769 6.18596 111.151 5.58581C113.533 4.98567 115.922 4.4307 118.336 3.98429C113.435 4.58353 108.592 5.57856 103.854 6.9595C99.0588 8.26113 94.4629 10.2011 90.1919 12.7266C89.1373 13.394 88.1325 14.1357 87.1851 14.9461C86.2571 15.7299 85.3276 16.5677 84.3982 17.4054C82.6135 19.1098 80.9238 20.9096 79.3367 22.7967C76.1792 26.5721 73.3787 30.628 70.9709 34.9131Z" fill="#F5BA1F"/>
<path d="M104.312 45.8797C105.667 42.4461 106.924 38.9827 108.162 35.5189C109.4 32.055 110.567 28.5532 111.769 25.0794C112.971 21.6056 114.066 18.0838 115.16 14.5711L116.775 9.28326C117.287 7.49894 117.826 5.71537 118.302 3.93006C117.62 5.63778 116.991 7.37396 116.346 9.09166L114.47 14.2914C113.232 17.7553 112.074 21.2573 110.872 24.7311C109.67 28.205 108.566 31.7265 107.471 35.2482C106.377 38.7699 105.29 42.3278 104.312 45.8797Z" fill="#F5BA1F"/>
<path d="M172.171 68.1942C169.804 61.3811 167.061 54.7021 163.956 48.1874C162.425 44.9265 160.747 41.7244 158.967 38.5825C157.201 35.4255 155.256 32.3702 153.141 29.4313C151.035 26.4696 148.558 23.7852 145.77 21.4425C142.989 19.1125 140.105 16.9174 137.118 14.8574C131.171 10.7166 124.878 7.08786 118.308 4.01074C121.518 5.69318 124.648 7.49934 127.7 9.42922C130.751 11.3591 133.746 13.3683 136.684 15.457C139.588 17.5866 142.473 19.7517 145.199 22.1013C147.911 24.437 150.318 27.1008 152.364 30.0304C156.518 35.8971 160.174 42.0967 163.293 48.5649C164.916 51.7744 166.448 55.0264 167.915 58.3126C169.382 61.5988 170.814 64.857 172.171 68.1942Z" fill="#F5BA1F"/>
<path d="M137.654 56.8451C138.295 51.9862 138.48 47.0787 138.207 42.1858C138.077 39.7313 137.806 37.2861 137.395 34.8623C137.184 33.6517 136.955 32.4405 136.653 31.2453C136.384 30.0336 136.026 28.8428 135.583 27.6823C133.689 23.1234 131.184 18.8387 128.136 14.9439C125.167 11.0276 121.881 7.35889 118.31 3.97461C119.962 5.81821 121.56 7.66031 123.093 9.5546C124.626 11.4489 126.131 13.3784 127.544 15.3682C130.452 19.2694 132.851 23.5194 134.686 28.0174C136.225 32.6192 137.161 37.3986 137.471 42.2376C137.685 44.6532 137.78 47.0926 137.803 49.5299C137.826 51.9673 137.794 54.4032 137.654 56.8451Z" fill="#F5BA1F"/>
<path d="M98.1893 76.8368C98.5019 79.6655 94.9668 78.4002 94.9668 78.4002C94.9668 78.4002 99.617 81.4415 98.754 84.4665C97.8909 87.4914 93.735 85.7252 93.4309 85.6047C93.6744 85.7629 97.9076 88.6786 96.739 91.6343C95.5705 94.5899 91.603 92.3211 91.3496 92.1606C91.5357 92.3881 93.8877 95.412 92.5119 97.4666C90.1224 101.04 83.8763 93.449 80.4048 93.2581C80.4048 93.2581 79.4018 99.0502 79.3483 99.1924C79.3483 99.1924 73.2526 92.1188 73.7495 87.4877C73.8207 86.8162 74.1174 86.1879 74.592 85.704C75.0666 85.22 75.6913 84.9085 76.3659 84.8195C76.3659 84.8195 74.1439 82.7614 74.9712 80.3869C75.3976 79.1665 77.739 78.7717 77.739 78.7717C77.2622 78.2763 76.9312 77.6609 76.7818 76.9921C76.6325 76.3233 76.6706 75.6267 76.8919 74.9779C77.5819 73.3337 79.8154 73.1819 79.8154 73.1819C79.8154 73.1819 78.9498 70.7731 80.2078 69.3196C82.7828 66.4258 97.5317 70.781 98.1893 76.8368Z" fill="#D3766A"/>
<path d="M80.2267 73.1514L80.2448 73.0732C85.6445 73.3276 90.8393 75.2025 95.1419 78.4499C95.2739 78.5519 95.1616 78.8145 94.9856 78.7231C90.3637 76.1668 85.3922 74.29 80.2267 73.1514Z" fill="#263238"/>
<path d="M77.7314 78.7592C77.6723 78.7458 77.6948 78.648 77.7562 78.6517C83.7192 78.9876 89.3652 81.4255 93.677 85.5263C93.8198 85.6719 93.8082 85.9471 93.6162 85.7904C90.5656 83.143 82.6026 79.7617 77.7314 78.7592Z" fill="#263238"/>
<path d="M91.5865 92.5742C87.317 88.6007 82.2275 86.3859 76.6589 84.8548C76.5801 84.8369 76.6147 84.7315 76.6859 84.7374C79.6191 84.7444 83.0627 86.0918 85.6635 87.3611C88.105 88.4967 90.2044 90.2467 91.7529 92.4371C91.7864 92.5167 91.6715 92.6553 91.5865 92.5742Z" fill="#263238"/>
<path d="M94.9756 78.3605C95.8106 79.0283 96.584 79.7685 97.2865 80.5725C98.0061 81.322 98.5087 82.2501 98.7414 83.2591C98.8007 83.7278 98.6913 84.2022 98.4327 84.5988C98.1716 84.9985 97.8107 85.3242 97.3851 85.5444C96.9433 85.7331 96.4664 85.8273 95.9854 85.821C95.5045 85.8147 95.0302 85.708 94.5936 85.5078L92.4148 84.6121L94.1244 86.1937C94.8954 86.893 95.5473 87.7116 96.0546 88.6177C96.3155 89.0241 96.486 89.4811 96.5549 89.958C96.6238 90.435 96.5895 90.9211 96.4542 91.3838C96.317 91.8071 96.0421 92.1732 95.6726 92.4246C95.3031 92.676 94.8599 92.7985 94.4126 92.7728C93.4069 92.6676 92.4438 92.3146 91.6107 91.746L89.2723 90.2378L90.9816 92.4058C91.4603 93.0113 91.8579 93.6757 92.1646 94.3825C92.4878 95.0443 92.602 95.7875 92.4923 96.5149C92.4346 96.837 92.2869 97.1365 92.0659 97.3793C91.8449 97.6221 91.5596 97.7983 91.2426 97.888C90.5043 97.9904 89.752 97.8769 89.0778 97.5614C87.6041 96.912 86.1854 96.1461 84.8352 95.2713C84.1327 94.8546 83.4303 94.438 82.7112 94.0484C82.0053 93.6222 81.2167 93.3486 80.397 93.2454C81.1881 93.4334 81.9341 93.774 82.5926 94.2479C83.2807 94.6819 83.9401 95.1505 84.5995 95.6191C85.9243 96.6003 87.3373 97.4583 88.8207 98.1822C89.6182 98.5867 90.5173 98.7514 91.4078 98.6561C91.8855 98.5494 92.3217 98.3073 92.6634 97.9591C93.005 97.611 93.2374 97.1719 93.3323 96.6952C93.4825 95.8064 93.3606 94.8934 92.9823 94.0741C92.6557 93.2822 92.224 92.5372 91.6988 91.8586L91.0674 92.5282C92.0357 93.2218 93.1711 93.6498 94.3592 93.7691C95.0191 93.8218 95.6767 93.6433 96.2177 93.2647C96.7366 92.8743 97.127 92.3397 97.3391 91.7287C97.5082 91.1433 97.551 90.5292 97.4648 89.9263C97.3786 89.3234 97.1653 88.7453 96.8388 88.2297C96.265 87.2398 95.5311 86.3502 94.6665 85.5964L94.2268 86.289C94.7766 86.5178 95.3699 86.6254 95.9657 86.6042C96.5615 86.5831 97.1455 86.4337 97.6773 86.1664C98.19 85.8585 98.6171 85.4284 98.9198 84.9151C99.2161 84.389 99.31 83.7741 99.1838 83.1845C98.8754 82.1114 98.2725 81.1445 97.4423 80.3917C96.6947 79.6301 95.8678 78.9492 94.9756 78.3605Z" fill="#263238"/>
<path d="M107.29 93.5955C107.29 93.5955 101.647 66.1985 94.0202 72.6074C91.7463 74.5096 84.7302 85.0188 86.8357 86.4124C89.5195 88.2665 93.3065 84.4335 95.2756 81.6492C95.2756 81.6492 96.1156 89.434 101.757 90.4673C103.893 90.8914 105.833 91.9886 107.29 93.5955Z" fill="#D3766A"/>
<path d="M94.682 72.119C93.7072 72.7627 92.8296 73.5406 92.0754 74.4294C91.3038 75.3081 90.5911 76.236 89.9419 77.2073C88.6111 79.1302 87.4488 81.1627 86.4677 83.2825C86.209 83.8499 86.0322 84.4506 85.9424 85.0669C85.9001 85.4192 85.9308 85.7763 86.0324 86.1164C86.0892 86.3069 86.1818 86.4851 86.3054 86.6414C86.4236 86.7949 86.5635 86.9306 86.7207 87.0443C87.3068 87.4127 88.0025 87.5706 88.6917 87.4916C89.3336 87.3944 89.9535 87.1869 90.5235 86.8782C91.5883 86.2924 92.5454 85.532 93.3544 84.6291C94.1617 83.7664 94.9014 82.8438 95.5668 81.8691L94.8277 81.7014C94.9506 82.588 95.1631 83.4601 95.4618 84.3046C95.743 85.1447 96.1129 85.953 96.5653 86.716C97.0203 87.4789 97.5883 88.1697 98.25 88.7653C98.9017 89.3617 99.6653 89.8252 100.497 90.1293C99.732 89.7247 99.0407 89.1956 98.452 88.5641C97.8811 87.9325 97.3982 87.2276 97.0164 86.4685C96.6332 85.7119 96.3224 84.9214 96.088 84.1072C95.8613 83.2945 95.7058 82.4639 95.6231 81.6246L95.543 80.5774L94.884 81.4569C94.2053 82.3667 93.4658 83.2303 92.6705 84.0417C91.9142 84.8496 91.0322 85.5319 90.0581 86.0626C89.6447 86.3298 89.169 86.4871 88.6767 86.5195C88.1844 86.552 87.6919 86.4584 87.2465 86.2478C86.5615 85.8454 86.8849 84.6222 87.2814 83.6215C87.7124 82.5682 88.199 81.5383 88.7392 80.5359C89.2752 79.5153 89.8111 78.4947 90.4093 77.5191C91.5409 75.509 92.9826 73.6869 94.682 72.119Z" fill="#263238"/>
<path d="M108.619 92.7759L88.052 111.776C88.052 111.776 105.338 135.137 114.125 137.059C122.911 138.981 140.342 122.294 148.912 115.348C157.961 107.986 158.065 99.9314 145.164 104.207C132.263 108.483 121.037 112.418 120.566 112.394C120.095 112.369 108.619 92.7759 108.619 92.7759Z" fill="#FABC1B"/>
<path d="M151.472 103.612C151.416 103.766 151.305 103.894 151.16 103.973C151.015 104.052 150.846 104.075 150.684 104.038C150.523 104.002 150.381 103.908 150.285 103.774C150.188 103.641 150.145 103.477 150.162 103.314C150.182 103.215 150.229 103.123 150.296 103.046C150.643 103.018 150.992 103.008 151.34 103.016C151.408 103.098 151.455 103.194 151.478 103.298C151.501 103.401 151.499 103.509 151.472 103.612ZM97.0261 105.869C96.8536 105.83 96.6725 105.86 96.5226 105.954C96.3728 106.047 96.2664 106.196 96.227 106.367C96.1875 106.538 96.2182 106.718 96.3123 106.866C96.4064 107.015 96.5562 107.121 96.7287 107.16C96.9012 107.199 97.0823 107.168 97.2321 107.075C97.382 106.982 97.4884 106.833 97.5278 106.662C97.5673 106.491 97.5366 106.311 97.4425 106.162C97.3484 106.014 97.1987 105.908 97.0261 105.869ZM107.137 108.163C107.009 108.134 106.874 108.143 106.751 108.19C106.628 108.237 106.521 108.319 106.445 108.425C106.368 108.532 106.325 108.659 106.322 108.79C106.318 108.921 106.353 109.05 106.424 109.161C106.494 109.272 106.595 109.359 106.716 109.413C106.836 109.466 106.97 109.483 107.1 109.461C107.23 109.44 107.351 109.38 107.447 109.29C107.543 109.2 107.61 109.084 107.639 108.956C107.677 108.792 107.651 108.619 107.565 108.473C107.479 108.327 107.34 108.22 107.177 108.172L107.137 108.163ZM117.249 110.458C117.12 110.428 116.985 110.438 116.862 110.484C116.739 110.531 116.632 110.613 116.556 110.72C116.479 110.827 116.437 110.953 116.433 111.084C116.429 111.215 116.465 111.344 116.535 111.455C116.605 111.566 116.707 111.654 116.827 111.707C116.947 111.761 117.081 111.778 117.211 111.756C117.341 111.734 117.462 111.674 117.558 111.584C117.654 111.494 117.721 111.378 117.75 111.251C117.789 111.086 117.762 110.913 117.676 110.768C117.59 110.622 117.451 110.514 117.288 110.467L117.249 110.458ZM127.36 112.752C127.231 112.723 127.097 112.732 126.973 112.779C126.85 112.826 126.743 112.907 126.667 113.014C126.591 113.121 126.548 113.248 126.544 113.379C126.54 113.51 126.576 113.639 126.646 113.749C126.716 113.86 126.818 113.948 126.938 114.002C127.059 114.055 127.192 114.072 127.323 114.05C127.453 114.028 127.573 113.969 127.669 113.879C127.765 113.789 127.832 113.673 127.861 113.545C127.9 113.381 127.873 113.208 127.787 113.062C127.701 112.916 127.563 112.809 127.399 112.761L127.36 112.752ZM137.461 115.044C137.289 115.005 137.108 115.036 136.958 115.129C136.808 115.222 136.701 115.371 136.662 115.542C136.623 115.713 136.653 115.893 136.747 116.042C136.841 116.19 136.991 116.296 137.164 116.335C137.336 116.374 137.517 116.344 137.667 116.25C137.817 116.157 137.923 116.008 137.963 115.837C138.002 115.666 137.972 115.486 137.878 115.338C137.783 115.189 137.634 115.083 137.461 115.044ZM103.813 99.506C103.682 99.4743 103.545 99.4819 103.419 99.5278C103.293 99.5736 103.183 99.6557 103.104 99.7636C103.025 99.8714 102.98 100 102.975 100.133C102.97 100.267 103.005 100.398 103.075 100.512C103.146 100.625 103.249 100.715 103.371 100.771C103.494 100.826 103.63 100.844 103.762 100.822C103.895 100.8 104.018 100.74 104.116 100.648C104.214 100.557 104.282 100.439 104.312 100.309C104.353 100.143 104.328 99.9681 104.243 99.8202C104.157 99.6723 104.017 99.563 103.852 99.5149L103.813 99.506ZM113.963 101.809C113.833 101.778 113.696 101.785 113.569 101.831C113.443 101.877 113.334 101.959 113.255 102.067C113.176 102.175 113.131 102.304 113.126 102.437C113.12 102.57 113.155 102.702 113.226 102.815C113.297 102.929 113.4 103.019 113.522 103.074C113.644 103.129 113.78 103.147 113.913 103.125C114.046 103.103 114.169 103.043 114.267 102.952C114.364 102.86 114.433 102.742 114.463 102.612L113.963 101.809ZM144.248 108.681C144.117 108.652 143.98 108.661 143.855 108.709C143.73 108.756 143.622 108.839 143.544 108.947C143.467 109.056 143.423 109.185 143.42 109.317C143.416 109.45 143.452 109.581 143.523 109.694C143.594 109.806 143.697 109.896 143.82 109.95C143.942 110.004 144.078 110.021 144.21 109.999C144.342 109.977 144.464 109.916 144.562 109.825C144.659 109.734 144.727 109.616 144.757 109.486C144.796 109.319 144.769 109.144 144.681 108.996C144.594 108.848 144.453 108.738 144.287 108.69L144.248 108.681ZM90.3524 111.743C90.2237 111.714 90.0893 111.723 89.966 111.77C89.8427 111.816 89.736 111.898 89.6596 112.005C89.5832 112.112 89.5405 112.239 89.5367 112.369C89.5329 112.5 89.5684 112.629 89.6386 112.74C89.7087 112.851 89.8104 112.939 89.9309 112.992C90.0513 113.046 90.185 113.063 90.3151 113.041C90.4452 113.019 90.5659 112.959 90.6618 112.87C90.7577 112.78 90.8247 112.664 90.8541 112.536C90.8923 112.371 90.8658 112.199 90.7798 112.053C90.6939 111.907 90.5551 111.799 90.3918 111.752L90.3524 111.743ZM103.791 122.685C103.66 122.653 103.522 122.661 103.396 122.707C103.269 122.753 103.159 122.836 103.081 122.944C103.002 123.053 102.957 123.182 102.953 123.316C102.949 123.45 102.985 123.582 103.056 123.695C103.128 123.808 103.232 123.898 103.355 123.952C103.479 124.006 103.615 124.023 103.748 123.999C103.881 123.976 104.003 123.914 104.1 123.821C104.197 123.728 104.264 123.609 104.292 123.478C104.328 123.313 104.3 123.142 104.215 122.997C104.129 122.851 103.992 122.743 103.83 122.694L103.791 122.685ZM113.902 124.979C113.771 124.947 113.633 124.955 113.507 125.001C113.38 125.048 113.271 125.13 113.192 125.239C113.113 125.347 113.068 125.477 113.064 125.61C113.06 125.744 113.096 125.876 113.167 125.989C113.239 126.103 113.343 126.192 113.466 126.246C113.59 126.301 113.726 126.317 113.859 126.294C113.992 126.271 114.115 126.208 114.212 126.115C114.309 126.023 114.375 125.903 114.404 125.772C114.439 125.608 114.412 125.436 114.326 125.291C114.241 125.146 114.103 125.038 113.941 124.988L113.902 124.979ZM124.013 127.274C123.882 127.242 123.745 127.25 123.618 127.296C123.492 127.342 123.382 127.425 123.303 127.533C123.224 127.642 123.18 127.771 123.175 127.905C123.171 128.039 123.207 128.171 123.279 128.284C123.35 128.397 123.454 128.487 123.578 128.541C123.701 128.595 123.838 128.612 123.97 128.588C124.103 128.565 124.226 128.503 124.323 128.41C124.42 128.317 124.487 128.197 124.515 128.067C124.551 127.902 124.523 127.73 124.437 127.585C124.352 127.44 124.214 127.332 124.053 127.283L124.013 127.274ZM100.464 114.037C100.335 114.008 100.2 114.017 100.077 114.064C99.9539 114.111 99.8473 114.193 99.7709 114.299C99.6945 114.406 99.6517 114.533 99.6479 114.664C99.6441 114.795 99.6796 114.924 99.7498 115.035C99.8199 115.146 99.9217 115.233 100.042 115.287C100.163 115.34 100.296 115.357 100.426 115.335C100.556 115.314 100.677 115.254 100.773 115.164C100.869 115.074 100.936 114.958 100.965 114.83C101.004 114.666 100.977 114.493 100.891 114.347C100.805 114.201 100.666 114.094 100.503 114.046L100.464 114.037ZM110.575 116.332C110.402 116.293 110.221 116.323 110.071 116.416C109.921 116.51 109.815 116.658 109.776 116.829C109.736 117.001 109.767 117.18 109.861 117.329C109.955 117.478 110.105 117.583 110.277 117.622C110.45 117.662 110.631 117.631 110.781 117.538C110.931 117.444 111.037 117.296 111.077 117.125C111.116 116.953 111.085 116.774 110.991 116.625C110.897 116.476 110.747 116.371 110.575 116.332ZM120.686 118.626C120.514 118.587 120.332 118.617 120.183 118.711C120.033 118.804 119.926 118.953 119.887 119.124C119.847 119.295 119.878 119.475 119.972 119.623C120.066 119.772 120.216 119.878 120.389 119.917C120.561 119.956 120.742 119.926 120.892 119.832C121.042 119.739 121.148 119.59 121.188 119.419C121.227 119.248 121.197 119.068 121.102 118.919C121.008 118.771 120.859 118.665 120.686 118.626ZM130.787 120.918C130.659 120.891 130.525 120.902 130.403 120.95C130.28 120.998 130.175 121.081 130.1 121.189C130.025 121.296 129.984 121.423 129.981 121.553C129.979 121.684 130.015 121.812 130.086 121.922C130.157 122.032 130.259 122.119 130.379 122.172C130.5 122.224 130.633 122.24 130.762 122.218C130.892 122.196 131.012 122.136 131.108 122.046C131.203 121.956 131.27 121.841 131.299 121.713C131.335 121.547 131.306 121.374 131.219 121.228C131.131 121.082 130.991 120.975 130.827 120.927L130.787 120.918ZM107.226 130.863C107.097 130.834 106.963 130.843 106.839 130.89C106.716 130.936 106.61 131.018 106.533 131.125C106.457 131.232 106.414 131.359 106.41 131.49C106.406 131.62 106.442 131.749 106.512 131.86C106.582 131.971 106.684 132.059 106.804 132.113C106.925 132.166 107.059 132.183 107.189 132.161C107.319 132.139 107.439 132.08 107.535 131.99C107.631 131.9 107.698 131.784 107.728 131.656C107.766 131.491 107.739 131.319 107.653 131.173C107.567 131.027 107.429 130.919 107.265 130.872L107.226 130.863ZM117.337 133.157C117.208 133.128 117.074 133.137 116.951 133.184C116.827 133.231 116.721 133.313 116.644 133.419C116.568 133.526 116.525 133.653 116.521 133.784C116.518 133.915 116.553 134.044 116.623 134.155C116.693 134.266 116.795 134.353 116.916 134.407C117.036 134.46 117.17 134.477 117.3 134.455C117.43 134.434 117.551 134.374 117.647 134.284C117.742 134.194 117.809 134.078 117.839 133.95C117.877 133.786 117.85 133.613 117.765 133.467C117.679 133.321 117.54 133.214 117.376 133.166L117.337 133.157Z" fill="white"/>
<path d="M102.643 107.956C104.201 106.55 110.329 100.84 111.675 99.2725C111.689 99.2138 111.639 99.1613 111.59 99.1915C109.881 100.399 103.576 105.976 102.016 107.391C98.9171 110.218 95.7394 113.026 92.8988 116.127C92.8808 116.206 92.9317 116.299 92.9945 116.252C96.3605 113.661 99.51 110.795 102.643 107.956Z" fill="#263238"/>
<path opacity="0.1" d="M148.923 115.299C140.373 122.249 122.91 138.939 114.136 137.01C111.777 136.272 109.603 135.045 107.758 133.412L151.213 102.976C157.698 103.007 156.219 109.381 148.923 115.299Z" fill="black"/>
<path d="M124.016 151.558L174.492 164.864C174.492 164.864 171.583 119.843 163.568 106.201C159.928 99.9933 155.037 99.7067 150.279 102.084C149.104 102.682 133.148 115.444 130.853 120.634C128.822 125.215 131.479 131.416 131.479 131.416L124.016 151.558Z" fill="#FABC1B"/>
<path d="M150.878 138.453C149.273 137.565 147.618 136.767 145.923 136.063C145.07 135.715 144.215 135.418 143.334 135.146C142.91 135.05 142.492 134.883 142.073 134.767C141.654 134.651 141.088 134.543 140.664 134.447C140.664 134.447 140.579 134.5 140.646 134.526C141.089 134.626 141.487 134.881 141.915 135.05L143.188 135.555C144.043 135.893 144.886 136.239 145.744 136.567C147.45 137.222 149.151 137.896 150.83 138.617C150.909 138.635 150.96 138.502 150.878 138.453Z" fill="#263238"/>
<path d="M151.472 103.611C151.444 103.742 151.378 103.861 151.281 103.954C151.185 104.046 151.062 104.109 150.93 104.132C150.798 104.156 150.662 104.14 150.538 104.087C150.415 104.034 150.311 103.945 150.239 103.833C150.166 103.72 150.129 103.589 150.132 103.456C150.135 103.322 150.178 103.193 150.256 103.084C150.333 102.975 150.442 102.891 150.567 102.844C150.692 102.796 150.829 102.786 150.96 102.816C151.047 102.834 151.129 102.869 151.202 102.919C151.274 102.969 151.336 103.033 151.384 103.107C151.432 103.181 151.464 103.264 151.479 103.35C151.494 103.437 151.492 103.526 151.472 103.611ZM161.072 105.11C160.899 105.071 160.718 105.102 160.568 105.195C160.418 105.288 160.312 105.437 160.272 105.608C160.233 105.779 160.264 105.959 160.358 106.108C160.452 106.256 160.602 106.362 160.774 106.401C160.947 106.44 161.128 106.41 161.278 106.316C161.428 106.223 161.534 106.074 161.573 105.903C161.613 105.732 161.582 105.552 161.488 105.404C161.394 105.255 161.244 105.149 161.072 105.11ZM137.52 115.057C137.347 115.018 137.166 115.049 137.016 115.142C136.867 115.235 136.76 115.384 136.721 115.555C136.681 115.726 136.712 115.906 136.806 116.055C136.9 116.203 137.05 116.309 137.222 116.348C137.395 116.387 137.576 116.357 137.726 116.263C137.876 116.17 137.982 116.021 138.022 115.85C138.061 115.679 138.03 115.499 137.936 115.351C137.842 115.202 137.692 115.096 137.52 115.057ZM147.631 117.352C147.459 117.313 147.278 117.343 147.128 117.436C146.978 117.53 146.871 117.678 146.832 117.849C146.793 118.021 146.823 118.2 146.917 118.349C147.011 118.498 147.161 118.603 147.334 118.642C147.506 118.682 147.687 118.651 147.837 118.558C147.987 118.464 148.093 118.316 148.133 118.145C148.172 117.974 148.142 117.794 148.048 117.645C147.953 117.496 147.804 117.391 147.631 117.352ZM157.742 119.646C157.614 119.617 157.479 119.626 157.356 119.673C157.233 119.719 157.126 119.801 157.05 119.908C156.973 120.015 156.93 120.142 156.927 120.273C156.923 120.404 156.958 120.533 157.029 120.643C157.099 120.754 157.2 120.842 157.321 120.896C157.441 120.949 157.575 120.966 157.705 120.944C157.835 120.922 157.956 120.863 158.052 120.773C158.148 120.683 158.215 120.567 158.244 120.439C158.264 120.353 158.266 120.263 158.251 120.176C158.235 120.089 158.202 120.005 158.153 119.931C158.105 119.856 158.042 119.793 157.968 119.743C157.894 119.693 157.81 119.659 157.723 119.642L157.742 119.646ZM167.854 121.94C167.725 121.911 167.591 121.921 167.467 121.967C167.344 122.014 167.237 122.096 167.161 122.203C167.084 122.309 167.042 122.436 167.038 122.567C167.034 122.698 167.07 122.827 167.14 122.938C167.21 123.049 167.312 123.137 167.432 123.19C167.553 123.244 167.686 123.261 167.816 123.239C167.946 123.217 168.067 123.157 168.163 123.067C168.259 122.977 168.326 122.861 168.355 122.733C168.377 122.647 168.38 122.557 168.365 122.469C168.35 122.381 168.317 122.298 168.268 122.223C168.22 122.148 168.156 122.084 168.081 122.035C168.006 121.985 167.922 121.952 167.834 121.936L167.854 121.94ZM144.306 108.694C144.176 108.665 144.039 108.674 143.914 108.722C143.789 108.769 143.681 108.852 143.603 108.96C143.526 109.069 143.482 109.198 143.478 109.33C143.475 109.463 143.511 109.594 143.582 109.707C143.653 109.819 143.756 109.909 143.879 109.963C144.001 110.017 144.136 110.034 144.269 110.012C144.401 109.99 144.523 109.929 144.621 109.838C144.718 109.747 144.786 109.629 144.816 109.499C144.836 109.412 144.838 109.321 144.822 109.232C144.807 109.144 144.773 109.059 144.724 108.984C144.674 108.908 144.61 108.843 144.535 108.793C144.46 108.742 144.376 108.707 144.287 108.69L144.306 108.694ZM154.418 110.989C154.253 110.972 154.088 111.015 153.954 111.111C153.819 111.207 153.725 111.348 153.688 111.507C153.651 111.667 153.674 111.835 153.754 111.979C153.833 112.123 153.962 112.234 154.118 112.289C154.282 112.306 154.447 112.263 154.582 112.167C154.716 112.072 154.811 111.931 154.848 111.771C154.884 111.611 154.861 111.443 154.782 111.299C154.703 111.155 154.573 111.045 154.418 110.989ZM164.529 113.283C164.364 113.266 164.199 113.31 164.065 113.405C163.931 113.501 163.836 113.642 163.799 113.802C163.762 113.962 163.786 114.13 163.865 114.274C163.944 114.418 164.074 114.528 164.229 114.584C164.394 114.601 164.559 114.557 164.693 114.462C164.827 114.366 164.922 114.225 164.959 114.065C164.996 113.905 164.972 113.737 164.893 113.593C164.814 113.449 164.684 113.339 164.529 113.283ZM134.173 129.579C134.042 129.549 133.905 129.559 133.78 129.606C133.654 129.654 133.546 129.738 133.469 129.847C133.391 129.956 133.348 130.085 133.345 130.219C133.342 130.352 133.379 130.483 133.451 130.596C133.524 130.708 133.628 130.797 133.751 130.85C133.874 130.903 134.011 130.919 134.143 130.895C134.275 130.872 134.397 130.809 134.494 130.716C134.59 130.624 134.657 130.504 134.685 130.374C134.722 130.201 134.689 130.021 134.593 129.872C134.498 129.724 134.347 129.618 134.173 129.579ZM144.284 131.873C144.153 131.843 144.016 131.853 143.891 131.901C143.766 131.949 143.657 132.032 143.58 132.141C143.502 132.25 143.459 132.38 143.456 132.513C143.453 132.646 143.49 132.778 143.563 132.89C143.635 133.002 143.739 133.091 143.862 133.144C143.986 133.198 144.122 133.213 144.254 133.19C144.386 133.166 144.509 133.104 144.605 133.011C144.702 132.918 144.768 132.799 144.796 132.668C144.815 132.581 144.816 132.491 144.799 132.404C144.783 132.316 144.749 132.233 144.699 132.158C144.65 132.084 144.586 132.02 144.511 131.97C144.437 131.92 144.353 131.886 144.265 131.869L144.284 131.873ZM154.396 134.168C154.265 134.136 154.127 134.144 154.001 134.19C153.874 134.236 153.764 134.319 153.686 134.427C153.607 134.536 153.562 134.665 153.558 134.799C153.554 134.933 153.59 135.064 153.661 135.178C153.733 135.291 153.837 135.381 153.96 135.435C154.084 135.489 154.22 135.506 154.353 135.482C154.486 135.459 154.609 135.397 154.705 135.304C154.802 135.211 154.869 135.091 154.897 134.961C154.916 134.874 154.917 134.785 154.901 134.698C154.885 134.612 154.852 134.529 154.803 134.455C154.755 134.381 154.692 134.317 154.619 134.267C154.545 134.217 154.463 134.181 154.376 134.163L154.396 134.168ZM164.507 136.462C164.376 136.43 164.238 136.438 164.112 136.484C163.985 136.531 163.876 136.613 163.797 136.722C163.718 136.83 163.673 136.96 163.669 137.093C163.665 137.227 163.701 137.359 163.772 137.472C163.844 137.586 163.948 137.675 164.072 137.729C164.195 137.783 164.332 137.8 164.464 137.777C164.597 137.753 164.72 137.691 164.817 137.598C164.914 137.505 164.98 137.386 165.009 137.255C165.029 137.169 165.031 137.079 165.015 136.992C165 136.904 164.967 136.821 164.918 136.747C164.869 136.672 164.806 136.608 164.732 136.559C164.658 136.509 164.575 136.475 164.487 136.458L164.507 136.462ZM130.846 120.931L130.758 120.911C130.599 121.311 130.473 121.723 130.38 122.143C130.437 122.166 130.497 122.18 130.558 122.183C130.73 122.222 130.911 122.192 131.061 122.098C131.211 122.005 131.317 121.856 131.357 121.685C131.396 121.514 131.366 121.334 131.272 121.186C131.178 121.037 131.028 120.931 130.855 120.892L130.846 120.931ZM140.957 123.226C140.829 123.198 140.695 123.21 140.573 123.258C140.45 123.306 140.345 123.389 140.27 123.496C140.195 123.603 140.154 123.73 140.151 123.861C140.149 123.991 140.185 124.119 140.256 124.229C140.327 124.339 140.429 124.426 140.549 124.479C140.67 124.532 140.803 124.548 140.932 124.526C141.062 124.503 141.182 124.443 141.278 124.354C141.373 124.264 141.44 124.148 141.469 124.021C141.488 123.934 141.489 123.844 141.472 123.756C141.456 123.669 141.422 123.585 141.372 123.511C141.323 123.436 141.259 123.372 141.184 123.323C141.11 123.273 141.026 123.238 140.938 123.221L140.957 123.226ZM151.069 125.52C150.896 125.481 150.715 125.511 150.565 125.605C150.415 125.698 150.309 125.847 150.269 126.018C150.23 126.189 150.261 126.369 150.355 126.517C150.449 126.666 150.599 126.772 150.771 126.811C150.944 126.85 151.125 126.82 151.275 126.726C151.425 126.633 151.531 126.484 151.57 126.313C151.61 126.142 151.579 125.962 151.485 125.813C151.391 125.665 151.241 125.559 151.069 125.52ZM161.18 127.814C161.007 127.775 160.826 127.806 160.676 127.899C160.527 127.992 160.42 128.141 160.381 128.312C160.341 128.483 160.372 128.663 160.466 128.812C160.56 128.961 160.71 129.066 160.882 129.105C161.055 129.144 161.236 129.114 161.386 129.021C161.536 128.927 161.642 128.779 161.682 128.607C161.721 128.436 161.69 128.257 161.596 128.108C161.502 127.959 161.352 127.854 161.18 127.814ZM170.527 130.501C170.513 130.536 170.505 130.572 170.502 130.609C170.477 130.712 170.478 130.82 170.505 130.923C170.532 131.026 170.584 131.121 170.656 131.2C170.575 130.965 170.546 130.732 170.509 130.487L170.527 130.501ZM130.822 144.12C130.693 144.093 130.559 144.104 130.437 144.152C130.315 144.2 130.21 144.283 130.135 144.39C130.06 144.497 130.019 144.624 130.016 144.755C130.014 144.885 130.05 145.014 130.121 145.124C130.192 145.234 130.293 145.32 130.414 145.373C130.534 145.426 130.667 145.442 130.797 145.42C130.927 145.397 131.047 145.338 131.142 145.248C131.238 145.158 131.304 145.042 131.334 144.915C131.371 144.742 131.338 144.562 131.242 144.413C131.146 144.265 130.995 144.159 130.822 144.12ZM140.933 146.414C140.805 146.387 140.671 146.398 140.548 146.446C140.426 146.494 140.321 146.577 140.246 146.685C140.171 146.792 140.13 146.919 140.127 147.049C140.125 147.18 140.161 147.308 140.232 147.418C140.303 147.528 140.405 147.615 140.525 147.668C140.645 147.72 140.779 147.736 140.908 147.714C141.038 147.692 141.158 147.632 141.253 147.542C141.349 147.452 141.415 147.337 141.445 147.209C141.464 147.122 141.465 147.032 141.448 146.945C141.431 146.857 141.397 146.774 141.348 146.699C141.298 146.625 141.235 146.561 141.16 146.511C141.085 146.462 141.002 146.427 140.914 146.41L140.933 146.414ZM151.044 148.709C150.872 148.669 150.691 148.7 150.541 148.793C150.391 148.887 150.285 149.035 150.245 149.206C150.206 149.378 150.237 149.557 150.331 149.706C150.425 149.855 150.574 149.96 150.747 149.999C150.832 150.019 150.921 150.021 151.007 150.007C151.094 149.992 151.176 149.961 151.25 149.915C151.325 149.869 151.389 149.808 151.44 149.737C151.49 149.666 151.527 149.586 151.546 149.502C151.566 149.417 151.568 149.329 151.554 149.243C151.539 149.158 151.507 149.076 151.461 149.002C151.414 148.928 151.353 148.865 151.282 148.814C151.211 148.764 151.13 148.728 151.044 148.709ZM161.156 151.003C161.027 150.974 160.893 150.983 160.769 151.03C160.646 151.076 160.539 151.158 160.463 151.265C160.387 151.372 160.344 151.499 160.34 151.63C160.336 151.76 160.372 151.89 160.442 152C160.512 152.111 160.614 152.199 160.734 152.253C160.855 152.306 160.988 152.323 161.118 152.301C161.249 152.279 161.369 152.22 161.465 152.13C161.561 152.04 161.628 151.924 161.657 151.796C161.677 151.71 161.68 151.62 161.664 151.533C161.648 151.446 161.615 151.362 161.567 151.288C161.518 151.213 161.455 151.15 161.381 151.1C161.307 151.05 161.224 151.016 161.136 150.999L161.156 151.003ZM171.227 153.288C171.099 153.259 170.964 153.269 170.841 153.315C170.718 153.362 170.611 153.444 170.535 153.551C170.458 153.657 170.416 153.784 170.412 153.915C170.408 154.046 170.443 154.175 170.514 154.286C170.584 154.397 170.686 154.485 170.806 154.538C170.926 154.592 171.06 154.609 171.19 154.587C171.32 154.565 171.441 154.505 171.537 154.415C171.633 154.325 171.7 154.209 171.729 154.081C171.749 153.997 171.751 153.909 171.737 153.823C171.722 153.738 171.69 153.656 171.644 153.582C171.597 153.508 171.536 153.444 171.465 153.394C171.394 153.344 171.313 153.308 171.227 153.288ZM137.567 137.758C137.394 137.719 137.213 137.749 137.063 137.842C136.913 137.936 136.807 138.084 136.768 138.256C136.728 138.427 136.759 138.606 136.853 138.755C136.947 138.904 137.097 139.009 137.269 139.049C137.442 139.088 137.623 139.057 137.773 138.964C137.923 138.871 138.029 138.722 138.068 138.551C138.108 138.38 138.077 138.2 137.983 138.051C137.889 137.902 137.739 137.797 137.567 137.758ZM147.678 140.052C147.549 140.023 147.415 140.032 147.292 140.079C147.168 140.126 147.062 140.207 146.985 140.314C146.909 140.421 146.866 140.548 146.862 140.679C146.859 140.81 146.894 140.939 146.964 141.05C147.034 141.16 147.136 141.248 147.256 141.302C147.377 141.355 147.511 141.372 147.641 141.35C147.771 141.328 147.892 141.269 147.987 141.179C148.083 141.089 148.15 140.973 148.18 140.845C148.221 140.676 148.195 140.498 148.105 140.348C148.015 140.199 147.87 140.091 147.7 140.047L147.678 140.052ZM157.789 142.347C157.661 142.317 157.526 142.327 157.403 142.373C157.279 142.42 157.173 142.502 157.096 142.609C157.02 142.715 156.977 142.842 156.974 142.973C156.97 143.104 157.005 143.233 157.075 143.344C157.146 143.455 157.247 143.543 157.368 143.596C157.488 143.65 157.622 143.667 157.752 143.645C157.882 143.623 158.003 143.563 158.099 143.473C158.195 143.383 158.261 143.267 158.291 143.14C158.333 142.971 158.306 142.792 158.216 142.643C158.126 142.493 157.981 142.385 157.811 142.341L157.789 142.347ZM167.9 144.641C167.772 144.612 167.637 144.621 167.514 144.668C167.391 144.714 167.284 144.796 167.208 144.903C167.131 145.01 167.089 145.137 167.085 145.268C167.081 145.398 167.116 145.527 167.187 145.638C167.257 145.749 167.358 145.837 167.479 145.891C167.599 145.944 167.733 145.961 167.863 145.939C167.993 145.917 168.114 145.858 168.21 145.768C168.306 145.678 168.373 145.562 168.402 145.434C168.424 145.35 168.429 145.263 168.417 145.177C168.405 145.092 168.375 145.009 168.331 144.935C168.286 144.861 168.227 144.796 168.157 144.745C168.087 144.693 168.007 144.656 167.922 144.636L167.9 144.641ZM124.489 150.225L124.099 151.289C124.225 151.262 124.341 151.199 124.433 151.109C124.526 151.019 124.591 150.905 124.62 150.78C124.646 150.685 124.65 150.585 124.631 150.488C124.612 150.391 124.571 150.299 124.511 150.22L124.489 150.225ZM134.22 152.279C134.089 152.25 133.952 152.259 133.827 152.307C133.701 152.355 133.593 152.438 133.515 152.547C133.438 152.656 133.395 152.786 133.392 152.919C133.389 153.052 133.426 153.184 133.498 153.296C133.571 153.408 133.675 153.497 133.798 153.55C133.921 153.604 134.058 153.62 134.19 153.596C134.322 153.572 134.444 153.51 134.541 153.417C134.637 153.324 134.704 153.205 134.732 153.074C134.771 152.904 134.742 152.725 134.65 152.576C134.559 152.426 134.413 152.318 134.242 152.274L134.22 152.279ZM144.331 154.574C144.2 154.542 144.063 154.55 143.936 154.596C143.81 154.642 143.7 154.725 143.621 154.833C143.542 154.942 143.498 155.071 143.494 155.205C143.489 155.339 143.525 155.471 143.597 155.584C143.669 155.697 143.773 155.787 143.896 155.841C144.019 155.895 144.156 155.912 144.289 155.888C144.421 155.865 144.544 155.803 144.641 155.71C144.738 155.617 144.805 155.497 144.833 155.367C144.872 155.198 144.844 155.021 144.755 154.872C144.665 154.723 144.521 154.614 144.353 154.568L144.331 154.574ZM154.442 156.868C154.312 156.836 154.174 156.844 154.048 156.89C153.921 156.937 153.811 157.019 153.732 157.128C153.654 157.236 153.609 157.366 153.605 157.499C153.6 157.633 153.636 157.765 153.708 157.878C153.78 157.992 153.884 158.081 154.007 158.135C154.13 158.19 154.267 158.206 154.4 158.183C154.533 158.159 154.655 158.097 154.752 158.004C154.849 157.911 154.916 157.792 154.944 157.661C154.983 157.492 154.955 157.315 154.866 157.166C154.776 157.018 154.633 156.909 154.464 156.863L154.442 156.868ZM164.554 159.162C164.423 159.131 164.285 159.138 164.159 159.185C164.032 159.231 163.923 159.314 163.844 159.422C163.765 159.531 163.72 159.66 163.716 159.794C163.712 159.927 163.748 160.059 163.819 160.173C163.891 160.286 163.995 160.375 164.118 160.43C164.242 160.484 164.378 160.5 164.511 160.477C164.644 160.454 164.767 160.392 164.864 160.299C164.96 160.206 165.027 160.086 165.055 159.955C165.097 159.787 165.07 159.608 164.98 159.459C164.891 159.309 164.745 159.201 164.576 159.157L164.554 159.162ZM174.217 161.51C174.129 161.553 174.052 161.616 173.991 161.693C173.93 161.77 173.888 161.859 173.866 161.955C173.827 162.119 173.852 162.291 173.936 162.437C174.019 162.584 174.155 162.694 174.316 162.746C174.318 162.376 174.28 161.956 174.239 161.504L174.217 161.51Z" fill="white"/>
<path d="M139.943 110.616C138.531 111.819 137.182 113.093 135.901 114.432C136.488 113.639 137.046 112.84 137.559 112.01C137.559 112.01 137.572 111.951 137.499 111.996C137.026 112.568 136.554 113.13 136.122 113.742C135.691 114.354 135.365 114.825 135.01 115.372C133.411 116.88 132.023 118.593 130.881 120.465C130.005 122.213 129.601 124.156 129.706 126.105C129.747 127.098 129.895 128.084 130.148 129.046C130.338 129.915 130.659 130.751 131.101 131.526C130.315 133.406 129.638 135.31 128.944 137.149C128.195 138.96 127.559 140.816 127.041 142.706C127.014 142.823 127.179 142.871 127.248 142.753L127.461 142.369C127.461 142.369 127.461 142.369 127.475 142.31C128.302 140.656 128.898 138.878 129.553 137.163C130.207 135.449 131.579 131.655 131.584 131.635C131.588 131.616 131.069 129.821 130.89 129.019C130.686 128.031 130.57 127.026 130.545 126.018C130.425 124.105 130.826 122.195 131.705 120.488C132.801 118.691 134.107 117.029 135.595 115.536C137.068 113.915 138.568 112.311 140.075 110.718C140.097 110.672 140.009 110.559 139.943 110.616Z" fill="#263238"/>
<path d="M144.924 132.543L112.77 143.082L126.596 184.617L158.75 174.079L144.924 132.543Z" fill="#263238"/>
<path d="M119.896 141.924L135.053 136.921L133.524 132.362L118.368 137.365L119.896 141.924Z" fill="#A6A6A6"/>
<path d="M121.816 136.221L123.68 135.605L122.972 133.499L127.516 132.009L128.216 134.102L130.077 133.496L128.792 129.665L120.508 132.405L121.816 136.221Z" fill="#A6A6A6"/>
<path d="M164.191 106.878C173.426 118.822 191.203 147.161 185.496 153.563C176.191 164.108 153.574 173.465 146.514 175.3C143.437 176.094 132.723 154.142 135.585 152.342C139.046 150.195 163.371 142.338 163.258 140.264C163.195 139.097 160.466 129.34 158.14 116.753C155.453 102.179 159.786 101.197 164.191 106.878Z" fill="#D3766A"/>
<path d="M110.869 158.114C110.79 158.898 110.954 159.688 111.34 160.377C111.727 161.067 112.316 161.622 113.03 161.969C112.164 162.998 111.689 164.296 111.687 165.636C111.798 167.987 115.571 168.853 115.571 168.853C114.897 170.102 114.62 171.525 114.776 172.933C115.108 175.18 118.796 176.593 118.796 176.593C118.819 178.079 119.381 179.507 120.378 180.615C123.161 183.48 129.146 182.214 132.971 181.414C136.795 180.615 146.908 174.935 148.911 174.031L144.149 149.695C144.149 149.695 126.061 148.307 121.705 149.84C118.062 151.112 111.289 155.122 110.869 158.114Z" fill="#D3766A"/>
<path d="M113.129 161.498C116.692 159.22 120.76 158.085 124.747 156.715C124.837 156.684 124.888 156.82 124.798 156.851C120.818 158.15 117.138 160.257 113.221 161.684C113.196 161.696 113.167 161.698 113.141 161.689C113.115 161.68 113.093 161.661 113.081 161.637C113.069 161.612 113.067 161.584 113.076 161.558C113.085 161.532 113.104 161.511 113.129 161.498Z" fill="#263238"/>
<path d="M115.602 168.449C116.464 168.004 117.38 167.673 118.329 167.463C119.316 167.183 120.318 166.885 121.312 166.668C123.301 166.166 125.309 165.716 127.337 165.319C127.416 165.337 127.467 165.431 127.379 165.452C125.385 165.956 123.407 166.485 121.447 167.069C120.455 167.369 119.478 167.651 118.501 167.975C117.595 168.322 116.655 168.57 115.696 168.718C115.664 168.717 115.634 168.708 115.608 168.689C115.583 168.671 115.563 168.646 115.553 168.616C115.543 168.587 115.542 168.555 115.551 168.525C115.559 168.495 115.577 168.469 115.602 168.449Z" fill="#263238"/>
<path d="M143.698 148.503L154.803 173.887C154.803 173.887 182.385 161.305 186.815 152.658C190.792 144.896 170.461 113.96 165.781 107.897C161.101 101.834 156.511 100.916 157.204 111.096C157.896 121.276 162.502 139.763 162.501 140.081C162.5 140.4 143.698 148.503 143.698 148.503Z" fill="#FABC1B"/>
<path d="M161.573 105.903C161.534 106.074 161.427 106.223 161.278 106.316C161.128 106.409 160.947 106.44 160.774 106.401C160.602 106.362 160.452 106.256 160.358 106.107C160.264 105.959 160.233 105.779 160.272 105.608C160.312 105.437 160.418 105.288 160.568 105.195C160.718 105.101 160.899 105.071 161.072 105.11C161.244 105.149 161.394 105.255 161.488 105.403C161.582 105.552 161.613 105.732 161.573 105.903ZM167.834 121.936C167.705 121.906 167.571 121.916 167.447 121.962C167.324 122.009 167.217 122.091 167.141 122.198C167.065 122.304 167.022 122.431 167.018 122.562C167.014 122.693 167.05 122.822 167.12 122.933C167.19 123.044 167.292 123.132 167.412 123.185C167.533 123.239 167.666 123.256 167.797 123.234C167.927 123.212 168.047 123.152 168.143 123.062C168.239 122.972 168.306 122.856 168.335 122.729C168.356 122.644 168.36 122.556 168.346 122.47C168.332 122.383 168.301 122.301 168.254 122.227C168.207 122.153 168.146 122.089 168.074 122.039C168.001 121.989 167.92 121.954 167.834 121.936ZM164.509 113.278C164.345 113.262 164.18 113.305 164.045 113.401C163.911 113.496 163.816 113.637 163.779 113.797C163.742 113.957 163.766 114.125 163.845 114.269C163.924 114.413 164.054 114.523 164.209 114.579C164.374 114.596 164.539 114.552 164.673 114.457C164.807 114.361 164.902 114.22 164.939 114.06C164.976 113.9 164.952 113.733 164.873 113.588C164.794 113.444 164.664 113.334 164.509 113.278ZM164.487 136.457C164.356 136.425 164.219 136.433 164.092 136.479C163.966 136.526 163.856 136.608 163.777 136.717C163.698 136.825 163.654 136.955 163.649 137.088C163.645 137.222 163.681 137.354 163.753 137.467C163.824 137.581 163.928 137.67 164.052 137.724C164.175 137.779 164.312 137.795 164.444 137.772C164.577 137.749 164.7 137.686 164.797 137.593C164.894 137.501 164.961 137.381 164.989 137.25C165.008 137.165 165.011 137.078 164.996 136.992C164.981 136.906 164.95 136.824 164.903 136.751C164.857 136.677 164.796 136.613 164.725 136.563C164.653 136.512 164.572 136.477 164.487 136.457ZM174.598 138.752C174.467 138.72 174.33 138.728 174.203 138.774C174.077 138.82 173.967 138.903 173.888 139.011C173.809 139.12 173.765 139.249 173.761 139.383C173.756 139.517 173.792 139.648 173.864 139.762C173.936 139.875 174.04 139.965 174.163 140.019C174.286 140.073 174.423 140.09 174.556 140.066C174.688 140.043 174.811 139.981 174.908 139.888C175.005 139.795 175.072 139.675 175.1 139.545C175.12 139.458 175.122 139.369 175.107 139.281C175.091 139.194 175.058 139.111 175.009 139.036C174.961 138.962 174.898 138.898 174.824 138.848C174.75 138.799 174.666 138.764 174.579 138.747L174.598 138.752ZM184.709 141.046C184.545 141.029 184.38 141.073 184.246 141.168C184.111 141.264 184.017 141.405 183.98 141.565C183.943 141.725 183.966 141.892 184.046 142.036C184.125 142.18 184.254 142.291 184.41 142.347C184.574 142.363 184.739 142.32 184.874 142.224C185.008 142.129 185.103 141.988 185.139 141.828C185.176 141.668 185.153 141.5 185.074 141.356C184.994 141.212 184.865 141.102 184.709 141.046ZM161.16 127.81C160.988 127.771 160.806 127.801 160.657 127.894C160.507 127.988 160.4 128.136 160.361 128.307C160.321 128.479 160.352 128.658 160.446 128.807C160.54 128.956 160.69 129.061 160.863 129.1C161.035 129.14 161.216 129.109 161.366 129.016C161.516 128.922 161.622 128.774 161.662 128.603C161.701 128.431 161.67 128.252 161.576 128.103C161.482 127.954 161.333 127.849 161.16 127.81ZM171.271 130.104C171.143 130.075 171.008 130.084 170.885 130.131C170.761 130.177 170.655 130.259 170.578 130.366C170.502 130.473 170.459 130.6 170.456 130.731C170.452 130.861 170.487 130.991 170.557 131.101C170.628 131.212 170.729 131.3 170.85 131.354C170.97 131.407 171.104 131.424 171.234 131.402C171.364 131.38 171.485 131.321 171.581 131.231C171.677 131.141 171.743 131.025 171.773 130.897C171.792 130.812 171.795 130.725 171.78 130.639C171.766 130.553 171.734 130.471 171.688 130.397C171.641 130.324 171.58 130.26 171.509 130.21C171.437 130.159 171.357 130.123 171.271 130.104ZM181.63 133.576C181.52 133.656 181.388 133.701 181.252 133.705C181.116 133.709 180.982 133.671 180.868 133.597C180.754 133.523 180.666 133.416 180.615 133.291C180.564 133.166 180.553 133.028 180.583 132.896C180.609 132.783 180.664 132.678 180.744 132.593C180.824 132.508 180.925 132.446 181.037 132.413L181.63 133.576ZM151.025 148.704C150.852 148.665 150.671 148.695 150.521 148.789C150.371 148.882 150.265 149.03 150.225 149.202C150.186 149.373 150.217 149.553 150.311 149.701C150.405 149.85 150.555 149.956 150.727 149.995C150.813 150.014 150.901 150.017 150.987 150.002C151.074 149.987 151.156 149.956 151.231 149.91C151.305 149.864 151.369 149.803 151.42 149.733C151.471 149.662 151.507 149.582 151.526 149.497C151.546 149.412 151.548 149.324 151.534 149.239C151.519 149.153 151.488 149.071 151.441 148.997C151.394 148.924 151.334 148.86 151.262 148.809C151.191 148.759 151.11 148.723 151.025 148.704ZM161.136 150.998C161.007 150.969 160.873 150.978 160.749 151.025C160.626 151.072 160.519 151.154 160.443 151.26C160.367 151.367 160.324 151.494 160.32 151.625C160.316 151.756 160.352 151.885 160.422 151.996C160.492 152.107 160.594 152.194 160.714 152.248C160.835 152.301 160.968 152.318 161.099 152.296C161.229 152.275 161.349 152.215 161.445 152.125C161.541 152.035 161.608 151.919 161.638 151.791C161.677 151.62 161.646 151.44 161.552 151.292C161.458 151.143 161.308 151.037 161.136 150.998ZM171.227 153.288C171.099 153.259 170.964 153.268 170.841 153.315C170.718 153.362 170.611 153.443 170.535 153.55C170.458 153.657 170.415 153.784 170.412 153.915C170.408 154.046 170.443 154.175 170.513 154.286C170.584 154.396 170.685 154.484 170.806 154.538C170.926 154.591 171.06 154.608 171.19 154.586C171.32 154.564 171.441 154.505 171.537 154.415C171.633 154.325 171.7 154.209 171.729 154.081C171.749 153.996 171.751 153.909 171.736 153.823C171.722 153.737 171.69 153.655 171.644 153.582C171.597 153.508 171.536 153.444 171.465 153.394C171.393 153.343 171.313 153.308 171.227 153.288ZM181.339 155.583C181.21 155.553 181.075 155.563 180.952 155.609C180.829 155.656 180.722 155.738 180.646 155.845C180.569 155.951 180.527 156.078 180.523 156.209C180.519 156.34 180.555 156.469 180.625 156.58C180.695 156.691 180.797 156.779 180.917 156.832C181.037 156.886 181.171 156.903 181.301 156.881C181.431 156.859 181.552 156.799 181.648 156.709C181.744 156.619 181.811 156.503 181.84 156.376C181.879 156.208 181.85 156.032 181.76 155.884C181.67 155.737 181.526 155.63 181.358 155.587L181.339 155.583ZM157.789 142.346C157.66 142.317 157.526 142.326 157.403 142.373C157.279 142.42 157.173 142.502 157.096 142.608C157.02 142.715 156.977 142.842 156.973 142.973C156.97 143.104 157.005 143.233 157.075 143.344C157.145 143.455 157.247 143.542 157.368 143.596C157.488 143.649 157.622 143.666 157.752 143.644C157.882 143.623 158.003 143.563 158.099 143.473C158.194 143.383 158.261 143.267 158.291 143.139C158.332 142.97 158.306 142.792 158.216 142.643C158.126 142.493 157.981 142.385 157.811 142.341L157.789 142.346ZM167.9 144.641C167.772 144.611 167.637 144.621 167.514 144.667C167.391 144.714 167.284 144.796 167.208 144.903C167.131 145.009 167.088 145.136 167.085 145.267C167.081 145.398 167.116 145.527 167.186 145.638C167.257 145.749 167.358 145.837 167.479 145.89C167.599 145.944 167.733 145.961 167.863 145.939C167.993 145.917 168.114 145.857 168.21 145.767C168.306 145.677 168.373 145.561 168.402 145.434C168.424 145.35 168.429 145.263 168.417 145.177C168.405 145.091 168.375 145.009 168.331 144.935C168.286 144.86 168.227 144.796 168.157 144.744C168.087 144.693 168.007 144.656 167.922 144.635L167.9 144.641ZM178.012 146.935C177.839 146.896 177.658 146.926 177.508 147.02C177.358 147.113 177.252 147.262 177.212 147.433C177.173 147.604 177.204 147.784 177.298 147.932C177.392 148.081 177.542 148.187 177.714 148.226C177.887 148.265 178.068 148.235 178.218 148.141C178.367 148.048 178.474 147.899 178.513 147.728C178.553 147.557 178.522 147.377 178.428 147.228C178.334 147.08 178.184 146.974 178.012 146.935ZM157.769 165.515C157.639 165.484 157.502 165.491 157.376 165.537C157.249 165.583 157.14 165.665 157.061 165.773C156.982 165.881 156.937 166.009 156.932 166.143C156.927 166.276 156.962 166.408 157.032 166.521C157.103 166.635 157.206 166.725 157.328 166.78C157.45 166.835 157.587 166.853 157.719 166.831C157.852 166.809 157.975 166.749 158.073 166.658C158.171 166.566 158.239 166.448 158.269 166.318C158.291 166.234 158.296 166.146 158.284 166.06C158.272 165.974 158.243 165.891 158.199 165.816C158.155 165.741 158.096 165.675 158.026 165.623C157.956 165.57 157.876 165.532 157.791 165.51L157.769 165.515ZM154.442 156.868C154.311 156.836 154.174 156.844 154.047 156.89C153.921 156.936 153.811 157.019 153.732 157.127C153.653 157.236 153.609 157.365 153.605 157.499C153.6 157.633 153.636 157.765 153.708 157.878C153.78 157.991 153.884 158.081 154.007 158.135C154.13 158.189 154.267 158.206 154.4 158.182C154.532 158.159 154.655 158.097 154.752 158.004C154.849 157.911 154.916 157.792 154.944 157.661C154.983 157.492 154.955 157.315 154.866 157.166C154.776 157.017 154.633 156.909 154.464 156.862L154.442 156.868ZM164.554 159.162C164.423 159.13 164.285 159.138 164.159 159.184C164.032 159.231 163.922 159.313 163.843 159.422C163.765 159.53 163.72 159.66 163.716 159.793C163.711 159.927 163.747 160.059 163.819 160.172C163.891 160.286 163.995 160.375 164.118 160.429C164.241 160.484 164.378 160.5 164.511 160.477C164.644 160.453 164.766 160.391 164.863 160.298C164.96 160.206 165.027 160.086 165.055 159.955C165.097 159.786 165.07 159.608 164.98 159.458C164.891 159.309 164.745 159.201 164.576 159.157L164.554 159.162ZM174.665 161.457C174.5 161.44 174.335 161.483 174.201 161.579C174.067 161.674 173.972 161.815 173.935 161.975C173.898 162.135 173.922 162.303 174.001 162.447C174.08 162.591 174.21 162.701 174.365 162.757C174.53 162.774 174.694 162.73 174.829 162.635C174.963 162.539 175.058 162.398 175.095 162.238C175.132 162.078 175.108 161.911 175.029 161.767C174.95 161.623 174.82 161.512 174.665 161.457Z" fill="white"/>
<path d="M155.509 157.954C154.702 156.011 151.374 148.361 150.346 146.564C150.297 146.553 150.228 146.537 150.242 146.613C150.815 148.626 153.948 156.406 154.796 158.348C156.425 162.216 158.003 166.124 159.983 169.815C160.029 169.887 160.161 169.855 160.142 169.758C158.845 165.708 157.143 161.803 155.509 157.954Z" fill="#263238"/>
<path d="M160.287 128.764C159.478 124.897 158.747 121.006 158.003 117.122C158.019 117.054 157.855 117.089 157.885 117.095C158.111 119.294 158.405 121.484 158.766 123.665C158.381 122.548 158.025 121.439 157.702 120.275C157.72 120.196 157.554 120.241 157.58 120.309C157.877 121.826 158.331 123.308 158.935 124.732C159.16 126.049 159.364 127.371 159.661 128.694C160.046 130.623 161.944 139.08 162.233 140.031C158.954 141.211 156.07 142.656 152.872 144.019C151.307 144.693 149.741 145.367 148.195 146.045C146.565 146.662 144.976 147.38 143.437 148.196C143.352 148.249 143.655 148.647 143.754 148.845C143.854 149.042 143.961 148.892 143.926 148.822L143.834 148.544C144.61 148.329 147.716 146.955 148.518 146.623L153.205 144.599C156.376 143.261 162.976 140.405 162.966 140.362C162.811 139.504 160.675 130.725 160.287 128.764Z" fill="#263238"/>
<path d="M159.521 103.873C159.107 104.726 153.493 109.647 149.387 108.561C148.037 108.254 149.687 100.87 149.687 100.87L149.673 100.301L149.629 92.3467L159.838 88.5508L161.297 88.069C161.297 88.069 161.167 90.2519 160.979 92.9568L160.95 93.3516C160.95 93.4974 160.941 93.643 160.922 93.7877C160.901 94.1945 160.878 94.6111 160.847 95.0157C160.816 95.4202 160.796 95.6421 160.763 95.964L160.656 96.9687C160.439 99.2933 160.059 101.6 159.521 103.873Z" fill="#D3766A"/>
<path d="M161.009 92.9635C159.771 94.9308 158.115 96.6064 156.157 97.8736C154.199 99.1408 151.987 99.9691 149.673 100.301L149.629 92.3467L159.838 88.5508L161.297 88.069C161.297 88.069 161.188 90.2977 161.009 92.9635Z" fill="#263238"/>
<path d="M141.549 75.7981C134.601 87.9486 141.184 93.4453 143.831 94.9206C146.237 96.2692 154.578 100.529 162.729 89.1451C170.88 77.7615 167.372 70.7091 162.042 67.3797C156.711 64.0504 148.47 63.6313 141.549 75.7981Z" fill="#D3766A"/>
<path d="M144.476 74.6616C144.792 74.7331 145.097 74.8025 145.448 74.9439C145.766 75.0889 146.123 75.1229 146.463 75.0404C146.562 74.9936 146.643 74.9169 146.694 74.8214C146.746 74.7259 146.766 74.6165 146.751 74.509C146.683 74.2986 146.559 74.1102 146.392 73.9638C146.225 73.8173 146.021 73.718 145.802 73.6763C145.376 73.5258 144.908 73.5369 144.489 73.7074C144.398 73.7501 144.322 73.817 144.268 73.9007C144.214 73.9843 144.184 74.0813 144.183 74.1806C144.182 74.28 144.208 74.3777 144.26 74.4627C144.312 74.5477 144.387 74.6166 144.476 74.6616Z" fill="#263238"/>
<path d="M153.046 79.1895C152.782 78.9993 152.532 78.7913 152.297 78.5669C152.003 78.3864 151.778 78.1146 151.656 77.7938C151.641 77.6863 151.661 77.5769 151.713 77.4814C151.765 77.3859 151.846 77.3092 151.944 77.2624C152.156 77.1944 152.382 77.1845 152.599 77.2337C152.816 77.2829 153.016 77.3894 153.176 77.5419C153.538 77.8088 153.788 78.199 153.878 78.6375C153.909 78.7437 153.904 78.8569 153.866 78.9607C153.828 79.0644 153.757 79.1534 153.665 79.2148C153.572 79.2762 153.462 79.3069 153.351 79.3023C153.24 79.2978 153.133 79.2583 153.046 79.1895Z" fill="#263238"/>
<path d="M149.392 81.1386C149.392 81.1386 149.438 81.2107 149.37 81.2364C148.871 82.0494 148.436 83.0826 149.036 83.7641C149.036 83.7641 149.023 83.8228 149.036 83.7641C148.21 83.165 148.798 81.827 149.392 81.1386Z" fill="#263238"/>
<path d="M150.624 80.6978C152.018 81.3537 150.602 84.0782 149.307 83.486C148.013 82.8938 149.465 80.1467 150.624 80.6978Z" fill="#263238"/>
<path d="M151.099 81.1144C151.264 81.3885 151.35 81.7786 151.631 81.9555C151.912 82.1324 152.345 82.0044 152.695 81.8368C152.695 81.8368 152.745 81.848 152.695 81.8368C152.429 82.3629 151.945 82.7984 151.346 82.5598C150.748 82.3211 150.67 81.7167 150.807 81.1202C150.873 81.1043 151.033 80.9965 151.099 81.1144Z" fill="#263238"/>
<path d="M144.756 78.533C144.756 78.533 144.677 78.5151 144.651 78.5813C144.247 79.4363 143.619 80.4052 142.721 80.2528L142.71 80.3017C143.71 80.6418 144.511 79.4139 144.756 78.533Z" fill="#263238"/>
<path d="M144.453 77.2391C143.122 76.4432 141.622 79.1281 142.813 79.8513C144.005 80.5745 145.548 77.9301 144.453 77.2391Z" fill="#263238"/>
<path d="M143.792 77.0893C143.496 77.1147 143.14 77.2605 142.868 77.137C142.596 77.0135 142.509 76.5821 142.474 76.1934C142.474 76.1934 142.474 76.1934 142.424 76.1822C142.121 76.6896 141.996 77.3199 142.44 77.6882C142.884 78.0565 143.455 77.7847 143.831 77.3246C143.887 77.3064 143.9 77.1139 143.792 77.0893Z" fill="#263238"/>
<path d="M145.885 88.1227C145.59 88.2308 145.246 88.4202 144.92 88.305C144.597 88.15 144.312 87.9274 144.085 87.6525C144.085 87.6525 144.026 87.6391 144.036 87.6414C144.081 87.8679 144.187 88.078 144.343 88.2494C144.499 88.4207 144.699 88.5468 144.921 88.6141C145.12 88.6501 145.325 88.6261 145.51 88.5451C145.695 88.4642 145.852 88.3301 145.959 88.1601C145.959 88.1601 145.929 88.1121 145.885 88.1227Z" fill="#263238"/>
<path d="M143.34 85.0339C143.413 85.6964 143.657 86.329 144.047 86.8716C144.272 87.1659 144.585 87.3812 144.942 87.4864C145.709 87.712 146.065 87.1135 146.291 86.5372C146.405 86.2212 146.481 85.893 146.517 85.5593C145.428 85.7267 144.315 85.5425 143.34 85.0339Z" fill="#263238"/>
<path d="M144.017 86.8651C144.242 87.1593 144.556 87.3747 144.913 87.4799C145.68 87.7054 146.035 87.107 146.262 86.5306C145.905 86.3258 145.488 86.2473 145.08 86.3081C144.673 86.3688 144.298 86.5652 144.017 86.8651Z" fill="#FF97B8"/>
<path d="M143.976 83.2237C143.976 83.2237 143.126 84.3892 142.806 85.0162C142.792 85.0749 142.902 85.1822 143.093 85.2976C143.557 85.6592 144.113 85.8872 144.698 85.9566C145.284 86.026 145.878 85.9342 146.415 85.691C146.485 85.6556 146.446 85.5541 146.36 85.5656C145.328 85.6633 144.291 85.428 143.404 84.8947C143.447 84.7089 144.89 82.9474 144.828 82.9025C144.342 82.6941 143.83 82.5537 143.306 82.4852C144.995 80.0179 147.074 77.8349 148.725 75.349C148.742 75.3309 148.751 75.3071 148.749 75.2827C148.748 75.2583 148.737 75.2353 148.719 75.2189C148.701 75.2025 148.677 75.1939 148.652 75.1951C148.628 75.1963 148.605 75.2071 148.588 75.2252C146.288 77.4989 144.222 79.9947 142.422 82.6756C142.213 82.9986 143.672 83.237 143.976 83.2237Z" fill="#263238"/>
<path d="M161.985 88.6367C158.978 87.2854 161.198 82.6029 161.198 82.6029C161.198 82.6029 157.947 80.7334 160.243 75.183C159.07 75.9707 157.73 76.4778 156.326 76.6647C154.923 76.8515 153.495 76.7129 152.155 76.2598C151.108 75.9401 155.562 74.9749 155.562 74.9749C155.562 74.9749 149.985 76.6731 143.36 71.9899C142.887 71.6563 147.552 64.5547 154.471 64.5915C161.389 64.6282 165.831 68.4864 167.682 73.6812C167.682 73.6812 170.948 77.5094 169.598 81.6586C168.248 85.8078 163.188 89.1771 161.985 88.6367Z" fill="#263238"/>
<path d="M160.201 93.6348C159.98 93.6089 159.762 93.5594 159.551 93.4872C159.334 93.4315 159.127 93.3429 158.937 93.2245C158.689 93.0847 158.475 92.892 158.31 92.6603C158.181 92.4741 158.074 92.2737 157.992 92.0632C157.887 91.7637 157.833 91.4489 157.833 91.1319L160.107 88.0568C160.107 88.0568 164.722 85.3583 166.078 87.1684C167.434 88.9785 162.699 93.8208 160.201 93.6348Z" fill="#D3766A"/>
<path d="M164.681 88.5492C164.681 88.5492 164.67 88.5981 164.668 88.6079C163.831 88.638 163.01 88.8394 162.256 89.1996C161.502 89.5597 160.831 90.0708 160.286 90.7007C160.439 90.5844 160.617 90.503 160.805 90.4623C160.994 90.4217 161.189 90.4227 161.377 90.4654C161.566 90.5081 161.742 90.5914 161.894 90.7094C162.046 90.8273 162.17 90.9771 162.257 91.148C162.257 91.148 162.235 91.2458 162.18 91.2128C161.958 91.009 161.676 90.8796 161.376 90.8429C161.076 90.8061 160.771 90.8638 160.506 91.0078C160.064 91.251 159.65 91.5399 159.27 91.8696C159.142 91.9744 158.935 91.7936 159.057 91.6671C159.853 89.7896 162.55 87.8083 164.681 88.5492Z" fill="#263238"/>
<path d="M160.23 93.0132C160.18 93.0817 160.117 93.1397 160.045 93.184C159.972 93.2284 159.892 93.2581 159.808 93.2715C159.724 93.2849 159.638 93.2818 159.555 93.2623C159.473 93.2427 159.395 93.2072 159.326 93.1577C159.187 93.058 159.093 92.9074 159.066 92.7392C159.038 92.5711 159.08 92.399 159.18 92.2609C159.281 92.1228 159.432 92.03 159.602 92.0029C159.771 91.9758 159.945 92.0166 160.084 92.1164C160.154 92.1648 160.214 92.2268 160.259 92.2985C160.304 92.3703 160.335 92.4504 160.348 92.5341C160.362 92.6178 160.359 92.7033 160.338 92.7857C160.318 92.868 160.281 92.9453 160.23 93.0132Z" fill="white"/>
<path d="M161.904 92.6834C161.832 92.7832 161.724 92.8509 161.603 92.8716C161.481 92.8923 161.356 92.8643 161.256 92.7938C161.199 92.7617 161.149 92.7181 161.11 92.6656C161.071 92.6132 161.044 92.5532 161.03 92.4896C161.016 92.426 161.016 92.3601 161.029 92.2964C161.043 92.2327 161.07 92.1726 161.109 92.12C161.147 92.0673 161.197 92.0234 161.254 91.9911C161.311 91.9588 161.374 91.9388 161.439 91.9324C161.504 91.926 161.57 91.9334 161.633 91.9541C161.695 91.9748 161.752 92.0083 161.8 92.0525C161.85 92.0862 161.892 92.1296 161.924 92.1801C161.957 92.2305 161.978 92.2869 161.988 92.3459C161.998 92.4049 161.995 92.4652 161.981 92.5233C161.966 92.5813 161.94 92.6358 161.904 92.6834Z" fill="white"/>
<path d="M149.365 102.494L143.148 109.038L149.094 108.391L152.424 113.88L159.521 103.873L149.209 108.211L149.365 102.494Z" fill="white"/>
</svg>
