<svg width="171" height="160" viewBox="0 0 171 160" fill="none" xmlns="http://www.w3.org/2000/svg">
<path d="M83.7155 28.766L83.7892 58.1934C83.7906 58.5845 83.715 58.9721 83.5665 59.3339C83.4181 59.6957 83.1998 60.0248 82.9241 60.3022C82.6484 60.5796 82.3207 60.8 81.9598 60.9506C81.5989 61.1013 81.2118 61.1794 80.8207 61.1803L34.1493 61.3019C33.3594 61.3028 32.6013 60.9905 32.0413 60.4333C31.4814 59.8761 31.1653 59.1196 31.1624 58.3297L31.0887 28.9022C31.0867 28.1673 31.3765 27.4617 31.8945 26.9403C32.4124 26.419 33.1161 26.1245 33.851 26.1216L80.9348 26C81.299 25.999 81.6599 26.0698 81.9967 26.2083C82.3335 26.3468 82.6398 26.5502 82.898 26.8071C83.1562 27.0639 83.3613 27.3691 83.5016 27.7052C83.6419 28.0413 83.7146 28.4018 83.7155 28.766Z" fill="#455A64"/>
<path d="M43.8491 31.1496L37.0649 31.1673C36.2106 31.1696 35.5199 31.8639 35.5221 32.7183L35.5319 36.4528C35.5341 37.3071 36.2285 37.9979 37.0828 37.9957L43.8669 37.9779C44.7212 37.9757 45.412 37.2813 45.4097 36.427L45.4 32.6924C45.3977 31.8381 44.7034 31.1473 43.8491 31.1496Z" fill="white"/>
<path d="M77.6458 34.8059H73.1746C72.9288 34.8069 72.6852 34.7593 72.4578 34.6659C72.2304 34.5725 72.0236 34.4351 71.8495 34.2616C71.6753 34.0881 71.5371 33.8819 71.4428 33.6549C71.3485 33.4279 71.2999 33.1845 71.2999 32.9386C71.299 32.6928 71.3465 32.4492 71.44 32.2218C71.5334 31.9944 71.6708 31.7877 71.8442 31.6135C72.0177 31.4393 72.2239 31.3011 72.4509 31.2068C72.678 31.1125 72.9214 31.064 73.1672 31.064H77.6347C78.131 31.064 78.6071 31.2603 78.9591 31.6102C79.311 31.9601 79.5102 32.435 79.5131 32.9313C79.5136 33.177 79.4657 33.4204 79.3721 33.6475C79.2785 33.8747 79.1411 34.0812 78.9677 34.2553C78.7943 34.4294 78.5883 34.5676 78.3615 34.6621C78.1347 34.7566 77.8915 34.8054 77.6458 34.8059Z" fill="white"/>
<path d="M35.1878 44.2234L34.7827 44.4628C34.7602 44.4764 34.7332 44.4806 34.7077 44.4744C34.6822 44.4682 34.6601 44.4521 34.6464 44.4297C34.6393 44.4185 34.6346 44.4059 34.6326 44.3928C34.6306 44.3797 34.6314 44.3663 34.6348 44.3535C34.6383 44.3406 34.6444 44.3287 34.6527 44.3184C34.6611 44.308 34.6714 44.2995 34.6832 44.2934L35.2357 43.9583C35.259 43.9468 35.2857 43.9442 35.3108 43.951C35.3359 43.9577 35.3576 43.9734 35.372 43.9951C35.3793 44.0191 35.3793 44.0448 35.372 44.0688V46.6984C35.3675 46.7211 35.3554 46.7415 35.3376 46.7562C35.3198 46.7708 35.2974 46.7788 35.2744 46.7788C35.2513 46.7788 35.2289 46.7708 35.2111 46.7562C35.1933 46.7415 35.1812 46.7211 35.1768 46.6984L35.1878 44.2234Z" fill="#F8F8F8"/>
<path d="M36.1013 46.6212L37.4345 45.4095C37.512 45.3406 37.574 45.256 37.6165 45.1615C37.659 45.0669 37.6811 44.9644 37.6813 44.8607C37.6811 44.6785 37.6112 44.5033 37.4861 44.3709C37.4172 44.2946 37.3332 44.2335 37.2393 44.1917C37.1454 44.1498 37.0438 44.1281 36.941 44.1278C36.7572 44.1274 36.5798 44.1957 36.4438 44.3193L36.3039 44.4446C36.2952 44.4547 36.2845 44.4628 36.2724 44.4683C36.2603 44.4739 36.2472 44.4768 36.2339 44.4768C36.2206 44.4768 36.2074 44.4739 36.1954 44.4683C36.1833 44.4628 36.1725 44.4547 36.1639 44.4446C36.1544 44.4359 36.1468 44.4254 36.1416 44.4137C36.1364 44.4019 36.1338 44.3893 36.1338 44.3764C36.1338 44.3636 36.1364 44.3509 36.1416 44.3392C36.1468 44.3274 36.1544 44.3169 36.1639 44.3083L36.3039 44.1757C36.4779 44.0195 36.7035 43.9329 36.9373 43.9326C37.1845 43.9336 37.4213 44.0319 37.5965 44.2064C37.7716 44.3808 37.8709 44.6173 37.8728 44.8644C37.8734 44.9954 37.8465 45.125 37.7939 45.2449C37.7412 45.3648 37.664 45.4724 37.5671 45.5605L36.4254 46.5991H37.7807C37.7938 46.5996 37.8067 46.6027 37.8185 46.6081C37.8304 46.6135 37.8411 46.6213 37.85 46.6308C37.8589 46.6404 37.8658 46.6517 37.8704 46.6639C37.8749 46.6762 37.877 46.6892 37.8765 46.7023C37.8765 46.7277 37.8664 46.752 37.8485 46.77C37.8305 46.7879 37.8061 46.798 37.7807 46.798H36.1823C36.1686 46.7987 36.155 46.7964 36.1423 46.7913C36.1296 46.7862 36.1181 46.7784 36.1087 46.7686C36.0887 46.7497 36.0768 46.7238 36.0755 46.6964C36.0741 46.6689 36.0833 46.642 36.1013 46.6212Z" fill="#F8F8F8"/>
<path d="M40.2372 44.1019L39.5005 44.8643C39.6724 44.8988 39.8318 44.9794 39.9615 45.0973C40.0912 45.2153 40.1865 45.3663 40.2371 45.5341C40.2878 45.702 40.2919 45.8804 40.2491 46.0505C40.2063 46.2205 40.1182 46.3757 39.9941 46.4996C39.8112 46.6821 39.5637 46.7853 39.3053 46.7869C39.1779 46.7885 39.0514 46.7643 38.9337 46.7155C38.8159 46.6668 38.7093 46.5945 38.6203 46.5033C38.6064 46.4834 38.5999 46.4593 38.602 46.4351C38.6041 46.4109 38.6147 46.3883 38.6318 46.3712C38.649 46.354 38.6716 46.3434 38.6958 46.3413C38.7199 46.3392 38.7441 46.3457 38.7639 46.3596C38.9081 46.502 39.1028 46.5814 39.3053 46.5806C39.5082 46.5793 39.7025 46.4986 39.8468 46.3559C39.9185 46.2846 39.9753 46.1996 40.0139 46.106C40.0525 46.0124 40.072 45.9121 40.0714 45.8109C40.0725 45.7107 40.0532 45.6113 40.0145 45.5188C39.9759 45.4264 39.9188 45.3428 39.8468 45.2731C39.776 45.2015 39.6917 45.1447 39.5987 45.1061C39.5058 45.0675 39.406 45.0479 39.3053 45.0485C39.2896 45.0486 39.274 45.045 39.26 45.038C39.2459 45.0309 39.2337 45.0206 39.2243 45.008C39.2145 44.9984 39.2067 44.9869 39.2014 44.9742C39.1961 44.9616 39.1934 44.948 39.1934 44.9343C39.1934 44.9206 39.1961 44.907 39.2014 44.8943C39.2067 44.8817 39.2145 44.8702 39.2243 44.8606L39.9351 44.124H38.8302C38.8169 44.124 38.8036 44.1213 38.7913 44.1161C38.779 44.1109 38.7679 44.1032 38.7586 44.0936C38.7493 44.084 38.7421 44.0726 38.7373 44.0601C38.7325 44.0476 38.7303 44.0343 38.7308 44.0209C38.7303 44.0077 38.7325 43.9945 38.7373 43.9822C38.7421 43.9699 38.7494 43.9588 38.7588 43.9494C38.7681 43.9401 38.7793 43.9328 38.7916 43.928C38.8039 43.9232 38.817 43.9209 38.8302 43.9215H40.1524C40.1792 43.9214 40.2049 43.9318 40.2241 43.9504C40.2433 43.9689 40.2546 43.9942 40.2556 44.0209C40.2593 44.0366 40.2593 44.053 40.2556 44.0688C40.2508 44.0806 40.2447 44.0917 40.2372 44.1019Z" fill="#F8F8F8"/>
<path d="M42.6459 46.1829H41.0843C41.0619 46.1847 41.0396 46.1781 41.0217 46.1645C41.0121 46.1556 41.0044 46.1447 40.9992 46.1327C40.994 46.1207 40.9913 46.1077 40.9913 46.0945C40.9913 46.0814 40.994 46.0684 40.9992 46.0564C41.0044 46.0444 41.0121 46.0335 41.0217 46.0246L42.6717 43.9547C42.6806 43.9451 42.6915 43.9375 42.7035 43.9322C42.7155 43.927 42.7285 43.9243 42.7416 43.9243C42.7548 43.9243 42.7677 43.927 42.7798 43.9322C42.7918 43.9375 42.8027 43.9451 42.8116 43.9547C42.827 43.9672 42.8385 43.9838 42.8448 44.0026C42.8448 44.0026 42.8448 44.0026 42.8448 44.021V45.9841H43.0363C43.0493 45.9841 43.0623 45.9866 43.0743 45.9916C43.0864 45.9966 43.0974 46.004 43.1066 46.0132C43.1158 46.0224 43.1232 46.0334 43.1282 46.0454C43.1332 46.0575 43.1357 46.0704 43.1357 46.0835C43.1357 46.0966 43.1332 46.1095 43.1282 46.1216C43.1232 46.1336 43.1158 46.1446 43.1066 46.1538C43.0974 46.1631 43.0864 46.1704 43.0743 46.1754C43.0623 46.1804 43.0493 46.1829 43.0363 46.1829H42.8448V46.6728C42.8448 46.6862 42.8421 46.6994 42.8369 46.7117C42.8316 46.724 42.824 46.7352 42.8143 46.7444C42.8047 46.7537 42.7933 46.761 42.7808 46.7657C42.7683 46.7705 42.755 46.7727 42.7416 46.7722C42.7159 46.7713 42.6916 46.7604 42.6737 46.7418C42.6558 46.7233 42.6459 46.6985 42.6459 46.6728V46.1829ZM42.6459 45.9877V44.3083L41.2942 45.9914L42.6459 45.9877Z" fill="#F8F8F8"/>
<path d="M48.9624 44.5251C49.0583 44.3408 49.2018 44.1856 49.378 44.0755C49.5541 43.9654 49.7566 43.9045 49.9642 43.899C49.99 43.898 50.0152 43.907 50.0344 43.9242C50.0537 43.9414 50.0655 43.9654 50.0674 43.9911C50.0674 44.0182 50.0572 44.0443 50.0387 44.0641C50.0203 44.0839 49.9949 44.096 49.9679 44.0979C49.7953 44.1036 49.6273 44.1551 49.4811 44.2469C49.3348 44.3388 49.2156 44.4679 49.1355 44.6209C49.0366 44.7998 48.9681 44.994 48.933 45.1954C49.0202 45.0933 49.1287 45.0114 49.2508 44.9554C49.3729 44.8994 49.5058 44.8707 49.6401 44.8713C49.826 44.8707 50.008 44.9249 50.1634 45.0271C50.3187 45.1292 50.4405 45.2749 50.5136 45.4458C50.5867 45.6168 50.6078 45.8055 50.5743 45.9884C50.5408 46.1713 50.4542 46.3403 50.3252 46.4742C50.1963 46.6082 50.0308 46.7012 49.8493 46.7417C49.6678 46.7822 49.4785 46.7683 49.3048 46.7018C49.1312 46.6354 48.981 46.5192 48.8729 46.3679C48.7649 46.2166 48.7038 46.0368 48.6973 45.851C48.6917 45.7885 48.6917 45.7257 48.6973 45.6632C48.6891 45.2676 48.7802 44.8763 48.9624 44.5251ZM48.8962 45.8326C48.8941 45.851 48.8941 45.8695 48.8962 45.8878C48.8982 45.8963 48.8982 45.9051 48.8962 45.9136C48.9086 46.1123 48.9978 46.2983 49.145 46.4322C49.2922 46.5662 49.4857 46.6377 49.6847 46.6314C49.8836 46.6252 50.0723 46.5418 50.2108 46.3989C50.3493 46.256 50.4268 46.0648 50.4268 45.8657C50.4268 45.6667 50.3493 45.4755 50.2108 45.3326C50.0723 45.1897 49.8836 45.1063 49.6847 45.1C49.4857 45.0938 49.2922 45.1653 49.145 45.2992C48.9978 45.4332 48.9086 45.6192 48.8962 45.8179V45.8326Z" fill="#F8F8F8"/>
<path d="M51.6361 46.6171L52.6895 44.1016H51.3046C51.2783 44.1016 51.253 44.0911 51.2343 44.0724C51.2157 44.0538 51.2052 44.0285 51.2052 44.0021C51.2052 43.9757 51.2157 43.9504 51.2343 43.9318C51.253 43.9132 51.2783 43.9027 51.3046 43.9027H52.8184C52.8389 43.897 52.8605 43.897 52.881 43.9027C52.9058 43.9168 52.9253 43.9389 52.9362 43.9653C52.9383 43.9762 52.9383 43.9875 52.9362 43.9984C52.9428 44.015 52.9428 44.0334 52.9362 44.05L51.8313 46.6907C51.8242 46.7086 51.8121 46.724 51.7964 46.7351C51.7807 46.7462 51.7621 46.7526 51.7429 46.7533C51.7365 46.7561 51.7296 46.7575 51.7227 46.7575C51.7157 46.7575 51.7088 46.7561 51.7024 46.7533C51.6888 46.7492 51.6761 46.7423 51.6653 46.7331C51.6545 46.7239 51.6457 46.7125 51.6394 46.6997C51.6332 46.6869 51.6297 46.673 51.6291 46.6587C51.6286 46.6445 51.6309 46.6303 51.6361 46.6171Z" fill="#F8F8F8"/>
<path d="M54.4609 43.8844C54.5874 43.8818 54.7115 43.9194 54.8152 43.9919C54.9189 44.0644 54.9968 44.1679 55.0378 44.2876C55.0788 44.4073 55.0807 44.5369 55.0432 44.6578C55.0057 44.7786 54.9308 44.8844 54.8292 44.9599C54.985 45.0233 55.1207 45.1278 55.2217 45.2624C55.3226 45.3969 55.3851 45.5564 55.4025 45.7237C55.4199 45.891 55.3914 46.0599 55.3202 46.2124C55.249 46.3648 55.1377 46.495 54.9982 46.589C54.8588 46.6831 54.6964 46.7374 54.5284 46.7463C54.3604 46.7552 54.1931 46.7183 54.0445 46.6395C53.8959 46.5607 53.7715 46.4429 53.6846 46.2989C53.5977 46.1549 53.5516 45.9899 53.5512 45.8217C53.5516 45.6379 53.6059 45.4583 53.7074 45.3052C53.8089 45.152 53.953 45.0319 54.1221 44.9599C54.0474 44.9036 53.9868 44.8307 53.9452 44.747C53.9037 44.6632 53.8822 44.5709 53.8827 44.4774C53.8817 44.3223 53.9418 44.1732 54.0501 44.0622C54.1583 43.9512 54.3059 43.8873 54.4609 43.8844ZM54.4609 46.5509C54.6563 46.5509 54.8436 46.4733 54.9818 46.3352C55.1199 46.197 55.1975 46.0097 55.1975 45.8143C55.1975 45.619 55.1199 45.4316 54.9818 45.2935C54.8436 45.1553 54.6563 45.0777 54.4609 45.0777C54.2656 45.0777 54.0782 45.1553 53.9401 45.2935C53.8019 45.4316 53.7243 45.619 53.7243 45.8143C53.7243 45.9117 53.7436 46.0081 53.7811 46.0979C53.8186 46.1878 53.8735 46.2693 53.9427 46.3378C54.0118 46.4063 54.0939 46.4604 54.1841 46.497C54.2744 46.5336 54.3709 46.5519 54.4683 46.5509H54.4609ZM54.4609 44.8825C54.5678 44.8797 54.6693 44.8354 54.7442 44.7592C54.8191 44.6829 54.8615 44.5806 54.8624 44.4737C54.8528 44.3743 54.8066 44.2821 54.7327 44.215C54.6588 44.1478 54.5626 44.1107 54.4628 44.1107C54.3629 44.1107 54.2667 44.1478 54.1928 44.215C54.1189 44.2821 54.0727 44.3743 54.0631 44.4737C54.0622 44.5805 54.1034 44.6834 54.1779 44.76C54.2524 44.8365 54.3541 44.8806 54.4609 44.8825Z" fill="#F8F8F8"/>
<path d="M59.5548 43.8697C59.7868 43.8681 60.0113 43.9521 60.1853 44.1057C60.3592 44.2592 60.4705 44.4716 60.4977 44.702V44.7241V44.9672C60.5034 45.3657 60.4097 45.7594 60.2251 46.1126C60.1275 46.2952 59.9835 46.4489 59.8077 46.5582C59.6318 46.6674 59.4303 46.7284 59.2233 46.735C59.2104 46.7361 59.1975 46.7344 59.1853 46.7303C59.173 46.7262 59.1618 46.7196 59.1521 46.711C59.1425 46.7024 59.1347 46.6919 59.1292 46.6803C59.1237 46.6686 59.1207 46.6559 59.1202 46.643C59.1197 46.6294 59.1219 46.6159 59.1266 46.6032C59.1314 46.5905 59.1385 46.5789 59.1478 46.569C59.157 46.559 59.1681 46.551 59.1804 46.5454C59.1928 46.5398 59.2061 46.5366 59.2196 46.5362C59.3922 46.5301 59.56 46.4785 59.7062 46.3866C59.8523 46.2948 59.9716 46.166 60.052 46.0132C60.1521 45.8347 60.2206 45.6404 60.2546 45.4386C60.1664 45.5401 60.0571 45.6211 59.9343 45.6758C59.8115 45.7305 59.6782 45.7577 59.5437 45.7554C59.2937 45.7554 59.0539 45.656 58.8771 45.4792C58.7002 45.3024 58.6009 45.0626 58.6009 44.8125C58.6009 44.5624 58.7002 44.3226 58.8771 44.1458C59.0539 43.969 59.2937 43.8697 59.5437 43.8697H59.5548ZM60.2914 44.8088C60.2914 44.6631 60.2482 44.5207 60.1673 44.3996C60.0863 44.2785 59.9713 44.184 59.8367 44.1283C59.7021 44.0725 59.554 44.0579 59.4111 44.0864C59.2682 44.1148 59.137 44.1849 59.0339 44.288C58.9309 44.391 58.8608 44.5222 58.8323 44.6651C58.8039 44.808 58.8185 44.9561 58.8743 45.0907C58.93 45.2253 59.0244 45.3403 59.1456 45.4213C59.2667 45.5022 59.4091 45.5454 59.5548 45.5454C59.6528 45.5474 59.7501 45.5298 59.8412 45.4936C59.9323 45.4575 60.0152 45.4036 60.0852 45.335C60.1552 45.2664 60.2108 45.1845 60.2487 45.0942C60.2866 45.0038 60.3062 44.9068 60.3061 44.8088H60.2914Z" fill="#F8F8F8"/>
<path d="M61.2345 45.2987C61.2266 44.9443 61.3213 44.5952 61.507 44.2932C61.5814 44.1681 61.6856 44.0633 61.8102 43.9882C61.9349 43.913 62.0761 43.8697 62.2215 43.8623C62.3668 43.8703 62.508 43.9134 62.633 43.9878C62.7581 44.0622 62.8633 44.1657 62.9397 44.2895C63.1273 44.5896 63.2245 44.9374 63.2196 45.2913C63.2256 45.6448 63.1297 45.9926 62.9434 46.2931C62.8745 46.4234 62.7714 46.5324 62.6452 46.6085C62.519 46.6845 62.3744 46.7247 62.227 46.7247C62.0797 46.7247 61.9351 46.6845 61.8089 46.6085C61.6826 46.5324 61.5796 46.4234 61.5107 46.2931C61.3234 45.9958 61.2273 45.65 61.2345 45.2987ZM61.4333 45.2987C61.4284 45.6121 61.5141 45.9204 61.6801 46.1863C61.7286 46.2921 61.8064 46.3817 61.9043 46.4446C62.0023 46.5074 62.1162 46.5408 62.2326 46.5408C62.3489 46.5408 62.4628 46.5074 62.5608 46.4446C62.6587 46.3817 62.7365 46.2921 62.785 46.1863C62.9476 45.9188 63.0336 45.6117 63.0336 45.2987C63.0336 44.9856 62.9476 44.6786 62.785 44.4111C62.7355 44.3065 62.6572 44.2182 62.5594 44.1563C62.4616 44.0944 62.3483 44.0616 62.2326 44.0616C62.1168 44.0616 62.0035 44.0944 61.9057 44.1563C61.8079 44.2182 61.7297 44.3065 61.6801 44.4111C61.5143 44.6771 61.4286 44.9853 61.4333 45.2987Z" fill="#F8F8F8"/>
<path d="M64.5414 44.1462L64.1363 44.3856C64.1205 44.3892 64.1041 44.3892 64.0884 44.3856C64.0705 44.385 64.0531 44.3801 64.0376 44.3711C64.0222 44.362 64.0092 44.3493 64 44.334C63.9929 44.3231 63.9883 44.3108 63.9863 44.2979C63.9844 44.2851 63.9852 44.272 63.9886 44.2594C63.9921 44.2469 63.9982 44.2353 64.0065 44.2253C64.0148 44.2153 64.0252 44.2071 64.0368 44.2014L64.5893 43.8626C64.6126 43.8511 64.6393 43.8485 64.6644 43.8553C64.6895 43.862 64.7112 43.8777 64.7256 43.8994C64.7327 43.9234 64.7327 43.949 64.7256 43.9731V46.6064C64.7211 46.6291 64.709 46.6495 64.6912 46.6641C64.6734 46.6788 64.651 46.6868 64.6279 46.6868C64.6049 46.6868 64.5825 46.6788 64.5647 46.6641C64.5469 46.6495 64.5348 46.6291 64.5304 46.6064L64.5414 44.1462Z" fill="#F8F8F8"/>
<path d="M65.4474 46.5512L66.7807 45.3395C66.8581 45.2705 66.9201 45.186 66.9627 45.0914C67.0052 44.9969 67.0273 44.8944 67.0274 44.7907C67.0251 44.6089 66.9555 44.4345 66.8322 44.3009C66.7631 44.2252 66.6788 44.1649 66.585 44.1236C66.4911 44.0824 66.3897 44.0612 66.2872 44.0615C66.1038 44.06 65.9265 44.127 65.7899 44.2493L65.65 44.3782C65.6305 44.3935 65.606 44.4009 65.5814 44.3991C65.5567 44.3973 65.5336 44.3863 65.5165 44.3684C65.4995 44.3504 65.4898 44.3268 65.4892 44.302C65.4887 44.2773 65.4975 44.2532 65.5137 44.2346L65.6537 44.102C65.8286 43.9472 66.0536 43.8609 66.2872 43.8589C66.4171 43.8582 66.5456 43.885 66.6644 43.9377C66.7831 43.9904 66.8893 44.0678 66.9759 44.1646C67.1355 44.3339 67.2238 44.5581 67.2226 44.7907C67.2233 44.9217 67.1964 45.0513 67.1437 45.1712C67.091 45.2911 67.0138 45.3986 66.917 45.4868L65.7752 46.5254H67.1306C67.1436 46.5259 67.1565 46.5289 67.1684 46.5344C67.1802 46.5398 67.1909 46.5475 67.1998 46.5571C67.2087 46.5667 67.2156 46.5779 67.2202 46.5902C67.2247 46.6024 67.2268 46.6155 67.2263 46.6285C67.2264 46.6543 67.2164 46.679 67.1985 46.6976C67.1807 46.7161 67.1563 46.727 67.1306 46.728H65.5174C65.5037 46.7295 65.4898 46.7275 65.4769 46.7224C65.4641 46.7173 65.4527 46.7091 65.4437 46.6985C65.4253 46.6782 65.4154 46.6515 65.4161 46.6241C65.4168 46.5967 65.428 46.5706 65.4474 46.5512Z" fill="#F8F8F8"/>
<path d="M72.0437 44.0172L71.3071 44.7796C71.4927 44.8163 71.6632 44.9073 71.7969 45.0411C71.8871 45.1316 71.9586 45.2391 72.0073 45.3572C72.0559 45.4754 72.0808 45.602 72.0805 45.7298C72.0819 45.8578 72.0574 45.9847 72.0087 46.103C71.96 46.2214 71.888 46.3287 71.7969 46.4186C71.6145 46.6018 71.3668 46.7051 71.1082 46.7058C70.9815 46.7062 70.856 46.6813 70.739 46.6326C70.622 46.5839 70.5159 46.5124 70.4268 46.4222C70.4166 46.4133 70.4085 46.4022 70.4029 46.3898C70.3973 46.3775 70.3944 46.364 70.3944 46.3504C70.3944 46.3368 70.3973 46.3234 70.4029 46.311C70.4085 46.2986 70.4166 46.2876 70.4268 46.2786C70.4361 46.2689 70.4473 46.2612 70.4596 46.2559C70.4719 46.2507 70.4852 46.2479 70.4986 46.2479C70.5121 46.2479 70.5254 46.2507 70.5377 46.2559C70.55 46.2612 70.5612 46.2689 70.5705 46.2786C70.6785 46.3855 70.8159 46.4581 70.9651 46.4871C71.1143 46.5161 71.2688 46.5002 71.4091 46.4415C71.5493 46.3828 71.669 46.2839 71.7531 46.1572C71.8372 46.0306 71.8819 45.8819 71.8816 45.7298C71.8828 45.6288 71.8631 45.5285 71.8238 45.4354C71.7845 45.3422 71.7265 45.2582 71.6533 45.1884C71.5829 45.1166 71.4986 45.0599 71.4054 45.0219C71.3123 44.9839 71.2124 44.9654 71.1119 44.9675C71.0959 44.9666 71.0804 44.9622 71.0663 44.9546C71.0523 44.9469 71.0402 44.9362 71.0308 44.9233C71.021 44.9137 71.0133 44.9022 71.008 44.8895C71.0026 44.8769 70.9999 44.8633 70.9999 44.8496C70.9999 44.8359 71.0026 44.8223 71.008 44.8096C71.0133 44.797 71.021 44.7855 71.0308 44.7759L71.7417 44.0393H70.6368C70.6231 44.0398 70.6094 44.0375 70.5967 44.0325C70.584 44.0275 70.5724 44.02 70.5627 44.0103C70.553 44.0006 70.5454 43.989 70.5404 43.9763C70.5354 43.9635 70.5331 43.9499 70.5336 43.9362C70.5336 43.9089 70.5445 43.8826 70.5638 43.8633C70.5832 43.8439 70.6094 43.8331 70.6368 43.8331H71.9737C71.9874 43.8326 72.001 43.8349 72.0138 43.8399C72.0265 43.8449 72.0381 43.8525 72.0478 43.8621C72.0575 43.8718 72.065 43.8834 72.07 43.8961C72.075 43.9089 72.0773 43.9225 72.0768 43.9362C72.0806 43.9507 72.0806 43.9659 72.0768 43.9804C72.0689 43.9952 72.0576 44.0078 72.0437 44.0172Z" fill="#F8F8F8"/>
<path d="M74.4563 46.1092H72.891C72.8801 46.1101 72.8692 46.1086 72.859 46.1048C72.8488 46.101 72.8396 46.0949 72.832 46.0871C72.8219 46.0785 72.8138 46.0677 72.8082 46.0557C72.8027 46.0436 72.7998 46.0304 72.7998 46.0171C72.7998 46.0038 72.8027 45.9907 72.8082 45.9786C72.8138 45.9665 72.8219 45.9558 72.832 45.9472L74.4857 43.881C74.4947 43.8714 74.5055 43.8637 74.5175 43.8585C74.5296 43.8533 74.5426 43.8506 74.5557 43.8506C74.5688 43.8506 74.5818 43.8533 74.5938 43.8585C74.6059 43.8637 74.6167 43.8714 74.6257 43.881C74.6388 43.8967 74.65 43.914 74.6588 43.9325V45.9103H74.8503C74.8647 45.9075 74.8796 45.9079 74.8938 45.9115C74.908 45.9151 74.9213 45.9218 74.9326 45.9312C74.9439 45.9405 74.9531 45.9522 74.9593 45.9655C74.9656 45.9788 74.9688 45.9933 74.9688 46.0079C74.9688 46.0226 74.9656 46.0371 74.9593 46.0504C74.9531 46.0636 74.9439 46.0754 74.9326 46.0847C74.9213 46.094 74.908 46.1007 74.8938 46.1043C74.8796 46.1079 74.8647 46.1083 74.8503 46.1055H74.6588V46.5991C74.657 46.6255 74.6455 46.6503 74.6264 46.6686C74.6074 46.687 74.5822 46.6976 74.5557 46.6985C74.5296 46.6976 74.5048 46.6868 74.4864 46.6684C74.4679 46.6499 74.4572 46.6251 74.4563 46.5991V46.1092ZM74.4563 45.9103V44.2309L73.1083 45.914L74.4563 45.9103Z" fill="#F8F8F8"/>
<path d="M78.3159 44.4484C78.4118 44.2641 78.5553 44.1089 78.7315 43.9988C78.9076 43.8887 79.11 43.8277 79.3177 43.8223C79.3438 43.8222 79.369 43.832 79.3881 43.8498C79.4073 43.8676 79.419 43.892 79.4208 43.918C79.4209 43.9451 79.4106 43.9712 79.3922 43.9911C79.3737 44.0109 79.3484 44.023 79.3214 44.0248C79.1489 44.0291 78.9807 44.0795 78.8343 44.1708C78.6879 44.2621 78.5687 44.3911 78.489 44.5441C78.3906 44.7233 78.3221 44.9174 78.2865 45.1187C78.4316 44.9543 78.6296 44.8457 78.8462 44.8116C79.0628 44.7774 79.2845 44.8198 79.4733 44.9315C79.662 45.0432 79.8059 45.2172 79.8802 45.4235C79.9545 45.6298 79.9545 45.8556 79.8803 46.0619C79.8061 46.2683 79.6623 46.4423 79.4736 46.5541C79.285 46.6659 79.0633 46.7084 78.8466 46.6743C78.63 46.6403 78.432 46.5318 78.2867 46.3675C78.1415 46.2032 78.058 45.9934 78.0507 45.7743C78.045 45.7118 78.045 45.6489 78.0507 45.5864C78.0428 45.1909 78.134 44.7997 78.3159 44.4484ZM78.2496 45.7595C78.2476 45.7767 78.2476 45.794 78.2496 45.8111C78.2517 45.8208 78.2517 45.8309 78.2496 45.8406C78.2625 46.04 78.3525 46.2266 78.5005 46.3609C78.6485 46.4952 78.8429 46.5667 79.0426 46.5602C79.2424 46.5537 79.4318 46.4699 79.5708 46.3263C79.7098 46.1827 79.7875 45.9907 79.7875 45.7908C79.7875 45.591 79.7098 45.399 79.5708 45.2554C79.4318 45.1118 79.2424 45.028 79.0426 45.0215C78.8429 45.015 78.6485 45.0865 78.5005 45.2208C78.3525 45.3551 78.2625 45.5417 78.2496 45.7411V45.7595Z" fill="#F8F8F8"/>
<path d="M60.5646 51.646L35.5717 51.7114L35.5749 52.9379L60.5678 52.8724L60.5646 51.646Z" fill="#263238"/>
<path d="M53.272 54.3941L35.5788 54.4404L35.582 55.6669L53.2752 55.6206L53.272 54.3941Z" fill="#263238"/>
<path d="M69.3773 31.355H56.9139V32.5814H69.3773V31.355Z" fill="#263238"/>
<path d="M81.9585 65.0989C84.2509 65.0989 86.1092 63.2405 86.1092 60.9481C86.1092 58.6557 84.2509 56.7974 81.9585 56.7974C79.6661 56.7974 77.8077 58.6557 77.8077 60.9481C77.8077 63.2405 79.6661 65.0989 81.9585 65.0989Z" fill="white"/>
<path d="M80.7765 63.6072L79.2222 61.1801L79.8704 60.7676L80.8464 62.2924L83.8886 58.4878L84.489 58.9666L80.7765 63.6072Z" fill="white"/>
<path d="M21.3949 88.1086H37.6481C38.6744 88.1077 39.6584 87.6995 40.3842 86.9738C41.1099 86.2481 41.518 85.2641 41.519 84.2378V53.8159C41.5217 53.2837 41.6325 52.7576 41.8445 52.2695C42.0565 51.7813 42.3653 51.3412 42.7523 50.9759C43.1394 50.6106 43.5965 50.3276 44.0961 50.1441C44.5956 49.9606 45.1272 49.8803 45.6587 49.9082H25.2658C24.2394 49.9092 23.2554 50.3173 22.5297 51.0431C21.804 51.7688 21.3959 52.7528 21.3949 53.7791V88.1086Z" fill="white"/>
<path opacity="0.1" d="M21.3949 88.1086H37.6481C38.6744 88.1077 39.6584 87.6995 40.3842 86.9738C41.1099 86.2481 41.518 85.2641 41.519 84.2378V53.8159C41.5217 53.2837 41.6325 52.7576 41.8445 52.2695C42.0565 51.7813 42.3653 51.3412 42.7523 50.9759C43.1394 50.6106 43.5965 50.3276 44.0961 50.1441C44.5956 49.9606 45.1272 49.8803 45.6587 49.9082H25.2658C24.2394 49.9092 23.2554 50.3173 22.5297 51.0431C21.804 51.7688 21.3959 52.7528 21.3949 53.7791V88.1086Z" fill="black"/>
<g opacity="0.1">
<path opacity="0.1" d="M38.9144 53.7866H24.3369V54.4569H38.9144V53.7866Z" fill="black"/>
<path opacity="0.1" d="M38.9144 55.6724H24.3369V56.3427H38.9144V55.6724Z" fill="black"/>
<path opacity="0.1" d="M38.9144 57.5542H24.3369V58.2245H38.9144V57.5542Z" fill="black"/>
<path opacity="0.1" d="M38.9144 59.4365H24.3369V60.1068H38.9144V59.4365Z" fill="black"/>
<path opacity="0.1" d="M38.9144 61.3184H24.3369V61.9887H38.9144V61.3184Z" fill="black"/>
<path opacity="0.1" d="M38.9144 63.2007H24.3369V63.871H38.9144V63.2007Z" fill="black"/>
<path opacity="0.1" d="M38.9144 65.0859H24.3369V65.7563H38.9144V65.0859Z" fill="black"/>
<path opacity="0.1" d="M38.9144 66.9683H24.3369V67.6386H38.9144V66.9683Z" fill="black"/>
<path opacity="0.1" d="M38.9144 68.8501H24.3369V69.5204H38.9144V68.8501Z" fill="black"/>
<path opacity="0.1" d="M38.9144 70.7324H24.3369V71.4027H38.9144V70.7324Z" fill="black"/>
<path opacity="0.1" d="M38.9144 72.6143H24.3369V73.2846H38.9144V72.6143Z" fill="black"/>
<path opacity="0.1" d="M38.9144 74.5H24.3369V75.1703H38.9144V74.5Z" fill="black"/>
<path opacity="0.1" d="M38.9144 76.3818H24.3369V77.0522H38.9144V76.3818Z" fill="black"/>
<path opacity="0.1" d="M38.9144 78.2637H24.3369V78.934H38.9144V78.2637Z" fill="black"/>
<path opacity="0.1" d="M38.9144 80.146H24.3369V80.8163H38.9144V80.146Z" fill="black"/>
<path opacity="0.1" d="M38.9144 82.0278H24.3369V82.6981H38.9144V82.0278Z" fill="black"/>
</g>
<path d="M5.68317 75.229V111.96H17.9882V112.008C17.9869 113.028 18.3852 114.008 19.0976 114.739C19.8101 115.469 20.7801 115.891 21.8001 115.915H21.9327C22.0656 115.916 22.1984 115.908 22.3305 115.893L23.0671 115.742C23.2474 115.685 23.4233 115.615 23.5937 115.532C23.6786 115.495 23.761 115.452 23.8405 115.404C23.8827 115.38 23.9233 115.355 23.9621 115.326C24.0763 115.26 24.1859 115.186 24.2898 115.105L24.3414 115.065C24.4168 115.007 24.4881 114.944 24.555 114.877C24.5937 114.844 24.6305 114.81 24.6655 114.774C25.1144 114.33 25.446 113.782 25.6305 113.179C25.6292 113.168 25.6292 113.157 25.6305 113.146C25.6562 113.05 25.682 112.954 25.7041 112.855C25.7344 112.734 25.7541 112.611 25.7631 112.487C25.7631 112.428 25.7631 112.372 25.7631 112.317C25.7649 112.298 25.7649 112.278 25.7631 112.258C25.7631 112.188 25.7631 112.118 25.7631 112.048V75.2695C25.7653 74.7367 25.8758 74.2098 26.0878 73.721C26.2998 73.2321 26.6089 72.7915 26.9964 72.4257C27.3838 72.0599 27.8416 71.7767 28.3418 71.5932C28.8421 71.4097 29.3744 71.3297 29.9065 71.3581H9.56877C9.05933 71.3567 8.55461 71.4557 8.0835 71.6495C7.61238 71.8434 7.18411 72.1282 6.8232 72.4878C6.46229 72.8473 6.17583 73.2745 5.98021 73.7449C5.78459 74.2152 5.68365 74.7196 5.68317 75.229Z" fill="white"/>
<g opacity="0.1">
<path opacity="0.1" d="M22.9638 73.811H8.38635V74.4813H22.9638V73.811Z" fill="black"/>
<path opacity="0.1" d="M24.3373 72.0874H9.75989V72.7577H24.3373V72.0874Z" fill="black"/>
<path opacity="0.1" d="M22.9638 75.6934H8.38635V76.3637H22.9638V75.6934Z" fill="black"/>
<path opacity="0.1" d="M22.9638 77.5752H8.38635V78.2455H22.9638V77.5752Z" fill="black"/>
<path opacity="0.1" d="M22.9638 79.4575H8.38635V80.1278H22.9638V79.4575Z" fill="black"/>
<path opacity="0.1" d="M22.9638 81.3394H8.38635V82.0097H22.9638V81.3394Z" fill="black"/>
<path opacity="0.1" d="M22.9638 83.2251H8.38635V83.8954H22.9638V83.2251Z" fill="black"/>
<path opacity="0.1" d="M22.9638 85.1069H8.38635V85.7772H22.9638V85.1069Z" fill="black"/>
<path opacity="0.1" d="M22.9638 86.9893H8.38635V87.6596H22.9638V86.9893Z" fill="black"/>
<path opacity="0.1" d="M22.9638 88.8706H8.38635V89.5409H22.9638V88.8706Z" fill="black"/>
<path opacity="0.1" d="M22.9638 90.7529H8.38635V91.4232H22.9638V90.7529Z" fill="black"/>
<path opacity="0.1" d="M22.9638 92.6387H8.38635V93.309H22.9638V92.6387Z" fill="black"/>
<path opacity="0.1" d="M22.9638 94.521H8.38635V95.1913H22.9638V94.521Z" fill="black"/>
<path opacity="0.1" d="M22.9638 96.4028H8.38635V97.0731H22.9638V96.4028Z" fill="black"/>
<path opacity="0.1" d="M22.9638 98.2847H8.38635V98.955H22.9638V98.2847Z" fill="black"/>
<path opacity="0.1" d="M22.9638 100.167H8.38635V100.837H22.9638V100.167Z" fill="black"/>
<path opacity="0.1" d="M22.9638 102.052H8.38635V102.723H22.9638V102.052Z" fill="black"/>
<path opacity="0.1" d="M22.9638 103.935H8.38635V104.605H22.9638V103.935Z" fill="black"/>
<path opacity="0.1" d="M22.9638 105.816H8.38635V106.487H22.9638V105.816Z" fill="black"/>
<path opacity="0.1" d="M22.9638 108.531H15.675V110.078H22.9638V108.531Z" fill="black"/>
</g>
<path d="M37.5115 88.1088C37.5446 88.1126 37.5779 88.1126 37.611 88.1088C37.755 88.1078 37.8988 88.0992 38.0419 88.083C37.9098 88.0967 37.777 88.1028 37.6441 88.1014L37.5115 88.1088Z" fill="white"/>
<path d="M45.4263 49.9155C44.3911 49.9155 43.3983 50.3262 42.6657 51.0575C41.9331 51.7887 41.5205 52.7807 41.5186 53.8159V61.1819H49.3339V53.8159C49.332 52.7807 48.9194 51.7887 48.1868 51.0575C47.4542 50.3262 46.4614 49.9155 45.4263 49.9155Z" fill="white"/>
<path opacity="0.2" d="M45.4263 49.9155C44.3911 49.9155 43.3983 50.3262 42.6657 51.0575C41.9331 51.7887 41.5205 52.7807 41.5186 53.8159V61.1819H49.3339V53.8159C49.332 52.7807 48.9194 51.7887 48.1868 51.0575C47.4542 50.3262 46.4614 49.9155 45.4263 49.9155Z" fill="black"/>
<path d="M25.8108 75.2697V88.1161H33.6299H37.4418C36.4221 88.093 35.4521 87.6714 34.7395 86.9416C34.027 86.2118 33.6287 85.232 33.6299 84.2121V75.2697C33.646 74.7462 33.5567 74.2248 33.3675 73.7364C33.1782 73.248 32.8928 72.8026 32.5282 72.4267C32.1636 72.0507 31.7272 71.7517 31.2448 71.5476C30.7625 71.3435 30.2441 71.2383 29.7203 71.2383C29.1966 71.2383 28.6782 71.3435 28.1958 71.5476C27.7135 71.7517 27.2771 72.0507 26.9125 72.4267C26.5478 72.8026 26.2625 73.248 26.0732 73.7364C25.884 74.2248 25.7947 74.7462 25.8108 75.2697Z" fill="white"/>
<path opacity="0.2" d="M25.8108 75.2697V88.1161H33.6299H37.4418C36.4221 88.093 35.4521 87.6714 34.7395 86.9416C34.027 86.2118 33.6287 85.232 33.6299 84.2121V75.2697C33.646 74.7462 33.5567 74.2248 33.3675 73.7364C33.1782 73.248 32.8928 72.8026 32.5282 72.4267C32.1636 72.0507 31.7272 71.7517 31.2448 71.5476C30.7625 71.3435 30.2441 71.2383 29.7203 71.2383C29.1966 71.2383 28.6782 71.3435 28.1958 71.5476C27.7135 71.7517 27.2771 72.0507 26.9125 72.4267C26.5478 72.8026 26.2625 73.248 26.0732 73.7364C25.884 74.2248 25.7947 74.7462 25.8108 75.2697Z" fill="black"/>
<path d="M2.91667e-06 111.96V112.008C-0.00124341 113.028 0.396981 114.009 1.10943 114.739C1.82188 115.469 2.79193 115.892 3.81194 115.916H21.8146C20.7946 115.892 19.8245 115.469 19.1121 114.739C18.3996 114.009 18.0014 113.028 18.0027 112.008V111.957L2.91667e-06 111.96Z" fill="white"/>
<path opacity="0.2" d="M2.91667e-06 111.96V112.008C-0.00124341 113.028 0.396981 114.009 1.10943 114.739C1.82188 115.469 2.79193 115.892 3.81194 115.916H21.8146C20.7946 115.892 19.8245 115.469 19.1121 114.739C18.3996 114.009 18.0014 113.028 18.0027 112.008V111.957L2.91667e-06 111.96Z" fill="black"/>
<path d="M75.2687 290.618L120.497 284.381C120.497 284.381 109.231 207.235 109.575 205.441C110.012 203.155 136.53 94.937 136.53 94.937H99.4441C99.4441 94.937 68.939 195.32 67.7679 205.005C65.8439 220.657 75.2687 290.618 75.2687 290.618Z" fill="#37474F"/>
<path d="M128.081 103.246C127.152 105.904 126.408 108.59 125.59 111.276C124.772 113.962 124.048 116.658 123.248 119.344C121.668 124.661 120.162 130.005 118.647 135.34C115.589 146.113 112.68 156.932 109.827 167.76C108.414 173.126 107.017 178.495 105.635 183.868C104.259 189.249 102.8 194.631 101.564 200.05C100.929 202.592 100.657 205.211 100.755 207.829C100.976 210.512 101.343 213.18 101.852 215.823C102.744 221.35 103.639 226.877 104.538 232.404C106.341 243.558 108.2 254.712 110.115 265.865C110.347 267.232 110.626 268.589 110.886 269.946C110.886 270.02 111.035 270.001 111.026 269.946C109.539 258.857 107.68 247.815 105.923 236.773C105.062 231.314 104.185 225.861 103.292 220.414C102.828 217.561 102.363 214.717 101.908 211.854C101.423 209.149 101.323 206.389 101.61 203.656C102.043 200.982 102.63 198.335 103.367 195.728C104.036 193.069 104.705 190.402 105.384 187.744C106.747 182.371 108.135 177.002 109.548 171.636C112.373 160.854 115.261 150.088 118.21 139.337C121.16 128.586 124.134 117.903 127.133 107.289C127.505 105.96 127.868 104.64 128.202 103.311C128.221 103.199 128.1 103.171 128.081 103.246Z" fill="#263238"/>
<path d="M100.616 94.937C100.616 94.937 101.471 112.681 105.532 126.734C105.858 127.896 106.211 129.039 106.592 130.136C106.592 130.136 108.2 130.136 114.66 134.077L120.032 304.058L163.792 303.593C163.792 303.593 156.811 213.509 156.867 207.737C156.951 198.443 151.857 135.648 152.387 134.058C157.824 117.839 148.827 94.937 148.827 94.937H100.616Z" fill="#37474F"/>
<path d="M118.814 224.904C118.281 205.423 117.618 185.944 116.825 166.469C116.379 155.473 115.896 144.487 115.273 133.51C115.273 133.431 115.242 133.355 115.186 133.3C115.13 133.244 115.054 133.212 114.976 133.212C114.897 133.212 114.821 133.244 114.765 133.3C114.709 133.355 114.678 133.431 114.678 133.51C115.152 153.103 115.924 172.678 116.537 192.262C117.15 211.845 117.857 231.225 118.526 250.706C118.898 261.693 119.232 272.688 119.688 283.675C119.688 283.707 119.701 283.737 119.723 283.76C119.746 283.783 119.777 283.796 119.809 283.796C119.841 283.796 119.872 283.783 119.894 283.76C119.917 283.737 119.93 283.707 119.93 283.675C119.846 264.081 119.344 244.488 118.814 224.904Z" fill="#263238"/>
<path d="M153.019 252.082C152.09 239.302 151.16 226.531 150.184 213.76C149.208 200.989 148.279 188.199 147.331 175.429C146.857 169.034 146.401 162.648 145.9 156.263L145.147 146.68C144.782 143.53 144.592 140.362 144.58 137.19C144.701 133.723 146.16 130.684 146.968 127.338C147.7 124.185 148.031 120.953 147.954 117.718C147.87 111.044 146.374 104.473 144.989 97.976C144.914 97.6228 144.357 97.7808 144.44 98.1433C146.009 104.113 146.998 110.22 147.396 116.379C147.541 119.443 147.325 122.512 146.755 125.525C146.188 128.416 144.979 131.102 144.301 133.956C143.622 136.809 143.985 139.951 144.217 142.934C144.468 146.132 144.682 149.329 144.905 152.517C145.351 158.782 145.834 165.037 146.299 171.302C148.158 196.723 150.017 222.153 152.034 247.574C153.149 261.878 154.097 276.211 155.482 290.497C155.482 290.599 155.659 290.599 155.65 290.497C154.99 277.67 153.93 264.89 153.019 252.082Z" fill="#263238"/>
<path d="M144.059 114.242C143.315 113.953 142.498 113.879 141.735 113.656C140.934 113.432 140.149 113.155 139.384 112.829C137.929 112.194 136.564 111.372 135.322 110.384C134.142 109.345 133.238 108.029 132.692 106.555C132.357 105.765 132.05 104.965 131.762 104.175L131.279 103.004C131.214 102.846 130.796 102.019 130.721 101.759C130.737 101.772 130.756 101.78 130.777 101.78C130.798 101.78 130.817 101.772 130.833 101.759V101.712C130.843 101.699 130.849 101.683 130.849 101.666C130.849 101.649 130.843 101.633 130.833 101.619C130.786 101.526 130.777 101.517 130.675 101.489C130.653 101.486 130.63 101.49 130.61 101.5C130.591 101.51 130.574 101.526 130.563 101.545C130.414 101.805 130.563 102.056 130.628 102.335C130.768 102.856 130.898 103.376 131.028 103.897C131.27 104.826 131.511 105.709 131.79 106.611C132.233 108.303 133.149 109.834 134.43 111.026C135.761 112.146 137.286 113.016 138.928 113.591C139.774 113.904 140.644 114.144 141.531 114.307C142.346 114.504 143.189 114.554 144.022 114.455C144.208 114.465 144.161 114.279 144.059 114.242Z" fill="#263238"/>
<path d="M108.87 124.019C108.767 122.486 108.646 120.961 108.516 119.428C108.21 115.942 107.847 112.447 107.234 108.999C107.234 108.73 106.806 108.832 106.834 109.092C107.066 111.797 107.373 114.502 107.624 117.206C107.875 119.911 108.21 122.607 108.256 125.302C108.256 126.111 108.21 127.486 107.215 127.709C105.877 128.016 105.245 126.259 104.919 125.293C104.154 122.888 103.594 120.422 103.246 117.922C102.8 115.078 102.568 112.196 102.317 109.343C102.317 109.231 102.131 109.25 102.131 109.343C102.131 115.022 102.196 120.961 104.315 126.324C104.468 126.876 104.767 127.375 105.181 127.77C105.595 128.164 106.109 128.439 106.667 128.564H106.722C106.713 128.595 106.713 128.627 106.722 128.657C106.722 128.815 106.788 128.973 106.815 129.131C106.843 129.289 106.862 129.401 106.89 129.531C106.945 129.81 106.992 130.089 107.057 130.358C107.06 130.385 107.068 130.411 107.082 130.435C107.095 130.458 107.112 130.479 107.133 130.496C107.155 130.513 107.179 130.525 107.205 130.533C107.231 130.54 107.258 130.543 107.285 130.54C107.312 130.536 107.338 130.528 107.361 130.515C107.385 130.502 107.406 130.484 107.423 130.463C107.439 130.442 107.452 130.418 107.459 130.392C107.467 130.366 107.469 130.339 107.466 130.312C107.501 130.3 107.532 130.278 107.553 130.248C107.575 130.218 107.587 130.182 107.587 130.145C107.565 129.59 107.439 129.044 107.215 128.537C107.545 128.473 107.853 128.326 108.11 128.109C108.367 127.893 108.565 127.615 108.684 127.3C109.003 126.236 109.066 125.112 108.87 124.019Z" fill="#263238"/>
<path d="M104.77 129.075C109.121 130.896 113.306 133.089 117.281 135.628C117.439 135.73 117.281 135.972 117.151 135.888C112.931 133.834 108.618 131.864 104.519 129.586C104.463 129.547 104.422 129.489 104.405 129.422C104.388 129.355 104.395 129.285 104.426 129.223C104.456 129.161 104.507 129.113 104.57 129.085C104.634 129.058 104.705 129.055 104.77 129.075Z" fill="#263238"/>
<path d="M104.296 71.9689C106.64 73.823 109.188 75.404 111.89 76.6813C107.772 69.7289 108.395 54.0301 108.897 56.233C111.304 66.9404 118.033 78.661 120.599 79.2466H120.645C127.017 79.9825 133.455 78.6218 138.984 75.3707C133.676 67.5074 133.89 51.5392 134.243 52.5151C138.147 62.9251 146.206 69.0132 147.6 68.9946C152.768 64.0498 155.5 59.1143 154.766 58.6124C149.403 54.9689 144.839 45.5999 140.722 35.6453C136.651 25.858 134.587 16.5447 128.862 7.8077C123.62 -0.195017 113.154 -1.71005 107.224 2.37961C91.6644 13.115 100.978 69.3664 104.296 71.9689Z" fill="#263238"/>
<path d="M120.469 2.81648C124.782 3.8296 128.323 7.77984 130.581 11.4326C133.584 16.2845 135.563 21.7869 138.017 26.9176C142.803 37.0444 149.141 46.3616 156.802 54.5321C156.827 54.5687 156.839 54.6129 156.836 54.6573C156.833 54.7018 156.814 54.7438 156.784 54.7763C156.754 54.8089 156.713 54.8301 156.669 54.8364C156.625 54.8427 156.58 54.8337 156.542 54.8109C148.176 48.5091 142.441 39.4654 137.748 30.1614C135.34 25.4118 133.454 20.4392 131.186 15.6245C129.996 12.9653 128.451 10.4796 126.594 8.23528C124.785 6.26874 122.597 4.688 120.162 3.58794C120.06 3.54727 119.978 3.46761 119.934 3.36652C119.891 3.26542 119.889 3.15115 119.93 3.04885C119.97 2.94655 120.05 2.86459 120.151 2.82101C120.252 2.77743 120.367 2.77581 120.469 2.81648Z" fill="#263238"/>
<path d="M175.893 205.162L114.817 216.074L112.614 152.275L155.872 144.542L175.893 205.162Z" fill="#EBEBEB"/>
<path d="M155.872 144.542L160.204 207.969L175.902 205.162L155.872 144.542Z" fill="#DBDBDB"/>
<path d="M124.707 154.785H122.458C122.458 154.729 122.458 148.566 122.458 142.33C122.458 135.591 128.183 131.269 133.612 130.972C137.711 130.749 142.758 132.886 143.529 139.625C144.347 146.828 144.533 150.267 144.542 150.407L142.293 150.528C142.293 150.528 142.107 147.005 141.289 139.876C140.703 134.699 137.004 133.044 133.732 133.221C129.317 133.453 124.707 136.939 124.67 142.348C124.67 148.576 124.707 154.729 124.707 154.785Z" fill="#263238"/>
<path d="M168.095 201.314C167.119 197.401 166.236 193.46 165.306 189.529C164.377 185.597 163.568 181.647 162.695 177.697C161.821 173.746 161.031 169.805 160.241 165.846L159.06 159.907C158.689 157.918 158.298 155.938 157.954 153.949C158.447 155.901 158.884 157.871 159.376 159.832L160.733 165.734C161.663 169.675 162.471 173.616 163.345 177.567C164.219 181.517 165.009 185.458 165.799 189.417C166.589 193.377 167.388 197.336 168.095 201.314Z" fill="white"/>
<path d="M126.501 154.163C126.626 154.741 126.576 155.344 126.358 155.895C126.14 156.446 125.764 156.919 125.276 157.256C124.789 157.593 124.213 157.777 123.621 157.786C123.029 157.795 122.447 157.628 121.95 157.307C121.453 156.985 121.062 156.524 120.827 155.98C120.593 155.436 120.524 154.835 120.632 154.253C120.739 153.67 121.016 153.133 121.429 152.708C121.842 152.283 122.371 151.99 122.95 151.867C123.725 151.701 124.535 151.85 125.2 152.28C125.866 152.711 126.334 153.388 126.501 154.163Z" fill="#263238"/>
<path d="M146.16 149.896C146.286 150.474 146.237 151.076 146.02 151.627C145.803 152.177 145.427 152.651 144.94 152.987C144.453 153.323 143.877 153.507 143.286 153.515C142.694 153.524 142.113 153.356 141.617 153.033C141.121 152.71 140.732 152.247 140.5 151.703C140.268 151.158 140.203 150.557 140.313 149.976C140.424 149.395 140.704 148.859 141.12 148.438C141.535 148.016 142.066 147.728 142.646 147.609C143.415 147.449 144.216 147.6 144.874 148.028C145.532 148.457 145.994 149.128 146.16 149.896Z" fill="#263238"/>
<path d="M168.783 223.463H97.112L107.559 150.453H158.336L168.783 223.463Z" fill="white"/>
<path opacity="0.1" d="M158.326 150.453L150.37 223.463H168.782L158.326 150.453Z" fill="black"/>
<path d="M121.863 155.491L119.623 155.017C119.623 154.952 120.934 148.818 122.319 142.628C123.825 135.935 130.405 132.859 135.898 133.742C140.016 134.411 144.58 137.618 143.892 144.487C143.158 151.829 142.6 155.287 142.581 155.436L140.323 155.064C140.323 155.064 140.89 151.523 141.615 144.254C142.144 138.984 138.826 136.54 135.536 136.001C131.093 135.285 125.758 137.757 124.55 143.13C123.128 149.301 121.873 155.417 121.863 155.491Z" fill="#263238"/>
<path d="M120.739 158.289C122.418 158.289 123.778 156.928 123.778 155.249C123.778 153.571 122.418 152.21 120.739 152.21C119.06 152.21 117.7 153.571 117.7 155.249C117.7 156.928 119.06 158.289 120.739 158.289Z" fill="#263238"/>
<path d="M141.215 158.289C142.894 158.289 144.254 156.928 144.254 155.249C144.254 153.571 142.894 152.21 141.215 152.21C139.536 152.21 138.176 153.571 138.176 155.249C138.176 156.928 139.536 158.289 141.215 158.289Z" fill="#263238"/>
<path d="M65.0728 17.8555L73.6983 44.6985C74.0329 45.4886 73.6983 46.1578 72.8896 46.2136L58.8082 47.143C58.3769 47.136 57.9564 47.0075 57.5947 46.7724C57.233 46.5374 56.9449 46.2052 56.7634 45.8139L48.1472 18.9616C47.8033 18.1808 48.1472 17.5023 48.9465 17.4558L63.028 16.5264C63.4598 16.5312 63.8813 16.6588 64.2433 16.8941C64.6054 17.1295 64.8931 17.4629 65.0728 17.8555Z" fill="#A6A6A6"/>
<path d="M63.4 17.9487L72.0069 44.8103C72.1009 44.9577 72.154 45.1274 72.1608 45.3021C72.1676 45.4768 72.1278 45.6501 72.0455 45.8043C71.9632 45.9585 71.8414 46.088 71.6925 46.1796C71.5436 46.2712 71.373 46.3215 71.1982 46.3254L57.1168 47.2549C56.686 47.2508 56.2652 47.1246 55.9032 46.891C55.5413 46.6574 55.253 46.3259 55.0719 45.935L46.4558 19.0827C46.1119 18.3019 46.4558 17.6234 47.2551 17.5769L61.3365 16.6475C61.7685 16.6463 62.1919 16.7681 62.5572 16.9985C62.9226 17.2289 63.2149 17.5585 63.4 17.9487Z" fill="#DBDBDB"/>
<path d="M59.6257 19.436C59.6451 19.6727 59.7343 19.8984 59.8822 20.0844C60.03 20.2703 60.2298 20.4082 60.4561 20.4804C60.6824 20.5526 60.9251 20.556 61.1533 20.4901C61.3816 20.4243 61.5851 20.292 61.7381 20.1103C61.891 19.9286 61.9866 19.7055 62.0125 19.4693C62.0385 19.2332 61.9938 18.9947 61.884 18.784C61.7742 18.5733 61.6043 18.4 61.3958 18.2861C61.1874 18.1721 60.9498 18.1227 60.7132 18.144C60.5563 18.1556 60.4033 18.1985 60.2632 18.2701C60.1231 18.3418 59.9988 18.4407 59.8974 18.561C59.7961 18.6814 59.7199 18.8208 59.6732 18.9711C59.6266 19.1213 59.6104 19.2794 59.6257 19.436Z" fill="#455A64"/>
<path d="M113.107 56.2708C106.378 73.8098 90.0937 97.1673 82.7044 97.7715C79.191 98.0782 72.9636 99.3702 68.056 95.6616C57.3299 87.5752 47.6821 71.3095 45.2562 61.7732C44.401 58.3806 60.5738 49.6901 63.2506 52.3391C69.506 58.4643 77.1927 70.8355 78.1779 70.6868C81.9423 70.1198 95.8378 56.7448 105.56 47.2828C117.336 35.8318 115.784 49.2812 113.107 56.2708Z" fill="#F7A9A0"/>
<path d="M43.5557 44.0389C44.8104 36.9378 46.2325 35.3019 44.1133 28.7399C42.7191 24.4365 44.8755 21.6945 48.2309 25.022C53.7333 30.4036 54.0308 39.8935 53.1849 43.2396L43.5557 44.0389Z" fill="#F7A9A0"/>
<path d="M46.2973 64.7006C46.2973 64.7006 42.4679 55.2107 43.0628 47.5054C43.481 42.1703 45.6653 30.6821 59.9884 23.6553C63.3902 21.9915 69.4132 22.0287 64.8495 26.7597C61.6057 30.1244 58.5384 31.2769 57.0141 33.582C57.0141 33.582 64.6636 34.5115 66.1972 38.0063C67.5426 41.039 68.6701 44.1637 69.5712 47.3567C69.0239 47.6515 68.459 47.9122 67.8796 48.1375C67.8796 48.1375 69.0042 51.5207 66.8572 56.5027L46.2973 64.7006Z" fill="#F7A9A0"/>
<path d="M44.2711 42.4772C46.2694 40.5161 50.5728 36.4264 55.2667 34.3072C60.4717 31.9557 71.1327 28.8326 72.8243 32.6899C74.0698 35.4783 70.1103 37.0677 70.1103 37.0677C70.1103 37.0677 74.7576 36.7052 75.3525 39.5122C75.8637 42.0683 72.7221 43.0814 72.7221 43.0814C72.7221 43.0814 75.6034 43.3509 75.622 45.8698C75.622 48.937 69.6176 47.8774 66.9501 51.019C66.3552 51.7533 44.2711 42.4772 44.2711 42.4772Z" fill="#F7A9A0"/>
<path d="M56.8283 40.2284C60.7909 37.8368 65.389 36.7116 70.0082 37.0032C70.129 37.0032 70.1848 37.1054 70.0732 37.124C65.5561 37.6343 61.1178 38.6924 56.8562 40.2749L56.8283 40.2284Z" fill="#263238"/>
<path d="M59.3566 45.4148C61.3828 44.2808 67.5173 42.2639 72.7037 42.9796C72.8246 42.9796 72.871 43.0911 72.7595 43.1004C68.2235 43.3821 63.7338 44.174 59.3752 45.4613C59.3752 45.4613 59.338 45.4241 59.3566 45.4148Z" fill="#263238"/>
<path d="M68.8925 58.195L49.4852 80.6974C49.4852 80.6974 66.1041 96.9538 71.5136 98.2365C75.9119 99.2726 80.5108 99.0764 84.8049 97.6695C88.5879 96.582 107.187 75.0277 113.302 57.405C119.418 39.7823 112.856 38.9364 102.418 49.6067C91.9804 60.277 79.0609 70.78 78.4381 70.055C77.8154 69.33 68.8925 58.195 68.8925 58.195Z" fill="white"/>
<path opacity="0.1" d="M68.8925 58.195L49.4852 80.6974C49.4852 80.6974 66.1041 96.9538 71.5136 98.2365C75.9119 99.2726 80.5108 99.0764 84.8049 97.6695C88.5879 96.582 107.187 75.0277 113.302 57.405C119.418 39.7823 112.856 38.9364 102.418 49.6067C91.9804 60.277 79.0609 70.78 78.4381 70.055C77.8154 69.33 68.8925 58.195 68.8925 58.195Z" fill="black"/>
<path d="M72.4155 64.3296C71.6255 65.0453 65.1471 72.3695 63.7064 74.0146C62.2658 75.6598 56.7633 82.3799 55.3412 84.0622C55.2854 84.1365 55.3412 84.2388 55.4527 84.1644C56.2056 83.3465 57.0235 82.5843 57.7764 81.7664C58.5293 80.9485 62.8513 76.0409 64.2827 74.405C65.7141 72.7692 71.9601 65.3241 72.555 64.4225C72.6014 64.3296 72.4806 64.3296 72.4155 64.3296Z" fill="#263238"/>
<path d="M95.3912 87.1946L91.7942 118.415C91.7942 118.415 142.478 117.653 154.998 116.389C154.998 116.389 142.999 58.5763 129.038 44.2997C122.058 37.1614 114.166 37.9421 109.222 43.2308C107.976 44.5692 93.2999 65.222 91.9243 72.9738C90.7625 79.8332 95.3912 87.1946 95.3912 87.1946Z" fill="white"/>
<path d="M93.3839 82.119C92.8059 80.3499 92.4927 78.5051 92.4545 76.6444C92.5797 72.8506 93.5313 69.1299 95.2429 65.7418C96.1723 63.7992 97.2877 61.9588 98.1893 60.0163C98.1893 59.9605 98.1335 59.9233 98.1056 59.9698C97.2275 61.2692 96.4268 62.6193 95.7076 64.013C95.7189 63.9652 95.7344 63.9185 95.7541 63.8735C95.9864 63.1207 96.2188 62.3864 96.4883 61.6521C96.4883 61.5778 96.3861 61.522 96.3489 61.5963C96.0515 62.312 95.7634 63.0277 95.5031 63.762C95.3399 64.2248 95.2034 64.6965 95.0941 65.1748C94.1944 66.8834 93.4329 68.6612 92.817 70.4914C91.549 74.1139 91.4644 78.0456 92.5753 81.7193C92.8884 82.6766 93.2736 83.6088 93.7278 84.5077C94.2204 85.5116 94.8432 86.441 95.373 87.417C95.373 87.5006 95.5403 87.417 95.4938 87.3426C94.618 85.6762 93.9112 83.9262 93.3839 82.119Z" fill="#263238"/>
<path d="M120.804 43.4255C120.385 44.355 114.511 49.8296 110.077 48.7793C108.637 48.4261 110.17 40.4141 110.17 40.4141V39.8006L109.892 31.2123L120.748 26.8253L122.3 26.2676C122.3 26.2676 122.226 28.6284 122.105 31.5562C122.105 31.6957 122.105 31.8351 122.105 31.9745C122.105 32.1139 122.105 32.2998 122.105 32.4578C122.105 32.8947 122.105 33.3408 122.105 33.787C122.105 34.2331 122.105 34.4562 122.04 34.8094C121.975 35.1626 121.984 35.5158 121.965 35.869C121.749 38.4112 121.361 40.9358 120.804 43.4255Z" fill="#F7A9A0"/>
<path d="M122.087 31.6026C120.81 33.7644 119.078 35.6219 117.01 37.0457C114.943 38.4696 112.59 39.4255 110.115 39.847L109.836 31.2587L120.692 26.8716L122.245 26.314C122.245 26.314 122.198 28.6748 122.087 31.6026Z" fill="#263238"/>
<path d="M99.723 18.032C97.6596 32.9872 106.378 35.9057 109.603 36.3518C112.531 36.7515 122.551 37.746 126.148 23.0883C129.745 8.43061 123.443 2.74227 116.807 1.47819C110.17 0.214117 101.749 3.08618 99.723 18.032Z" fill="#F7A9A0"/>
<path d="M103.766 14.9371C104.114 14.9311 104.462 14.9063 104.807 14.8627C105.178 14.8899 105.548 14.7917 105.857 14.5839C105.942 14.5006 105.997 14.3911 106.012 14.273C106.027 14.155 106.002 14.0353 105.941 13.9332C105.793 13.7491 105.599 13.6074 105.379 13.5226C105.158 13.4377 104.919 13.4126 104.686 13.4499C104.201 13.4515 103.734 13.6337 103.376 13.9611C103.298 14.041 103.246 14.1415 103.225 14.2504C103.203 14.3594 103.214 14.4722 103.255 14.5753C103.296 14.6784 103.367 14.7674 103.457 14.8316C103.548 14.8957 103.655 14.9324 103.766 14.9371Z" fill="#263238"/>
<path d="M113.609 16.4063C113.265 16.3134 112.958 16.174 112.624 16.0531C112.263 15.9761 111.936 15.7836 111.694 15.5048C111.636 15.4012 111.613 15.2813 111.63 15.1636C111.647 15.046 111.702 14.9372 111.787 14.8541C111.979 14.7154 112.204 14.6302 112.439 14.6073C112.674 14.5844 112.911 14.6247 113.126 14.724C113.595 14.8569 113.997 15.1624 114.25 15.5791C114.301 15.6768 114.323 15.7871 114.313 15.8967C114.303 16.0064 114.262 16.111 114.195 16.198C114.127 16.2851 114.036 16.3509 113.932 16.3879C113.829 16.4248 113.716 16.4312 113.609 16.4063Z" fill="#263238"/>
<path d="M111.091 19.9004C111.091 19.9004 111.165 19.9562 111.156 20.0026C110.96 21.0065 110.905 22.1962 111.769 22.6888C111.769 22.6888 111.769 22.7539 111.769 22.7446C110.654 22.4007 110.747 20.8206 111.091 19.9004Z" fill="#263238"/>
<path d="M112.169 18.9896C113.824 19.129 113.424 22.4193 111.89 22.2892C110.357 22.1591 110.784 18.8687 112.169 18.9896Z" fill="#263238"/>
<path d="M112.801 19.2402C113.061 19.4633 113.303 19.8258 113.647 19.9001C113.99 19.9745 114.39 19.6864 114.688 19.3889H114.743C114.678 20.021 114.353 20.6437 113.665 20.653C112.977 20.6623 112.661 20.0488 112.578 19.3982C112.568 19.3146 112.689 19.1473 112.801 19.2402Z" fill="#263238"/>
<path d="M105.226 18.9336C105.226 18.9336 105.142 18.9336 105.133 19.0172C105.049 20.0397 104.78 21.2015 103.813 21.4339V21.4896C104.966 21.4617 105.31 19.9188 105.226 18.9336Z" fill="#263238"/>
<path d="M104.435 17.7626C102.809 17.4466 102.298 20.7276 103.803 21.0158C105.309 21.3039 105.802 18.0229 104.435 17.7626Z" fill="#263238"/>
<path d="M103.72 17.8553C103.432 17.9854 103.125 18.2642 102.79 18.2364C102.456 18.2085 102.214 17.8088 102.037 17.437C102.037 17.437 102.037 17.437 101.982 17.437C101.87 18.0598 101.982 18.7383 102.558 18.952C103.134 19.1658 103.571 18.6732 103.822 18.0783C103.896 18.0133 103.831 17.8553 103.72 17.8553Z" fill="#263238"/>
<path d="M109.752 28.08C109.482 28.303 109.213 28.6098 108.822 28.619C108.443 28.5793 108.076 28.4623 107.744 28.2751C107.744 28.2751 107.67 28.2751 107.688 28.2751C107.822 28.4874 108.009 28.6603 108.231 28.7763C108.453 28.8923 108.702 28.9471 108.952 28.9351C109.164 28.8937 109.36 28.7918 109.515 28.6417C109.67 28.4916 109.778 28.2997 109.826 28.0893C109.817 28.0787 109.805 28.072 109.791 28.0703C109.777 28.0685 109.763 28.072 109.752 28.08Z" fill="#263238"/>
<path d="M105.988 23.7766C105.988 23.7766 105.569 25.273 105.476 25.9887C105.476 26.0538 105.634 26.1095 105.876 26.156C106.477 26.3496 107.12 26.3748 107.734 26.229C108.349 26.0832 108.912 25.7718 109.362 25.3288C109.37 25.3227 109.376 25.3151 109.381 25.3064C109.386 25.2977 109.389 25.2882 109.391 25.2782C109.392 25.2683 109.391 25.2582 109.389 25.2486C109.386 25.2389 109.382 25.2298 109.376 25.2219C109.369 25.214 109.362 25.2073 109.353 25.2023C109.345 25.1973 109.335 25.1941 109.325 25.1928C109.315 25.1915 109.305 25.1922 109.295 25.1948C109.286 25.1974 109.277 25.2019 109.269 25.208C108.271 25.7138 107.135 25.8802 106.034 25.682C106.034 25.4775 106.833 23.1538 106.722 23.126C106.157 23.1008 105.591 23.1508 105.04 23.2747C105.811 20.1424 107.084 17.1588 107.828 13.98C107.832 13.9568 107.828 13.933 107.817 13.9124C107.805 13.8919 107.787 13.8759 107.765 13.8672C107.743 13.8584 107.719 13.8575 107.697 13.8645C107.674 13.8715 107.655 13.886 107.642 13.9056C106.185 17.0658 105.045 20.363 104.24 23.7487C104.138 24.2041 105.681 23.8602 105.988 23.7766Z" fill="#263238"/>
<path d="M124.838 23.1444C121.12 22.8749 120.506 11.4703 120.441 10.0761C120.441 11.0056 120.385 15.6529 120.023 15.8109C119.628 15.7837 119.239 15.6959 118.87 15.5506C118.891 14.9888 118.866 14.4262 118.796 13.8683C118.796 13.6081 118.675 14.426 118.499 15.4298L117.82 15.216C117.907 14.0221 117.836 12.8219 117.606 11.6469C117.513 11.2007 117.318 13.1805 116.835 14.9093C113.717 13.8645 110.494 13.1663 107.224 12.8273C106.295 12.7622 105.505 12.7437 104.798 12.7437C104.845 11.368 105.058 9.89949 104.947 10.2155C104.64 11.0402 104.416 11.8933 104.278 12.7622C103.887 12.7622 103.534 12.7622 103.218 12.7622C103.218 10.8011 104.25 7.72453 103.915 8.18927C102.933 9.62074 102.233 11.2264 101.852 12.9203C100.504 13.134 100.132 13.3757 100.104 13.0318C100.667 9.21283 102.567 5.71781 105.467 3.17014C110.254 -1.00317 119.512 -1.73745 124.447 5.1592C124.447 5.1592 128.621 8.11491 129.095 12.5949C129.569 17.075 126.966 23.3024 124.838 23.1444Z" fill="#263238"/>
<path d="M123.61 23.9069C123.61 23.9069 127.142 19.3711 129.187 20.6538C131.232 21.9365 128.444 28.6286 125.888 29.428C125.567 29.5533 125.225 29.6127 124.881 29.6025C124.537 29.5923 124.199 29.5128 123.886 29.3687C123.574 29.2247 123.294 29.019 123.062 28.764C122.831 28.5091 122.654 28.2101 122.542 27.8851L123.61 23.9069Z" fill="#F7A9A0"/>
<path d="M128.36 22.5498V22.6149C126.566 23.2376 125.571 24.827 124.828 26.4814C124.938 26.3108 125.084 26.1662 125.256 26.0576C125.428 25.949 125.621 25.879 125.823 25.8525C126.025 25.826 126.229 25.8435 126.423 25.904C126.618 25.9645 126.796 26.0663 126.947 26.2026C126.993 26.2026 126.947 26.3049 126.901 26.2956C126.597 26.1804 126.264 26.1623 125.95 26.2439C125.635 26.3255 125.354 26.5027 125.144 26.751C124.785 27.1676 124.473 27.6227 124.214 28.108C124.121 28.2567 123.843 28.1638 123.908 27.9872V27.9407C124.056 25.7007 125.915 22.652 128.36 22.5498Z" fill="#263238"/>
<path d="M131.762 44.2619C149.152 58.4734 163.215 80.2044 163.958 85.7068C164.776 91.767 162.657 113.767 156.922 124.94C155.407 127.886 132.923 114.474 134.411 111.258C137.273 105.068 141.521 88.1049 140.917 84.7309C140.35 81.6079 131.492 62.8048 125.432 52.9338C119.818 43.8808 123.666 37.6534 131.762 44.2619Z" fill="#F7A9A0"/>
<path d="M117.104 137.99C117.569 138.648 118.225 139.148 118.983 139.422C119.74 139.697 120.564 139.732 121.343 139.523C121.373 140.892 121.879 142.206 122.774 143.241C124.438 144.989 127.905 143.139 127.905 143.139C128.229 144.564 128.974 145.859 130.042 146.857C131.808 148.363 135.573 146.996 135.573 146.996C136.587 148.13 137.977 148.859 139.486 149.051C143.538 149.394 147.275 144.403 149.71 141.299C152.145 138.194 156.003 127.031 156.96 124.987L136.986 109.381C136.986 109.381 122.207 120.358 119.902 124.438C117.932 127.849 115.422 135.406 117.104 137.99Z" fill="#F7A9A0"/>
<path d="M121.129 139.132C122.319 134.987 124.661 131.409 126.808 127.7C126.855 127.616 126.985 127.7 126.929 127.774C124.763 131.436 123.341 135.48 121.352 139.216C121.269 139.318 121.101 139.244 121.129 139.132Z" fill="#263238"/>
<path d="M127.7 142.869C128.057 141.952 128.535 141.086 129.122 140.295C129.689 139.421 130.275 138.547 130.869 137.692C132.059 135.982 133.286 134.29 134.587 132.636C134.643 132.561 134.773 132.636 134.717 132.71C133.528 134.43 132.375 136.158 131.26 137.915C130.702 138.845 130.154 139.681 129.615 140.573C129.15 141.444 128.596 142.263 127.96 143.018C127.94 143.052 127.908 143.078 127.869 143.088C127.831 143.099 127.79 143.093 127.756 143.074C127.721 143.054 127.696 143.021 127.685 142.983C127.675 142.945 127.68 142.904 127.7 142.869Z" fill="#263238"/>
<path d="M135.62 146.884C135.97 146.056 136.46 145.295 137.07 144.635C137.637 143.863 138.185 143.092 138.743 142.311C139.839 140.759 140.945 139.207 141.986 137.617C142.042 137.543 142.163 137.617 142.117 137.692C141.057 139.318 140.025 140.954 138.956 142.562C138.436 143.355 137.906 144.145 137.367 144.932C136.946 145.691 136.396 146.371 135.74 146.94C135.733 146.956 135.72 146.968 135.703 146.974C135.686 146.98 135.668 146.98 135.652 146.972C135.636 146.965 135.624 146.951 135.618 146.935C135.611 146.918 135.612 146.9 135.62 146.884Z" fill="#263238"/>
<path d="M123.397 51.0938C126.752 60.5558 140.295 83.0582 140.211 85.2238C140.127 87.3895 133.519 109.957 133.519 109.957L160.371 126.26C160.371 126.26 166.357 95.5316 164.089 84.8428C162.37 76.6263 143.446 52.7761 134.244 45.4333C125.042 38.0905 119.103 38.9735 123.397 51.0938Z" fill="white"/>
<path opacity="0.1" d="M123.397 51.0938C126.752 60.5558 140.295 83.0582 140.211 85.2238C140.127 87.3895 133.519 109.957 133.519 109.957L160.371 126.26C160.371 126.26 166.357 95.5316 164.089 84.8428C162.37 76.6263 143.446 52.7761 134.244 45.4333C125.042 38.0905 119.103 38.9735 123.397 51.0938Z" fill="black"/>
<path d="M140.239 83.9131C139.804 82.3284 139.134 80.8182 138.25 79.4331C136.549 76.3007 134.857 73.1591 133.073 70.0733C132.078 68.3631 128.081 61.8103 126.901 59.7097C126.789 59.5146 126.511 59.7097 126.613 59.8863C127.254 61.169 129.15 64.5802 130.479 66.9503C130.275 66.6993 130.07 66.4391 129.847 66.1974C129.448 65.7513 129.039 65.268 128.593 64.8869C128.094 64.4734 127.636 64.0127 127.226 63.5113C127.18 63.4369 127.05 63.5113 127.105 63.5856C127.853 64.5556 128.65 65.4863 129.494 66.374C129.903 66.8481 130.312 67.3035 130.702 67.8054C130.972 68.1214 131.223 68.456 131.502 68.7349C131.567 68.8557 131.632 68.958 131.678 69.0509C133.426 72.0717 135.071 75.1575 136.716 78.234C137.585 79.7052 138.367 81.226 139.058 82.7884C139.363 83.5109 139.506 84.2914 139.477 85.0749C139.385 86.0079 139.188 86.9276 138.891 87.8169C137.962 91.1722 137.088 94.5369 136.214 97.9016C135.712 99.8442 135.21 101.796 134.746 103.748C134.281 105.7 133.742 107.652 133.463 109.641C133.463 109.771 133.64 109.882 133.695 109.734C134.325 108.056 134.868 106.346 135.322 104.612C135.836 102.865 136.329 101.114 136.8 99.3608C137.729 95.8196 138.659 92.269 139.588 88.7091C140.016 87.1569 140.546 85.5397 140.239 83.9131Z" fill="#263238"/>
<path d="M160.101 119.214C152.817 114.078 145.259 109.343 137.459 105.031C137.444 105.027 137.428 105.028 137.413 105.034C137.398 105.04 137.386 105.05 137.378 105.064C137.369 105.077 137.366 105.093 137.367 105.109C137.368 105.125 137.374 105.139 137.385 105.151C144.657 110.305 152.203 115.062 159.99 119.4C160.013 119.408 160.039 119.407 160.062 119.398C160.086 119.389 160.106 119.373 160.118 119.351C160.131 119.33 160.137 119.304 160.133 119.28C160.13 119.255 160.119 119.232 160.101 119.214Z" fill="#263238"/>
</svg>
