<svg width="15" height="14" viewBox="0 0 15 14" fill="none" xmlns="http://www.w3.org/2000/svg">
<path d="M8.26313 6.99925L13.7716 1.4989C13.9363 1.33424 14.0288 1.11091 14.0288 0.878038C14.0288 0.645168 13.9363 0.421835 13.7716 0.257171C13.607 0.0925073 13.3837 0 13.1508 0C12.918 0 12.6947 0.0925073 12.53 0.257171L7.03027 5.76627L1.53051 0.257171C1.36586 0.0925073 1.14255 2.06752e-07 0.90971 2.08487e-07C0.676864 2.10222e-07 0.453556 0.0925073 0.288909 0.257171C0.124263 0.421835 0.0317658 0.645168 0.0317658 0.878038C0.0317658 1.11091 0.124263 1.33424 0.288909 1.4989L5.79742 6.99925L0.288909 12.4996C0.206957 12.5809 0.141909 12.6776 0.0975185 12.7842C0.053128 12.8907 0.0302734 13.005 0.0302734 13.1205C0.0302734 13.2359 0.053128 13.3502 0.0975185 13.4568C0.141909 13.5633 0.206957 13.66 0.288909 13.7413C0.370193 13.8233 0.466899 13.8884 0.573449 13.9327C0.679998 13.9771 0.794283 14 0.90971 14C1.02514 14 1.13942 13.9771 1.24597 13.9327C1.35252 13.8884 1.44923 13.8233 1.53051 13.7413L7.03027 8.23224L12.53 13.7413C12.6113 13.8233 12.708 13.8884 12.8146 13.9327C12.9211 13.9771 13.0354 14 13.1508 14C13.2663 14 13.3805 13.9771 13.4871 13.9327C13.5936 13.8884 13.6904 13.8233 13.7716 13.7413C13.8536 13.66 13.9186 13.5633 13.963 13.4568C14.0074 13.3502 14.0303 13.2359 14.0303 13.1205C14.0303 13.005 14.0074 12.8907 13.963 12.7842C13.9186 12.6776 13.8536 12.5809 13.7716 12.4996L8.26313 6.99925Z" fill="#F1F3FF"/>
</svg>
