<svg width="427" height="914" viewBox="0 0 427 914" fill="none" xmlns="http://www.w3.org/2000/svg">
<rect width="427" height="914" fill="#321292"/>
<g style="mix-blend-mode:overlay" opacity="0.6">
<rect width="427" height="914" fill="#DAF0FB"/>
</g>
<mask id="mask0_1027_3007" style="mask-type:alpha" maskUnits="userSpaceOnUse" x="0" y="419" width="427" height="495">
<path d="M427 419L427 665.999L427 913.999L354 913.999L246.485 913.999L179 913.998L106 913.998L0.000671387 914L0.000663055 660.223C0.000663055 660.223 65.6525 750.09 100.001 660.223C134.485 569.999 188.485 517.999 246.485 601.999C297.58 675.999 315.003 419.689 427 419Z" fill="#2A3680"/>
</mask>
<g mask="url(#mask0_1027_3007)">
<rect width="427" height="914" fill="#2A3680"/>
</g>
<g opacity="0.2">
<path d="M374.5 167.138L383.536 172.738L385.252 169.975C385.5 169.578 385.854 169.257 386.274 169.049C386.693 168.842 387.163 168.755 387.629 168.799C388.161 168.842 388.684 168.859 389.217 168.85C389.685 168.833 390.148 168.947 390.554 169.179C390.96 169.411 391.294 169.752 391.517 170.163L393.053 173.038L402.424 168.009L400.888 165.143C400.674 164.728 400.578 164.263 400.608 163.798C400.638 163.332 400.795 162.884 401.06 162.5C401.369 162.063 401.655 161.61 401.918 161.144C402.137 160.73 402.468 160.387 402.873 160.152C403.278 159.916 403.741 159.8 404.209 159.814L407.461 159.914L407.797 149.29L404.527 149.196C404.058 149.178 403.604 149.03 403.215 148.767C402.826 148.505 402.519 148.139 402.327 147.711C402.215 147.479 402.095 147.248 401.975 147.011C401.855 146.774 401.717 146.548 401.58 146.324C401.343 145.926 401.217 145.47 401.217 145.007C401.217 144.543 401.343 144.087 401.58 143.689L403.296 140.9L394.26 135.3L392.544 138.072C392.294 138.469 391.938 138.789 391.517 138.995C391.096 139.201 390.625 139.286 390.158 139.239C389.635 139.196 389.111 139.179 388.579 139.188C388.113 139.196 387.654 139.077 387.251 138.844C386.847 138.611 386.515 138.273 386.288 137.866L384.743 135L375.372 140.029L376.908 142.895C377.123 143.309 377.221 143.774 377.192 144.239C377.164 144.705 377.009 145.154 376.745 145.538C376.432 145.969 376.145 146.419 375.887 146.885C375.665 147.299 375.333 147.642 374.926 147.877C374.52 148.112 374.056 148.229 373.587 148.215L370.326 148.121L370 158.745L373.261 158.845C373.727 158.869 374.178 159.018 374.565 159.278C374.953 159.538 375.262 159.899 375.461 160.321C375.573 160.561 375.684 160.793 375.813 161.033C375.942 161.273 376.062 161.488 376.199 161.711C376.445 162.109 376.576 162.569 376.576 163.037C376.576 163.505 376.445 163.965 376.199 164.363L374.5 167.138ZM381.211 158.138C380.398 156.619 380.054 154.893 380.223 153.179C380.391 151.465 381.063 149.839 382.156 148.507C383.248 147.175 384.71 146.196 386.359 145.696C388.007 145.195 389.766 145.194 391.415 145.693C393.064 146.192 394.527 147.169 395.621 148.5C396.714 149.831 397.389 151.456 397.559 153.17C397.728 154.884 397.386 156.611 396.575 158.13C395.764 159.65 394.521 160.895 393.002 161.708C391.993 162.248 390.888 162.584 389.75 162.697C388.611 162.81 387.462 162.697 386.367 162.366C385.272 162.034 384.253 161.49 383.368 160.765C382.484 160.039 381.751 159.147 381.211 158.138Z" fill="#EBEBEB"/>
<path d="M371.589 268.309L375.313 274.762L377.287 273.621C377.57 273.451 377.896 273.366 378.227 273.376C378.557 273.387 378.877 273.493 379.149 273.681C379.458 273.885 379.779 274.072 380.11 274.239C380.406 274.38 380.655 274.603 380.828 274.881C381.002 275.159 381.092 275.481 381.088 275.809V278.092H388.545V275.809C388.541 275.481 388.631 275.159 388.804 274.881C388.978 274.603 389.227 274.38 389.523 274.239C389.854 274.072 390.174 273.885 390.484 273.681C390.755 273.493 391.076 273.387 391.406 273.376C391.736 273.366 392.063 273.451 392.346 273.621L394.32 274.762L398.044 268.309L396.062 267.159C395.781 266.993 395.552 266.751 395.4 266.462C395.248 266.172 395.181 265.846 395.204 265.52V264.42C395.182 264.094 395.25 263.769 395.401 263.479C395.553 263.19 395.781 262.948 396.062 262.781L398.053 261.64L394.329 255.187L392.347 256.328C392.062 256.491 391.738 256.57 391.41 256.558C391.082 256.546 390.765 256.442 390.493 256.259C390.184 256.059 389.858 255.873 389.532 255.701C389.236 255.56 388.987 255.337 388.813 255.059C388.64 254.781 388.55 254.459 388.554 254.131V251.849H381.096V254.132C381.1 254.46 381.01 254.782 380.837 255.06C380.663 255.338 380.414 255.561 380.118 255.702C379.792 255.874 379.474 256.062 379.165 256.26C378.891 256.443 378.572 256.546 378.244 256.558C377.915 256.571 377.589 256.491 377.303 256.329L375.321 255.188L371.597 261.641L373.579 262.779C373.86 262.946 374.089 263.187 374.241 263.477C374.392 263.766 374.46 264.092 374.437 264.418V265.518C374.459 265.845 374.391 266.172 374.239 266.463C374.088 266.753 373.859 266.997 373.579 267.166L371.589 268.309ZM378.712 264.971C378.714 263.56 379.205 262.193 380.102 261.104C380.999 260.014 382.245 259.27 383.63 258.996C385.014 258.723 386.45 258.937 387.694 259.604C388.937 260.271 389.911 261.348 390.45 262.652C390.989 263.956 391.058 265.407 390.647 266.757C390.237 268.107 389.37 269.272 388.197 270.055C387.023 270.838 385.614 271.19 384.21 271.051C382.805 270.911 381.493 270.289 380.496 269.291C379.352 268.144 378.71 266.59 378.712 264.97V264.971Z" fill="#EBEBEB"/>
<path d="M74.2012 342.084L77.9252 348.537L79.8992 347.396C80.1839 347.234 80.5084 347.154 80.836 347.166C81.1636 347.178 81.4813 347.282 81.7532 347.465C82.0712 347.665 82.3882 347.851 82.7232 348.023C83.0153 348.169 83.2612 348.393 83.4339 348.67C83.6065 348.947 83.699 349.267 83.7012 349.593V351.85H91.1312V349.567C91.128 349.238 91.2193 348.916 91.3943 348.637C91.5693 348.359 91.8205 348.137 92.1182 347.997C92.4442 347.825 92.7702 347.637 93.0792 347.439C93.351 347.256 93.6683 347.153 93.9955 347.141C94.3227 347.129 94.6467 347.209 94.9312 347.371L96.9132 348.512L100.629 342.059L98.6472 340.918C98.366 340.751 98.1368 340.51 97.9853 340.22C97.8338 339.931 97.7658 339.605 97.7892 339.279C97.7892 339.099 97.7892 338.91 97.7892 338.73V338.184C97.7658 337.858 97.8338 337.532 97.9853 337.243C98.1368 336.953 98.366 336.712 98.6472 336.545L100.629 335.395L96.9132 328.942L94.9312 330.084C94.648 330.254 94.3216 330.339 93.9913 330.329C93.661 330.318 93.3408 330.212 93.0692 330.024C92.7598 329.82 92.4389 329.633 92.1082 329.466C91.8198 329.322 91.5763 329.102 91.4039 328.83C91.2316 328.557 91.1369 328.243 91.1302 327.921V325.634H83.7012V327.917C83.699 328.244 83.6065 328.563 83.4339 328.84C83.2612 329.117 83.0153 329.341 82.7232 329.487C82.3924 329.654 82.0715 329.841 81.7622 330.045C81.4914 330.232 81.1727 330.337 80.844 330.347C80.5153 330.358 80.1905 330.274 79.9082 330.105L77.9262 328.964L74.2022 335.417L76.1842 336.567C76.4619 336.735 76.6885 336.976 76.8397 337.263C76.9909 337.55 77.0609 337.873 77.0422 338.197C77.0422 338.386 77.0422 338.566 77.0422 338.755V339.304C77.0645 339.63 76.9961 339.955 76.8447 340.245C76.6932 340.534 76.4646 340.776 76.1842 340.943L74.2012 342.084ZM81.3242 338.754C81.3242 337.548 81.6819 336.368 82.3522 335.365C83.0225 334.362 83.9752 333.58 85.0898 333.118C86.2044 332.657 87.4309 332.536 88.6142 332.771C89.7975 333.007 90.8844 333.588 91.7375 334.441C92.5906 335.294 93.1716 336.381 93.407 337.564C93.6423 338.747 93.5215 339.974 93.0598 341.088C92.5981 342.203 91.8163 343.156 90.8132 343.826C89.81 344.496 88.6306 344.854 87.4242 344.854C85.8065 344.854 84.2551 344.211 83.1112 343.068C81.9672 341.924 81.3244 340.373 81.3242 338.755V338.754Z" fill="#EBEBEB"/>
<path d="M184.063 141H71V314.367H184.063V141Z" fill="#EBEBEB"/>
<path d="M124.91 147.943H77.1621V225.058H124.91V147.943Z" fill="white"/>
<path d="M177.91 147.943H130.17V225.058H177.91V147.943Z" fill="white"/>
<path d="M124.91 230.309H77.1621V307.424H124.91V230.309Z" fill="white"/>
<path d="M177.91 230.309H130.17V307.424H177.91V230.309Z" fill="white"/>
<path d="M106.074 147.943L77.1621 176.853V159.794L89.0221 147.943H106.074Z" fill="#EBEBEB"/>
<path d="M77.1621 304.575L124.91 256.827V273.87L91.3651 307.424H77.1621V304.575Z" fill="#EBEBEB"/>
<path d="M168.482 230.309L130.162 268.626V251.574L151.427 230.309H168.482Z" fill="#EBEBEB"/>
<path d="M177.91 203.835V220.878L173.731 225.057H156.679L177.91 203.835Z" fill="#EBEBEB"/>
<path d="M177.91 289.557V306.609L177.095 307.424H160.052L177.91 289.557Z" fill="#EBEBEB"/>
<path d="M79.9001 230.309H88.4221L77.1621 241.568V233.039L79.9001 230.309Z" fill="#EBEBEB"/>
<path d="M85.1514 225.057L124.91 185.29V193.812L93.6734 225.057H85.1514Z" fill="#EBEBEB"/>
<path d="M170.788 147.943L130.162 188.56V180.038L162.262 147.938L170.788 147.943Z" fill="#EBEBEB"/>
<path d="M120.087 147.943L77.1621 190.868V188.732L117.951 147.943H120.087Z" fill="#EBEBEB"/>
<path d="M103.851 307.424L124.91 286.356V288.493L105.988 307.424H103.851Z" fill="#EBEBEB"/>
<path d="M177.91 233.373V235.493L130.162 283.241V281.104L177.91 233.373Z" fill="#EBEBEB"/>
<path d="M322.528 141H209.465V314.367H322.528V141Z" fill="#EBEBEB"/>
<path d="M263.375 147.943H215.627V225.058H263.375V147.943Z" fill="white"/>
<path d="M316.367 147.943H268.627V225.058H316.367V147.943Z" fill="white"/>
<path d="M263.375 230.309H215.627V307.424H263.375V230.309Z" fill="white"/>
<path d="M316.367 230.309H268.627V307.424H316.367V230.309Z" fill="white"/>
<path d="M215.627 230.309H220.127L215.627 234.809V230.309Z" fill="#EBEBEB"/>
<path d="M215.627 217.754L263.375 169.997V187.057L225.375 225.057H215.627V217.754Z" fill="#EBEBEB"/>
<path d="M302.49 147.943L268.627 181.806V164.746L285.427 147.946L302.49 147.943Z" fill="#EBEBEB"/>
<path d="M316.367 255.35V272.4L281.354 307.422H268.627V303.09L316.367 255.35Z" fill="#EBEBEB"/>
<path d="M263.375 147.943V149.522L215.627 197.27V188.74L256.416 147.94L263.375 147.943Z" fill="#EBEBEB"/>
<path d="M244.427 307.426L263.375 288.478V297L252.949 307.426H244.427Z" fill="#EBEBEB"/>
<path d="M316.367 235.475V244.005L268.627 291.745V283.223L316.367 235.475Z" fill="#EBEBEB"/>
<path d="M225.925 230.309H228.057L215.627 242.739V240.611L225.925 230.309Z" fill="#EBEBEB"/>
<path d="M231.176 225.057L263.376 192.857V194.994L233.314 225.056L231.176 225.057Z" fill="#EBEBEB"/>
<path d="M310.428 147.943L268.628 189.743V187.607L308.291 147.943H310.428Z" fill="#EBEBEB"/>
<path d="M215.627 305.819L263.375 258.071V260.199L216.15 307.424H215.627V305.819Z" fill="#EBEBEB"/>
<path d="M293.265 230.309L268.627 254.947V252.819L291.127 230.309H293.265Z" fill="#EBEBEB"/>
<path d="M316.367 205.071V207.211L298.517 225.061H296.38L316.367 205.071Z" fill="#EBEBEB"/>
<path d="M366.44 323.352H346.548V325.884H366.44V323.352Z" fill="#C7C7C7"/>
</g>
<g clip-path="url(#clip0_1027_3007)">
<g opacity="0.15">
<g opacity="0.15">
<path opacity="0.15" d="M338.693 384.322L348.818 389.922L350.74 387.159C351.018 386.761 351.414 386.441 351.885 386.233C352.355 386.026 352.881 385.939 353.403 385.983C353.999 386.026 354.585 386.043 355.183 386.034C355.707 386.017 356.225 386.131 356.68 386.363C357.136 386.595 357.509 386.936 357.76 387.347L359.481 390.222L369.98 385.193L368.259 382.327C368.02 381.912 367.911 381.447 367.945 380.982C367.979 380.516 368.154 380.067 368.452 379.684C368.798 379.247 369.118 378.794 369.413 378.328C369.659 377.914 370.03 377.57 370.484 377.335C370.937 377.1 371.456 376.983 371.98 376.998L375.624 377.098L376 366.474L372.336 366.38C371.811 366.362 371.302 366.214 370.867 365.951C370.431 365.689 370.086 365.323 369.871 364.895C369.746 364.663 369.612 364.432 369.477 364.195C369.343 363.958 369.188 363.732 369.034 363.508C368.768 363.109 368.628 362.654 368.628 362.19C368.628 361.727 368.768 361.271 369.034 360.873L370.957 358.084L360.833 352.484L358.91 355.256C358.63 355.653 358.232 355.973 357.76 356.179C357.287 356.385 356.76 356.469 356.237 356.423C355.651 356.38 355.064 356.363 354.468 356.372C353.946 356.379 353.432 356.26 352.98 356.028C352.527 355.795 352.155 355.457 351.901 355.05L350.17 352.184L339.67 357.213L341.391 360.079C341.632 360.493 341.742 360.957 341.71 361.423C341.678 361.888 341.505 362.337 341.209 362.722C340.857 363.153 340.536 363.603 340.247 364.069C339.999 364.483 339.626 364.826 339.171 365.061C338.716 365.296 338.196 365.413 337.67 365.399L334.017 365.305L333.651 375.929L337.305 376.029C337.827 376.052 338.332 376.202 338.767 376.462C339.201 376.722 339.548 377.083 339.77 377.505C339.896 377.745 340.02 377.977 340.164 378.217C340.309 378.457 340.443 378.672 340.597 378.895C340.873 379.293 341.019 379.752 341.019 380.221C341.019 380.689 340.873 381.148 340.597 381.547L338.693 384.322ZM346.212 375.322C345.302 373.803 344.917 372.077 345.105 370.363C345.293 368.649 346.047 367.023 347.271 365.691C348.495 364.358 350.133 363.38 351.98 362.879C353.827 362.379 355.798 362.378 357.645 362.877C359.493 363.376 361.132 364.353 362.358 365.684C363.583 367.015 364.338 368.64 364.529 370.354C364.719 372.068 364.336 373.794 363.427 375.314C362.518 376.834 361.125 378.079 359.423 378.892C358.293 379.432 357.055 379.768 355.78 379.881C354.504 379.993 353.216 379.881 351.989 379.549C350.763 379.218 349.621 378.674 348.63 377.948C347.639 377.223 346.817 376.331 346.212 375.322Z" fill="#EBEBEB"/>
<path opacity="0.15" d="M328.788 426.793L332.961 433.246L335.172 432.105C335.49 431.935 335.855 431.85 336.225 431.86C336.595 431.871 336.954 431.977 337.259 432.165C337.605 432.369 337.965 432.556 338.335 432.723C338.667 432.864 338.946 433.087 339.14 433.365C339.334 433.643 339.435 433.965 339.431 434.293V436.576H347.786V434.293C347.782 433.965 347.882 433.643 348.077 433.365C348.271 433.087 348.55 432.864 348.882 432.723C349.252 432.556 349.612 432.369 349.959 432.165C350.263 431.977 350.622 431.871 350.992 431.86C351.362 431.85 351.728 431.935 352.045 432.105L354.257 433.246L358.429 426.793L356.208 425.643C355.893 425.476 355.637 425.235 355.467 424.945C355.297 424.656 355.221 424.33 355.247 424.004V422.904C355.222 422.578 355.299 422.253 355.468 421.963C355.638 421.674 355.894 421.432 356.208 421.265L358.439 420.124L354.267 413.671L352.046 414.812C351.727 414.974 351.363 415.054 350.996 415.042C350.629 415.03 350.273 414.926 349.969 414.743C349.622 414.543 349.257 414.357 348.892 414.185C348.56 414.044 348.281 413.821 348.087 413.543C347.893 413.265 347.792 412.943 347.796 412.615V410.333H339.44V412.616C339.444 412.944 339.344 413.266 339.149 413.544C338.955 413.822 338.676 414.045 338.344 414.186C337.979 414.358 337.623 414.546 337.276 414.744C336.97 414.927 336.613 415.03 336.244 415.042C335.876 415.054 335.511 414.975 335.19 414.813L332.97 413.672L328.797 420.125L331.018 421.263C331.333 421.43 331.59 421.671 331.759 421.961C331.929 422.25 332.005 422.576 331.979 422.902V424.002C332.004 424.329 331.927 424.656 331.758 424.946C331.588 425.237 331.332 425.481 331.018 425.65L328.788 426.793ZM336.769 423.455C336.771 422.044 337.322 420.677 338.326 419.588C339.331 418.498 340.728 417.753 342.279 417.48C343.83 417.206 345.439 417.421 346.832 418.088C348.226 418.755 349.317 419.832 349.921 421.136C350.524 422.44 350.602 423.891 350.142 425.241C349.682 426.59 348.711 427.756 347.396 428.539C346.081 429.322 344.502 429.674 342.929 429.534C341.355 429.395 339.885 428.773 338.768 427.775C337.486 426.628 336.767 425.074 336.769 423.454V423.455Z" fill="#EBEBEB"/>
<path opacity="0.15" d="M118.679 299.484H-8V472.851H118.679V299.484Z" fill="#EBEBEB"/>
<path opacity="0.15" d="M111.785 306.427H58.2959V383.542H111.785V306.427Z" fill="white"/>
<path opacity="0.15" d="M111.785 388.793H58.2959V465.908H111.785V388.793Z" fill="white"/>
<path opacity="0.15" d="M101.222 388.793L58.2871 427.11V410.058L82.113 388.793H101.222Z" fill="#EBEBEB"/>
<path opacity="0.15" d="M111.785 362.319V379.362L107.103 383.541H87.9971L111.785 362.319Z" fill="#EBEBEB"/>
<path opacity="0.15" d="M111.785 448.041V465.093L110.872 465.908H91.7764L111.785 448.041Z" fill="#EBEBEB"/>
<path opacity="0.15" d="M103.806 306.427L58.2871 347.044V338.522L94.2529 306.422L103.806 306.427Z" fill="#EBEBEB"/>
<path opacity="0.15" d="M111.785 391.857V393.977L58.2871 441.725V439.588L111.785 391.857Z" fill="#EBEBEB"/>
<path opacity="0.15" d="M273.82 299.484H147.141V472.851H273.82V299.484Z" fill="#EBEBEB"/>
<path opacity="0.15" d="M207.542 306.427H154.044V383.542H207.542V306.427Z" fill="white"/>
<path opacity="0.15" d="M266.916 306.427H213.427V383.542H266.916V306.427Z" fill="white"/>
<path opacity="0.15" d="M207.542 388.793H154.044V465.908H207.542V388.793Z" fill="white"/>
<path opacity="0.15" d="M266.916 388.793H213.427V465.908H266.916V388.793Z" fill="white"/>
<path opacity="0.15" d="M154.044 388.793H159.086L154.044 393.293V388.793Z" fill="#EBEBEB"/>
<path opacity="0.15" d="M154.044 376.238L207.542 328.481V345.541L164.966 383.541H154.044V376.238Z" fill="#EBEBEB"/>
<path opacity="0.15" d="M251.368 306.427L213.427 340.29V323.23L232.25 306.43L251.368 306.427Z" fill="#EBEBEB"/>
<path opacity="0.15" d="M266.916 413.834V430.884L227.686 465.906H213.427V461.574L266.916 413.834Z" fill="#EBEBEB"/>
<path opacity="0.15" d="M207.542 306.427V308.006L154.044 355.754V347.224L199.745 306.424L207.542 306.427Z" fill="#EBEBEB"/>
<path opacity="0.15" d="M186.312 465.91L207.542 446.962V455.484L195.861 465.91H186.312Z" fill="#EBEBEB"/>
<path opacity="0.15" d="M266.916 393.959V402.489L213.427 450.229V441.707L266.916 393.959Z" fill="#EBEBEB"/>
<path opacity="0.15" d="M165.582 388.793H167.971L154.044 401.223V399.095L165.582 388.793Z" fill="#EBEBEB"/>
<path opacity="0.15" d="M171.466 383.541L207.544 351.341V353.478L173.861 383.54L171.466 383.541Z" fill="#EBEBEB"/>
<path opacity="0.15" d="M260.262 306.427L213.428 348.227V346.091L257.867 306.427H260.262Z" fill="#EBEBEB"/>
<path opacity="0.15" d="M154.044 464.303L207.542 416.555V418.683L154.63 465.908H154.044V464.303Z" fill="#EBEBEB"/>
<path opacity="0.15" d="M241.032 388.793L213.427 413.431V411.303L238.636 388.793H241.032Z" fill="#EBEBEB"/>
<path opacity="0.15" d="M266.916 363.555V365.695L246.917 383.545H244.522L266.916 363.555Z" fill="#EBEBEB"/>
</g>
<g opacity="0.15">
<path opacity="0.15" d="M323.019 481.836H300.731V484.368H323.019V481.836Z" fill="#C7C7C7"/>
</g>
</g>
<path d="M234.644 678.602C237.156 679.409 308.744 678.49 311.444 676.713C312.465 676.06 312.955 665.625 313.159 652.995V652.595C313.159 649.995 313.241 647.316 313.241 644.6V643.479L309.77 606.345L261.884 606.825L266.611 643.582L266.662 645.042L266.962 652.649V653.435C266.962 653.435 239.759 666.105 236.992 668.331C234.225 670.557 232.132 677.806 234.644 678.602Z" fill="#AD6359"/>
<path d="M234.644 678.602C237.156 679.409 308.744 678.49 311.444 676.713C312.465 676.06 312.955 665.625 313.159 652.995V652.595C313.159 649.995 313.241 647.316 313.241 644.6V643.479L266.612 643.612L266.663 645.072L266.963 652.679V653.465C266.963 653.465 239.759 666.105 236.992 668.331C234.225 670.557 232.132 677.806 234.644 678.602Z" fill="#EBEBEB"/>
<path d="M234.645 678.602C235.931 679.01 255.382 678.97 274.393 678.602L285.621 678.337C299.18 677.959 310.381 677.408 311.421 676.724C312.461 676.04 312.921 665.932 313.136 653.524V652.597H313.075L266.95 652.689V653.475C266.95 653.475 239.75 666.105 236.993 668.331C234.236 670.557 232.133 677.797 234.645 678.602Z" fill="#1DA1F3"/>
<path d="M235.421 675.814C247.49 675.365 296.182 674.671 308.138 675.141C308.238 675.141 308.238 675.212 308.138 675.223C296.192 675.923 247.49 676.244 235.421 676.023C235.166 676.008 235.166 675.825 235.421 675.814Z" fill="#263238"/>
<path d="M261.837 652.886C266.571 651.933 272.391 652.586 276.066 655.946C276.209 656.069 276.015 656.273 275.866 656.222C271.311 654.817 266.617 653.906 261.866 653.506C261.823 653.512 261.779 653.51 261.737 653.498C261.695 653.487 261.656 653.466 261.622 653.439C261.588 653.411 261.561 653.376 261.541 653.337C261.521 653.298 261.51 653.256 261.508 653.212C261.506 653.168 261.513 653.125 261.529 653.084C261.545 653.043 261.569 653.006 261.6 652.976C261.631 652.945 261.668 652.921 261.709 652.906C261.75 652.89 261.794 652.883 261.837 652.886Z" fill="#263238"/>
<path d="M258.437 654.986C263.171 654.046 268.991 654.695 272.666 658.049C272.809 658.182 272.666 658.386 272.466 658.335C267.911 656.928 263.217 656.014 258.466 655.609C258.425 655.612 258.383 655.607 258.343 655.594C258.303 655.581 258.267 655.56 258.236 655.532C258.204 655.504 258.179 655.471 258.161 655.433C258.142 655.395 258.132 655.354 258.13 655.312C258.128 655.271 258.135 655.229 258.149 655.19C258.164 655.15 258.186 655.115 258.215 655.084C258.243 655.054 258.278 655.029 258.316 655.012C258.354 654.996 258.396 654.987 258.437 654.986Z" fill="#263238"/>
<path d="M255.038 657.103C259.772 656.15 265.592 656.803 269.267 660.163C269.41 660.296 269.216 660.49 269.067 660.449C264.511 659.042 259.817 658.128 255.067 657.723C255.023 657.729 254.979 657.727 254.937 657.715C254.895 657.704 254.856 657.683 254.822 657.656C254.788 657.628 254.761 657.593 254.741 657.554C254.722 657.515 254.71 657.473 254.708 657.429C254.706 657.385 254.713 657.342 254.729 657.301C254.745 657.26 254.769 657.223 254.8 657.193C254.832 657.162 254.869 657.138 254.91 657.123C254.95 657.107 254.994 657.1 255.038 657.103Z" fill="#263238"/>
<path opacity="0.1" d="M274.393 678.592L285.624 678.327C299.183 677.949 310.384 677.398 311.424 676.714C312.464 676.03 312.924 665.922 313.139 653.514V652.587H313.078C306.793 657.028 284.521 671.854 274.393 678.592Z" fill="black"/>
<path d="M263.832 652.832H315.386C315.386 652.832 305.013 532.41 305.411 530.31C305.932 527.61 308.974 515.424 313.028 499.51C314.294 494.527 315.662 489.177 317.112 483.633C320.951 468.655 325.188 452.288 328.884 438.033C334.418 416.691 338.747 400.11 338.747 400.11H295.038C295.038 400.11 289.932 416.252 283.52 437.255C273.065 471.387 259.098 518.364 257.709 529.789C255.483 548.249 263.832 652.832 263.832 652.832Z" fill="#37474F"/>
<path d="M266.123 644.04C273.995 643.877 271.729 643.816 279.611 643.744C283.46 643.744 308.781 643.479 312.386 644.081C312.468 644.081 312.468 644.224 312.386 644.244C308.786 644.836 283.461 644.612 279.611 644.581C271.729 644.5 273.995 644.439 266.123 644.275C266.098 644.267 266.076 644.252 266.06 644.23C266.045 644.209 266.036 644.184 266.036 644.157C266.036 644.131 266.045 644.106 266.06 644.084C266.076 644.063 266.098 644.048 266.123 644.04Z" fill="#263238"/>
<path d="M295.711 522.968C297.406 515.515 299.928 508.204 302.133 500.894C306.6 486.027 311.092 471.172 315.61 456.327C317.87 448.908 320.137 441.485 322.41 434.059C323.561 430.315 324.721 426.571 325.892 422.828C327.036 419.173 328.342 415.548 329.384 411.852C329.803 410.352 330.027 411.178 329.496 413.087C328.404 416.926 327.332 420.777 326.209 424.614C323.997 432.211 321.764 439.804 319.509 447.393C315.038 462.497 310.529 477.588 305.982 492.665C303.715 500.234 301.442 507.797 299.162 515.352C298.004 518.948 297.073 522.614 296.374 526.327C295.762 530.209 295.608 534.15 295.915 538.069C296.405 545.961 297.324 553.834 298.049 561.706C298.774 569.578 299.509 577.481 300.249 585.363C301.699 601.073 303.139 616.756 304.568 632.411C304.742 634.392 304.915 636.383 305.068 638.374C305.119 639.048 304.118 638.997 304.047 638.374C302.342 622.855 301.047 607.284 299.585 591.744C298.123 576.204 296.681 560.807 295.241 545.349C294.873 541.459 294.465 537.569 294.455 533.669C294.475 530.066 294.896 526.477 295.711 522.968Z" fill="#263238"/>
<path d="M299.989 400.13C303.052 423.613 308.811 467.599 313.027 499.53C322.88 460.84 338.726 400.13 338.726 400.13H299.989Z" fill="#263238"/>
<path d="M289.258 679.297C291.77 680.114 363.358 679.45 366.069 677.684C367.09 677.041 367.621 666.596 367.869 653.976V653.576C367.93 650.976 367.969 648.297 367.981 645.581V644.46C368.142 626.234 366.835 607.315 366.835 607.315L320.042 607.621L321.349 644.378V645.838L321.614 653.455V654.231C321.614 654.231 294.333 666.748 291.556 668.995C288.779 671.242 286.757 678.48 289.258 679.297Z" fill="#AD6359"/>
<path d="M289.258 679.296C291.77 680.113 363.358 679.449 366.069 677.683C367.09 677.04 367.621 666.595 367.869 653.975V653.575C367.93 650.975 367.969 648.296 367.981 645.58V644.459H321.349V645.919L321.614 653.536V654.312C321.614 654.312 294.333 666.829 291.556 669.076C288.779 671.323 286.757 678.479 289.258 679.296Z" fill="#EBEBEB"/>
<path d="M289.26 679.295C291.772 680.112 363.36 679.448 366.071 677.682C367.092 677.039 367.623 666.594 367.871 653.974V653.574L321.657 653.495V654.271C321.657 654.271 294.375 666.789 291.598 669.035C288.821 671.281 286.758 678.479 289.26 679.295Z" fill="#1DA1F3"/>
<path d="M290.004 676.509C302.072 676.1 350.775 675.586 362.731 676.1C362.823 676.1 362.823 676.171 362.731 676.182C350.775 676.845 302.072 676.958 290.004 676.703C289.789 676.703 289.789 676.519 290.004 676.509Z" fill="#263238"/>
<path d="M316.551 653.669C321.288 652.739 327.098 653.413 330.764 656.732C330.907 656.865 330.764 657.059 330.564 657.018C326.013 655.592 321.321 654.661 316.571 654.24C316.512 654.22 316.461 654.182 316.424 654.133C316.387 654.083 316.367 654.023 316.364 653.961C316.362 653.899 316.379 653.838 316.412 653.786C316.445 653.734 316.494 653.693 316.551 653.669Z" fill="#263238"/>
<path d="M313.14 655.772C317.878 654.832 323.698 655.506 327.353 658.835C327.496 658.958 327.353 659.162 327.159 659.111C322.604 657.692 317.912 656.76 313.161 656.333C313.103 656.314 313.052 656.277 313.016 656.228C312.979 656.179 312.959 656.121 312.956 656.06C312.954 655.999 312.97 655.939 313.003 655.887C313.036 655.836 313.084 655.796 313.14 655.772Z" fill="#263238"/>
<path d="M309.73 657.866C314.467 656.936 320.287 657.61 323.943 660.929C324.086 661.062 323.943 661.256 323.749 661.215C319.197 659.785 314.503 658.853 309.75 658.437C309.692 658.417 309.641 658.379 309.604 658.33C309.567 658.28 309.546 658.22 309.544 658.158C309.542 658.096 309.559 658.035 309.592 657.983C309.625 657.931 309.673 657.89 309.73 657.866Z" fill="#263238"/>
<path d="M296.446 400.13C296.446 400.13 297.467 421.04 302.235 437.591C302.623 438.959 303.042 440.307 303.491 441.604C307.876 443.374 312.09 445.54 316.08 448.077C316.08 448.077 316.58 464.893 317.101 483.649C317.652 504.621 318.234 528.012 318.122 532.974C317.683 551.536 320.446 653.597 320.446 653.597L371.987 653.797C371.987 653.797 362.669 539.836 362.741 533.03C362.841 522.105 360.241 473.811 358.241 438.576C357.013 416.864 356.002 400.13 356.002 400.13H296.446Z" fill="#37474F"/>
<path d="M322.196 644.428C330.068 644.295 327.802 644.224 335.684 644.183C339.533 644.183 364.865 644.05 368.459 644.663C368.475 644.669 368.488 644.679 368.498 644.693C368.507 644.707 368.512 644.723 368.512 644.739C368.512 644.756 368.507 644.772 368.498 644.786C368.488 644.799 368.475 644.81 368.459 644.816C364.859 645.398 339.534 645.071 335.674 645.016C327.802 644.908 330.068 644.857 322.196 644.653C322.167 644.653 322.138 644.641 322.117 644.62C322.096 644.599 322.084 644.57 322.084 644.54C322.084 644.51 322.096 644.482 322.117 644.461C322.138 644.44 322.167 644.428 322.196 644.428Z" fill="#263238"/>
<path d="M351.652 407.604C352.602 436.356 353.602 465.118 354.889 493.87C356.176 522.622 357.952 551.537 360.331 580.319C361.689 596.39 362.955 619.005 364.691 635.035C364.691 635.147 364.538 635.188 364.528 635.035C360.771 606.508 358.678 571.235 356.828 542.535C354.978 513.835 353.765 485.082 352.744 456.335C352.193 440.072 351.775 423.811 351.284 407.543C351.264 407.349 351.642 407.369 351.652 407.604Z" fill="#263238"/>
<path d="M301.347 440.358C306.473 442.499 311.402 445.082 316.08 448.077C316.113 448.101 316.136 448.136 316.145 448.176C316.154 448.216 316.149 448.257 316.131 448.293C316.113 448.33 316.082 448.359 316.045 448.375C316.008 448.391 315.966 448.394 315.927 448.383C310.954 445.964 305.88 443.64 301.04 440.951C300.974 440.904 300.926 440.834 300.907 440.755C300.888 440.676 300.898 440.593 300.935 440.52C300.973 440.448 301.035 440.392 301.111 440.362C301.187 440.332 301.271 440.331 301.347 440.358Z" fill="#263238"/>
<path d="M301.052 422.623C301.399 424.453 301.838 426.268 302.237 428.085C302.636 429.902 302.88 431.536 303.329 433.19C303.703 434.825 304.535 436.32 305.729 437.499C306.403 438.122 307.138 438.673 307.853 439.245C308.241 439.551 308.653 439.845 309.053 440.154C308.992 439.919 308.953 439.664 308.91 439.419C308.787 438.725 308.675 438.03 308.553 437.377C308.298 435.835 308.053 434.314 307.808 432.742C307.352 429.678 306.923 426.615 306.29 423.613C306.29 423.588 306.299 423.565 306.316 423.548C306.334 423.531 306.357 423.521 306.382 423.521C306.406 423.521 306.429 423.531 306.447 423.548C306.464 423.565 306.474 423.588 306.474 423.613C307.24 426.594 308.074 429.545 308.73 432.547C309.057 434.027 310.21 441.307 310.262 441.828C310.314 442.349 310.354 442.849 310.374 443.421C310.445 443.967 310.445 444.519 310.374 445.065C310.374 445.198 310.19 445.177 310.129 445.065C309.907 444.56 309.752 444.027 309.67 443.482C309.537 442.961 309.415 442.461 309.323 441.91C309.305 441.715 309.278 441.52 309.241 441.328C308.516 440.889 307.852 440.307 307.199 439.828C306.546 439.349 305.739 438.807 305.065 438.228C303.796 437.164 302.881 435.74 302.441 434.144C302.007 432.424 301.72 430.67 301.583 428.902C301.358 426.86 301.185 424.746 300.899 422.684C300.848 422.553 301.032 422.5 301.052 422.623Z" fill="#263238"/>
<path d="M324.198 346.2C317.05 358.054 286.706 383.651 276.006 384.264C268.267 384.703 241.394 363.464 234.144 355.992C227.181 348.794 252.43 329.211 256.81 333.152C262.987 338.727 276.51 354.777 279.497 355.288C281.59 355.645 294.516 349.581 314.559 338.155C325.737 331.833 328.455 339.114 324.198 346.2Z" fill="#AD6359"/>
<path d="M247.805 321.889C243.497 319.459 238.759 316.335 233.634 315.528C228.509 314.721 223.097 320.725 222.76 322.675C222.423 324.625 222.239 336.969 227.344 337.868C232.449 338.767 230.979 328.985 231.367 327.954C231.755 326.923 232.174 325.606 233.113 325.912C234.052 326.218 249.514 337.143 249.514 337.143L247.805 321.889Z" fill="#AD6359"/>
<path d="M247.356 322.533C247.07 322.533 234.348 314.702 229.223 313.895C224.098 313.088 218.686 319.092 218.349 321.042C218.012 322.992 217.828 335.336 222.933 336.235C228.038 337.134 226.568 327.352 226.956 326.321C227.344 325.29 227.763 323.973 228.702 324.279C229.641 324.585 245.103 335.51 245.103 335.51L247.356 322.533Z" fill="#AD6359"/>
<path d="M224.771 335.878C225.476 335.06 225.951 334.07 226.15 333.009C226.451 331.94 226.581 330.83 226.534 329.721C226.417 328.752 226.377 327.776 226.412 326.801C226.584 325.857 226.992 324.971 227.599 324.228C228.12 323.585 228.825 323.962 229.427 324.299C230.312 324.826 231.165 325.405 231.98 326.035C232.868 326.688 233.746 327.372 234.624 328.078C235.564 328.735 236.46 329.451 237.309 330.222C237.36 330.283 237.309 330.396 237.217 330.355C236.38 329.885 235.617 329.283 234.828 328.732L232.153 326.878C231.306 326.321 230.489 325.708 229.642 325.157C229.342 324.963 228.754 324.504 228.366 324.514C227.978 324.524 227.6 325.464 227.457 325.76C227.086 326.639 226.98 327.608 227.151 328.547C227.248 329.508 227.248 330.475 227.151 331.436C227.087 332.344 226.858 333.233 226.477 334.06C226.022 334.78 225.486 335.445 224.877 336.041C224.834 336.092 224.659 335.949 224.771 335.878Z" fill="#263238"/>
<path d="M261.201 338.77C261.201 338.77 249.316 323.4 246.828 320.327C241.812 314.201 218.728 299.631 215.328 298.661C211.928 297.691 209.428 304.57 225.006 314.916C233.225 320.368 233.919 325.739 233.256 328.536C232.593 331.333 228.968 336.112 224.24 335.152C219.512 334.192 217.64 326.718 213.417 325.187C209.194 323.656 210.67 332.161 212.937 337.317C215.379 342.366 219.208 346.616 223.975 349.57C227.814 351.837 239.566 359.535 239.566 359.535L261.201 338.77Z" fill="#AD6359"/>
<path d="M218.93 330.783C220.482 332.478 222.187 334.632 224.53 335.133C226.873 335.634 228.808 334.347 230.289 332.56C231.868 330.829 232.727 328.561 232.689 326.219C232.493 324.069 231.682 322.022 230.352 320.322C228.731 318.237 226.813 316.402 224.658 314.875C224.566 314.804 224.658 314.675 224.78 314.742C226.822 316.1 233.111 320.072 233.418 326.31C233.44 328.704 232.546 331.016 230.918 332.773C229.54 334.478 227.681 336.04 225.353 335.836C222.504 335.581 220.493 332.875 218.767 330.813C218.706 330.732 218.852 330.691 218.93 330.783Z" fill="#263238"/>
<path d="M257.332 333.59L237.769 368.897C237.769 368.897 267.042 386.152 276.486 385.233C285.93 384.314 313.498 361.933 324.28 347.312C330.835 338.412 326.22 330.863 313.437 337.541C300.297 344.392 281.857 353.826 280.537 354.051C279.217 354.276 257.332 333.59 257.332 333.59Z" fill="#1DA1F3"/>
<path d="M277.752 359.453C277.623 360.288 277.372 361.1 277.007 361.863C276.667 362.639 276.216 363.361 275.669 364.007C275.798 363.171 276.049 362.359 276.414 361.597C276.758 360.823 277.208 360.102 277.752 359.453V359.453Z" fill="white"/>
<path d="M251.431 351.56C251.156 353.226 250.453 354.792 249.389 356.104C249.663 354.437 250.367 352.871 251.431 351.56V351.56Z" fill="white"/>
<path d="M305.074 345.883C304.933 346.715 304.683 347.526 304.329 348.293C303.982 349.064 303.528 349.782 302.981 350.427C303.277 348.758 303.998 347.193 305.074 345.883V345.883Z" fill="white"/>
<path d="M275.71 378.535C274.875 378.398 274.064 378.143 273.3 377.779C272.525 377.439 271.802 376.989 271.156 376.442C271.991 376.572 272.803 376.823 273.566 377.187C274.34 377.534 275.062 377.988 275.71 378.535Z" fill="white"/>
<path d="M246.784 368.448C245.949 368.319 245.137 368.068 244.374 367.703C243.599 367.363 242.877 366.912 242.23 366.365C243.066 366.494 243.878 366.745 244.64 367.11C245.414 367.454 246.136 367.904 246.784 368.448Z" fill="white"/>
<path d="M259.874 340.727C259.039 340.597 258.227 340.346 257.464 339.982C256.69 339.644 255.971 339.193 255.33 338.644C256.996 338.918 258.563 339.622 259.874 340.686V340.727Z" fill="white"/>
<path d="M292.271 356.104C292.769 356.788 293.164 357.541 293.445 358.34C293.754 359.124 293.947 359.95 294.017 360.79C293.517 360.109 293.119 359.36 292.833 358.565C292.53 357.775 292.341 356.947 292.271 356.104V356.104Z" fill="white"/>
<path d="M261.723 361.75C262.223 362.433 262.619 363.187 262.897 363.986C263.208 364.769 263.398 365.595 263.459 366.436C262.966 365.752 262.571 365.003 262.285 364.211C261.983 363.421 261.793 362.593 261.723 361.75V361.75Z" fill="white"/>
<path d="M315.856 347.333C316.844 348.712 317.447 350.33 317.602 352.019C316.626 350.634 316.025 349.019 315.856 347.333V347.333Z" fill="white"/>
<path d="M305.933 363.884C306.617 363.392 307.366 362.997 308.159 362.71C308.948 362.408 309.776 362.219 310.619 362.148C309.936 362.648 309.182 363.044 308.383 363.322C307.597 363.624 306.772 363.813 305.933 363.884V363.884Z" fill="white"/>
<path d="M265.121 351.295C265.807 350.805 266.555 350.41 267.347 350.121C268.137 349.819 268.965 349.63 269.807 349.559C269.127 350.057 268.377 350.452 267.582 350.733C266.792 351.035 265.964 351.224 265.121 351.295V351.295Z" fill="white"/>
<path d="M284.99 371.031C285.672 370.535 286.422 370.139 287.216 369.857C288.006 369.555 288.834 369.366 289.676 369.295C288.99 369.789 288.237 370.184 287.44 370.469C286.654 370.771 285.829 370.96 284.99 371.031V371.031Z" fill="white"/>
<path d="M254.269 376.136C254.948 375.636 255.698 375.24 256.495 374.962C257.282 374.652 258.111 374.459 258.955 374.39C257.573 375.373 255.957 375.975 254.269 376.136Z" fill="white"/>
<path d="M255.391 356.41C256.666 353.735 261.721 342.974 262.766 340.207C262.766 340.207 262.715 340.115 262.695 340.207C261.174 342.647 255.885 353.123 254.595 355.798C251.887 361.106 249.473 366.56 247.366 372.134C247.366 372.234 247.478 372.328 247.529 372.226C250.5 367.08 252.866 361.699 255.391 356.41Z" fill="#263238"/>
<path opacity="0.1" d="M324.303 347.282C315.561 359.136 295.803 376.073 283.603 382.573L321.033 335.009C327.782 334.448 329.324 340.462 324.303 347.282Z" fill="black"/>
<path d="M361.363 431.189C361.169 431.373 285.644 426.206 285.011 425.379C284.123 424.225 308.025 347.479 314.018 336.193C316.571 331.393 328.782 330.7 333.611 335.243C345.7 346.607 354.111 383.364 355.879 394.38C358.82 412.546 362.026 430.526 361.363 431.189Z" fill="#1DA1F3"/>
<path d="M325.341 357.186C325.066 358.852 324.363 360.418 323.299 361.73C323.429 360.895 323.68 360.083 324.044 359.32C324.373 358.551 324.809 357.832 325.341 357.186Z" fill="white"/>
<path d="M316.693 388.388C316.565 389.224 316.314 390.036 315.948 390.798C315.608 391.574 315.158 392.296 314.61 392.942C314.739 392.106 314.99 391.294 315.355 390.532C315.699 389.758 316.149 389.037 316.693 388.388V388.388Z" fill="white"/>
<path d="M308.127 422.378C307.995 423.213 307.744 424.024 307.382 424.788C307.042 425.56 306.591 426.279 306.044 426.922C306.318 425.256 307.022 423.689 308.086 422.378H308.127Z" fill="white"/>
<path d="M343.097 380.945C342.822 382.611 342.119 384.177 341.055 385.489C341.185 384.654 341.436 383.842 341.8 383.079C342.128 382.309 342.565 381.591 343.097 380.945Z" fill="white"/>
<path d="M354.052 403.101C353.917 403.935 353.666 404.746 353.307 405.511C352.964 406.287 352.509 407.009 351.959 407.655C352.096 406.82 352.351 406.008 352.715 405.245C353.055 404.469 353.505 403.747 354.052 403.101V403.101Z" fill="white"/>
<path d="M324.301 415.435C324.169 416.27 323.918 417.081 323.556 417.845C323.216 418.617 322.765 419.336 322.218 419.979C322.349 419.144 322.6 418.332 322.963 417.569C323.307 416.798 323.757 416.08 324.301 415.435V415.435Z" fill="white"/>
<path d="M301.909 375.217C301.635 376.883 300.931 378.449 299.867 379.761C299.997 378.926 300.248 378.114 300.612 377.351C300.937 376.58 301.374 375.86 301.909 375.217V375.217Z" fill="white"/>
<path d="M334.367 371.225C332.701 370.95 331.135 370.247 329.823 369.183C330.658 369.313 331.47 369.564 332.233 369.928C333.005 370.254 333.724 370.692 334.367 371.228V371.225Z" fill="white"/>
<path d="M341.23 398.833C340.394 398.703 339.582 398.452 338.82 398.088C338.046 397.75 337.327 397.299 336.686 396.75C337.52 396.882 338.332 397.132 339.096 397.495C339.865 397.841 340.583 398.291 341.23 398.833Z" fill="white"/>
<path d="M337.594 429.658L336.246 429.576L335.735 429.351C334.968 429.001 334.251 428.552 333.602 428.014C334.437 428.144 335.249 428.395 336.012 428.759C336.565 429.011 337.094 429.311 337.594 429.658Z" fill="white"/>
<path d="M309.404 403.612C308.568 403.483 307.756 403.232 306.994 402.867C306.218 402.527 305.496 402.076 304.85 401.529C305.685 401.657 306.497 401.908 307.26 402.274C308.033 402.618 308.755 403.068 309.404 403.612Z" fill="white"/>
<path d="M334.367 347.364C332.701 347.09 331.135 346.386 329.823 345.322C330.658 345.452 331.47 345.703 332.233 346.067C333.005 346.393 333.724 346.831 334.367 347.367V347.364Z" fill="white"/>
<path d="M341.137 351.376C341.631 352.063 342.026 352.815 342.311 353.612C342.614 354.402 342.803 355.232 342.873 356.076C341.895 354.687 341.297 353.067 341.137 351.376V351.376Z" fill="white"/>
<path d="M351.266 386.653C352.242 388.038 352.843 389.652 353.012 391.339C352.024 389.959 351.421 388.342 351.266 386.653V386.653Z" fill="white"/>
<path d="M350.397 418.416C350.895 419.097 351.291 419.847 351.571 420.642C351.873 421.432 352.063 422.26 352.133 423.103C351.159 421.717 350.56 420.102 350.397 418.416V418.416Z" fill="white"/>
<path d="M314.509 371.735C315.486 373.124 316.084 374.744 316.245 376.435C315.75 375.747 315.355 374.994 315.071 374.196C314.768 373.406 314.578 372.578 314.509 371.735V371.735Z" fill="white"/>
<path d="M325.475 400.273C325.973 400.957 326.368 401.71 326.649 402.509C326.96 403.292 327.15 404.118 327.211 404.959C326.718 404.275 326.323 403.526 326.037 402.734C325.735 401.944 325.545 401.116 325.475 400.273V400.273Z" fill="white"/>
<path d="M295.578 411.872C296.068 412.557 296.463 413.306 296.752 414.098C297.054 414.888 297.243 415.716 297.314 416.559C296.814 415.876 296.418 415.122 296.14 414.322C295.838 413.536 295.649 412.711 295.578 411.872V411.872Z" fill="white"/>
<path d="M315.856 347.333C316.844 348.712 317.447 350.33 317.602 352.019C316.626 350.634 316.025 349.019 315.856 347.333V347.333Z" fill="white"/>
<path d="M305.933 363.884C306.617 363.392 307.366 362.997 308.159 362.71C308.948 362.408 309.776 362.219 310.619 362.148C309.936 362.648 309.182 363.044 308.383 363.322C307.597 363.624 306.772 363.813 305.933 363.884V363.884Z" fill="white"/>
<path d="M336.378 413.649C337.062 413.15 337.815 412.753 338.614 412.472C339.393 412.153 340.216 411.951 341.054 411.872C340.365 412.362 339.613 412.757 338.818 413.046C338.037 413.359 337.215 413.561 336.378 413.646V413.649Z" fill="white"/>
<path d="M296.283 392.319C296.969 391.829 297.717 391.434 298.509 391.145C299.299 390.843 300.127 390.654 300.969 390.583C300.289 391.081 299.539 391.476 298.744 391.757C297.954 392.059 297.126 392.248 296.283 392.319V392.319Z" fill="white"/>
<path d="M349.142 366.61C348.552 366.988 347.922 367.3 347.263 367.539C346.474 367.842 345.645 368.031 344.803 368.101C346.074 367.206 347.541 366.628 349.081 366.416C349.107 366.479 349.128 366.544 349.142 366.61Z" fill="white"/>
<path d="M312.926 413.648C313.61 413.15 314.363 412.754 315.162 412.474C315.949 412.161 316.78 411.971 317.626 411.912C316.936 412.403 316.183 412.797 315.387 413.086C314.597 413.388 313.768 413.577 312.926 413.648V413.648Z" fill="white"/>
<path d="M324.301 382.681C324.985 382.183 325.738 381.787 326.537 381.507C327.324 381.194 328.155 381.004 329.001 380.945C328.311 381.435 327.558 381.83 326.762 382.119C325.972 382.422 325.144 382.611 324.301 382.681V382.681Z" fill="white"/>
<path d="M313.559 337.429H313.61C313.173 340.839 312.354 348.762 317.766 348.66C319.941 348.66 322.003 347.394 323.749 346.189C325.526 344.932 327.159 343.484 328.619 341.87C330.325 340.12 331.881 338.232 333.273 336.224C333.334 336.142 333.457 336.224 333.396 336.336C332.085 338.397 330.671 340.391 329.159 342.309C327.628 344.136 325.856 345.747 323.891 347.098C322.033 348.333 319.807 349.538 317.54 349.477C316.537 349.457 315.572 349.09 314.809 348.438C314.046 347.787 313.532 346.891 313.355 345.903C312.783 343.099 312.852 340.203 313.555 337.429H313.559Z" fill="#263238"/>
<path d="M342.638 345.038C354.976 362.199 381.497 401.406 373.666 410.462C360.801 425.362 334.142 436.631 324.3 439.581C320.053 440.858 305.35 412.668 309.363 410.125C314.161 407.062 339.676 394.085 339.83 392.594C339.984 391.103 334.23 369.846 332.346 353.183C329.997 332.497 337.492 337.868 342.638 345.038Z" fill="#AD6359"/>
<path d="M316.019 408.962C316.019 408.962 303.685 409.983 295.597 411.076C291.115 411.676 283.518 413.384 280.425 415.323C275.797 418.233 258.297 433.344 261.875 437.673C265.111 441.584 278.497 426.687 278.497 426.687C278.497 426.687 263.661 440.522 268.43 444.514C273.199 448.506 286.073 429.668 286.073 429.668C286.073 429.668 271.186 444.228 276.73 447.607C280.927 450.14 293.557 433.732 293.557 433.732C293.557 433.732 280.825 446.332 285.032 449.119C289.687 452.182 302.297 437.775 302.297 437.775C314.182 443.054 322.054 441.318 327.373 438.367C328.629 437.632 316.019 408.962 316.019 408.962Z" fill="#AD6359"/>
<path d="M282.683 422.245C270.972 431.608 268.103 439.776 268.222 439.602C271.064 434.836 276.904 428.596 278.558 426.881C280.212 425.166 281.101 424.042 282.745 422.327C282.796 422.266 282.722 422.215 282.683 422.245Z" fill="#263238"/>
<path d="M289.667 427.443C284.765 431.007 280.537 435.415 277.18 440.461C277.068 440.661 277.18 440.661 277.333 440.461C279.375 438.214 287.543 429.566 289.728 427.443C289.758 427.453 289.707 427.412 289.667 427.443Z" fill="#263238"/>
<path d="M295.988 431.506C292.248 434.357 289.07 437.878 286.615 441.889C286.492 442.083 286.666 442.073 286.829 441.889C289.893 438.377 292.241 435.6 296.101 431.618C296.131 431.567 296.074 431.445 295.988 431.506Z" fill="#263238"/>
<path d="M313.569 404.449L330.926 441.389C330.926 441.389 372.216 419.131 375.34 408.716C378.464 398.301 350.377 352.263 341.841 342.882C333.305 333.501 330.541 337.348 330.783 348.048C331.025 358.748 339.441 392.115 339.237 392.738C339.033 393.361 313.569 404.449 313.569 404.449Z" fill="#1DA1F3"/>
<path d="M343.097 380.945C342.822 382.611 342.119 384.177 341.055 385.489C341.185 384.654 341.436 383.842 341.8 383.079C342.128 382.309 342.565 381.591 343.097 380.945Z" fill="white"/>
<path d="M354.052 403.101C353.917 403.935 353.666 404.746 353.307 405.511C352.964 406.287 352.509 407.009 351.959 407.655C352.096 406.82 352.351 406.008 352.715 405.245C353.055 404.469 353.505 403.747 354.052 403.101V403.101Z" fill="white"/>
<path d="M324.301 415.435C324.169 416.27 323.918 417.081 323.556 417.845C323.216 418.617 322.765 419.336 322.218 419.979C322.349 419.144 322.6 418.332 322.963 417.569C323.307 416.798 323.757 416.08 324.301 415.435V415.435Z" fill="white"/>
<path d="M341.23 398.833C340.394 398.703 339.582 398.452 338.82 398.088C338.046 397.75 337.327 397.299 336.686 396.75C337.52 396.882 338.332 397.132 339.096 397.495C339.865 397.841 340.583 398.291 341.23 398.833Z" fill="white"/>
<path d="M338.146 430.097C336.479 429.823 334.913 429.119 333.602 428.055C335.268 428.329 336.834 429.033 338.146 430.097Z" fill="white"/>
<path d="M370.052 409.493C369.214 409.363 368.398 409.112 367.632 408.748C366.861 408.406 366.142 407.955 365.498 407.41C367.167 407.687 368.735 408.39 370.052 409.452V409.493Z" fill="white"/>
<path d="M360.739 374.339C359.904 374.209 359.092 373.958 358.329 373.594C357.556 373.256 356.837 372.805 356.196 372.256C357.031 372.387 357.843 372.638 358.606 373.001C359.376 373.347 360.094 373.797 360.74 374.339H360.739Z" fill="white"/>
<path d="M334.377 347.364C333.539 347.228 332.724 346.981 331.952 346.629C331.552 346.424 331.14 346.21 330.752 345.965V345.485C331.255 345.627 331.747 345.808 332.222 346.026C333.001 346.365 333.727 346.816 334.377 347.364Z" fill="white"/>
<path d="M341.137 351.376C341.631 352.063 342.026 352.815 342.311 353.612C342.614 354.402 342.803 355.232 342.873 356.076C341.895 354.687 341.297 353.067 341.137 351.376V351.376Z" fill="white"/>
<path d="M351.266 386.653C352.242 388.038 352.843 389.652 353.012 391.339C352.024 389.959 351.421 388.342 351.266 386.653V386.653Z" fill="white"/>
<path d="M350.397 418.416C350.895 419.097 351.291 419.847 351.571 420.642C351.873 421.432 352.063 422.26 352.133 423.103C351.159 421.717 350.56 420.102 350.397 418.416V418.416Z" fill="white"/>
<path d="M325.475 400.273C325.973 400.957 326.368 401.71 326.649 402.509C326.96 403.292 327.15 404.118 327.211 404.959C326.718 404.275 326.323 403.526 326.037 402.734C325.735 401.944 325.545 401.116 325.475 400.273V400.273Z" fill="white"/>
<path d="M336.378 413.649C337.062 413.15 337.815 412.753 338.614 412.472C339.393 412.153 340.216 411.951 341.054 411.872C340.365 412.362 339.613 412.757 338.818 413.046C338.037 413.359 337.215 413.561 336.378 413.646V413.649Z" fill="white"/>
<path d="M344.803 368.101C345.492 367.611 346.244 367.216 347.039 366.927C347.829 366.624 348.659 366.434 349.503 366.365C348.818 366.863 348.063 367.259 347.264 367.539C346.474 367.841 345.645 368.03 344.803 368.101V368.101Z" fill="white"/>
<path d="M364.691 393.82C365.374 393.32 366.128 392.924 366.927 392.646C367.711 392.334 368.537 392.145 369.377 392.084C368.694 392.576 367.945 392.971 367.152 393.258C366.363 393.56 365.534 393.749 364.691 393.82V393.82Z" fill="white"/>
<path d="M317.623 411.872C317.485 411.975 317.342 412.071 317.194 412.158L317.102 411.933C317.273 411.898 317.447 411.877 317.623 411.872V411.872Z" fill="white"/>
<path d="M336.134 376.942C335.572 374.442 335.021 371.929 334.49 369.427C334.225 368.12 333.949 366.813 333.653 365.517L333.253 363.717C333.182 363.417 333.09 363.125 333.039 362.817C332.865 361.717 333.039 362.694 332.739 361.633C332.739 361.562 332.606 361.582 332.616 361.633C332.687 362.327 332.545 362.052 332.677 362.572C332.764 362.963 332.831 363.358 332.877 363.756C332.959 364.356 333.061 364.956 333.163 365.573C333.357 366.808 333.582 368.044 333.816 369.279L333.908 369.769C333.914 369.725 333.914 369.68 333.908 369.636C333.449 368.298 332.979 366.961 332.508 365.623C332.509 365.616 332.509 365.608 332.507 365.601C332.505 365.593 332.502 365.586 332.497 365.581C332.492 365.575 332.486 365.57 332.48 365.567C332.473 365.564 332.465 365.562 332.458 365.562C332.45 365.562 332.443 365.564 332.436 365.567C332.429 365.57 332.423 365.575 332.418 365.581C332.414 365.586 332.41 365.593 332.408 365.601C332.406 365.608 332.406 365.616 332.408 365.623C332.717 367.002 333.095 368.365 333.541 369.707C333.796 370.483 334.103 371.239 334.409 372.007C334.736 373.651 335.052 375.307 335.43 376.949C336.502 382.054 337.615 387.159 339.095 392.142C336.93 393.163 334.725 394.021 332.561 395.011C330.397 396.001 328.242 397.053 326.088 398.074C323.934 399.095 321.788 400.119 319.655 401.14C318.634 401.651 317.613 402.161 316.588 402.691C315.563 403.221 314.448 403.938 313.335 404.479C313.223 404.479 313.335 404.693 313.435 404.642C314.599 404.111 315.824 403.723 316.998 403.213C318.172 402.703 319.04 402.335 320.061 401.875C322.246 400.854 324.411 399.884 326.561 398.875C328.711 397.866 330.89 396.833 333.034 395.812C335.178 394.791 337.271 393.637 339.415 392.606C339.447 392.59 339.476 392.567 339.499 392.539C339.522 392.511 339.538 392.478 339.548 392.443C339.594 392.413 339.629 392.369 339.649 392.318C339.67 392.267 339.673 392.21 339.66 392.157C338.574 387.122 337.278 382.047 336.134 376.942Z" fill="#263238"/>
<path d="M330.845 419.022C329.548 416.344 324.32 405.675 322.819 403.122H322.735C323.695 405.838 328.545 416.522 329.835 419.203C332.264 424.625 334.991 429.908 338.003 435.029C338.064 435.121 338.228 435.029 338.187 434.958C336.052 429.505 333.335 424.298 330.845 419.022Z" fill="#263238"/>
<path d="M360.622 423.103C359.669 423.644 358.77 424.318 357.882 424.941L355.082 426.871C353.247 428.147 351.409 429.464 349.469 430.557C349.357 430.618 349.469 430.782 349.569 430.72C351.541 429.587 353.553 428.535 355.462 427.298C357.366 426.143 359.131 424.774 360.722 423.216C360.728 423.201 360.73 423.185 360.728 423.17C360.726 423.154 360.719 423.139 360.708 423.127C360.698 423.115 360.684 423.107 360.668 423.103C360.653 423.099 360.637 423.099 360.622 423.104V423.103Z" fill="#263238"/>
<path d="M317.724 344.995C321.563 345.638 328.475 338.869 330.732 334.039C330.885 333.712 330.17 330.353 329.497 326.239C329.097 323.748 328.711 320.95 328.537 318.377C328.537 317.846 326.771 318.939 326.771 318.939L323.493 319.96L312.66 323.36C313.792 326.518 314.532 329.803 314.865 333.141C314.899 333.48 314.899 333.822 314.865 334.162V334.332C314.62 336.409 314.008 344.362 317.724 344.995Z" fill="#AD6359"/>
<path d="M314.824 334.203V334.377C315.378 334.422 315.934 334.422 316.488 334.377C327.342 333.417 327.791 319.511 327.791 319.511L323.503 319.981L312.67 323.381C313.802 326.539 314.542 329.824 314.875 333.162C314.893 333.51 314.876 333.859 314.824 334.203Z" fill="#263238"/>
<path d="M331.641 302.174C332.917 308.035 328.578 324.289 324.167 327.638C317.826 332.488 308.137 332.202 304.196 324.738C300.367 317.51 306.452 296.426 311.261 293.455C318.357 289.074 329.762 293.516 331.641 302.174Z" fill="#AD6359"/>
<path d="M314.509 311.547C314.509 311.547 314.58 311.618 314.57 311.67C314.243 312.747 314.06 314.047 314.948 314.733V314.794C313.753 314.253 314.019 312.527 314.509 311.547Z" fill="#263238"/>
<path d="M315.786 310.658C317.586 310.995 316.807 314.569 315.122 314.258C313.437 313.947 314.274 310.382 315.786 310.658Z" fill="#263238"/>
<path d="M308.261 309.944C308.261 309.944 308.169 309.944 308.161 310.015C307.944 311.128 307.515 312.374 306.433 312.517V312.578C307.689 312.68 308.24 311.026 308.261 309.944Z" fill="#263238"/>
<path d="M307.535 308.565C305.779 308.034 304.85 311.565 306.514 312.065C308.178 312.565 309.005 309.004 307.535 308.565Z" fill="#263238"/>
<path d="M317.571 309.341C317.133 309.096 316.707 308.829 316.295 308.541C315.807 308.228 315.386 308.034 315.141 307.524C315.092 307.361 315.097 307.185 315.155 307.025C315.214 306.864 315.324 306.728 315.467 306.635C315.782 306.498 316.127 306.446 316.468 306.486C316.809 306.525 317.133 306.654 317.407 306.86C318.019 307.201 318.487 307.753 318.724 308.412C318.758 308.562 318.748 308.719 318.697 308.864C318.646 309.01 318.555 309.138 318.435 309.234C318.315 309.331 318.171 309.392 318.018 309.411C317.865 309.43 317.71 309.405 317.57 309.341H317.571Z" fill="#263238"/>
<path d="M306.555 306.452C307.054 306.483 307.555 306.483 308.055 306.452C308.587 306.51 309.123 306.388 309.577 306.105C309.705 305.991 309.791 305.838 309.821 305.669C309.851 305.5 309.822 305.326 309.74 305.176C309.536 304.902 309.263 304.687 308.949 304.553C308.635 304.418 308.292 304.369 307.953 304.41C307.251 304.386 306.566 304.627 306.034 305.084C305.934 305.197 305.867 305.335 305.84 305.483C305.814 305.632 305.828 305.784 305.881 305.925C305.935 306.066 306.026 306.19 306.145 306.282C306.263 306.375 306.405 306.434 306.555 306.452Z" fill="#263238"/>
<path d="M313.753 321.724C313.426 321.924 313.086 322.224 312.681 322.165C312.269 322.067 311.883 321.883 311.547 321.624H311.486C311.596 321.878 311.773 322.098 311.997 322.26C312.222 322.422 312.486 322.52 312.762 322.543C313 322.534 313.231 322.455 313.424 322.315C313.616 322.175 313.763 321.981 313.845 321.757C313.875 321.736 313.804 321.695 313.753 321.724Z" fill="#263238"/>
<path d="M313.324 318.153C312.944 318.529 312.49 318.822 311.991 319.014C311.492 319.206 310.958 319.291 310.424 319.266C309.959 319.253 309.498 319.174 309.056 319.031C308.972 319.006 308.89 318.976 308.811 318.939L308.576 318.847C308.518 318.823 308.47 318.78 308.438 318.726C308.407 318.672 308.394 318.609 308.402 318.547C308.398 318.51 308.398 318.472 308.402 318.435V318.335C308.576 317.477 308.943 316.201 308.943 316.201C308.596 316.283 306.85 316.65 306.972 316.201C307.929 312.378 309.274 308.664 310.986 305.115C310.995 305.089 311.015 305.068 311.039 305.057C311.064 305.045 311.093 305.044 311.118 305.053C311.144 305.063 311.165 305.082 311.177 305.107C311.188 305.132 311.189 305.16 311.18 305.186C310.312 308.729 308.831 312.088 307.912 315.621C308.536 315.486 309.175 315.438 309.812 315.478C309.924 315.539 309.046 317.939 309.005 318.327C309.686 318.553 310.405 318.64 311.12 318.582C311.835 318.524 312.531 318.323 313.167 317.99C313.344 317.939 313.416 318.082 313.324 318.153Z" fill="#263238"/>
<path d="M309.668 318.704C309.999 319.417 310.509 320.033 311.148 320.491C311.502 320.729 311.922 320.85 312.348 320.838C313.287 320.838 313.492 320.001 313.481 319.266C313.471 318.88 313.418 318.496 313.323 318.122C312.198 318.701 310.917 318.905 309.668 318.704Z" fill="#263238"/>
<path d="M311.149 320.49C311.503 320.728 311.923 320.849 312.349 320.837C313.288 320.837 313.493 320 313.482 319.265C313.013 319.18 312.528 319.255 312.106 319.477C311.683 319.699 311.346 320.055 311.149 320.49V320.49Z" fill="#FF98B9"/>
<path d="M330.165 315.947C325.897 315.59 324.478 310.219 326.081 306.319C326.081 306.319 314.635 306.084 315.481 296.987C314.504 298.088 313.27 298.931 311.889 299.44C310.508 299.95 309.022 300.11 307.565 299.907L305.8 303.031C304.697 302.521 303.972 299.06 307.189 296.901C307.815 294.176 309.468 291.796 311.804 290.258C312.824 289.614 314.009 289.282 315.215 289.302C316.421 289.322 317.595 289.693 318.594 290.37C320.764 289.254 323.285 289.031 325.618 289.748C326.833 290.139 327.937 290.815 328.837 291.719C329.738 292.624 330.409 293.731 330.795 294.948C330.795 294.948 336.186 296.868 336.523 300.962C336.643 302.121 336.518 303.293 336.156 304.401C335.794 305.509 335.204 306.529 334.423 307.394C334.423 307.394 335.577 309.16 334.341 312.417C333.5 314.518 331.448 316.049 330.165 315.947Z" fill="#263238"/>
<path d="M315.856 296.221C315.653 296.94 315.53 297.68 315.489 298.426C315.412 299.143 315.425 299.867 315.527 300.581C315.725 302.007 316.455 303.306 317.571 304.216C318.749 305.079 320.113 305.652 321.553 305.89C322.278 305.982 323.013 306.125 323.753 306.176C324.493 306.227 325.244 306.237 325.989 306.288C325.254 306.359 324.498 306.388 323.743 306.431C322.989 306.429 322.235 306.381 321.487 306.288C319.991 306.096 318.566 305.538 317.337 304.665C316.124 303.671 315.347 302.242 315.172 300.683C315.02 299.162 315.255 297.627 315.856 296.221V296.221Z" fill="#263238"/>
<path d="M309.261 300.581C310.554 300.354 311.8 299.913 312.947 299.274C313.506 298.954 314.02 298.563 314.478 298.11C314.937 297.618 315.341 297.077 315.683 296.497C315.511 297.161 315.205 297.784 314.783 298.325C314.351 298.871 313.818 299.329 313.212 299.672C312.615 300.019 311.967 300.271 311.292 300.417C310.628 300.584 309.942 300.639 309.261 300.581V300.581Z" fill="#263238"/>
<path d="M327.005 315.334C327.005 315.334 331.273 310.393 333.56 311.965C335.847 313.537 332.243 320.98 329.292 321.746C328.921 321.87 328.529 321.917 328.139 321.886C327.749 321.854 327.369 321.744 327.023 321.562C326.677 321.379 326.371 321.129 326.124 320.826C325.877 320.522 325.694 320.172 325.586 319.796L327.005 315.334Z" fill="#AD6359"/>
<path d="M332.468 314.068V314.15C330.426 314.752 329.16 316.488 328.231 318.326C328.368 318.139 328.543 317.983 328.746 317.87C328.948 317.758 329.173 317.69 329.404 317.673C329.635 317.655 329.867 317.688 330.084 317.769C330.301 317.85 330.498 317.977 330.661 318.142C330.661 318.142 330.661 318.254 330.59 318.234C330.249 318.081 329.868 318.04 329.502 318.115C329.136 318.19 328.802 318.378 328.548 318.653C328.13 319.11 327.762 319.61 327.448 320.144C327.336 320.307 327.029 320.144 327.111 319.981C327.383 317.397 329.721 314.048 332.468 314.068Z" fill="#263238"/>
<path d="M314.754 334.101L318.695 343.586L330.396 331.395L333.806 335.224C333.806 335.224 322.432 354.521 322.35 353.602L318.327 345.434L312.722 351.213L313.022 336.857L314.754 334.101Z" fill="white"/>
<path d="M312.467 344.158C312.59 341.789 312.651 339.4 312.896 337.011C312.898 336.991 312.907 336.972 312.923 336.959C312.938 336.945 312.957 336.938 312.977 336.938C312.997 336.938 313.017 336.945 313.032 336.959C313.047 336.972 313.056 336.991 313.059 337.011C313.559 339.288 313.059 348.344 313.059 350.519C313.294 350.274 318.259 345.414 318.307 345.506C319.175 346.806 322.126 352.755 322.33 353.296C324.127 350.232 331.019 339.083 333.163 336.173C333.168 336.164 333.175 336.155 333.184 336.149C333.192 336.142 333.202 336.137 333.213 336.134C333.223 336.132 333.234 336.131 333.245 336.132C333.255 336.134 333.266 336.137 333.275 336.143C333.285 336.148 333.293 336.155 333.299 336.164C333.306 336.172 333.311 336.182 333.314 336.192C333.317 336.203 333.317 336.214 333.316 336.225C333.315 336.235 333.311 336.246 333.306 336.255C331.723 339.492 322.596 354.501 322.453 354.455C320.902 351.652 319.498 348.77 318.246 345.822C317.413 346.843 312.406 352.326 312.375 351.948C312.268 349.352 312.299 346.751 312.467 344.158Z" fill="#263238"/>
</g>
<path opacity="0.15" d="M88.1874 333.672C116.099 333.672 138.726 330.622 138.726 326.859C138.726 323.097 116.099 320.046 88.1874 320.046C60.2755 320.046 37.6484 323.097 37.6484 326.859C37.6484 330.622 60.2755 333.672 88.1874 333.672Z" fill="#EBEBEB"/>
<path d="M51.2769 313.629L46.377 326.859H52.134L62.795 319.596L51.2769 313.629Z" fill="#003366"/>
<path d="M125.097 313.629L129.997 326.859H124.24L113.583 319.599L125.097 313.629Z" fill="#003366"/>
<path opacity="0.1" d="M51.2769 313.629L46.377 326.859H52.134L62.795 319.596L51.2769 313.629Z" fill="black"/>
<path opacity="0.1" d="M125.097 313.629L129.997 326.859H124.24L113.583 319.599L125.097 313.629Z" fill="black"/>
<path d="M129.782 310.782C152.754 287.811 152.754 250.566 129.782 227.594C106.811 204.622 69.5659 204.622 46.5941 227.594C23.6223 250.566 23.6223 287.811 46.5941 310.782C69.5659 333.754 106.811 333.754 129.782 310.782Z" fill="#003366"/>
<path opacity="0.1" d="M87.4708 324.351C118.471 324.351 143.601 299.221 143.601 268.221C143.601 237.222 118.471 212.091 87.4708 212.091C56.4711 212.091 31.3408 237.222 31.3408 268.221C31.3408 299.221 56.4711 324.351 87.4708 324.351Z" fill="black"/>
<path d="M125.37 306.121C145.906 285.586 145.906 252.291 125.37 231.755C104.834 211.219 71.5392 211.219 51.0035 231.755C30.4678 252.291 30.4678 285.586 51.0035 306.121C71.5392 326.657 104.834 326.657 125.37 306.121Z" fill="white"/>
<path d="M139.571 257.767C115.626 272.276 76.2711 296.077 54.2851 309.124C48.0649 303.88 43.1457 297.264 39.9141 289.797L112.658 222.373C119.454 225.951 125.385 230.974 130.035 237.087C134.684 243.201 137.939 250.258 139.571 257.763V257.767Z" fill="#EBEBEB"/>
<path d="M140.727 270.762C140.536 276.613 139.361 282.39 137.25 287.85L71.6805 318.866C68.8214 317.922 66.0497 316.731 63.3965 315.307C83.1935 303.858 119.398 283.029 140.727 270.762Z" fill="#EBEBEB"/>
<path d="M88.6917 220.169H87.6777V228.14H88.6917V220.169Z" fill="#C7C7C7"/>
<path d="M64.2459 226.442L63.3643 226.951L67.3498 233.854L68.2314 233.345L64.2459 226.442Z" fill="#C7C7C7"/>
<path d="M46.2043 244.107L45.6973 244.985L52.6004 248.971L53.1074 248.093L46.2043 244.107Z" fill="#C7C7C7"/>
<path d="M47.3899 268.428H39.4189V269.442H47.3899V268.428Z" fill="#C7C7C7"/>
<path d="M52.5955 288.899L45.6924 292.884L46.1994 293.762L53.1025 289.777L52.5955 288.899Z" fill="#C7C7C7"/>
<path d="M67.3481 304.021L63.3662 310.926L64.2481 311.435L68.23 304.53L67.3481 304.021Z" fill="#C7C7C7"/>
<path d="M88.6917 309.733H87.6777V317.704H88.6917V309.733Z" fill="#C7C7C7"/>
<path d="M109.03 304.012L108.148 304.521L112.134 311.424L113.016 310.915L109.03 304.012Z" fill="#C7C7C7"/>
<path d="M123.769 288.888L123.262 289.766L130.165 293.752L130.672 292.874L123.769 288.888Z" fill="#C7C7C7"/>
<path d="M130.167 244.122L123.264 248.107L123.771 248.985L130.674 245L130.167 244.122Z" fill="#C7C7C7"/>
<path d="M112.133 226.453L108.151 233.358L109.033 233.867L113.015 226.962L112.133 226.453Z" fill="#C7C7C7"/>
<path d="M136.559 269.614L85.5586 271.038L85.6206 266.052L136.576 268.26L136.559 269.614Z" fill="#003366"/>
<path d="M88.5369 233.071L90.7449 271.883L85.7549 271.818L87.1859 233.054L88.5369 233.071Z" fill="#263238"/>
<path d="M88.1874 270.638C89.1273 270.638 89.8894 269.876 89.8894 268.936C89.8894 267.996 89.1273 267.234 88.1874 267.234C87.2474 267.234 86.4854 267.996 86.4854 268.936C86.4854 269.876 87.2474 270.638 88.1874 270.638Z" fill="#003366"/>
<path opacity="0.2" d="M77.5489 623.285L110.779 643.896L117.09 633.727C118.002 632.264 119.303 631.085 120.847 630.32C122.39 629.556 124.116 629.237 125.831 629.398C127.788 629.557 129.711 629.619 131.671 629.586C133.391 629.524 135.093 629.944 136.588 630.798C138.082 631.651 139.308 632.905 140.13 634.418L145.778 645L180.241 626.491L174.592 615.942C173.807 614.416 173.451 612.704 173.562 610.991C173.673 609.277 174.248 607.626 175.224 606.215C176.359 604.605 177.412 602.939 178.38 601.224C179.187 599.702 180.404 598.436 181.893 597.571C183.382 596.706 185.084 596.275 186.805 596.329L198.764 596.697L200 557.595L187.974 557.249C186.251 557.183 184.58 556.637 183.15 555.671C181.72 554.705 180.589 553.359 179.884 551.783C179.472 550.929 179.031 550.079 178.589 549.207C178.148 548.335 177.641 547.503 177.137 546.678C176.264 545.212 175.803 543.536 175.803 541.829C175.803 540.122 176.264 538.447 177.137 536.98L183.447 526.715L150.217 506.104L143.907 516.307C142.988 517.768 141.68 518.945 140.13 519.703C138.58 520.462 136.849 520.773 135.132 520.602C133.208 520.443 131.282 520.381 129.325 520.414C127.612 520.442 125.924 520.004 124.44 519.147C122.956 518.29 121.733 517.046 120.9 515.548L115.218 505L80.7558 523.509L86.4044 534.058C87.1945 535.581 87.5561 537.291 87.4505 539.005C87.3449 540.718 86.7761 542.37 85.805 543.785C84.6523 545.371 83.5985 547.027 82.6497 548.743C81.8343 550.266 80.6107 551.53 79.1164 552.395C77.6222 553.26 75.9166 553.69 74.1914 553.638L62.1988 553.292L61 592.394L72.9924 592.762C74.7062 592.849 76.3643 593.4 77.7893 594.357C79.2144 595.314 80.3528 596.641 81.083 598.195C81.4949 599.078 81.9031 599.932 82.3775 600.815C82.8519 601.699 83.2933 602.49 83.7971 603.311C84.7024 604.777 85.1818 606.467 85.1818 608.191C85.1818 609.915 84.7024 611.605 83.7971 613.071L77.5489 623.285ZM102.229 590.16C99.2406 584.57 97.9756 578.218 98.5939 571.909C99.2122 565.599 101.686 559.615 105.703 554.712C109.719 549.809 115.098 546.209 121.159 544.365C127.22 542.522 133.691 542.519 139.754 544.356C145.817 546.193 151.2 549.788 155.221 554.687C159.243 559.585 161.723 565.567 162.348 571.876C162.972 578.185 161.714 584.538 158.731 590.131C155.748 595.725 151.176 600.307 145.591 603.3C141.882 605.287 137.818 606.524 133.631 606.939C129.444 607.354 125.217 606.94 121.19 605.72C117.164 604.499 113.416 602.497 110.163 599.828C106.91 597.158 104.214 593.873 102.229 590.16Z" fill="#EBEBEB"/>
<defs>
<clipPath id="clip0_1027_3007">
<rect width="342.725" height="421.643" fill="white" transform="translate(78 258)"/>
</clipPath>
</defs>
</svg>
