<svg width="234" height="353" viewBox="0 0 234 353" fill="none" xmlns="http://www.w3.org/2000/svg">
<path d="M137.313 0.0209521L136.894 0.125776C136.905 0.0775326 136.931 0.0337769 136.967 0L137.313 0.0209521Z" fill="#263238"/>
<path d="M149.189 32.9341H149.178V40.3133H149.189V32.9341Z" fill="#DD6A57"/>
<path d="M149.378 302.842H149.189V302.706L149.378 302.842Z" fill="#DD6A57"/>
<path d="M129.735 226.115L127.25 241.03L110.395 332.034H107.681L119.934 241.03L121.747 226.115H129.735Z" fill="#DBDBDB"/>
<path d="M121.747 226.115H129.734L127.25 241.03H119.934L121.747 226.115Z" fill="#A6A6A6"/>
<path d="M182.647 332.034H179.932L163.087 241.03L160.593 226.115H168.59L170.393 241.03L182.647 332.034Z" fill="#DBDBDB"/>
<path d="M168.59 226.115L170.393 241.03H163.087L160.593 226.115H168.59Z" fill="#A6A6A6"/>
<path d="M233.201 332.034H230.476L213.631 241.03L211.137 226.115H219.134L220.948 241.03L233.201 332.034Z" fill="#DBDBDB"/>
<path d="M220.948 241.03H213.631L211.137 226.115H219.134L220.948 241.03Z" fill="#A6A6A6"/>
<path d="M228.893 233.127H105.406V220.109H151.631L167.165 129.734H224.176L228.893 233.127Z" fill="#DBDBDB"/>
<path d="M228.893 233.127H222.153L217.772 129.734H224.176L228.893 233.127Z" fill="#A6A6A6"/>
<path d="M97.6495 352.684C100.039 352.914 165.111 337.338 167.165 335.221C167.417 334.99 166.117 329.078 164.241 321.007V320.85C163.067 315.735 144.063 274.395 144.063 274.395L101.884 286.197L121.087 324.561C121.087 324.561 113.152 330.294 106.36 335.745C103.35 338.011 100.483 340.462 97.7753 343.082C95.7209 345.64 95.2597 352.474 97.6495 352.684Z" fill="#F7A9A0"/>
<path d="M97.6494 352.683C100.039 352.903 165.111 337.338 167.165 335.231C167.417 334.99 166.117 329.078 164.241 321.007V320.86C163.811 318.953 160.887 312.003 157.396 304.089C150.457 305.966 125.573 312.716 116.517 315.515L121.066 324.613C121.066 324.613 113.131 330.357 106.328 335.808C103.321 338.081 100.451 340.532 97.7333 343.145C95.7208 345.64 95.2596 352.484 97.6494 352.683Z" fill="white"/>
<path d="M97.4295 352.998C99.8927 353.207 165.017 337.453 167.123 335.283C167.92 334.466 166.474 324.194 162.931 313.271L121.003 323.47C121.003 323.47 99.5782 340.472 97.5238 343.092C95.4693 345.713 94.9767 352.809 97.4295 352.998Z" fill="#2A3680"/>
<path d="M97.7332 350.168C108.592 347.254 152.627 336.541 163.58 334.445C163.664 334.445 163.685 334.445 163.58 334.518C152.878 337.663 108.75 347.977 97.7647 350.241C97.5445 350.388 97.5131 350.22 97.7332 350.168Z" fill="#263238"/>
<path d="M101.066 339.77C102.271 339.439 103.53 339.362 104.766 339.542C106.002 339.723 107.187 340.157 108.246 340.818C110.153 342.007 111.53 343.883 112.093 346.059C112.093 346.122 111.988 346.153 111.957 346.059C111.058 343.991 109.515 342.268 107.559 341.147C105.603 340.025 103.337 339.564 101.098 339.832C101.014 339.927 100.983 339.801 101.066 339.77Z" fill="#263238"/>
<path d="M117.764 325.431C122.114 324.309 127.554 324.624 131.129 327.527C131.275 327.643 131.129 327.831 130.961 327.8C126.657 326.723 122.251 326.108 117.817 325.965C117.759 325.952 117.706 325.921 117.667 325.877C117.628 325.832 117.603 325.776 117.598 325.717C117.592 325.658 117.605 325.598 117.635 325.547C117.665 325.496 117.71 325.455 117.764 325.431Z" fill="#263238"/>
<path d="M114.704 327.558C119.064 326.447 124.494 326.762 128.079 329.655C128.215 329.77 128.079 329.959 127.911 329.927C123.604 328.85 119.194 328.235 114.756 328.093C114.698 328.08 114.646 328.049 114.606 328.004C114.567 327.96 114.543 327.904 114.537 327.845C114.531 327.786 114.544 327.726 114.574 327.675C114.604 327.623 114.649 327.583 114.704 327.558Z" fill="#263238"/>
<path d="M111.653 329.686C116.003 328.575 121.443 328.89 125.028 331.783C125.164 331.898 125.028 332.097 124.85 332.055C120.546 330.978 116.14 330.363 111.706 330.221C111.648 330.208 111.595 330.177 111.556 330.132C111.517 330.088 111.493 330.032 111.487 329.973C111.481 329.913 111.494 329.854 111.524 329.803C111.554 329.751 111.599 329.711 111.653 329.686Z" fill="#263238"/>
<path d="M108.592 331.845C112.953 330.724 118.393 331.038 121.967 333.942C122.104 334.047 121.967 334.246 121.8 334.214C117.507 333.135 113.111 332.52 108.687 332.38C108.626 332.373 108.569 332.347 108.525 332.305C108.48 332.263 108.45 332.208 108.44 332.148C108.429 332.088 108.438 332.026 108.466 331.971C108.493 331.917 108.538 331.873 108.592 331.845Z" fill="#263238"/>
<path d="M158.287 324.802C163.192 323.628 165.027 331.258 160.111 332.432C155.195 333.606 153.381 325.976 158.287 324.802Z" fill="#263238"/>
<path d="M112.115 321.228C115.259 323.701 119.263 324.75 122.9 326.154C122.983 326.177 123.07 326.181 123.154 326.164C123.238 326.147 123.317 326.111 123.385 326.057C123.452 326.004 123.506 325.936 123.542 325.858C123.578 325.78 123.595 325.695 123.592 325.609C123.611 325.608 123.629 325.603 123.645 325.594C123.662 325.585 123.676 325.573 123.687 325.558C123.698 325.543 123.706 325.525 123.709 325.507C123.713 325.489 123.712 325.47 123.707 325.452C122.412 321.521 120.11 317.997 117.031 315.232C115.207 313.66 111.989 312.538 110.217 314.907C108.446 317.276 110.312 319.792 112.115 321.228ZM111.066 317.664C110.354 312.8 115.532 315.421 116.821 316.616C117.65 317.418 118.424 318.276 119.137 319.184C120.636 321.039 121.852 323.072 123.162 325.064C121.422 324.267 119.63 323.628 117.859 322.894C115.72 322.035 111.433 320.316 111.035 317.664H111.066Z" fill="#263238"/>
<path d="M138.55 318.911C137.501 316.144 134.105 316.311 131.915 317.307C128.183 319.094 124.988 321.83 122.649 325.242C122.638 325.256 122.63 325.273 122.627 325.291C122.624 325.309 122.625 325.327 122.63 325.344C122.635 325.362 122.644 325.378 122.656 325.391C122.669 325.404 122.684 325.414 122.701 325.42C122.628 325.745 122.816 326.175 123.225 326.133C127.103 325.818 131.286 325.944 134.954 324.445C137.093 323.565 139.524 321.531 138.55 318.911ZM129.001 324.445C127.103 324.645 125.196 324.76 123.298 325.032C125.112 323.491 126.852 321.888 128.822 320.525C129.754 319.853 130.731 319.247 131.747 318.712C133.34 317.915 139.032 316.856 136.988 321.322C135.856 323.774 131.275 324.194 129.001 324.445Z" fill="#263238"/>
<path d="M117.072 321.049L162.26 307.496C162.26 307.496 125.018 229.93 126.192 225.926C126.978 223.295 182.794 223.107 199.187 208.411C216.126 193.202 202.94 163.339 202.94 163.339L155.96 163.087C155.96 163.087 156.767 172.888 154.912 174.418C153.738 175.466 89.5366 181.074 77.2519 204.679C66.1411 226.094 117.072 321.049 117.072 321.049Z" fill="#455A64"/>
<path d="M126.16 225.979C125.961 226.639 126.862 229.438 128.519 233.609L94.767 275.065C82.7338 247.634 71.4238 216 77.2937 204.721C89.5994 181.127 153.811 175.477 154.975 174.46C156.757 172.94 155.95 163.129 155.95 163.129L185.76 163.287L136.223 224.081C130.259 224.731 126.359 225.234 126.16 225.979Z" fill="#263238"/>
<path d="M115.919 311.49C117.117 310.95 118.35 310.492 119.609 310.117C120.909 309.676 122.219 309.226 123.529 308.806C126.108 307.978 128.697 307.182 131.296 306.448C136.537 304.97 141.778 303.513 147.092 302.171C149.839 301.469 155.75 299.939 156.117 299.991C156.285 299.991 156.327 300.316 156.17 300.368C151.065 302.203 145.876 303.765 140.688 305.347C135.499 306.93 130.332 308.492 125.08 309.813C123.623 310.179 122.156 310.504 120.699 310.861C119.178 311.309 117.626 311.642 116.055 311.857C115.909 311.867 115.762 311.574 115.919 311.49Z" fill="#263238"/>
<path d="M200.382 172.27C200.236 170.697 200.068 169.125 199.89 167.574C199.89 167.385 199.586 167.395 199.607 167.574C200.225 173.926 200.875 180.424 199.701 186.755C198.629 192.594 195.686 197.926 191.316 201.944C181.997 210.633 168.979 213.191 156.841 215.256C149.891 216.44 142.9 217.352 135.877 218.033C132.439 218.376 128.997 218.652 125.552 218.861C122.135 219.082 118.718 219.113 115.301 219.302C114.253 219.365 113.257 219.857 113.425 221.084C113.602 221.836 113.876 222.562 114.242 223.243L115.343 225.738C116.741 228.833 118.121 231.929 119.483 235.024C122.334 241.397 125.231 247.753 128.173 254.091C134.015 266.669 140.07 279.153 146.338 291.543C147.114 293.08 147.893 294.614 148.675 296.144C148.728 296.249 148.875 296.144 148.822 296.06C142.833 283.524 136.918 270.946 131.076 258.326C128.183 252.037 125.294 245.775 122.408 239.542C121.01 236.412 119.588 233.267 118.142 230.108C117.443 228.536 116.744 226.964 116.045 225.392C115.689 224.605 115.343 223.819 114.997 223.023C114.651 222.226 113.645 220.801 114.379 220.193C114.871 219.784 115.888 219.931 116.475 219.91L119.2 219.815C120.93 219.763 122.649 219.69 124.378 219.606C127.872 219.431 131.366 219.193 134.86 218.893C141.68 218.292 148.48 217.443 155.258 216.346C167.312 214.407 180.414 212.216 190.079 204.124C194.393 200.602 197.605 195.917 199.334 190.623C201.127 184.732 200.927 178.38 200.382 172.27Z" fill="#263238"/>
<path d="M0.933045 293.188C2.63111 294.886 62.6818 324.393 65.6167 324.078C65.9521 324.078 68.7613 318.68 72.4299 311.259L72.5033 311.112C74.8512 306.427 96.2133 266.963 96.2133 266.963L58.8559 248.095L36.8964 286.49C36.8964 286.49 27.1272 285.851 18.4063 285.715C14.6436 285.543 10.8739 285.595 7.11736 285.872C3.94135 286.532 -0.7755 291.511 0.933045 293.188Z" fill="#F7A9A0"/>
<path d="M0.933045 293.188C2.63111 294.886 62.6817 324.393 65.6167 324.068C65.9521 324.068 68.7612 318.68 72.4299 311.27L72.5033 311.123C72.6605 310.798 72.8282 310.463 73.0064 310.075C73.1846 309.687 73.2475 309.603 73.3837 309.362L73.9393 308.314C75.564 305.232 78.2368 300.243 81.1822 294.771L43.0807 275.568L36.8963 286.407C36.8963 286.407 27.1272 285.767 18.4063 285.631C14.6434 285.46 10.8736 285.516 7.11736 285.799C3.94135 286.532 -0.7755 291.501 0.933045 293.188Z" fill="white"/>
<path d="M0.56633 293.293C2.32728 295.023 62.5351 324.424 65.5539 324.089C66.6859 323.974 72.126 315.127 76.3188 304.467L37.473 285.6C37.473 285.6 10.1363 285.023 6.8764 285.746C3.61654 286.47 -1.18414 291.564 0.56633 293.293Z" fill="#2A3680"/>
<path d="M2.60998 291.301C12.8193 295.987 53.5728 315.829 63.3104 321.227C63.3943 321.227 63.3629 321.332 63.3104 321.29C53.0906 316.877 12.5049 296.7 2.51564 291.469C2.31649 291.364 2.38986 291.207 2.60998 291.301Z" fill="#263238"/>
<path d="M11.8027 285.421C12.9391 285.941 13.9553 286.691 14.787 287.624C15.6188 288.557 16.2479 289.652 16.6348 290.841C17.3475 292.971 17.2124 295.295 16.2575 297.329C16.2575 297.381 16.1107 297.329 16.1317 297.266C16.7572 295.1 16.6677 292.79 15.8765 290.679C15.0854 288.568 13.6347 286.768 11.7398 285.547C11.6559 285.505 11.7188 285.39 11.8027 285.421Z" fill="#263238"/>
<path d="M33.8043 285.023C37.8713 286.941 41.8649 290.652 42.7558 295.18C42.7558 295.358 42.5462 295.4 42.4519 295.285C39.8238 291.707 36.8193 288.421 33.4899 285.484C33.4416 285.438 33.4113 285.376 33.4044 285.309C33.3974 285.243 33.4143 285.176 33.452 285.121C33.4897 285.065 33.5458 285.025 33.6103 285.007C33.6748 284.989 33.7436 284.995 33.8043 285.023Z" fill="#263238"/>
<path d="M30.0724 284.677C34.1394 286.585 38.1225 290.306 39.0239 294.834C39.0239 295.012 38.8143 295.054 38.7199 294.928C36.0887 291.356 33.0844 288.074 29.7579 285.138C29.7097 285.092 29.6794 285.03 29.6724 284.963C29.6655 284.897 29.6824 284.83 29.7201 284.774C29.7578 284.719 29.8139 284.679 29.8784 284.661C29.9429 284.643 30.0116 284.649 30.0724 284.677Z" fill="#263238"/>
<path d="M26.3831 284.405C30.45 286.323 34.4331 290.033 35.3346 294.561C35.3346 294.74 35.1144 294.792 35.0306 294.666C32.4021 291.092 29.3976 287.81 26.0686 284.876C26.006 284.835 25.9626 284.77 25.9479 284.696C25.9331 284.622 25.9483 284.546 25.99 284.483C26.0317 284.421 26.0965 284.377 26.1702 284.362C26.244 284.348 26.3205 284.363 26.3831 284.405Z" fill="#263238"/>
<path d="M22.673 284.101C26.74 286.019 30.7231 289.729 31.6245 294.258C31.6245 294.436 31.4044 294.478 31.3205 294.362C28.6895 290.787 25.6852 287.501 22.3585 284.562C22.3103 284.516 22.2799 284.454 22.273 284.387C22.2661 284.32 22.283 284.254 22.3207 284.198C22.3584 284.143 22.4145 284.103 22.479 284.085C22.5435 284.067 22.6122 284.073 22.673 284.101Z" fill="#263238"/>
<path d="M65.4281 310.389C69.9458 312.611 66.4763 319.655 61.9691 317.423C57.4619 315.19 60.8895 308.157 65.4281 310.389Z" fill="#263238"/>
<path d="M32.1689 278.189C32.976 282.067 35.4288 285.463 37.3365 288.849C37.3856 288.92 37.4514 288.978 37.5281 289.019C37.6048 289.059 37.6901 289.08 37.7767 289.08C37.8634 289.08 37.9487 289.059 38.0254 289.019C38.1021 288.978 38.1678 288.92 38.217 288.849C38.2322 288.86 38.2498 288.867 38.2683 288.87C38.2867 288.874 38.3057 288.873 38.3238 288.868C38.3419 288.863 38.3586 288.854 38.3728 288.841C38.387 288.829 38.3982 288.814 38.4056 288.796C39.9152 284.943 40.3886 280.762 39.7787 276.669C39.3804 274.3 37.609 271.428 34.737 272.078C31.9907 272.77 31.6658 275.925 32.1689 278.189ZM33.6154 274.751C36.1625 270.558 38.479 275.862 38.7096 277.633C38.8284 278.775 38.8739 279.923 38.8459 281.071C38.7538 283.446 38.5404 285.814 38.2065 288.167C37.3679 286.448 36.3931 284.813 35.5022 283.115C34.4016 281.103 32.1689 277.067 33.584 274.751H33.6154Z" fill="#263238"/>
<path d="M53.9714 293.251C54.9462 290.463 52.2105 288.419 49.894 287.79C45.8798 286.786 41.6723 286.855 37.6931 287.989C37.6743 287.993 37.6567 288.001 37.6419 288.013C37.6271 288.025 37.6156 288.041 37.6083 288.059C37.601 288.076 37.5983 288.095 37.6003 288.114C37.6022 288.133 37.6089 288.152 37.6197 288.167C37.5504 288.218 37.494 288.284 37.4551 288.361C37.4163 288.437 37.396 288.522 37.396 288.608C37.396 288.693 37.4163 288.778 37.4551 288.855C37.494 288.931 37.5504 288.997 37.6197 289.048C40.7642 291.27 43.9088 294.048 47.7242 295.222C49.8835 295.913 53.0595 295.893 53.9714 293.251ZM43.0912 291.427C41.498 290.379 39.9467 289.247 38.322 288.283C40.6963 288.162 43.0753 288.162 45.4496 288.283C46.5979 288.369 47.7394 288.53 48.8667 288.765C50.5962 289.153 55.659 291.972 51.2356 294.111C48.7934 295.295 44.9989 292.685 43.0912 291.427Z" fill="#263238"/>
<path d="M35.3135 280.233L80.3855 302.748C80.3855 302.748 115.552 231.251 119.41 226.649C124.556 220.507 191.546 229.176 207.342 209.344C223.683 188.831 209.69 163.36 209.69 163.36H158.696C158.835 168.124 159.777 172.83 161.484 177.28C161.484 177.28 103.173 173.81 86.6746 189.858C73.9601 202.132 35.3135 280.233 35.3135 280.233Z" fill="#455A64"/>
<path d="M170.719 182.395C168.107 180.601 165.402 178.946 162.616 177.437C160.65 176.416 158.589 175.588 156.463 174.963C154.985 174.597 154.367 174.492 155.719 175.152L159.471 176.934H158.685C157.637 176.882 156.683 176.85 155.677 176.819C153.717 176.766 151.757 176.819 149.797 176.766C145.814 176.766 141.872 177.123 137.9 177.322C137.878 177.322 137.856 177.331 137.84 177.346C137.825 177.362 137.816 177.383 137.816 177.406C137.816 177.428 137.825 177.449 137.84 177.465C137.856 177.481 137.878 177.49 137.9 177.49C141.862 177.353 145.835 177.563 149.797 177.552C151.767 177.552 153.727 177.605 155.688 177.636H158.56C159.37 177.678 160.181 177.678 160.991 177.636L162.04 178.16C164.922 179.513 167.794 180.938 170.572 182.5C170.579 182.509 170.587 182.518 170.597 182.524C170.607 182.53 170.619 182.534 170.63 182.536C170.642 182.538 170.654 182.538 170.665 182.535C170.677 182.533 170.688 182.528 170.698 182.521C170.707 182.514 170.715 182.505 170.722 182.495C170.728 182.485 170.732 182.474 170.734 182.462C170.736 182.451 170.736 182.439 170.733 182.427C170.73 182.416 170.725 182.405 170.719 182.395Z" fill="#263238"/>
<path d="M157.438 161.421C157.952 163.821 158.402 166.242 159 168.632C159.283 169.68 159.545 170.844 159.922 171.913C160.237 172.804 160.729 173.842 161.757 174.072C162.784 174.303 163.298 173.339 163.235 172.353C163.127 171.252 162.962 170.157 162.742 169.072C162.543 167.825 162.333 166.578 162.145 165.33C162.05 164.701 161.956 164.083 161.872 163.454C161.872 163.297 161.778 162.102 161.704 161.756C161.693 161.762 161.68 161.766 161.668 161.766C161.655 161.766 161.642 161.762 161.631 161.756C161.614 161.756 161.598 161.749 161.586 161.738C161.575 161.726 161.568 161.71 161.568 161.693C161.568 161.599 161.568 161.578 161.631 161.515C161.646 161.505 161.665 161.499 161.683 161.499C161.702 161.499 161.72 161.505 161.736 161.515C161.966 161.641 161.966 161.955 162.029 162.186C162.207 162.794 162.386 163.402 162.532 164.02C162.826 165.173 163.109 166.326 163.36 167.479C163.612 168.632 163.853 169.806 164.105 170.959C164.369 171.822 164.416 172.736 164.241 173.622C164.121 174.039 163.87 174.406 163.524 174.669C163.178 174.931 162.757 175.075 162.323 175.078C162.323 175.162 162.407 175.236 162.438 175.32C162.532 175.561 162.606 175.812 162.679 176.053C162.752 176.294 162.836 176.556 162.899 176.808C162.931 176.928 162.949 177.051 162.952 177.175C162.952 177.322 162.952 177.458 162.952 177.594C162.952 177.73 162.669 177.93 162.574 177.709C162.48 177.489 162.428 177.489 162.365 177.374C162.297 177.244 162.244 177.107 162.207 176.965C162.131 176.728 162.068 176.487 162.019 176.242C162.019 175.99 161.903 175.749 161.862 175.508C161.82 175.267 161.862 175.215 161.862 175.058C161.367 174.999 160.898 174.803 160.509 174.492C159.851 173.899 159.381 173.126 159.157 172.269C158.832 171.221 158.581 170.225 158.34 169.198C157.692 166.658 157.268 164.066 157.071 161.452C157.089 161.42 157.114 161.393 157.144 161.373C157.175 161.352 157.21 161.34 157.246 161.337C157.283 161.334 157.319 161.34 157.353 161.355C157.386 161.369 157.416 161.392 157.438 161.421Z" fill="#263238"/>
<path d="M182.06 168.265C182.238 169.46 182.332 170.666 182.574 171.84C182.815 173.014 183.077 174.156 183.412 175.288C183.712 176.395 184.167 177.454 184.764 178.433C185.39 179.348 186.141 180.17 186.997 180.875C188.641 182.266 190.499 183.381 192.5 184.177C193.505 184.589 194.534 184.939 195.581 185.225C196.127 185.371 196.68 185.487 197.238 185.571C197.699 185.609 198.15 185.73 198.569 185.927C198.608 185.952 198.64 185.986 198.662 186.026C198.684 186.067 198.696 186.112 198.696 186.158C198.696 186.204 198.684 186.249 198.662 186.29C198.64 186.33 198.608 186.364 198.569 186.388C197.755 186.608 196.898 186.608 196.085 186.388C195.195 186.267 194.316 186.081 193.454 185.833C191.708 185.313 190.046 184.547 188.517 183.558C186.965 182.614 185.589 181.408 184.45 179.995C183.38 178.517 182.663 176.814 182.353 175.016C181.874 172.821 181.701 170.57 181.84 168.328C181.808 168.15 182.06 168.14 182.06 168.265Z" fill="#263238"/>
<path d="M44.4224 272.036C45.6657 272.465 46.8775 272.98 48.0491 273.577C49.2965 274.143 50.5543 274.719 51.7912 275.306C54.2335 276.47 56.6652 277.675 59.0656 278.933C63.8977 281.449 68.7194 284.006 73.4887 286.658C75.9729 288.042 81.3081 290.977 81.5387 291.27C81.7693 291.564 81.4759 291.658 81.3186 291.585C76.3502 289.415 71.5076 286.983 66.644 284.572C61.7804 282.162 56.9483 279.74 52.2209 277.099C50.9107 276.376 49.6319 275.6 48.3322 274.856C46.9187 274.134 45.5595 273.311 44.2652 272.393C44.1604 272.298 44.2442 271.984 44.4224 272.036Z" fill="#263238"/>
<path d="M209.596 175.215C209.596 175.171 209.578 175.128 209.547 175.096C209.515 175.065 209.473 175.047 209.428 175.047C209.384 175.047 209.341 175.065 209.309 175.096C209.278 175.128 209.26 175.171 209.26 175.215C209.355 186.284 207.646 198.663 199.124 206.608C189.775 215.319 176.295 216.356 164.167 216.252C157.207 216.189 150.247 216.011 143.287 216.252C136.327 216.493 129.231 216.818 122.324 217.698C119.614 217.953 117.084 219.164 115.186 221.115C113.363 223.197 111.777 225.475 110.458 227.907C106.964 233.714 103.572 239.581 100.28 245.507C93.7606 257.302 87.7231 269.339 82.1677 281.617C81.4689 283.147 80.7701 284.677 80.0713 286.208C80.0713 286.302 80.1761 286.396 80.218 286.291C85.8573 273.965 91.9298 261.851 98.4355 249.951C101.664 243.997 105.011 238.103 108.477 232.268C110.102 229.532 111.674 226.723 113.487 224.103C115.091 221.786 117.093 219.606 119.86 218.767C121.559 218.338 123.298 218.085 125.049 218.013C126.831 217.845 128.613 217.698 130.395 217.572C133.864 217.321 137.344 217.132 140.814 216.996C147.837 216.744 154.849 216.828 161.872 216.996C174.062 217.216 187.374 216.797 197.51 209.04C201.845 205.658 205.119 201.103 206.944 195.917C208.734 190.607 209.651 185.042 209.659 179.439C209.638 178.003 209.627 176.609 209.596 175.215Z" fill="#263238"/>
<path d="M136.621 223.714C134.137 223.714 131.653 223.861 129.158 223.945C127.09 223.906 125.024 224.089 122.995 224.49C121.108 224.962 119.619 225.192 118.079 227.289C116.15 229.92 105.689 250.139 101.308 259.101C100.092 261.575 98.8898 264.066 97.7018 266.575C96.4859 269.153 95.4063 271.816 94.1904 274.384C94.1904 274.478 94.2847 274.562 94.3372 274.468C95.3853 272.298 96.6117 270.201 97.7228 268.053C98.8339 265.904 99.9135 263.745 100.993 261.585C103.173 257.225 105.361 252.861 107.555 248.493C109.725 244.175 112.366 239.961 114.578 235.664C116.433 232.037 118.959 227.1 120.73 226.377C123.196 225.4 125.785 224.768 128.424 224.5C131.17 224.312 133.906 224.144 136.652 223.903C136.747 223.882 136.747 223.704 136.621 223.714Z" fill="#263238"/>
<path d="M151.264 75.5741C142.333 84.5047 145.908 96.2653 142.407 103.058C140.31 107.25 132.638 112.009 131.401 116.684C129.378 124.388 135.95 126.6 134.839 130.793C133.266 136.725 125.489 136.872 124.818 146.442C124.147 156.012 135.3 165.309 160.236 166.106C185.173 166.903 198.023 156.861 198.296 148.769C198.568 140.677 190.141 138.633 189.124 132.679C188.474 128.885 193.317 125.824 193.065 118.759C192.814 111.695 185.728 109.923 184.303 104.011C182.877 98.0997 184.911 83.3097 175.55 76.5594C166.19 69.8091 155.677 71.1717 151.264 75.5741Z" fill="#263238"/>
<path d="M152.396 75.7107C149.867 77.812 147.879 80.4901 146.6 83.5197C145.29 86.7277 144.354 90.0761 143.812 93.4984C143.55 95.5357 143.058 97.5366 142.344 99.4626C141.61 101.078 140.591 102.548 139.336 103.802C136.852 106.433 133.801 108.508 131.611 111.412C129.42 114.315 128.026 117.701 129.2 121.171C129.839 123.036 131.223 124.493 132.135 126.212C133.047 127.931 133.466 129.912 132.135 131.453C130.992 132.743 129.242 133.434 127.942 134.524C126.633 135.588 125.507 136.859 124.609 138.287C123.692 139.703 123.08 141.295 122.813 142.961C122.546 144.627 122.629 146.33 123.058 147.962C125.101 155.541 132.648 159.356 139.514 161.589L142.397 162.511C142.543 162.511 142.648 162.333 142.491 162.281C135.583 159.807 127.565 156.882 124.431 149.618C123.723 148.032 123.39 146.304 123.457 144.568C123.524 142.832 123.99 141.135 124.819 139.608C125.653 138.096 126.754 136.746 128.068 135.625C129.336 134.577 130.835 133.801 132.135 132.753C132.776 132.274 133.28 131.634 133.594 130.897C133.909 130.161 134.024 129.355 133.927 128.56C133.576 126.817 132.814 125.182 131.705 123.791C130.56 122.341 129.873 120.582 129.734 118.739C129.8 116.927 130.355 115.167 131.338 113.645C133.193 110.5 136.118 108.404 138.675 105.94C141.345 103.649 143.226 100.576 144.053 97.1566C144.43 95.3642 144.608 93.5194 144.923 91.706C145.195 90.0234 145.562 88.3576 146.023 86.7167C146.868 83.4156 148.424 80.339 150.583 77.7023C151.158 77.034 151.797 76.4232 152.491 75.8784C152.564 75.7736 152.47 75.6478 152.396 75.7107Z" fill="#263238"/>
<path d="M198.946 142.816C198.543 141.528 197.863 140.344 196.955 139.346C196.022 138.298 194.911 137.48 193.883 136.547C192.842 135.737 192.053 134.646 191.609 133.403C191.312 131.85 191.576 130.242 192.353 128.864C193.088 127.424 193.715 125.932 194.229 124.399C194.663 122.876 194.865 121.297 194.827 119.714C194.706 116.459 193.59 113.32 191.63 110.72C190.686 109.41 189.638 108.163 188.684 106.863C187.628 105.44 186.768 103.882 186.127 102.23C184.722 98.5926 184.188 94.6933 182.982 90.9932C181.732 87.2033 180.099 83.5507 178.108 80.0921C178.108 80.0082 177.94 80.0921 177.982 80.1864C179.75 83.313 181.186 86.6151 182.269 90.0394C183.318 93.2783 183.863 96.622 184.701 99.9238C185.085 101.546 185.629 103.126 186.326 104.641C187.025 106.033 187.85 107.359 188.789 108.603C190.665 111.202 192.594 113.749 193.296 116.988C194.006 120.126 193.698 123.408 192.416 126.359C191.305 128.906 189.691 131.757 191.043 134.545C192.196 136.904 194.628 138.193 196.284 140.09C197.181 141.139 197.846 142.366 198.236 143.69C198.627 145.014 198.733 146.406 198.548 147.774C197.751 154.786 191.074 158.748 184.617 159.587C184.576 159.587 184.536 159.603 184.506 159.633C184.477 159.662 184.46 159.702 184.46 159.744C184.46 159.786 184.477 159.826 184.506 159.855C184.536 159.884 184.576 159.901 184.617 159.901C190.257 159.408 196.2 156.453 198.443 150.97C199.562 148.395 199.74 145.509 198.946 142.816Z" fill="#263238"/>
<path d="M115.091 86.6328L126.055 116.475C126.485 117.345 126.108 118.12 125.227 118.215L109.4 119.892C108.912 119.907 108.43 119.783 108.011 119.534C107.591 119.285 107.251 118.922 107.031 118.487L96.1085 88.6663C95.997 88.5048 95.9302 88.3167 95.915 88.1211C95.8997 87.9254 95.9366 87.7292 96.0218 87.5524C96.107 87.3757 96.2375 87.2246 96.4 87.1146C96.5625 87.0046 96.7513 86.9397 96.9471 86.9263L112.775 85.2492C113.251 85.2434 113.719 85.3696 114.128 85.6138C114.537 85.8581 114.871 86.2108 115.091 86.6328Z" fill="#37474F"/>
<path d="M113.204 86.8107L124.179 116.653C124.598 117.523 124.231 118.298 123.34 118.393L107.523 120.112C107.037 120.128 106.556 120.005 106.137 119.758C105.717 119.511 105.377 119.15 105.154 118.717L94.1799 88.8651C93.7606 87.9951 94.1275 87.2195 95.0184 87.1251L110.836 85.4585C111.318 85.4374 111.796 85.5532 112.215 85.7924C112.635 86.0317 112.977 86.3847 113.204 86.8107Z" fill="#455A64"/>
<path d="M109.022 88.6662C109.056 88.9319 109.167 89.1817 109.343 89.3839C109.519 89.5861 109.75 89.7316 110.009 89.8019C110.267 89.8722 110.541 89.8642 110.795 89.7789C111.049 89.6936 111.271 89.5348 111.435 89.3227C111.598 89.1106 111.695 88.8547 111.713 88.5875C111.731 88.3202 111.669 88.0537 111.535 87.8217C111.401 87.5897 111.202 87.4026 110.962 87.2843C110.721 87.1659 110.451 87.1215 110.186 87.1568C109.832 87.2038 109.511 87.3889 109.293 87.6717C109.075 87.9545 108.978 88.312 109.022 88.6662Z" fill="#263238"/>
<path d="M171.012 127.659C164.251 147.742 146.998 174.827 138.707 175.875C134.755 176.379 127.806 178.129 122.093 174.188C109.641 165.572 97.9848 147.7 94.8402 137.061C93.7082 133.277 111.538 122.764 114.672 125.583C122.009 132.208 131.212 145.782 132.355 145.562C136.548 144.755 151.358 128.791 162.102 117.911C174.125 105.741 173.674 119.661 171.012 127.659Z" fill="#F7A9A0"/>
<path d="M92.1044 117.449C93.1526 109.389 94.7144 107.481 92.0206 100.186C90.2491 95.3956 92.5446 92.2196 96.4858 95.7624C102.943 101.58 103.729 112.282 102.922 116.066L92.1044 117.449Z" fill="#F7A9A0"/>
<path d="M96.1086 140.3C96.1086 140.3 91.3499 129.818 91.6643 121.066C91.874 115.049 93.7607 101.989 109.609 93.4042C113.362 91.3707 120.144 91.1296 115.228 96.6745C111.737 100.616 108.331 102.062 106.716 104.725C106.716 104.725 115.385 105.448 117.282 109.284C118.928 112.638 120.329 116.106 121.475 119.661C120.869 120.02 120.243 120.342 119.599 120.626C119.599 120.626 121.035 124.378 118.844 130.059L96.1086 140.3Z" fill="#F7A9A0"/>
<path d="M92.8066 115.353C94.9659 113.047 99.6198 108.236 104.808 105.636C110.563 102.733 122.428 98.7078 124.514 102.984C126.055 106.129 121.663 108.047 121.663 108.047C121.663 108.047 126.904 107.418 127.68 110.552C128.382 113.403 124.892 114.745 124.892 114.745C124.892 114.745 128.141 114.913 128.288 117.795C128.466 121.254 121.621 120.342 118.76 124.001C118.12 124.766 92.8066 115.353 92.8066 115.353Z" fill="#F7A9A0"/>
<path d="M106.853 112.219C111.2 109.346 116.318 107.866 121.528 107.974C121.664 107.974 121.727 108.079 121.601 108.1C116.532 108.888 111.579 110.296 106.853 112.292C106.853 112.292 106.821 112.24 106.853 112.219Z" fill="#263238"/>
<path d="M109.945 117.942C112.167 116.579 118.98 114.011 124.871 114.577C124.997 114.577 125.059 114.703 124.934 114.714C119.836 115.247 114.815 116.354 109.966 118.015C109.966 118.015 109.913 118.015 109.945 117.942Z" fill="#263238"/>
<path d="M120.615 130.814L99.8716 153.874C99.8716 153.874 117.072 175.026 127.177 176.714C137.281 178.401 140.08 176.798 142.627 175.781C145.174 174.764 162.144 155.236 170.855 128.497C179.115 103.225 165.771 112.858 156.39 122.858C151.044 128.56 133.455 144.063 132.638 143.948C131.82 143.832 120.615 130.814 120.615 130.814Z" fill="#2A3680"/>
<path d="M123.487 135.96C120.217 139.461 117.072 143.067 113.928 146.683C112.397 148.465 106.59 155.761 104.903 157.825C104.84 157.909 105.06 158.087 105.133 158.014C106.831 156.222 113.047 148.989 114.567 147.186C117.617 143.518 120.657 139.849 123.571 136.044C123.644 135.981 123.55 135.897 123.487 135.96Z" fill="#263238"/>
<path d="M154.88 174.439C154.88 174.439 175.425 178.213 213.705 172.909C213.705 172.909 196.2 125.688 183.422 113.372C177.615 107.764 172.27 108.938 167.899 112.963C166.851 114.011 153.612 132.616 152.742 138.927C151.966 144.492 156.767 150.394 156.767 150.394L154.88 174.439Z" fill="#2A3680"/>
<path d="M155.09 134C155.939 132.103 156.851 130.237 157.847 128.424C158.979 126.327 160.237 124.388 161.536 122.428C161.536 122.428 161.536 122.344 161.463 122.376C160.095 124.066 158.834 125.841 157.69 127.69C158.098 126.736 158.497 125.782 158.885 124.818C158.885 124.766 158.811 124.734 158.79 124.818C158.047 126.196 157.413 127.629 156.893 129.105C156.065 130.531 155.289 131.988 154.597 133.486C153.599 135.367 152.893 137.389 152.501 139.482C152.286 141.429 152.571 143.399 153.329 145.205C153.749 146.245 154.261 147.245 154.859 148.193C155.383 149.076 156.021 149.887 156.757 150.603C156.558 151.306 155.971 157.941 155.918 159.408C155.918 159.43 155.927 159.452 155.943 159.467C155.958 159.483 155.98 159.492 156.002 159.492C156.024 159.492 156.046 159.483 156.061 159.467C156.077 159.452 156.086 159.43 156.086 159.408C156.358 157.951 157.186 150.677 157.134 150.645C157.134 150.582 156.222 149.073 155.792 148.381C155.264 147.556 154.788 146.698 154.367 145.813C153.471 144.021 153.053 142.028 153.151 140.027C153.444 137.921 154.1 135.882 155.09 134Z" fill="#263238"/>
<path d="M179.869 121.967C195.466 129.902 218.579 137.313 224.773 132.91C226.408 131.736 230.675 128.089 231.178 124.032C233.054 109.127 226.408 81.0564 226.094 76.5073C225.821 72.4508 197.269 76.5073 197.793 80.7839C198.296 84.8613 206.252 110.972 205.581 111.035C203.16 111.255 192.395 110.71 182.521 109.819C170.163 108.697 165.184 114.494 179.869 121.967Z" fill="#F7A9A0"/>
<path d="M213.505 42.053C212.623 42.0428 211.759 42.3023 211.028 42.7968C210.298 43.2914 209.736 43.9974 209.417 44.8202C208.192 43.9727 206.709 43.5797 205.225 43.7092C202.604 44.0655 202.017 48.3317 202.017 48.3317C200.553 47.7086 198.934 47.5442 197.374 47.86C194.9 48.447 193.695 52.6712 193.695 52.6712C192.035 52.8431 190.493 53.6101 189.355 54.8304C186.441 58.1951 188.443 64.7043 189.68 68.8552C190.917 73.006 198.296 83.6136 199.502 85.7729L226.084 78.0897C226.084 78.0897 225.843 57.9121 223.704 53.2372C221.943 49.3065 216.839 42.2207 213.505 42.053Z" fill="#F7A9A0"/>
<path d="M209.858 44.8832C212.782 48.6043 214.449 52.9962 216.356 57.2728C216.365 57.2828 216.371 57.2947 216.374 57.3075C216.378 57.3203 216.378 57.3337 216.375 57.3466C216.372 57.3594 216.366 57.3714 216.358 57.3816C216.349 57.3917 216.338 57.3997 216.326 57.4049C216.314 57.4101 216.301 57.4124 216.288 57.4115C216.274 57.4107 216.262 57.4067 216.25 57.4C216.239 57.3932 216.229 57.3839 216.222 57.3727C216.215 57.3615 216.211 57.3489 216.21 57.3357C214.354 53.0591 211.681 49.2018 209.669 44.9985C209.663 44.9745 209.664 44.9491 209.673 44.926C209.683 44.9029 209.699 44.8834 209.72 44.8704C209.741 44.8575 209.766 44.8517 209.791 44.854C209.816 44.8563 209.839 44.8666 209.858 44.8832Z" fill="#263238"/>
<path d="M202.322 48.3109C202.907 49.2207 203.368 50.2041 203.695 51.2353C204.103 52.2835 204.502 53.3317 204.879 54.4533C205.634 56.6125 206.333 58.7928 206.975 60.994C206.975 61.0883 206.86 61.1617 206.818 61.0568C206.064 58.9605 205.277 56.7593 204.428 54.6419C204.009 53.5938 203.569 52.5456 203.129 51.4974C202.649 50.5285 202.28 49.5089 202.028 48.4577C202.009 48.4187 202.005 48.3737 202.019 48.3324C202.033 48.2911 202.063 48.257 202.101 48.2375C202.14 48.2181 202.185 48.2149 202.227 48.2286C202.268 48.2424 202.302 48.272 202.322 48.3109Z" fill="#263238"/>
<path d="M193.663 52.7553C194.166 53.5899 194.52 54.5047 194.712 55.4597C195.037 56.445 195.372 57.4407 195.707 58.426C196.368 60.4071 197.039 62.3777 197.804 64.3273C197.804 64.4321 197.689 64.495 197.657 64.3902C196.892 62.4196 196.106 60.449 195.362 58.4575C194.995 57.4826 194.638 56.5078 194.313 55.533C193.911 54.6672 193.663 53.7379 193.58 52.7868C193.581 52.7779 193.585 52.7697 193.591 52.7628C193.597 52.7559 193.604 52.7506 193.613 52.7475C193.621 52.7443 193.63 52.7434 193.639 52.7448C193.648 52.7461 193.656 52.7498 193.663 52.7553Z" fill="#263238"/>
<path d="M205.424 110.825L196.336 88.9176L226.954 80.1128C226.954 80.1128 234.228 118.896 231.367 125.332C228.505 131.767 225.34 133.57 223.4 134.346C215.927 137.333 184.471 126.684 174.67 119.577C164.87 112.47 173.569 109.032 180.844 109.452L205.424 110.825Z" fill="#2A3680"/>
<path d="M194.25 128.811C192.402 128.021 190.5 127.362 188.559 126.841C186.557 126.264 184.513 125.918 182.49 125.468C182.467 125.468 182.446 125.477 182.43 125.492C182.415 125.508 182.406 125.529 182.406 125.552C182.406 125.574 182.415 125.595 182.43 125.611C182.446 125.627 182.467 125.635 182.49 125.635C183.768 125.908 185.037 126.285 186.295 126.684H186.211C185.884 126.64 185.555 126.623 185.225 126.631C184.869 126.631 184.523 126.726 184.177 126.757C184.125 126.757 184.125 126.851 184.177 126.851C184.523 126.851 184.869 126.851 185.225 126.925H186.211C186.723 126.947 187.234 126.996 187.741 127.072L188.401 127.271C190.351 127.816 192.29 128.476 194.25 128.979C194.282 129 194.345 128.853 194.25 128.811Z" fill="#263238"/>
<path d="M227.624 86.402C222.96 87.4502 218.327 88.6451 213.704 89.8715C211.44 90.469 202.52 93.2048 199.973 93.9594C199.868 93.9594 199.973 94.2634 200.057 94.2425C202.468 93.7184 211.681 91.2761 213.935 90.6367C218.537 89.337 223.117 88.0058 227.666 86.5278C227.75 86.5069 227.708 86.3916 227.624 86.402Z" fill="#263238"/>
<path d="M176.086 112.47C175.939 113.519 171.568 120.646 166.83 120.856C165.289 120.919 164.608 112.47 164.608 112.47L164.419 111.862L161.736 103.341L171.4 95.93L172.805 94.8818C172.805 94.8818 173.392 97.2612 174.083 100.238L174.178 100.668C174.178 100.836 174.262 100.993 174.293 101.15C174.408 101.59 174.513 102.041 174.618 102.492C174.723 102.942 174.765 103.173 174.838 103.54L175.058 104.588C175.588 107.188 175.931 109.822 176.086 112.47Z" fill="#F7A9A0"/>
<path d="M174.084 100.259C173.409 102.776 172.195 105.117 170.526 107.118C168.857 109.12 166.774 110.735 164.419 111.852L161.736 103.341L171.4 95.93L172.805 94.8818C172.805 94.8818 173.392 97.2822 174.084 100.259Z" fill="#263238"/>
<path d="M148.004 90.2592C146.002 105.825 155.101 108.791 158.486 109.221C161.536 109.609 171.966 110.542 175.572 95.2591C179.177 79.9765 172.563 74.1276 165.635 72.8698C158.706 71.612 150.017 74.6832 148.004 90.2592Z" fill="#F7A9A0"/>
<path d="M150.551 87.8486C150.902 87.8332 151.252 87.7982 151.599 87.7437C151.974 87.7477 152.341 87.634 152.647 87.4188C152.732 87.3289 152.786 87.2136 152.799 87.0905C152.812 86.9674 152.785 86.8434 152.721 86.7375C152.56 86.5493 152.352 86.4074 152.118 86.3263C151.884 86.2453 151.632 86.228 151.39 86.2763C150.888 86.3014 150.412 86.506 150.048 86.8528C149.967 86.9423 149.915 87.0543 149.898 87.1741C149.882 87.2939 149.903 87.4157 149.957 87.5236C150.012 87.6315 150.098 87.7203 150.204 87.7783C150.31 87.8363 150.431 87.8608 150.551 87.8486Z" fill="#263238"/>
<path d="M161.264 88.9595C160.897 88.8756 160.582 88.7394 160.216 88.6241C159.838 88.5515 159.493 88.3606 159.23 88.079C159.166 87.973 159.139 87.849 159.152 87.726C159.165 87.6029 159.219 87.4876 159.304 87.3977C159.5 87.2482 159.732 87.153 159.977 87.1217C160.222 87.0904 160.47 87.1241 160.698 87.2195C161.189 87.3467 161.616 87.6533 161.893 88.079C161.948 88.178 161.975 88.2907 161.969 88.4041C161.962 88.5175 161.924 88.6267 161.858 88.7191C161.792 88.8115 161.701 88.8832 161.596 88.9258C161.491 88.9683 161.375 88.98 161.264 88.9595Z" fill="#263238"/>
<path d="M158.381 92.5234C158.381 92.5234 158.455 92.5863 158.455 92.6283C158.277 93.6765 158.256 94.9238 159.178 95.3955C159.178 95.3955 159.178 95.4689 159.178 95.4584C158.004 95.1439 158.046 93.4983 158.381 92.5234Z" fill="#263238"/>
<path d="M159.471 91.5383C161.191 91.6326 160.887 95.0706 159.283 94.9868C157.679 94.9029 158.025 91.4649 159.471 91.5383Z" fill="#263238"/>
<path d="M160.132 91.8107C160.415 92.0413 160.677 92.4082 161.033 92.4711C161.39 92.534 161.798 92.2195 162.081 91.9051C162.081 91.9051 162.144 91.9051 162.134 91.9051C162.134 92.5654 161.777 93.2153 161.086 93.2573C160.394 93.2992 160.037 92.6598 159.922 91.9784C159.891 91.8631 160.048 91.6954 160.132 91.8107Z" fill="#263238"/>
<path d="M152.48 91.8105C152.48 91.8105 152.396 91.8105 152.396 91.8944C152.333 92.9426 152.092 94.1795 151.107 94.452V94.5149C152.302 94.3996 152.606 92.7854 152.48 91.8105Z" fill="#263238"/>
<path d="M151.662 90.5741C149.964 90.3015 149.566 93.7186 151.117 93.9806C152.669 94.2427 153.046 90.7627 151.662 90.5741Z" fill="#263238"/>
<path d="M150.876 90.7626C150.593 90.9093 150.279 91.2133 149.954 91.1924C149.629 91.1714 149.346 90.7626 149.147 90.3853H149.094C148.989 91.0351 149.094 91.7374 149.744 91.9471C150.394 92.1567 150.792 91.6221 151.023 90.9827C151.065 90.8465 151.002 90.6473 150.876 90.7626Z" fill="#263238"/>
<path d="M157.71 101.244C157.448 101.485 157.176 101.821 156.788 101.831C156.388 101.807 155.998 101.696 155.646 101.506V101.559C155.769 101.783 155.951 101.97 156.173 102.1C156.394 102.229 156.647 102.296 156.903 102.292C157.126 102.246 157.329 102.135 157.488 101.972C157.647 101.81 157.753 101.604 157.794 101.38C157.836 101.244 157.752 101.244 157.71 101.244Z" fill="#263238"/>
<path d="M153.759 99.1478C154.115 99.8096 154.634 100.369 155.268 100.773C155.619 100.979 156.026 101.07 156.432 101.035C157.312 100.961 157.48 100.175 157.417 99.4832C157.389 99.1267 157.319 98.7748 157.207 98.4351C156.163 99.034 154.955 99.2837 153.759 99.1478Z" fill="#263238"/>
<path d="M155.278 100.741C155.63 100.947 156.036 101.039 156.442 101.003C157.322 100.93 157.49 100.144 157.427 99.452C156.976 99.3961 156.52 99.4927 156.131 99.7263C155.741 99.96 155.441 100.317 155.278 100.741Z" fill="#FF9CBD"/>
<path d="M153.654 96.9782C153.654 96.9782 153.276 98.54 153.203 99.2947C153.203 99.3576 153.371 99.41 153.622 99.4519C154.253 99.6333 154.922 99.6383 155.556 99.4664C156.19 99.2946 156.764 98.9524 157.217 98.4771C157.28 98.4037 157.217 98.3199 157.113 98.3618C156.09 98.9113 154.919 99.1206 153.769 98.9593C153.769 98.7392 154.513 96.2969 154.398 96.2759C153.811 96.2677 153.226 96.3382 152.658 96.4856C153.35 93.2047 154.576 90.0497 155.226 86.7689C155.226 86.7469 155.219 86.7254 155.206 86.7076C155.193 86.6897 155.175 86.6764 155.154 86.6694C155.133 86.6625 155.111 86.6623 155.09 86.6688C155.069 86.6754 155.05 86.6884 155.037 86.706C153.619 90.0372 152.541 93.5034 151.819 97.0516C151.746 97.4813 153.35 97.0516 153.654 96.9782Z" fill="#263238"/>
<path d="M148.77 85.1651C150.614 85.8569 157.407 82.0205 160.3 76.224C160.612 79.6864 162.125 82.9308 164.576 85.3957C168.717 89.5884 172.794 90.0601 172.794 90.0601C172.794 90.0601 173.769 97.2507 174.943 97.4603C176.117 97.6699 184.597 73.5721 163.853 72.3877C163.853 72.3877 157.805 71.5072 153.853 74.8824C149.902 78.2575 148.77 85.1651 148.77 85.1651Z" fill="#263238"/>
<path d="M174.838 101.003C174.601 101.087 174.355 101.14 174.104 101.161C173.858 101.203 173.606 101.203 173.36 101.161C173.042 101.122 172.737 101.011 172.469 100.836C172.255 100.703 172.061 100.541 171.892 100.353C171.654 100.085 171.466 99.7762 171.337 99.4415L172.385 95.2487C172.385 95.2487 176.022 90.5005 178.192 91.8107C180.362 93.1209 177.49 100.196 174.838 101.003Z" fill="#F7A9A0"/>
<path d="M177.312 93.8232C177.312 93.8232 177.312 93.8757 177.312 93.8966C175.446 94.557 174.419 96.2131 173.664 97.9426C173.778 97.764 173.93 97.6122 174.109 97.4979C174.288 97.3836 174.489 97.3095 174.7 97.2806C174.91 97.2517 175.124 97.2687 175.327 97.3306C175.53 97.3924 175.717 97.4975 175.876 97.6387C175.928 97.6387 175.875 97.7435 175.823 97.733C175.505 97.6163 175.159 97.601 174.833 97.6893C174.506 97.7775 174.215 97.9649 173.999 98.2256C173.646 98.6638 173.34 99.1381 173.087 99.6407C172.993 99.7979 172.7 99.7036 172.773 99.5149C172.846 97.1355 174.796 93.9071 177.312 93.8232Z" fill="#263238"/>
<path d="M174.649 100.343C174.586 100.513 174.463 100.654 174.303 100.738C174.143 100.823 173.957 100.845 173.781 100.801C173.605 100.757 173.452 100.649 173.351 100.499C173.25 100.348 173.208 100.166 173.234 99.9865C173.256 99.8935 173.296 99.8058 173.353 99.7287C173.409 99.6516 173.481 99.5867 173.563 99.5378C173.645 99.4889 173.736 99.457 173.831 99.4441C173.926 99.4311 174.022 99.4374 174.114 99.4624C174.208 99.4845 174.296 99.5249 174.373 99.5813C174.451 99.6377 174.516 99.7089 174.566 99.7908C174.616 99.8727 174.649 99.9637 174.663 100.059C174.677 100.153 174.672 100.25 174.649 100.343Z" fill="white"/>
<path d="M176.19 99.3051C176.165 99.403 176.111 99.4912 176.036 99.5586C175.96 99.626 175.867 99.6697 175.766 99.6841C175.666 99.6985 175.564 99.683 175.473 99.6396C175.381 99.5961 175.305 99.5267 175.253 99.44C175.201 99.3532 175.176 99.2531 175.18 99.152C175.185 99.051 175.219 98.9535 175.279 98.872C175.339 98.7904 175.422 98.7283 175.517 98.6935C175.611 98.6587 175.715 98.6527 175.813 98.6763C175.944 98.7132 176.056 98.7989 176.127 98.9158C176.197 99.0327 176.22 99.172 176.19 99.3051Z" fill="white"/>
</svg>
