<svg width="324" height="138" viewBox="0 0 324 138" fill="none" xmlns="http://www.w3.org/2000/svg">
<g clip-path="url(#clip0_999_1256)">
<path d="M79.3173 102.995L49.5242 127.022H51.2061L85.6111 102.995H79.3173Z" fill="#C7C7C7"/>
<path d="M82.1135 102.995L67.3948 127.022H69.0714L87.1175 102.995H82.1135Z" fill="#C7C7C7"/>
<path d="M89.33 102.995L104.049 127.022H102.372L84.3313 102.995H89.33Z" fill="#C7C7C7"/>
<path d="M91.9049 102.995L121.693 127.022H120.016L85.6111 102.995H91.9049Z" fill="#C7C7C7"/>
<path d="M141.621 94.1788V87.1493L100.716 85.4719L79.1052 27.7534H29.5947L47.1149 94.1788L88.9643 105.934H91.5902L141.621 94.1788Z" fill="#455A64"/>
<path opacity="0.1" d="M29.5947 27.7534H35.2592L53.5128 88.305L90.5383 98.798L141.622 87.1493V94.1788L91.5902 105.934H88.9643L47.1149 94.1788L29.5947 27.7534Z" fill="black"/>
<path d="M119.35 137.957C118.102 137.477 90.0217 114.461 89.5056 112.909C89.3042 112.321 92.415 108.032 96.3261 102.959C97.1667 101.864 98.0491 100.739 98.9467 99.5985C104.766 92.1971 111.117 84.481 111.117 84.481L129.947 99.8152L117.255 114.509L114.469 117.735C114.469 117.735 121.285 131.36 121.666 133.125C122.048 134.89 120.599 138.432 119.35 137.957Z" fill="#AD6359"/>
<path d="M119.35 137.956C118.101 137.476 90.0215 114.461 89.5054 112.908C89.263 112.186 93.9136 106.008 98.9465 99.5972L117.256 114.519L114.47 117.744C114.47 117.744 121.285 131.37 121.667 133.135C122.048 134.899 120.599 138.431 119.35 137.956Z" fill="#EBEBEB"/>
<path d="M119.35 137.957C118.102 137.477 90.0217 114.462 89.5056 112.909C89.3042 112.32 92.415 108.031 96.3261 102.958L114.469 117.745C114.469 117.745 121.285 131.371 121.666 133.135C122.048 134.9 120.599 138.431 119.35 137.957Z" fill="#1DA1F3"/>
<path d="M119.872 136.501C115.229 132.527 96.2796 116.935 91.4146 113.358C91.3781 113.327 91.3576 113.358 91.4146 113.384C95.8722 117.425 114.96 132.849 119.805 136.575C119.907 136.656 119.963 136.584 119.872 136.501Z" fill="#263238"/>
<path d="M120.686 130.643C120.174 130.201 119.576 129.87 118.93 129.671C118.283 129.472 117.602 129.409 116.93 129.487C115.725 129.62 114.617 130.211 113.835 131.139C113.835 131.165 113.866 131.215 113.892 131.185C114.815 130.382 115.974 129.901 117.194 129.814C118.414 129.728 119.629 130.04 120.656 130.705C120.66 130.709 120.665 130.713 120.67 130.714C120.676 130.716 120.682 130.717 120.688 130.716C120.693 130.715 120.699 130.713 120.704 130.709C120.708 130.706 120.712 130.701 120.715 130.696C120.717 130.691 120.719 130.685 120.719 130.68C120.719 130.674 120.717 130.668 120.714 130.663C120.712 130.658 120.708 130.653 120.703 130.65C120.698 130.647 120.693 130.644 120.687 130.644L120.686 130.643Z" fill="#263238"/>
<path d="M115.915 119.712C114.053 118.138 111.324 117.012 108.888 117.596C108.796 117.622 108.831 117.748 108.888 117.771C111.243 118.255 113.538 118.992 115.734 119.97C115.751 119.982 115.77 119.991 115.79 119.995C115.81 120 115.831 120 115.852 119.997C115.872 119.993 115.891 119.985 115.909 119.974C115.926 119.963 115.941 119.949 115.953 119.932C115.965 119.915 115.974 119.896 115.978 119.876C115.983 119.856 115.983 119.835 115.98 119.814C115.976 119.794 115.968 119.774 115.957 119.757C115.946 119.74 115.932 119.724 115.915 119.713V119.712Z" fill="#263238"/>
<path d="M116.905 121.492C115.043 119.944 112.314 118.793 109.879 119.376C109.786 119.376 109.817 119.528 109.879 119.551C112.233 120.036 114.529 120.773 116.725 121.75C116.742 121.762 116.761 121.771 116.781 121.775C116.801 121.78 116.822 121.78 116.843 121.777C116.863 121.773 116.882 121.766 116.9 121.754C116.917 121.743 116.932 121.729 116.944 121.712C116.956 121.695 116.965 121.676 116.969 121.656C116.974 121.636 116.974 121.615 116.971 121.594C116.967 121.574 116.959 121.555 116.948 121.537C116.937 121.52 116.923 121.505 116.906 121.493L116.905 121.492Z" fill="#263238"/>
<path d="M117.896 123.232C116.034 121.658 113.304 120.533 110.869 121.116C110.776 121.116 110.808 121.268 110.869 121.291C113.224 121.776 115.519 122.513 117.715 123.49C117.732 123.502 117.751 123.511 117.772 123.515C117.792 123.52 117.813 123.52 117.833 123.517C117.853 123.513 117.873 123.505 117.89 123.494C117.908 123.483 117.923 123.469 117.935 123.452C117.947 123.435 117.955 123.416 117.96 123.396C117.964 123.376 117.965 123.355 117.961 123.334C117.957 123.314 117.95 123.294 117.939 123.277C117.928 123.26 117.913 123.244 117.896 123.233L117.896 123.232Z" fill="#263238"/>
<path d="M118.887 124.987C117.025 123.438 114.296 122.293 111.861 122.876C111.768 122.876 111.799 123.028 111.861 123.046C114.215 123.535 116.51 124.274 118.707 125.251C118.725 125.263 118.744 125.272 118.765 125.277C118.785 125.281 118.807 125.282 118.828 125.278C118.848 125.275 118.868 125.267 118.886 125.255C118.904 125.244 118.919 125.229 118.931 125.211C118.943 125.194 118.952 125.174 118.956 125.154C118.96 125.133 118.96 125.112 118.956 125.091C118.952 125.07 118.944 125.05 118.933 125.033C118.921 125.015 118.906 125 118.888 124.988L118.887 124.987Z" fill="#263238"/>
<path d="M96.2796 109.863C94.1591 108.14 91.4762 111.412 93.5967 113.161C95.7172 114.911 98.3993 111.592 96.2796 109.863Z" fill="white"/>
<path d="M122.07 116.331C121.766 114.757 119.929 114.545 118.67 114.886C116.51 115.505 114.553 116.684 112.995 118.303C112.986 118.309 112.979 118.316 112.974 118.324C112.97 118.333 112.967 118.343 112.967 118.353C112.967 118.362 112.97 118.372 112.974 118.381C112.979 118.389 112.986 118.397 112.995 118.402C112.973 118.443 112.961 118.489 112.961 118.536C112.96 118.583 112.971 118.629 112.991 118.672C113.012 118.714 113.042 118.751 113.079 118.779C113.117 118.807 113.16 118.827 113.206 118.835C115.311 119.005 117.538 119.449 119.624 118.969C120.878 118.71 122.358 117.841 122.07 116.331ZM116.477 118.442C115.445 118.38 114.414 118.272 113.382 118.251C114.465 117.554 115.582 116.911 116.73 116.326C117.291 116.052 117.87 115.815 118.463 115.619C119.381 115.335 122.518 115.273 121.043 117.477C120.202 118.716 117.71 118.53 116.477 118.465V118.442Z" fill="#263238"/>
<path d="M107.737 115.185C109.171 116.782 111.245 117.699 113.061 118.798C113.103 118.818 113.15 118.828 113.196 118.826C113.243 118.825 113.289 118.813 113.33 118.791C113.371 118.768 113.407 118.737 113.433 118.699C113.46 118.66 113.478 118.616 113.484 118.57C113.494 118.571 113.504 118.57 113.514 118.566C113.523 118.563 113.531 118.557 113.538 118.55C113.544 118.542 113.549 118.533 113.551 118.523C113.554 118.514 113.554 118.504 113.551 118.494C113.212 116.277 112.295 114.189 110.891 112.44C110.055 111.407 108.435 110.551 107.279 111.661C106.123 112.77 106.917 114.266 107.737 115.185ZM107.474 113.178C107.526 110.516 110.054 112.372 110.642 113.136C111.02 113.64 111.365 114.167 111.674 114.716C112.314 115.841 112.778 117.033 113.304 118.213C112.442 117.63 111.54 117.13 110.658 116.582C109.61 115.927 107.469 114.642 107.495 113.176L107.474 113.178Z" fill="#263238"/>
<path d="M149.526 70.9998C148.102 80.8678 123.416 109.1 120.563 112.336C120.14 112.811 119.914 113.075 119.914 113.075L99.9635 97.3479L100.201 97.0483L118.213 74.0397L65.3237 73.0847L85.5982 57.704C85.5982 57.704 87.2133 58.6644 90.6076 58.2203C102.298 56.6722 128.66 53.1882 134.866 53.5129C142.844 53.9364 150.805 61.9469 149.526 70.9998Z" fill="#263238"/>
<path d="M124.658 65.4817C123.991 66.2165 123.371 66.9923 122.801 67.8047C122.166 68.6205 121.516 69.425 120.882 70.2378V70.2637C120.995 70.0211 121.104 69.7839 121.222 69.5459C121.63 68.7308 121.955 67.8891 122.429 67.1127C122.432 67.1077 122.434 67.1022 122.435 67.0964C122.436 67.0906 122.436 67.0848 122.434 67.0791C122.433 67.0734 122.431 67.068 122.427 67.0633C122.424 67.0586 122.419 67.0546 122.414 67.0515C122.409 67.0485 122.404 67.0464 122.398 67.0455C122.392 67.0446 122.386 67.0449 122.381 67.0463C122.375 67.0476 122.37 67.0501 122.365 67.0536C122.36 67.057 122.356 67.0614 122.353 67.0664C121.863 67.8404 121.321 68.5734 120.878 69.3839C120.682 69.7641 120.491 70.1527 120.316 70.545C120.223 70.7617 120.125 70.9784 120.037 71.2005C119.989 71.302 119.949 71.4073 119.918 71.5152C119.629 71.8954 119.35 72.2756 119.077 72.6611C118.469 73.518 117.932 74.4259 117.313 75.2775C117.282 75.3186 117.354 75.3649 117.389 75.3239C118.009 74.524 118.705 73.7758 119.334 72.9858C119.964 72.1958 120.588 71.3442 121.192 70.5085C121.796 69.6729 122.358 68.8669 122.946 68.0465C123.59 67.2435 124.183 66.4006 124.721 65.5228C124.725 65.514 124.725 65.5041 124.723 65.4948C124.72 65.4856 124.714 65.4777 124.705 65.4726C124.697 65.4676 124.687 65.4657 124.678 65.4674C124.668 65.4691 124.66 65.4742 124.654 65.4817H124.658Z" fill="#37474F"/>
<path d="M122.637 108.439C121.502 107.451 120.281 106.538 119.087 105.616C117.894 104.694 116.683 103.774 115.476 102.865C113.056 101.04 110.643 99.2054 108.197 97.4201C106.855 96.4316 105.504 95.469 104.106 94.5558C104.044 94.5193 103.976 94.6174 104.03 94.6646C106.33 96.6309 108.776 98.4223 111.191 100.239C113.605 102.055 116.045 103.852 118.496 105.658C119.837 106.633 121.174 107.64 122.571 108.533C122.631 108.588 122.698 108.48 122.637 108.439Z" fill="#37474F"/>
<path d="M79.7035 31.6449C85.1924 42.0961 91.7036 53.1883 97.8735 54.7934C103.739 56.3415 117.705 41.6939 120.057 36.8321C120.877 35.1593 109.822 27.8256 108.253 29.0543C105.307 31.3818 98.8486 38.7421 97.935 38.5589C97.0215 38.3756 89.1651 31.3947 82.1128 25.527C77.8156 21.9677 75.9064 24.404 79.7035 31.6449Z" fill="#AD6359"/>
<path d="M110.266 12.0739L106.041 26.8714C105.985 26.9517 105.952 27.0462 105.948 27.1441C105.944 27.242 105.967 27.3391 106.016 27.424C106.065 27.509 106.136 27.5784 106.223 27.6241C106.31 27.6698 106.407 27.6898 106.505 27.6819L114.197 27.9245C114.433 27.9139 114.66 27.8369 114.854 27.7024C115.047 27.5678 115.199 27.3812 115.291 27.1641L119.516 12.3667C119.692 11.9333 119.48 11.5721 119.052 11.5614L111.349 11.3242C111.116 11.3355 110.891 11.4122 110.7 11.5454C110.508 11.6787 110.358 11.8631 110.266 12.0777L110.266 12.0739Z" fill="#A6A6A6"/>
<path d="M111.177 12.0998L106.952 26.8972C106.782 27.3306 106.988 27.6918 107.416 27.7078L115.113 27.9503C115.348 27.9388 115.574 27.8613 115.767 27.7268C115.959 27.5923 116.11 27.4062 116.201 27.19L120.426 12.3925C120.602 11.9591 120.39 11.5979 119.962 11.5873L112.27 11.3447C112.034 11.3553 111.807 11.4323 111.613 11.5669C111.42 11.7014 111.268 11.888 111.176 12.1051L111.177 12.0998Z" fill="#DBDBDB"/>
<path d="M113.265 12.8481C113.247 12.99 113.183 13.1221 113.083 13.2243C112.983 13.3266 112.853 13.3934 112.712 13.4145C112.57 13.4356 112.426 13.4099 112.3 13.3413C112.175 13.2727 112.075 13.165 112.017 13.0346C111.958 12.9041 111.944 12.7581 111.976 12.6188C112.009 12.4795 112.085 12.3545 112.195 12.2629C112.305 12.1714 112.442 12.1182 112.584 12.1115C112.727 12.1049 112.868 12.1451 112.986 12.2261C113.085 12.2942 113.163 12.3883 113.212 12.498C113.262 12.6077 113.28 12.7288 113.265 12.8481Z" fill="#455A64"/>
<path d="M123.632 28.456C124.282 24.1569 123.784 22.954 126.264 19.6145C127.888 17.4209 127.187 15.4439 124.633 16.6727C120.453 18.6907 118.443 24.0634 118.293 26.1278L123.632 28.456Z" fill="#AD6359"/>
<path d="M118.086 39.7293C118.086 39.7293 122.1 35.0431 123.245 30.5288C124.035 27.406 125 20.4229 118.179 13.6488C116.559 12.0437 113.118 10.9031 114.805 14.4852C116.008 17.0294 117.541 18.287 117.968 19.8891C117.968 19.8891 113.412 18.9599 111.87 20.6426C110.519 22.1161 109.275 23.6839 108.146 25.334C108.401 25.6087 108.673 25.8672 108.961 26.1081C108.961 26.1081 107.669 27.822 107.929 31.0733L118.086 39.7293Z" fill="#AD6359"/>
<path d="M123.521 27.4279C122.335 24.924 120.748 22.6314 118.821 20.6409C116.304 18.2974 110.82 14.4477 109.107 16.3311C107.853 17.7089 109.819 19.3558 109.819 19.3558C109.819 19.3558 107.239 18.2465 106.352 19.736C105.568 21.0986 107.162 22.2802 107.162 22.2802C107.162 22.2802 105.471 21.8825 104.964 23.3379C104.356 25.0867 108.005 25.6395 108.921 27.9472C109.13 28.4688 123.521 27.4279 123.521 27.4279Z" fill="#AD6359"/>
<path d="M116.787 23.7174C114.987 21.5888 112.581 20.0601 109.889 19.3354C109.813 19.3354 109.771 19.3666 109.828 19.3925C112.31 20.5533 114.64 22.0145 116.767 23.7433C116.767 23.7433 116.793 23.7326 116.787 23.7174Z" fill="#263238"/>
<path d="M114.346 26.1894C112.363 24.2499 109.892 22.8822 107.196 22.231C107.129 22.231 107.083 22.2621 107.144 22.288C109.678 23.3237 112.087 24.6413 114.326 26.216C114.326 26.216 114.356 26.2054 114.346 26.1894Z" fill="#263238"/>
<path d="M104.461 30.9592L115.992 43.176C115.992 43.176 103.831 56.8169 98.1211 55.3927C92.411 53.9686 81.6126 38.4997 78.1506 28.6834C75.752 21.8812 79.5187 22.9807 83.4898 26.3096C87.461 29.6384 97.8316 37.9066 98.2861 37.7911C98.7406 37.6755 104.461 30.9592 104.461 30.9592Z" fill="#1DA1F3"/>
<path opacity="0.1" d="M100.562 55.2688C99.7671 55.5195 98.9216 55.5622 98.1059 55.3927C92.3951 53.9686 81.5974 38.5051 78.1355 28.6834C76.5569 24.2087 77.6612 23.1556 79.7315 23.9197C85.9569 33.1528 94.2366 45.5293 100.562 55.2688Z" fill="black"/>
<path d="M112.241 45.2115C110.575 43.5235 103.986 36.3806 102.687 34.7443C102.594 34.631 102.646 34.5428 102.754 34.6516C106.123 37.9761 109.313 41.4788 112.308 45.1446C112.344 45.1834 112.282 45.251 112.241 45.2115Z" fill="#263238"/>
<path d="M92.5137 64.7187C92.5137 64.7187 54.7038 71.638 54.5078 71.4282C54.3117 71.2183 58.6712 30.3085 71.5012 23.3922C73.5647 22.298 78.4502 21.6525 80.5456 23.7899C86.5194 29.8697 93.0093 64.1667 92.5137 64.7187Z" fill="#1DA1F3"/>
<path d="M92.116 61.3281L54.8838 67.7151C55.0229 66.5898 55.2091 65.2478 55.4409 63.7362L91.4297 57.543C91.7071 58.9892 91.9352 60.2643 92.116 61.3281Z" fill="#EBEBEB"/>
<path d="M91.0323 55.5678L55.7761 61.6218C55.8848 60.9512 56.0041 60.2646 56.1318 59.5574L90.6249 53.6372C90.7693 54.2873 90.9046 54.9382 91.0323 55.5678Z" fill="#EBEBEB"/>
<path d="M78.8734 29.9988C76.7636 29.9988 74.0753 26.1073 73.3252 23.2894C73.7182 21.9168 74.1796 20.5647 74.7077 19.2382C75.1515 17.9455 75.6159 16.4872 75.9404 15.1094L83.9572 19.2382C83.0675 20.8205 82.3745 22.5059 81.8937 24.2566C81.8489 24.4443 81.8235 24.6362 81.8177 24.8291V24.9219C81.706 26.0556 80.911 30.0042 78.8734 29.9988Z" fill="#AD6359"/>
<path d="M83.9603 19.2967C83.0698 20.8788 82.3768 22.5642 81.8968 24.3151C81.852 24.5029 81.8265 24.6947 81.8208 24.8877C81.823 24.9168 81.823 24.946 81.8208 24.9751C81.5203 24.9514 81.223 24.898 80.9331 24.8154C76.0066 23.5046 76.0887 17.027 76.2072 15.2881L83.9603 19.2967Z" fill="#263238"/>
<path d="M75.5978 5.79255C74.3133 8.77545 74.9579 17.8823 76.9339 20.1148C79.8023 23.3509 84.9902 24.1972 87.8555 20.6311C90.641 17.1836 89.5891 5.33329 87.3395 3.25293C84.0067 0.203113 77.491 1.38015 75.5978 5.79255Z" fill="#AD6359"/>
<path d="M83.8979 12.3425C83.8979 12.3167 83.8569 12.3737 83.8569 12.3995C83.9329 13.0078 83.9185 13.7157 83.3872 13.9476V13.9841C84.0575 13.8442 84.0712 12.9052 83.8979 12.3425Z" fill="#263238"/>
<path d="M83.3029 11.7594C82.3149 11.7594 82.4205 13.7416 83.3341 13.7257C84.2476 13.7097 84.1253 11.7442 83.3029 11.7594Z" fill="#263238"/>
<path d="M87.4785 12.146C87.4785 12.146 87.5302 12.1718 87.5302 12.1977C87.5302 12.806 87.6594 13.5033 88.2218 13.6789V13.7154C87.5416 13.653 87.3956 12.7239 87.4785 12.146Z" fill="#263238"/>
<path d="M87.9893 11.4807C88.9644 11.3568 89.1445 13.3178 88.2424 13.4318C87.3402 13.5459 87.1738 11.5887 87.9893 11.4807Z" fill="#263238"/>
<path d="M82.4585 10.8969C82.7129 10.8066 82.9625 10.7033 83.2063 10.5874C83.4853 10.5198 83.7328 10.3588 83.9078 10.1312C83.9546 10.0477 83.9709 9.9506 83.954 9.85643C83.937 9.76226 83.888 9.67688 83.8151 9.6149C83.6628 9.51629 83.4872 9.45959 83.306 9.45051C83.1248 9.44143 82.9444 9.48031 82.783 9.5632C82.425 9.68385 82.1251 9.93421 81.9424 10.265C81.9014 10.3421 81.884 10.4296 81.8925 10.5166C81.9009 10.6035 81.9348 10.686 81.9899 10.7538C82.0449 10.8215 82.1188 10.8715 82.2021 10.8975C82.2855 10.9235 82.3746 10.9244 82.4585 10.8999V10.8969Z" fill="#263238"/>
<path d="M88.6959 10.4483C88.4223 10.4172 88.1799 10.3449 87.9063 10.2887C87.6188 10.2691 87.3454 10.1568 87.1272 9.96853C87.0686 9.89529 87.0366 9.80425 87.0366 9.7104C87.0366 9.61655 87.0686 9.52549 87.1272 9.45225C87.2601 9.32037 87.4264 9.22714 87.6082 9.18254C87.79 9.13794 87.9805 9.14365 88.1593 9.19905C88.5294 9.25022 88.8685 9.4336 89.1139 9.71534C89.1767 9.78472 89.2159 9.87216 89.2261 9.96518C89.2362 10.0582 89.2167 10.152 89.1703 10.2333C89.124 10.3146 89.0532 10.3792 88.968 10.4178C88.8828 10.4564 88.7876 10.4671 88.6959 10.4483Z" fill="#263238"/>
<path d="M83.5415 17.751C83.6654 17.916 83.7787 18.1312 83.9976 18.1791C84.2225 18.2067 84.4508 18.1873 84.6679 18.122L84.6937 18.1532C84.5905 18.2602 84.4603 18.3373 84.3169 18.3763C84.1735 18.4154 84.0222 18.415 83.879 18.3752C83.76 18.3259 83.6586 18.242 83.5877 18.1343C83.5169 18.0267 83.4799 17.9003 83.4815 17.7715C83.4906 17.751 83.521 17.751 83.5415 17.751Z" fill="#263238"/>
<path d="M84.2127 15.9706C84.3799 16.2036 84.5938 16.3992 84.8407 16.5449C85.0877 16.6906 85.3622 16.7832 85.6469 16.8169C85.8949 16.8532 86.1468 16.8532 86.3948 16.8169C86.4873 16.8077 86.5789 16.7904 86.6684 16.7652C86.7006 16.758 86.7295 16.7405 86.7509 16.7154C86.7723 16.6903 86.785 16.6589 86.787 16.626L86.6783 15.325C86.8538 15.4011 87.7461 15.7486 87.7104 15.5007C87.5453 13.3876 87.1651 11.2969 86.5757 9.26114C86.5748 9.25289 86.5723 9.2449 86.5681 9.23772C86.5639 9.23054 86.5583 9.22433 86.5516 9.21949C86.5448 9.21465 86.5372 9.21129 86.529 9.20965C86.5209 9.20801 86.5125 9.20812 86.5044 9.20997C86.4963 9.21181 86.4887 9.21535 86.4821 9.22036C86.4755 9.22537 86.47 9.23172 86.4661 9.23901C86.4621 9.24629 86.4597 9.25433 86.4591 9.2626C86.4585 9.27088 86.4596 9.27919 86.4624 9.28699C86.6068 11.2381 87.0917 13.1527 87.2673 15.1137C86.9486 14.9851 86.6134 14.9017 86.2717 14.8658C86.2352 14.8658 86.4472 16.4625 86.4419 16.4762C86.0594 16.5343 85.6692 16.5148 85.2943 16.4191C84.9195 16.3234 84.5677 16.1533 84.2599 15.9189C84.2226 15.8778 84.1763 15.9242 84.2127 15.9706Z" fill="#263238"/>
<path d="M86.1986 16.7182C85.9306 17.0721 85.5748 17.3497 85.1665 17.5234C84.94 17.614 84.6906 17.6303 84.4543 17.5698C83.9382 17.4406 83.9382 16.9714 84.0211 16.5684C84.0732 16.3538 84.1497 16.1459 84.2491 15.9487C84.8013 16.4053 85.4842 16.6745 86.1993 16.7175L86.1986 16.7182Z" fill="#263238"/>
<path d="M85.1672 17.5297C84.9407 17.6203 84.6913 17.6365 84.455 17.5761C83.939 17.4468 83.939 16.9777 84.0218 16.5747C84.2923 16.5817 84.5525 16.6798 84.7603 16.8531C84.9682 17.0265 85.1115 17.2648 85.1672 17.5297Z" fill="#FF9CBD"/>
<path d="M74.7564 14.0144C77.1292 14.1999 78.368 11.3767 77.852 9.09562C77.852 9.09562 84.1511 9.9784 84.4916 4.91362C84.9928 5.61377 85.6447 6.19244 86.3992 6.60698C87.1537 7.02151 87.9916 7.26133 88.8511 7.30876L89.2691 9.08954C89.9189 8.90858 90.6204 7.07153 89.0472 5.61619C88.9471 4.06453 88.2523 2.61137 87.1076 1.55966C86.6075 1.12115 85.9916 0.836262 85.3338 0.739158C84.6759 0.642054 84.004 0.73686 83.3987 1.01219C82.3051 0.209366 80.9424 -0.136642 79.5985 0.0472935C78.8978 0.154046 78.2328 0.427216 77.6593 0.843938C77.0858 1.26066 76.6205 1.8088 76.3023 2.44244C76.3023 2.44244 73.171 3.01499 72.6237 5.23449C72.4541 5.86032 72.4188 6.515 72.5201 7.15546C72.6215 7.79592 72.8573 8.40765 73.212 8.9504C73.212 8.9504 72.4178 9.81721 72.8046 11.7166C73.0509 12.9362 74.0442 13.9581 74.7564 14.0144Z" fill="#263238"/>
<path d="M84.357 4.46143C84.3984 4.87327 84.3984 5.28822 84.357 5.70006C84.3249 6.10713 84.2453 6.50905 84.1199 6.89763C83.872 7.6636 83.3455 8.30843 82.6447 8.70426C81.9229 9.07431 81.124 9.26889 80.3129 9.27225C79.9056 9.27225 79.4929 9.27225 79.0802 9.23119C78.6675 9.19013 78.2601 9.1331 77.8474 9.09737C78.2495 9.19545 78.6576 9.2829 79.0634 9.37642C79.4768 9.442 79.8939 9.48161 80.3122 9.49503C81.1679 9.53538 82.0199 9.35774 82.7883 8.97874C83.544 8.54186 84.0992 7.82704 84.3358 6.98659C84.5552 6.16009 84.5626 5.29152 84.357 4.46143Z" fill="#263238"/>
<path d="M87.5865 7.42902C86.8998 7.19365 86.2575 6.84461 85.6864 6.39646C85.4071 6.17045 85.1589 5.90836 84.9484 5.61708C84.7412 5.3172 84.5681 4.99509 84.4324 4.65674C84.4647 5.03786 84.579 5.40748 84.7675 5.74026C84.9517 6.0812 85.2027 6.38146 85.5055 6.62304C85.8033 6.86391 86.1366 7.05707 86.4936 7.1956C86.8446 7.33296 87.216 7.41132 87.5926 7.4275L87.5865 7.42902Z" fill="#263238"/>
<path d="M82.701 15.4178C82.2053 15.3934 81.7264 15.2302 81.3188 14.947C80.9113 14.6637 80.5913 14.2717 80.3954 13.8156C80.1994 13.3594 80.1354 12.8574 80.2105 12.3666C80.2856 11.8758 80.4969 11.416 80.8203 11.0394C81.1437 10.6628 81.5662 10.3845 82.0398 10.2363C82.5135 10.088 83.0192 10.0757 83.4995 10.2007C83.9797 10.3258 84.4153 10.5831 84.7566 10.9435C85.098 11.304 85.3313 11.753 85.4302 12.2395C85.568 12.9277 85.4284 13.6424 85.0419 14.2281C84.6555 14.8139 84.0534 15.2231 83.3668 15.3669C83.1479 15.4125 82.9242 15.4299 82.701 15.4186V15.4178ZM82.9434 10.4679C82.7514 10.4577 82.559 10.4733 82.3711 10.5142C81.8009 10.6338 81.2975 10.9662 80.9636 11.4438C80.6297 11.9215 80.4902 12.5085 80.5736 13.0854C80.6571 13.6623 80.9571 14.1857 81.4126 14.5491C81.8682 14.9125 82.445 15.0886 83.0257 15.0416C83.6065 14.9945 84.1475 14.7278 84.5386 14.2958C84.9297 13.8637 85.1416 13.2988 85.1311 12.716C85.1206 12.1332 84.8886 11.5763 84.4821 11.1587C84.0757 10.741 83.5255 10.494 82.9434 10.4679Z" fill="#1DA1F3"/>
<path d="M88.7721 14.9695C87.74 14.9178 86.8887 13.8343 86.796 12.4557C86.7347 11.796 86.8866 11.134 87.2292 10.567C87.3598 10.3146 87.5532 10.1 87.7906 9.94395C88.0281 9.78789 88.3017 9.69556 88.5851 9.67586C88.8686 9.65616 89.1523 9.70974 89.409 9.83145C89.6658 9.95316 89.8869 10.1389 90.0512 10.3708C90.4596 10.8903 90.6984 11.5229 90.7352 12.1828C90.8333 13.6434 90.0284 14.8927 88.9454 14.9695H88.7721ZM88.7409 10.0271H88.6071C88.3824 10.0536 88.1673 10.1335 87.9796 10.2601C87.792 10.3866 87.6374 10.5563 87.5287 10.7548C87.2301 11.2605 87.0972 11.8471 87.1486 12.4322C87.2361 13.6967 88.031 14.6775 88.9233 14.6152C89.8156 14.5528 90.4707 13.4746 90.3833 12.2101C90.3548 11.6235 90.1439 11.0605 89.7799 10.5997C89.6584 10.4339 89.5032 10.2958 89.3245 10.1943C89.1459 10.0929 88.9477 10.0305 88.7432 10.0112L88.7409 10.0271Z" fill="#1DA1F3"/>
<path d="M85.3633 12.5485L85.1155 12.2953C85.3524 12.0127 85.6879 11.8308 86.054 11.7868C86.42 11.7427 86.7891 11.8397 87.0862 12.0581L86.8438 12.3158C86.2244 11.738 85.399 12.5173 85.3633 12.5485Z" fill="#1DA1F3"/>
<path d="M74.1429 14.1018L73.8176 13.9573C73.8845 13.8052 74.4834 12.4708 75.267 12.2845C76.9837 12.1599 78.7058 12.1254 80.4261 12.1811V12.5369C78.7282 12.4767 77.0284 12.5076 75.3339 12.6297C74.8285 12.7551 74.3025 13.7307 74.1429 14.1018Z" fill="#1DA1F3"/>
<path d="M76.9954 13.8546C76.9954 13.8546 75.2359 10.7576 73.8588 11.3826C72.4816 12.0076 73.6269 16.3166 75.112 17.0291C75.2958 17.1368 75.4998 17.2054 75.7113 17.2306C75.9228 17.2558 76.1371 17.237 76.341 17.1755C76.5449 17.114 76.734 17.011 76.8962 16.873C77.0585 16.735 77.1906 16.565 77.2842 16.3737L76.9954 13.8546Z" fill="#AD6359"/>
<path d="M74.2038 12.6152C74.2038 12.6152 74.1726 12.6464 74.2038 12.6563C74.6778 12.9466 75.0852 13.3337 75.3995 13.7923C75.7139 14.2509 75.928 14.7706 76.0279 15.3176C75.9754 15.2036 75.8988 15.1025 75.8032 15.0212C75.7077 14.94 75.5956 14.8805 75.4748 14.8471C75.3539 14.8137 75.2272 14.807 75.1035 14.8276C74.9798 14.8482 74.8621 14.8955 74.7586 14.9663C74.7534 14.9696 74.7492 14.9741 74.7462 14.9795C74.7433 14.9849 74.7417 14.9909 74.7417 14.9971C74.7417 15.0032 74.7433 15.0093 74.7462 15.0146C74.7492 15.02 74.7534 15.0246 74.7586 15.0279C74.9538 14.984 75.1577 15.0016 75.3425 15.0783C75.5273 15.1549 75.6838 15.2868 75.7907 15.4559C75.966 15.7431 76.1112 16.0476 76.2239 16.3646C76.265 16.4627 76.4406 16.4262 76.4147 16.3129V16.287C76.5774 14.9123 75.6798 12.889 74.2038 12.6152Z" fill="#263238"/>
<path d="M81.912 25.9208H81.8861C81.7987 27.6445 81.4841 31.5984 78.713 31.0821C77.6174 30.7772 76.6302 30.1689 75.8652 29.3272C74.3717 27.7512 73.1239 25.9592 72.1638 24.0115C72.138 23.9652 72.0764 24.0115 72.0878 24.0526C72.4218 25.0607 72.8739 26.0257 73.4346 26.9275C74.0583 27.9715 74.8221 28.925 75.7048 29.7614C76.5301 30.6223 77.5854 31.2278 78.7449 31.5057C79.2535 31.5923 79.7763 31.503 80.2274 31.2525C80.6784 31.0021 81.0308 30.6054 81.2264 30.1279C81.7815 28.7987 82.0163 27.3575 81.912 25.9208Z" fill="#263238"/>
<path d="M67.2631 26.6387C61.3615 31.8 46.2301 52.1869 49.9444 56.5483C53.6586 60.9098 77.0135 57.885 83.7253 55.4747C85.7273 54.7577 79.6706 42.1379 77.4627 41.6361C75.6158 41.2125 65.6435 44.6243 65.4216 44.0464C65.1997 43.4685 67.1446 38.968 70.2713 30.9058C73.8754 21.6172 69.8708 24.3522 67.2631 26.6387Z" fill="#AD6359"/>
<path d="M87.3135 38.7467C92.0135 38.5657 93.2462 39.263 97.1178 36.9819C99.6662 35.5007 101.709 36.4914 100.082 39.0926C97.415 43.34 91.3994 44.8471 89.1657 44.7703L87.3135 38.7467Z" fill="#AD6359"/>
<path d="M74.5603 41.9729C77.9252 40.5575 81.4405 39.5307 85.038 38.9124C88.4893 38.4372 96.1094 38.2365 102.579 46.386C104.126 48.3212 104.921 52.1648 101.274 49.9111C98.6942 48.3143 97.523 46.5199 95.8464 45.8644C95.8464 45.8644 96.3024 50.8707 94.299 52.3313C92.5525 53.6064 90.7183 54.7566 88.8101 55.7735C88.546 55.4656 88.3013 55.1415 88.0774 54.8033C88.0774 54.8033 86.0861 55.9902 82.6242 55.3195L74.5603 41.9729Z" fill="#AD6359"/>
<path d="M88.4073 38.9893C89.9547 39.9907 93.1332 42.1684 95.1138 44.8578C97.3323 47.846 100.789 54.2049 98.5803 55.8199C96.95 57.0069 95.4125 54.6946 95.4125 54.6946C95.4125 54.6946 96.2896 57.6212 94.5818 58.3694C93.0344 59.0538 91.9453 57.1924 91.9453 57.1924C91.9453 57.1924 92.1771 59.0606 90.5521 59.4324C88.5966 59.8765 88.4423 55.8868 86.074 54.6223C85.5542 54.3387 88.4073 38.9893 88.4073 38.9893Z" fill="#AD6359"/>
<path d="M91.5797 46.6538C93.6489 48.8476 95.001 51.6201 95.4558 54.6019C95.4558 54.6779 95.4094 54.7258 95.3889 54.6589C94.4357 51.8527 93.147 49.172 91.5508 46.6751C91.5508 46.6751 91.569 46.6538 91.5797 46.6538Z" fill="#263238"/>
<path d="M88.6498 49.0071C90.4987 51.3702 91.6734 54.1901 92.0494 57.1673C92.0494 57.2434 91.9977 57.2913 91.9734 57.219C91.1666 54.3698 90.0418 51.6205 88.6201 49.0231C88.6201 49.0231 88.6186 48.9919 88.6498 49.0071Z" fill="#263238"/>
<path d="M95.8411 45.838C97.1611 46.442 98.3658 47.2715 99.4011 48.2894C99.9816 48.7984 100.591 49.2739 101.225 49.7135C101.808 50.1112 102.665 50.702 103.371 50.2298C103.54 50.0824 103.666 49.8929 103.736 49.6807C103.807 49.4684 103.82 49.2412 103.774 49.0224C103.649 48.3911 103.426 47.7832 103.113 47.2211C103.113 47.2211 103.139 47.18 103.15 47.2211C103.459 47.7332 103.713 48.2763 103.91 48.8414C104.027 49.2302 104.027 49.6449 103.91 50.0337C103.606 50.8442 102.609 50.8541 101.939 50.5499C101.54 50.3584 101.161 50.1266 100.809 49.858C100.463 49.6101 100.125 49.3417 99.7766 49.0733C99.1062 48.516 98.4716 47.9221 97.8111 47.3549C97.1566 46.8193 96.4673 46.3277 95.7476 45.8836C95.7446 45.8771 95.7428 45.8702 95.7425 45.863C95.7421 45.8559 95.7432 45.8488 95.7456 45.8421C95.748 45.8354 95.7517 45.8292 95.7565 45.824C95.7613 45.8187 95.767 45.8144 95.7735 45.8113C95.7799 45.8083 95.7869 45.8066 95.794 45.8062C95.8011 45.8059 95.8082 45.8069 95.8149 45.8093C95.8216 45.8117 95.8278 45.8154 95.8331 45.8202C95.8384 45.825 95.8426 45.8308 95.8457 45.8372L95.8411 45.838Z" fill="#263238"/>
<path d="M98.4526 51.4755C97.6899 49.5523 96.8013 47.6816 95.7925 45.8754L95.829 45.8442C97.0479 47.508 98.0566 49.3162 98.8319 51.2276C99.2561 52.2692 99.4668 53.3855 99.4513 54.5101C99.4666 54.9644 99.3053 55.407 99.0013 55.7449C98.6973 56.0828 98.2743 56.2897 97.821 56.3221C97.3531 56.3571 96.8872 56.2316 96.5001 55.9662C96.0495 55.6262 95.6751 55.1954 95.4011 54.7017C95.4011 54.7017 95.4011 54.65 95.4323 54.6705C95.6717 55.0501 95.9948 55.3698 96.3769 55.6051C96.7589 55.8404 97.1898 55.985 97.6364 56.0278C97.8282 56.0289 98.0184 55.9915 98.1956 55.918C98.3729 55.8445 98.5336 55.7363 98.6685 55.5997C98.9425 55.2432 99.0775 54.7992 99.0485 54.3504C99.021 53.3652 98.8219 52.3923 98.4602 51.4755H98.4526Z" fill="#263238"/>
<path d="M74.5603 41.973L80.3176 58.0813C80.3176 58.0813 51.1074 61.6216 49.142 56.4085C47.1765 51.1955 60.2232 32.8266 65.7866 27.6607C72.2407 21.6683 72.756 23.9805 70.894 29.6734C68.9491 35.64 65.4826 44.1963 65.4826 44.1963L74.5603 41.973Z" fill="#1DA1F3"/>
<path d="M56.3957 47.4178C57.8151 46.6377 59.2882 45.9598 60.8038 45.3891C62.3117 44.8364 63.8586 44.3964 65.4316 44.0729C66.3239 43.8714 67.2215 43.7171 68.1244 43.5566C68.1244 43.5566 68.1556 43.5932 68.1244 43.5977C66.553 43.9379 65.0027 44.3695 63.4814 44.8903C61.9578 45.3891 60.4497 45.9173 58.957 46.4749C58.1057 46.795 57.275 47.1456 56.4398 47.5075C56.4275 47.5137 56.4132 47.5147 56.4002 47.5103C56.3871 47.506 56.3764 47.4966 56.3702 47.4843C56.3641 47.472 56.3631 47.4578 56.3674 47.4447C56.3718 47.4317 56.3811 47.4209 56.3934 47.4147L56.3957 47.4178Z" fill="#263238"/>
<path d="M74.4881 41.9215C74.3361 41.9473 66.2699 43.7463 66.0016 43.8361C66.0426 43.7228 67.8637 39.7073 68.1297 39.1218L68.2057 38.9462C68.3759 38.6884 68.5462 38.4299 68.7217 38.1668C68.8973 37.9037 69.1291 37.4908 69.3298 37.1342L68.6799 38.1227C68.5819 38.2748 68.4839 38.4322 68.3911 38.5926C68.572 38.1744 68.7468 37.7562 68.9072 37.3387C69.1861 36.6681 69.4233 35.9914 69.7014 35.3154H69.6649C69.1489 36.4872 68.5561 37.6383 68.0195 38.8131C67.4829 39.9879 65.4399 44.2786 65.4399 44.2786C65.4399 44.2786 74.3498 42.1055 74.5246 42.0492C74.5387 42.0426 74.5498 42.031 74.5559 42.0166C74.562 42.0023 74.5625 41.9862 74.5574 41.9714C74.5523 41.9567 74.5419 41.9444 74.5283 41.9368C74.5146 41.9293 74.4987 41.9271 74.4835 41.9306L74.4881 41.9215Z" fill="#263238"/>
<path d="M74.0077 52.0007C73.373 50.2047 72.7589 48.3882 72.0574 46.6279C71.6599 45.6212 71.2678 44.6152 70.8657 43.6085C70.8657 43.572 70.7829 43.6085 70.7897 43.6085C71.3521 45.4334 71.9199 47.2681 72.5697 49.0694C73.2195 50.8707 73.8389 52.6827 74.504 54.4475C74.8855 55.4613 75.2949 56.4627 75.7322 57.4517H75.7686C75.2716 55.6139 74.6423 53.8126 74.0077 52.0007Z" fill="#263238"/>
<path d="M80.6633 58.3551C80.4262 57.8388 80.1473 57.1385 79.8737 56.6465C79.8068 56.5127 79.7087 56.5332 79.7604 56.6465C79.936 57.0959 80.0644 57.5962 80.24 58.0608C79.8273 58.0973 79.4199 58.1277 79.0118 58.1741L77.5928 58.3262C76.6641 58.4225 75.7356 58.5102 74.8073 58.5893C72.9295 58.7444 71.0482 58.8597 69.1633 58.9352C65.3814 59.1088 61.5931 59.0834 57.8138 58.8592C56.7817 58.7923 55.704 58.7071 54.6514 58.5855C53.5987 58.4638 52.4328 58.3224 51.5558 58.1293C51.5299 58.1293 51.5193 58.1657 51.5558 58.1756C52.4271 58.4529 53.3188 58.6617 54.2227 58.7999C55.172 58.939 56.1228 59.0577 57.0758 59.1405C58.9759 59.3109 60.8881 59.3778 62.7973 59.3937C66.5808 59.4247 70.3639 59.2979 74.1468 59.0136C75.2048 58.9375 76.2567 58.8432 77.3146 58.7398L78.9107 58.5695C79.5007 58.5581 80.088 58.4863 80.6633 58.3551Z" fill="#263238"/>
<path d="M118.298 57.9985H81.5198V59.6447H118.298V57.9985Z" fill="#C7C7C7"/>
<path d="M118.295 57.9985V59.6447H93.2981L94.5567 57.9985H118.295Z" fill="#A6A6A6"/>
<path d="M98.3538 59.6445H130.54L135.198 36.9248H103.012L98.3538 59.6445Z" fill="#A6A6A6"/>
<path d="M99.8601 59.6445H132.047L136.705 36.9248H104.518L99.8601 59.6445Z" fill="#C7C7C7"/>
<path d="M121.18 47.4387C121.216 47.9457 121.08 48.4499 120.793 48.8696C120.507 49.2893 120.087 49.5999 119.602 49.751C119.378 49.789 119.148 49.775 118.931 49.7102C118.713 49.6454 118.514 49.5314 118.347 49.3771C118.181 49.2228 118.052 49.0322 117.971 48.8202C117.889 48.6082 117.858 48.3803 117.879 48.1542C117.852 47.6478 117.996 47.1471 118.286 46.7318C118.577 46.3165 118.998 46.0105 119.483 45.8625C120.377 45.6534 121.151 46.3704 121.18 47.4387Z" fill="white"/>
<path d="M193.252 106.808C192.773 108.057 169.676 136.072 168.118 136.588C167.53 136.784 163.254 133.657 158.198 129.729C157.104 128.883 155.979 128 154.844 127.097C147.467 121.249 139.775 114.874 139.775 114.874L155.204 96.0874L169.845 108.825L173.065 111.622C173.065 111.622 186.674 104.851 188.444 104.458C190.214 104.066 193.732 105.559 193.252 106.808Z" fill="#AD6359"/>
<path d="M193.253 106.808C192.774 108.058 169.676 136.073 168.119 136.589C167.402 136.821 161.237 132.16 154.845 127.097L169.805 108.824L173.025 111.622C173.025 111.622 186.671 104.85 188.44 104.457C190.209 104.065 193.733 105.559 193.253 106.808Z" fill="#EBEBEB"/>
<path d="M193.253 106.809C192.774 108.058 169.676 136.073 168.119 136.589C167.531 136.785 163.255 133.658 158.198 129.73L173.036 111.624C173.036 111.624 186.671 104.852 188.441 104.46C190.211 104.068 193.733 105.559 193.253 106.809Z" fill="#1DA1F3"/>
<path d="M191.798 106.288C187.81 110.886 172.168 129.823 168.583 134.674C168.557 134.715 168.583 134.736 168.614 134.674C172.663 130.2 188.161 111.134 191.886 106.323C191.957 106.246 191.885 106.19 191.798 106.288Z" fill="#263238"/>
<path d="M185.948 105.444C185.504 105.956 185.17 106.554 184.969 107.201C184.767 107.847 184.702 108.529 184.776 109.202C184.909 110.406 185.496 111.514 186.417 112.299C186.449 112.299 186.493 112.268 186.464 112.242C185.669 111.313 185.195 110.152 185.113 108.932C185.031 107.712 185.345 106.498 186.008 105.47C186.036 105.456 185.979 105.409 185.948 105.444Z" fill="#263238"/>
<path d="M175.006 110.189C173.427 112.048 172.297 114.773 172.87 117.208C172.87 117.301 173.022 117.27 173.04 117.208C173.536 114.854 174.281 112.56 175.264 110.365C175.287 110.331 175.296 110.289 175.288 110.248C175.281 110.207 175.257 110.171 175.223 110.148C175.189 110.125 175.147 110.116 175.106 110.124C175.065 110.132 175.03 110.155 175.006 110.189H175.006Z" fill="#263238"/>
<path d="M176.764 109.203C175.191 111.061 174.056 113.786 174.629 116.222C174.629 116.315 174.788 116.284 174.804 116.222C175.296 113.868 176.04 111.574 177.023 109.379C177.046 109.345 177.055 109.303 177.047 109.262C177.039 109.222 177.016 109.186 176.982 109.162C176.947 109.139 176.905 109.13 176.865 109.138C176.824 109.146 176.788 109.169 176.765 109.203L176.764 109.203Z" fill="#263238"/>
<path d="M178.532 108.218C176.954 110.076 175.823 112.801 176.396 115.236C176.396 115.335 176.548 115.298 176.567 115.236C177.061 112.882 177.807 110.588 178.791 108.393C178.814 108.359 178.823 108.317 178.815 108.276C178.807 108.236 178.784 108.2 178.75 108.176C178.715 108.153 178.673 108.144 178.633 108.152C178.592 108.16 178.556 108.183 178.533 108.218H178.532Z" fill="#263238"/>
<path d="M180.288 107.231C178.715 109.089 177.579 111.819 178.152 114.255C178.178 114.348 178.312 114.317 178.328 114.255C178.821 111.902 179.565 109.608 180.546 107.412C180.558 107.395 180.567 107.376 180.571 107.356C180.576 107.336 180.576 107.315 180.572 107.294C180.569 107.274 180.561 107.255 180.55 107.237C180.539 107.22 180.525 107.205 180.508 107.193C180.491 107.181 180.472 107.172 180.452 107.168C180.431 107.163 180.411 107.163 180.39 107.166C180.37 107.17 180.35 107.178 180.333 107.189C180.316 107.2 180.3 107.214 180.289 107.231H180.288Z" fill="#263238"/>
<path d="M165.1 129.802C163.367 131.913 166.648 134.612 168.387 132.49C170.125 130.369 166.839 127.686 165.1 129.802Z" fill="white"/>
<path d="M171.662 104.017C170.115 104.321 169.872 106.153 170.208 107.418C170.825 109.575 171.997 111.533 173.607 113.095C173.643 113.131 173.683 113.095 173.711 113.095C173.752 113.117 173.797 113.129 173.844 113.13C173.891 113.13 173.937 113.12 173.979 113.099C174.02 113.079 174.057 113.048 174.084 113.011C174.112 112.973 174.131 112.93 174.138 112.884C174.319 110.783 174.768 108.55 174.29 106.463C174.02 105.22 173.153 103.733 171.662 104.017ZM173.772 109.622C173.711 110.655 173.597 111.686 173.571 112.719C172.878 111.634 172.241 110.514 171.661 109.364C171.387 108.804 171.153 108.224 170.961 107.63C170.678 106.711 170.626 103.568 172.829 105.049C174.02 105.896 173.829 108.383 173.774 109.622H173.772Z" fill="#263238"/>
<path d="M170.455 118.333C172.051 116.904 172.978 114.835 174.067 113.017C174.18 112.832 174.015 112.637 173.839 112.594C173.84 112.584 173.84 112.573 173.836 112.563C173.833 112.553 173.827 112.544 173.82 112.537C173.813 112.529 173.804 112.524 173.794 112.52C173.784 112.517 173.773 112.516 173.763 112.518C171.546 112.852 169.455 113.764 167.701 115.16C166.669 115.991 165.808 117.612 166.911 118.773C168.015 119.935 169.516 119.169 170.455 118.333ZM168.449 118.586C165.789 118.529 167.655 116.006 168.418 115.417C168.921 115.049 169.448 114.714 169.996 114.416C171.134 113.814 172.304 113.273 173.499 112.795C172.916 113.652 172.411 114.556 171.864 115.433C171.192 116.48 169.913 118.617 168.448 118.589L168.449 118.586Z" fill="#263238"/>
<path d="M169.062 105.961L151.919 126.286L100.216 89.4556L95.1191 85.8423C95.1191 85.8423 93.6538 86.8072 91.4512 87.9896C88.3921 89.6358 83.9087 91.7108 79.9619 92.2423C73.3375 93.1091 63.3705 92.8924 57.8869 85.3678C53.2439 79.0302 54.8468 70.8593 54.8468 70.8593L62.143 67.8179C62.143 67.8179 79.4975 53.707 90.6312 53.4128C95.357 53.2782 102.197 56.9485 108.522 60.7678C114.847 64.5871 169.062 105.961 169.062 105.961Z" fill="#263238"/>
<path d="M95.1189 85.8169C95.1189 85.8169 93.6536 86.7818 91.4511 87.9642C87.6388 83.2826 79.549 74.7665 79.302 74.4624L95.1189 85.8169Z" fill="#37474F"/>
<path d="M68.499 63.1132C67.4669 63.815 66.4355 64.5579 65.4399 65.281C64.4443 66.0041 63.3764 66.6542 62.4424 67.4283C61.5083 68.2023 60.5423 69.0593 59.6257 69.9109C59.1818 70.3184 58.7433 70.7313 58.3154 71.1601C57.8651 71.5704 57.4461 72.014 57.0621 72.487C57.0309 72.5334 57.0933 72.5851 57.1381 72.563C57.6243 72.2254 58.0879 71.8564 58.5259 71.4582L59.9753 70.2553C60.9094 69.4813 61.8587 68.7072 62.792 67.9537C63.7253 67.2002 64.572 66.3379 65.4901 65.554C66.4082 64.77 67.4965 63.9435 68.5302 63.1748C68.5294 63.1337 68.5294 63.0972 68.499 63.1132Z" fill="#37474F"/>
<path d="M163.769 104.003C162.736 105.097 161.767 106.274 160.797 107.43C159.827 108.585 158.857 109.753 157.897 110.927C155.973 113.271 154.039 115.604 152.145 117.972C151.113 119.273 150.082 120.584 149.117 121.941C149.076 121.998 149.174 122.07 149.221 122.017C151.284 119.798 153.178 117.434 155.092 115.091C157.007 112.748 158.93 110.394 160.814 108.025C161.846 106.724 162.908 105.444 163.854 104.071C163.898 104.016 163.81 103.943 163.769 104.003Z" fill="#37474F"/>
<path d="M124.906 106.978C122.28 104.857 116.306 100.707 113.582 98.7196C110.857 96.7321 108.165 94.7505 105.415 92.8253C104.625 92.2733 103.826 91.7311 103.032 91.189C102.237 90.6469 101.407 90.1564 100.633 89.5785C100.587 89.5474 100.546 89.6249 100.587 89.6546C101.304 90.1709 101.975 90.7693 102.676 91.3114C103.378 91.8535 104.012 92.344 104.688 92.8595C106.009 93.8609 107.34 94.8418 108.67 95.8249C111.363 97.8277 114.082 99.7993 116.827 101.74C118.374 102.834 123.193 106.085 124.788 107.129C124.881 107.2 124.994 107.04 124.906 106.978Z" fill="#37474F"/>
<path d="M141.887 85.1724C139.463 83.108 133.932 79.1442 131.389 77.2342C128.846 75.3241 126.23 73.3563 123.65 71.4379L115.995 65.7504C113.508 63.908 111.037 62.0345 108.411 60.3982C106.972 59.5002 105.496 58.6691 103.979 57.9209C102.508 57.1421 100.972 56.4928 99.3881 55.9805C99.3417 55.9805 99.3121 56.0322 99.3569 56.0565C100.649 56.7994 102.017 57.4297 103.33 58.1521C104.642 58.8744 105.909 59.6074 107.158 60.3921C109.763 62.0178 112.224 63.8601 114.695 65.6827C119.828 69.4708 124.951 73.2749 130.124 77.0372C133.012 79.1016 138.775 83.4425 141.783 85.3723C141.864 85.3891 141.972 85.2446 141.887 85.1724Z" fill="#37474F"/>
<path d="M0 137.62L40.5019 137.437L81.0038 137.369L162 137.24L242.996 137.369L283.498 137.437L324 137.62L283.498 137.81L242.996 137.878L162 138L81.0038 137.871L40.5019 137.802L0 137.62Z" fill="#263238"/>
<path d="M284.204 82.4824H185.449V91.2593H284.204V82.4824Z" fill="#455A64"/>
<path d="M212.133 91.2651L208.884 99.1935L193.004 138H188.943L199.615 99.1942L201.795 91.2651H212.133Z" fill="#455A64"/>
<path d="M201.795 91.2651H212.131L208.882 99.1935H199.615L201.795 91.2651Z" fill="#263238"/>
<path d="M280.714 138H276.647L260.767 99.1942L257.533 91.2651H267.859L270.039 99.1935L280.714 138Z" fill="#455A64"/>
<path d="M270.039 99.1935H260.766L257.533 91.2651H267.859L270.039 99.1935Z" fill="#263238"/>
<path d="M217.239 80.8696H206.907V82.4831H217.239V80.8696Z" fill="#1DA1F3"/>
<path opacity="0.1" d="M217.239 80.8696H206.907V81.9334H217.239V80.8696Z" fill="black"/>
<path d="M194.646 76.5194C195.275 77.4492 196.157 78.1786 197.189 78.6204C198.22 79.0622 199.357 79.1979 200.463 79.0111C200.82 78.945 201.171 78.843 201.508 78.707C202.014 78.509 202.496 78.2566 202.947 77.9542L201.633 76.0061C201.388 76.1764 201.128 76.3243 200.856 76.4479C200.104 76.7931 199.251 76.8544 198.457 76.6205C197.662 76.3866 196.979 75.8733 196.533 75.1751C195.118 73.1852 194.61 68.6359 196.043 66.8871C196.139 66.7556 196.557 66.5525 198.217 66.8871C198.528 66.9586 198.874 67.0392 199.268 67.1441C199.573 67.25 199.89 67.3182 200.212 67.3471L200.254 66.1822L200.367 64.987C200.2 64.9608 200.036 64.9188 199.878 64.8615C199.106 64.6358 198.319 64.472 197.521 64.3718C196.327 64.2464 195.013 64.3718 194.231 65.3603C191.923 68.2565 192.872 74.0345 194.646 76.5194Z" fill="#1DA1F3"/>
<path opacity="0.1" d="M201.658 76.0063C201.412 76.1766 201.152 76.3244 200.881 76.4481L201.478 78.7186C201.995 78.5187 202.487 78.2622 202.947 77.9536L201.658 76.0063Z" fill="black"/>
<path opacity="0.1" d="M197.572 64.4146L198.266 66.9063C198.576 66.9777 198.922 67.0584 199.317 67.1633C199.622 67.2692 199.939 67.3374 200.261 67.3663L200.302 66.2014L200.416 65.0061C200.249 64.98 200.085 64.938 199.926 64.8807C199.155 64.6629 198.367 64.5071 197.57 64.4146H197.572Z" fill="black"/>
<path d="M225.815 61.3677C225.815 61.3677 224.578 71.901 222.434 76.3408C220.29 80.7805 217.304 81.2641 215.453 81.2641H208.69C206.839 81.2641 203.846 80.7684 201.708 76.3408C199.571 71.9132 198.331 61.3677 198.331 61.3677H225.815Z" fill="#1DA1F3"/>
<path opacity="0.1" d="M224.483 69.4692C224.387 69.9171 224.286 70.3596 224.19 70.8075H199.965C199.863 70.3596 199.768 69.9171 199.672 69.4692H224.483Z" fill="black"/>
<path opacity="0.1" d="M223.85 72.1519C223.587 73.1403 223.306 74.0999 223.001 74.9424H201.159C200.827 74.0278 200.544 73.0963 200.311 72.1519H223.85Z" fill="black"/>
</g>
<defs>
<clipPath id="clip0_999_1256">
<rect width="324" height="138" fill="white"/>
</clipPath>
</defs>
</svg>
