<svg width="24" height="25" viewBox="0 0 24 25" fill="none" xmlns="http://www.w3.org/2000/svg">
<path d="M21.4853 3.9479C21.4875 3.62301 21.3804 3.30682 21.1811 3.04884C20.9817 2.79076 20.7015 2.60561 20.3845 2.52199C20.0676 2.43838 19.7315 2.4609 19.4288 2.5861C19.1263 2.71124 18.874 2.93202 18.7117 3.21427C18.5559 3.48055 18.2993 3.67584 17.9975 3.75687C17.6954 3.83795 17.3731 3.79782 17.1011 3.64545L17.0278 3.77631L17.1013 3.64558C16.9656 3.56925 16.8467 3.46726 16.7514 3.34559C16.656 3.22392 16.5861 3.08495 16.5455 2.93672C16.5049 2.78848 16.4945 2.63383 16.5147 2.48164C16.535 2.32945 16.5856 2.18262 16.6637 2.04963L16.6638 2.04944C17.0015 1.47234 17.4874 0.992845 18.0727 0.659336C18.6581 0.325819 19.3223 0.150107 19.9986 0.15C20.6748 0.149893 21.339 0.325396 21.9245 0.658727C22.51 0.992052 22.996 1.47139 23.3339 2.04839C23.6718 2.62537 23.8497 3.27977 23.85 3.94585C23.8503 4.61193 23.6729 5.26647 23.3355 5.84371C22.998 6.42097 22.5124 6.9007 21.9272 7.23449C21.342 7.56828 20.6779 7.74431 20.0016 7.74474C19.6871 7.74471 19.3859 7.62141 19.1641 7.40257C18.9423 7.18379 18.8181 6.88748 18.8181 6.57895C18.8181 6.27042 18.9423 5.97411 19.1641 5.75532C19.3859 5.53646 19.6872 5.41316 20.0017 5.41316C20.3946 5.41316 20.7717 5.25921 21.0501 4.98455C21.3284 4.70994 21.4852 4.33711 21.4853 3.9479ZM21.4853 3.9479C21.4853 3.94772 21.4853 3.94754 21.4853 3.94737H21.3353L21.4853 3.94843C21.4853 3.94825 21.4853 3.94808 21.4853 3.9479ZM5.41204 19.6579C4.1117 18.3699 3.22677 16.731 2.8687 14.9477C2.51064 13.1644 2.69546 11.3165 3.39989 9.63662C4.10431 7.95677 5.29684 6.52016 6.82725 5.50775C8.35766 4.49534 10.1575 3.95242 12.0001 3.94737C12.3538 3.94737 12.693 3.80874 12.9431 3.56198C13.1932 3.31522 13.3337 2.98055 13.3337 2.63158C13.3337 2.28261 13.1932 1.94793 12.9431 1.70117C12.693 1.45442 12.3538 1.31579 12.0001 1.31579C9.74525 1.32507 7.53867 1.96084 5.63315 3.15026C3.72762 4.33967 2.20022 6.03463 1.22592 8.04095C0.251628 10.0473 -0.130147 12.2838 0.124335 14.4943C0.378817 16.7048 1.25926 18.7999 2.6648 20.5395L5.41204 19.6579ZM5.41204 19.6579L5.30637 19.7644C5.5266 19.9829 5.64984 20.2782 5.64984 20.5855C5.64984 20.8928 5.52668 21.1879 5.3066 21.4065C5.30652 21.4065 5.30645 21.4066 5.30637 21.4067L4.43984 22.2616L4.17959 22.5184H4.54519H12C12 22.5184 12.0001 22.5184 12.0001 22.5184C14.314 22.5194 16.5488 21.6856 18.2834 20.1736C20.018 18.6617 21.1328 16.5759 21.4174 14.3088C21.4587 14.0038 21.6208 13.7268 21.869 13.5387C22.1175 13.3504 22.4319 13.2668 22.7433 13.3067C22.8984 13.3268 23.0478 13.3771 23.183 13.4544C23.3182 13.5318 23.4364 13.6347 23.5309 13.7572C23.6254 13.8797 23.6943 14.0193 23.7337 14.168C23.7731 14.3167 23.7823 14.4715 23.7607 14.6237L23.7604 14.6257C23.3982 17.4495 22.0041 20.0464 19.839 21.929C17.6739 23.8116 14.8867 24.8504 12.0001 24.85L1.33193 24.85C1.33181 24.85 1.33168 24.85 1.33156 24.85C1.09757 24.8488 0.869337 24.7793 0.675609 24.6505C0.481799 24.5216 0.331293 24.3392 0.242751 24.1266L0.24226 24.1254C0.151879 23.9133 0.127221 23.6797 0.171302 23.454C0.215317 23.2286 0.325959 23.0208 0.489615 22.8568C0.489873 22.8566 0.490131 22.8563 0.490389 22.8561L2.7692 20.6472L2.8676 20.5518L2.78148 20.4452C1.39371 18.7276 0.524563 16.6592 0.273351 14.4771C0.0221399 12.295 0.39899 10.0872 1.36085 8.10647C2.32273 6.12573 3.8308 4.45209 5.71257 3.2775C7.59427 2.10295 9.77343 1.47501 12.0004 1.46579C12.3148 1.46587 12.616 1.58917 12.8377 1.80795C13.0595 2.02674 13.1837 2.32305 13.1837 2.63158C13.1837 2.94011 13.0595 3.23642 12.8377 3.4552C12.6159 3.67406 12.3146 3.79737 12.0001 3.79737L11.9997 3.79737C10.1279 3.8025 8.29944 4.35401 6.74449 5.38265C5.18952 6.4113 3.97755 7.87117 3.26156 9.57861C2.54555 11.2861 2.35766 13.1645 2.72164 14.9773C3.08561 16.79 3.9851 18.4556 5.30648 19.7645L5.41204 19.6579ZM18.91 10.065L18.9102 10.0651L18.9134 10.0574C18.9701 9.92048 19.0529 9.79534 19.1573 9.68876L19.3381 9.53411L19.5519 9.42867L19.7713 9.35649C19.9686 9.32359 20.1705 9.34055 20.3585 9.40508V9.41356L20.448 9.45302C20.735 9.57966 20.9641 9.806 21.092 10.0882L21.092 10.0882L21.0933 10.091C21.1578 10.2258 21.1893 10.3736 21.1854 10.5224L21.1853 10.5224V10.5263C21.1853 10.8348 21.0611 11.1312 20.8394 11.3499C20.6176 11.5688 20.3163 11.6921 20.0017 11.6921L20.0009 11.6921C19.8448 11.693 19.6902 11.6635 19.5458 11.6053C19.4015 11.5471 19.2703 11.4615 19.1598 11.3533L19.1589 11.3525C19.0488 11.2465 18.9609 11.1205 18.8998 10.9815C18.8424 10.8377 18.8147 10.6841 18.8181 10.5296L18.8185 10.5296L18.8179 10.519C18.8104 10.3626 18.8419 10.2067 18.91 10.065Z" fill="black" stroke="white" stroke-width="0.3"/>
</svg>
