<svg width="59" height="59" viewBox="0 0 59 59" fill="none" xmlns="http://www.w3.org/2000/svg">
<rect x="1" y="1" width="57" height="57" rx="7" fill="#D9E7FC" stroke="#0062FF" stroke-width="2"/>
<path d="M36.982 24.3575L29.3819 16.7574L33.1392 13L40.7393 20.6001L36.982 24.3575ZM31.9757 16.8854L37.078 21.9878L38.3269 20.7389L33.2246 15.5939L31.9757 16.8854ZM28.8482 32.5874L21.248 24.9872L25.0054 21.2299L32.6055 28.83L28.8482 32.5874ZM23.7458 24.9872L28.8482 30.0789L30.097 28.83L25.0054 23.7277L23.7458 24.9872Z" fill="#0062FF"/>
<path d="M30.0965 28.83L25.0049 23.7276L31.9752 16.7573L37.0775 21.8596L30.0965 28.83ZM27.5987 23.7276L30.0965 26.2361L34.537 21.8596L32.0393 19.3512L27.5987 23.7276Z" fill="#0062FF"/>
<path d="M31.7514 24.7098L33.0216 23.4929L44.4004 34.829L43.1302 36.0886L31.7514 24.7098ZM14 42.8668H42.6178V44.6601H14V42.8668ZM19.3692 37.5083H37.2486V39.2909H19.3692V37.5083Z" fill="#0062FF"/>
</svg>
