<svg width="328" height="260" viewBox="0 0 328 260" fill="none" xmlns="http://www.w3.org/2000/svg">
<path d="M172.755 8.29639V23.8814H168.65V30.9882L161.544 23.8814H113.297V8.29639H172.755Z" fill="white"/>
<path d="M172.755 8.28724C172.755 13.5409 172.57 18.739 172.561 23.8722L172.755 23.6776H168.447V23.8815V30.9883L168.836 30.8215L161.757 23.7054L161.683 23.6313H161.571L137.48 23.5757H113.39L113.723 23.9093V8.32429L113.427 8.61154L143.077 8.50962L172.755 8.28724ZM172.755 8.28724L143.105 8.10192L113.297 8H113.01V8.28724L112.963 23.8722V24.2058H113.297H137.388L161.479 24.1502L161.303 24.0761L168.428 31.1643L168.808 31.5442V31.0068V23.9L168.604 24.1039H172.95V23.9093C172.95 18.6278 172.792 13.4297 172.755 8.28724Z" fill="#2D1A47"/>
<path d="M162.359 13.9301V16.0242H162.952V13.9301C162.936 13.7437 162.96 13.556 163.021 13.3791C163.081 13.2021 163.178 13.0397 163.305 12.9021C163.431 12.7644 163.585 12.6546 163.757 12.5794C163.928 12.5042 164.113 12.4654 164.3 12.4654C164.487 12.4654 164.672 12.5042 164.843 12.5794C165.015 12.6546 165.169 12.7644 165.295 12.9021C165.422 13.0397 165.519 13.2021 165.58 13.3791C165.64 13.556 165.664 13.7437 165.648 13.9301V16.0242H166.241V13.9301C166.26 13.6639 166.223 13.3968 166.134 13.1453C166.045 12.8938 165.905 12.6634 165.723 12.4683C165.541 12.2732 165.32 12.1177 165.076 12.0113C164.831 11.905 164.567 11.8501 164.3 11.8501C164.033 11.8501 163.769 11.905 163.525 12.0113C163.28 12.1177 163.06 12.2732 162.878 12.4683C162.695 12.6634 162.555 12.8938 162.466 13.1453C162.377 13.3968 162.34 13.6639 162.359 13.9301V13.9301Z" fill="#2D1A47"/>
<path d="M166.232 14.4766L165.648 14.5044V16.024H166.232V14.4766Z" fill="#2D1A47"/>
<path d="M162.359 14.6342V16.0241H162.952V14.6064L162.359 14.6342Z" fill="#2D1A47"/>
<path d="M161.608 15.2554H166.992V19.7307H161.608V15.2554Z" fill="#2D1A47"/>
<path d="M153.01 14.2451C153.376 14.9544 153.851 15.6016 154.418 16.1631C154.988 16.7275 155.645 17.1968 156.364 17.553C155.992 16.84 155.507 16.1922 154.928 15.635C154.37 15.0688 153.722 14.5992 153.01 14.2451Z" fill="#2D1A47"/>
<path d="M156.364 14.2451C155.638 14.6169 154.98 15.1087 154.418 15.6998C153.844 16.26 153.363 16.9073 152.991 17.6178C153.705 17.251 154.353 16.7688 154.909 16.1909C155.498 15.6267 155.989 14.9693 156.364 14.2451Z" fill="#2D1A47"/>
<path d="M152.324 15.913C153.088 16.1566 153.886 16.2755 154.687 16.2651C155.489 16.28 156.287 16.161 157.05 15.913C156.287 15.6679 155.488 15.552 154.687 15.5702C153.886 15.5561 153.088 15.6718 152.324 15.913Z" fill="#2D1A47"/>
<path d="M154.687 13.5503C154.218 15.0905 154.218 16.7356 154.687 18.2758C154.932 17.5128 155.048 16.7143 155.03 15.9131C155.044 15.1121 154.928 14.3142 154.687 13.5503V13.5503Z" fill="#2D1A47"/>
<path d="M144.856 14.2451C145.221 14.9596 145.704 15.6079 146.283 16.1631C146.841 16.7394 147.489 17.2213 148.201 17.59C147.829 16.8795 147.348 16.2322 146.774 15.672C146.219 15.0927 145.57 14.6104 144.856 14.2451V14.2451Z" fill="#2D1A47"/>
<path d="M148.201 14.2451C146.783 15.0086 145.62 16.1717 144.856 17.59C146.274 16.8265 147.437 15.6635 148.201 14.2451V14.2451Z" fill="#2D1A47"/>
<path d="M144.161 15.913C144.924 16.1566 145.722 16.2755 146.524 16.2651C147.325 16.28 148.124 16.161 148.886 15.913C148.123 15.6679 147.325 15.552 146.524 15.5702C145.723 15.5561 144.925 15.6718 144.161 15.913Z" fill="#2D1A47"/>
<path d="M146.524 13.5503C146.283 14.3142 146.167 15.1121 146.181 15.9131C146.163 16.7143 146.279 17.5128 146.524 18.2758C146.772 17.5133 146.891 16.7147 146.876 15.9131C146.886 15.1117 146.767 14.3138 146.524 13.5503V13.5503Z" fill="#2D1A47"/>
<path d="M136.693 14.2451C137.058 14.9596 137.541 15.6079 138.12 16.1631C138.68 16.7369 139.327 17.2185 140.038 17.59C139.669 16.8777 139.187 16.23 138.611 15.672C138.056 15.0927 137.407 14.6104 136.693 14.2451V14.2451Z" fill="#2D1A47"/>
<path d="M140.038 14.2451C138.619 15.0086 137.456 16.1717 136.693 17.59C138.111 16.8265 139.274 15.6635 140.038 14.2451V14.2451Z" fill="#2D1A47"/>
<path d="M135.998 15.9129C136.761 16.1564 137.559 16.2753 138.361 16.265C139.165 16.2793 139.967 16.1604 140.733 15.9129C139.966 15.6684 139.165 15.5526 138.361 15.5701C137.56 15.5559 136.762 15.6717 135.998 15.9129Z" fill="#2D1A47"/>
<path d="M138.361 13.5503C137.905 15.0925 137.905 16.7336 138.361 18.2758C138.83 16.7356 138.83 15.0905 138.361 13.5503V13.5503Z" fill="#2D1A47"/>
<path d="M128.53 14.2451C128.899 14.9574 129.38 15.6052 129.957 16.1631C130.517 16.7369 131.164 17.2185 131.875 17.59C131.506 16.8777 131.024 16.23 130.448 15.672C129.893 15.0927 129.244 14.6104 128.53 14.2451Z" fill="#2D1A47"/>
<path d="M131.875 14.2451C130.456 15.0086 129.293 16.1717 128.53 17.59C129.24 17.2185 129.888 16.7369 130.448 16.1631C131.024 15.6052 131.506 14.9574 131.875 14.2451V14.2451Z" fill="#2D1A47"/>
<path d="M127.835 15.913C128.598 16.1566 129.396 16.2755 130.198 16.2651C131.002 16.28 131.804 16.161 132.57 15.913C131.803 15.6679 131.002 15.552 130.198 15.5702C129.397 15.5561 128.599 15.6718 127.835 15.913V15.913Z" fill="#2D1A47"/>
<path d="M130.198 13.5503C129.742 15.0925 129.742 16.7336 130.198 18.2758C130.667 16.7356 130.667 15.0905 130.198 13.5503V13.5503Z" fill="#2D1A47"/>
<path d="M120.367 14.2451C120.735 14.9574 121.217 15.6052 121.794 16.1631C122.354 16.7369 123.001 17.2185 123.712 17.59C123.343 16.8777 122.861 16.23 122.285 15.672C121.73 15.0927 121.081 14.6104 120.367 14.2451V14.2451Z" fill="#2D1A47"/>
<path d="M123.712 14.2451C122.997 14.6104 122.349 15.0927 121.794 15.672C121.217 16.23 120.735 16.8777 120.367 17.59C121.077 17.2185 121.725 16.7369 122.285 16.1631C122.861 15.6052 123.343 14.9574 123.712 14.2451V14.2451Z" fill="#2D1A47"/>
<path d="M119.672 15.913C120.438 16.1572 121.239 16.2761 122.044 16.2651C122.845 16.28 123.644 16.161 124.406 15.913C123.644 15.6679 122.845 15.552 122.044 15.5702C121.24 15.556 120.439 15.6718 119.672 15.913V15.913Z" fill="#2D1A47"/>
<path d="M122.044 13.5503C121.575 15.0905 121.575 16.7356 122.044 18.2758C122.499 16.7336 122.499 15.0925 122.044 13.5503V13.5503Z" fill="#2D1A47"/>
<path d="M237.893 196.53L291.403 239.672H288.382L226.589 196.53H237.893Z" fill="#F5F6FF"/>
<path d="M232.871 196.53L259.306 239.672H256.295L223.883 196.53H232.871Z" fill="#F5F6FF"/>
<path d="M219.908 196.53L193.473 239.672H196.485L228.887 196.53H219.908Z" fill="#F5F6FF"/>
<path d="M215.285 196.53L161.784 239.672H164.796L226.589 196.53H215.285Z" fill="#F5F6FF"/>
<path d="M125.991 180.704V168.084L199.459 165.073L238.273 61.4541H327.196L295.73 180.704L220.566 201.811H215.85L125.991 180.704Z" fill="#455A64"/>
<path opacity="0.1" d="M327.196 61.4541H317.023L284.24 170.16L217.74 188.997L125.991 168.084V180.704L215.85 201.811H220.566L295.73 180.704L327.196 61.4541Z" fill="black"/>
<path d="M165.991 259.296C168.233 258.435 218.667 217.119 219.593 214.33C219.955 213.273 214.367 205.573 207.344 196.465C205.834 194.501 204.249 192.481 202.637 190.433C192.185 177.146 180.779 163.294 180.779 163.294L146.959 190.822L169.753 217.202L174.756 222.993C174.756 222.993 162.516 247.455 161.831 250.623C161.145 253.792 163.749 260.149 165.991 259.296Z" fill="#AD6359"/>
<path d="M165.991 259.297C168.233 258.435 218.667 217.119 219.593 214.33C220.029 213.033 211.68 201.942 202.637 190.434L169.753 217.221L174.756 223.012C174.756 223.012 162.516 247.473 161.831 250.642C161.145 253.811 163.749 260.149 165.991 259.297Z" fill="#F5F6FF"/>
<path d="M165.991 259.296C168.233 258.435 218.667 217.119 219.593 214.33C219.955 213.273 214.367 205.574 207.344 196.465L174.756 223.012C174.756 223.012 162.516 247.473 161.831 250.642C161.145 253.811 163.749 260.149 165.991 259.296Z" fill="#1DA1F3"/>
<path d="M165.055 256.683C173.394 249.548 207.427 221.557 216.165 215.136C216.23 215.08 216.267 215.136 216.165 215.182C208.159 222.437 173.876 250.123 165.176 256.822C164.99 256.961 164.888 256.831 165.055 256.683Z" fill="#2D1A47"/>
<path d="M163.591 246.167C164.511 245.373 165.585 244.778 166.746 244.421C167.907 244.063 169.13 243.951 170.337 244.091C172.501 244.329 174.492 245.391 175.896 247.056C175.896 247.102 175.84 247.186 175.794 247.139C174.137 245.698 172.055 244.834 169.864 244.679C167.673 244.523 165.491 245.085 163.647 246.278C163.639 246.285 163.63 246.29 163.621 246.293C163.611 246.296 163.601 246.296 163.591 246.294C163.581 246.293 163.572 246.288 163.563 246.282C163.555 246.276 163.549 246.269 163.544 246.259C163.54 246.25 163.537 246.24 163.537 246.23C163.537 246.22 163.54 246.21 163.544 246.201C163.549 246.192 163.556 246.184 163.564 246.178C163.572 246.172 163.581 246.168 163.591 246.167V246.167Z" fill="#2D1A47"/>
<path d="M172.162 226.542C175.507 223.716 180.408 221.696 184.782 222.743C184.949 222.789 184.884 223.021 184.782 223.058C180.553 223.926 176.43 225.25 172.486 227.005C172.425 227.048 172.349 227.065 172.275 227.052C172.201 227.039 172.135 226.997 172.092 226.936C172.049 226.874 172.033 226.798 172.046 226.724C172.059 226.651 172.1 226.585 172.162 226.542V226.542Z" fill="#2D1A47"/>
<path d="M170.383 229.739C173.728 226.959 178.629 224.893 183.003 225.94C183.17 225.94 183.114 226.218 183.003 226.255C178.774 227.124 174.652 228.448 170.707 230.202C170.646 230.245 170.57 230.262 170.496 230.249C170.422 230.236 170.356 230.194 170.313 230.133C170.27 230.071 170.254 229.995 170.267 229.921C170.28 229.847 170.322 229.782 170.383 229.739Z" fill="#2D1A47"/>
<path d="M168.604 232.861C171.949 230.035 176.85 228.015 181.224 229.062C181.391 229.062 181.335 229.34 181.224 229.377C176.995 230.247 172.873 231.57 168.928 233.325C168.867 233.368 168.791 233.384 168.717 233.371C168.643 233.358 168.577 233.316 168.534 233.255C168.491 233.194 168.475 233.118 168.488 233.044C168.501 232.97 168.542 232.904 168.604 232.861V232.861Z" fill="#2D1A47"/>
<path d="M166.825 236.012C170.17 233.232 175.071 231.175 179.445 232.222C179.612 232.222 179.556 232.5 179.445 232.528C175.217 233.405 171.095 234.731 167.149 236.484C167.087 236.527 167.009 236.544 166.935 236.53C166.86 236.516 166.794 236.473 166.751 236.41C166.708 236.347 166.691 236.27 166.705 236.195C166.719 236.121 166.762 236.055 166.825 236.012V236.012Z" fill="#2D1A47"/>
<path d="M207.427 208.863C211.236 205.768 216.054 211.643 212.246 214.784C208.437 217.925 203.619 211.967 207.427 208.863Z" fill="white"/>
<path d="M161.108 220.473C161.655 217.647 164.953 217.267 167.214 217.878C171.093 218.989 174.609 221.105 177.406 224.012C177.422 224.021 177.434 224.034 177.443 224.049C177.452 224.065 177.457 224.082 177.457 224.1C177.457 224.118 177.452 224.136 177.443 224.151C177.434 224.166 177.422 224.179 177.406 224.188C177.445 224.263 177.467 224.346 177.468 224.43C177.469 224.514 177.45 224.598 177.413 224.674C177.376 224.749 177.322 224.815 177.255 224.866C177.188 224.917 177.109 224.952 177.026 224.967C173.246 225.272 169.252 226.069 165.5 225.207C163.248 224.744 160.589 223.178 161.108 220.473ZM171.152 224.262C173.005 224.151 174.858 223.957 176.711 223.92C174.766 222.668 172.759 221.514 170.698 220.463C169.69 219.971 168.65 219.547 167.585 219.194C165.935 218.684 160.302 218.573 162.952 222.53C164.462 224.753 168.937 224.42 171.152 224.299V224.262Z" fill="#2D1A47"/>
<path d="M186.848 218.416C184.272 221.279 180.547 222.928 177.286 224.902C177.21 224.937 177.127 224.955 177.043 224.952C176.959 224.95 176.877 224.928 176.804 224.889C176.73 224.849 176.666 224.793 176.618 224.724C176.57 224.656 176.538 224.577 176.526 224.494C176.452 224.494 176.387 224.448 176.406 224.355C177.013 220.376 178.659 216.627 181.177 213.486C182.678 211.633 185.588 210.095 187.663 212.087C189.739 214.079 188.321 216.766 186.848 218.416ZM187.321 214.811C187.228 210.03 182.688 213.366 181.631 214.737C180.952 215.641 180.333 216.588 179.778 217.573C178.629 219.593 177.795 221.733 176.85 223.855C178.398 222.808 180.019 221.909 181.604 220.927C183.485 219.75 187.33 217.443 187.284 214.811H187.321Z" fill="#2D1A47"/>
<path d="M111.796 139.092C114.353 156.808 158.69 207.491 163.814 213.301C164.574 214.153 164.981 214.626 164.981 214.626L200.812 186.393L200.386 185.856L168.03 144.549L263.022 142.835L226.608 115.223C226.608 115.223 223.707 116.947 217.611 116.15C196.614 113.37 149.267 107.116 138.12 107.699C123.795 108.459 109.498 122.84 111.796 139.092Z" fill="#2D1A47"/>
<path d="M156.457 129.187C157.654 130.506 158.768 131.898 159.792 133.357C160.932 134.821 162.099 136.266 163.239 137.73V137.776C163.035 137.341 162.841 136.915 162.628 136.488C161.896 135.024 161.312 133.514 160.459 132.115C160.454 132.106 160.45 132.097 160.448 132.087C160.447 132.077 160.447 132.067 160.449 132.057C160.451 132.047 160.455 132.038 160.461 132.029C160.467 132.021 160.474 132.014 160.483 132.008C160.491 132.003 160.501 131.999 160.511 131.997C160.521 131.996 160.531 131.996 160.541 131.998C160.551 132 160.56 132.004 160.568 132.01C160.577 132.016 160.584 132.023 160.589 132.032C161.469 133.421 162.442 134.737 163.239 136.192C163.591 136.878 163.934 137.572 164.249 138.277C164.416 138.666 164.592 139.055 164.749 139.453C164.836 139.636 164.907 139.825 164.963 140.019C165.481 140.695 165.982 141.381 166.473 142.076C167.566 143.614 168.53 145.245 169.642 146.773C169.697 146.847 169.568 146.931 169.503 146.857C168.391 145.421 167.14 144.077 166.01 142.659C164.879 141.242 163.758 139.713 162.674 138.212C161.59 136.711 160.58 135.265 159.524 133.792C158.367 132.351 157.302 130.837 156.336 129.261C156.326 129.245 156.323 129.226 156.328 129.208C156.332 129.189 156.343 129.174 156.359 129.164C156.375 129.154 156.395 129.151 156.413 129.155C156.431 129.16 156.447 129.171 156.457 129.187Z" fill="#190E27"/>
<path d="M160.089 206.306C162.127 204.527 164.314 202.887 166.464 201.237C168.613 199.588 170.781 197.929 172.95 196.299C177.295 193.028 181.632 189.729 186.024 186.523C188.433 184.753 190.86 183.021 193.371 181.381C193.483 181.316 193.603 181.492 193.501 181.575C189.369 185.106 184.977 188.321 180.64 191.582C176.304 194.844 171.921 198.068 167.52 201.311C165.111 203.063 162.711 204.869 160.2 206.472C160.098 206.574 159.978 206.38 160.089 206.306Z" fill="#190E27"/>
<path d="M237.198 68.4407C227.339 87.2038 215.646 107.116 204.564 109.998C194.029 112.777 168.947 86.4811 164.722 77.7528C163.248 74.7507 183.105 61.5841 185.922 63.7893C191.212 67.9681 202.813 81.1811 204.453 80.8475C206.093 80.514 220.205 67.9867 232.871 57.4515C240.589 51.0674 244.018 55.4409 237.198 68.4407Z" fill="#AD6359"/>
<path d="M182.308 33.305L189.897 59.8698C189.997 60.0139 190.055 60.1837 190.063 60.3593C190.071 60.535 190.029 60.7092 189.941 60.8618C189.854 61.0143 189.725 61.1388 189.569 61.2208C189.414 61.3027 189.238 61.3387 189.063 61.3245L175.247 61.76C174.824 61.7406 174.415 61.6014 174.067 61.3587C173.719 61.116 173.447 60.7796 173.283 60.3887L165.695 33.8238C165.379 33.0455 165.759 32.3969 166.528 32.3784L180.362 31.9521C180.781 31.9723 181.185 32.1099 181.529 32.3491C181.873 32.5884 182.143 32.9196 182.308 33.305V33.305Z" fill="#A6A6A6"/>
<path d="M180.668 33.3513L188.257 59.9162C188.562 60.6945 188.192 61.3431 187.423 61.3709L173.598 61.8064C173.176 61.7852 172.769 61.6453 172.423 61.4026C172.077 61.16 171.807 60.8246 171.643 60.4351L164.055 33.8702C163.74 33.0919 164.119 32.4433 164.888 32.4247L178.704 31.9893C179.126 32.0079 179.535 32.1457 179.882 32.3867C180.23 32.6277 180.502 32.9621 180.668 33.3513V33.3513Z" fill="#F5F6FF"/>
<path d="M176.915 34.6948C176.913 34.8562 176.944 35.0163 177.006 35.1652C177.068 35.3142 177.161 35.4487 177.277 35.5605C177.393 35.6723 177.532 35.7589 177.683 35.8149C177.834 35.871 177.996 35.8954 178.157 35.8864C178.318 35.8775 178.476 35.8355 178.62 35.7631C178.764 35.6907 178.892 35.5893 178.995 35.4654C179.099 35.3415 179.176 35.1976 179.221 35.0427C179.266 34.8878 179.279 34.7252 179.259 34.565C179.262 34.4036 179.231 34.2435 179.169 34.0946C179.106 33.9456 179.014 33.8111 178.898 33.6993C178.781 33.5876 178.643 33.501 178.492 33.4449C178.34 33.3888 178.179 33.3645 178.018 33.3734C177.857 33.3823 177.699 33.4243 177.555 33.4967C177.41 33.5691 177.283 33.6705 177.179 33.7944C177.076 33.9184 176.999 34.0622 176.954 34.2171C176.908 34.372 176.895 34.5346 176.915 34.6948Z" fill="#455A64"/>
<path d="M158.3 62.7143C157.133 54.9959 158.022 52.837 153.575 46.8421C150.656 42.9042 151.916 39.3554 156.503 41.5606C164.008 45.1835 167.622 54.8292 167.89 58.5355L158.3 62.7143Z" fill="#AD6359"/>
<path d="M168.261 82.951C168.261 82.951 161.052 74.5377 158.995 66.4302C157.578 60.8244 155.845 48.2878 168.094 36.1312C171.004 33.2496 177.184 31.2018 174.154 37.6323C171.995 42.2003 169.243 44.4518 168.474 47.3335C168.474 47.3335 176.656 45.6656 179.426 48.6863C181.853 51.3317 184.089 54.1463 186.116 57.1088C185.657 57.602 185.168 58.0662 184.652 58.4987C184.652 58.4987 186.978 61.5749 186.505 67.4123L168.261 82.951Z" fill="#AD6359"/>
<path d="M158.495 60.8706C159.866 58.165 162.868 52.4851 166.936 48.6862C171.458 44.4795 181.307 37.5673 184.383 40.9493C186.635 43.4232 183.105 46.379 183.105 46.379C183.105 46.379 187.738 44.3869 189.331 47.0647C190.74 49.5108 187.877 51.6327 187.877 51.6327C187.877 51.6327 190.916 50.9192 191.824 53.5321C192.917 56.6732 186.357 57.6647 184.717 61.8064C184.346 62.733 158.495 60.8706 158.495 60.8706Z" fill="#AD6359"/>
<path d="M170.596 54.2084C173.829 50.3869 178.151 47.6426 182.984 46.3418C183.114 46.3418 183.198 46.3974 183.096 46.4437C178.638 48.5278 174.452 51.1511 170.633 54.2547C170.633 54.2547 170.578 54.2362 170.596 54.2084Z" fill="#2D1A47"/>
<path d="M174.979 58.6469C176.656 56.7937 182.252 52.5963 187.821 51.54C187.941 51.54 188.025 51.5956 187.914 51.642C183.363 53.5011 179.037 55.8664 175.016 58.6932C175.016 58.6932 174.96 58.6747 174.979 58.6469Z" fill="#2D1A47"/>
<path d="M192.732 67.2084L172.023 89.1404C172.023 89.1404 193.863 113.63 204.12 111.072C214.377 108.515 233.77 80.7457 239.987 63.1222C244.296 50.91 237.532 52.8836 230.397 58.86C223.263 64.8364 204.639 79.6801 203.823 79.467C203.008 79.2539 192.732 67.2084 192.732 67.2084Z" fill="#F5F6FF"/>
<path opacity="0.1" d="M199.737 110.85C201.164 111.3 202.682 111.377 204.147 111.072C214.404 108.515 233.798 80.7549 240.015 63.1222C242.85 55.0888 240.867 53.1986 237.143 54.57C225.968 71.1464 211.097 93.3656 199.737 110.85Z" fill="black"/>
<path d="M178.759 92.791C181.752 89.7611 193.585 76.9373 195.919 74.0001C196.086 73.7962 195.994 73.6387 195.799 73.8333C186.607 82.6821 181.428 89.5851 178.639 92.6706C178.574 92.7447 178.685 92.8651 178.759 92.791Z" fill="#2D1A47"/>
<path d="M214.191 127.816C214.191 127.816 282.1 140.232 282.452 139.861C282.804 139.49 274.975 66.0409 251.931 53.6248C248.224 51.6604 239.45 50.5022 235.688 54.3383C224.958 65.2533 213.302 126.824 214.191 127.816Z" fill="#F5F6FF"/>
<path d="M214.905 121.728L281.776 133.199C281.525 131.179 281.192 128.77 280.775 126.055L216.137 114.936C215.637 117.53 215.229 119.819 214.905 121.728Z" fill="#F5F6FF"/>
<path d="M216.851 111.387L280.173 122.256C279.978 121.051 279.765 119.819 279.533 118.55L217.583 107.922C217.323 109.089 217.082 110.257 216.851 111.387Z" fill="#F5F6FF"/>
<path d="M238.69 65.4851C242.48 65.4851 247.307 58.4987 248.66 53.4396C248.753 53.0968 247.511 50.002 246.177 46.166C245.38 43.8403 244.546 41.2274 243.962 38.7534L229.563 46.166C231.161 49.0058 232.406 52.0304 233.27 55.1723C233.351 55.5095 233.397 55.8541 233.409 56.2008C233.409 56.2471 233.409 56.3028 233.409 56.3676C233.603 58.4061 235.03 65.4944 238.69 65.4851Z" fill="#AD6359"/>
<path d="M229.554 46.2771C231.153 49.1164 232.398 52.141 233.26 55.2834C233.342 55.6206 233.388 55.9652 233.399 56.3119C233.395 56.3643 233.395 56.417 233.399 56.4694C233.939 56.4267 234.473 56.3305 234.993 56.1822C243.842 53.8287 243.693 42.2002 243.48 39.0776L229.554 46.2771Z" fill="#2D1A47"/>
<path d="M244.574 22.0288C246.881 27.3844 245.723 43.7291 242.174 47.7412C237.022 53.5508 227.71 55.0703 222.558 48.6677C217.555 42.4782 219.445 21.2041 223.485 17.47C229.471 11.994 241.173 14.1066 244.574 22.0288Z" fill="#AD6359"/>
<path d="M229.665 33.7867C229.665 33.7404 229.739 33.8423 229.739 33.8886C229.6 34.982 229.628 36.2514 230.583 36.6683C230.583 36.6683 230.583 36.7425 230.583 36.7332C229.378 36.483 229.359 34.7967 229.665 33.7867Z" fill="#2D1A47"/>
<path d="M230.74 32.7399C232.51 32.7399 232.324 36.2979 230.684 36.2701C229.044 36.2423 229.257 32.7121 230.74 32.7399Z" fill="#2D1A47"/>
<path d="M223.235 33.4346C223.235 33.4346 223.142 33.4809 223.142 33.5272C223.142 34.6206 222.911 35.8715 221.901 36.1865V36.2514C223.124 36.1402 223.383 34.4723 223.235 33.4346Z" fill="#2D1A47"/>
<path d="M222.317 32.2396C220.566 32.0172 220.242 35.5382 221.863 35.742C223.485 35.9459 223.781 32.4342 222.317 32.2396Z" fill="#2D1A47"/>
<path d="M232.25 31.1923C231.793 31.0302 231.345 30.8446 230.907 30.6364C230.405 30.5136 229.96 30.2225 229.647 29.8117C229.563 29.6619 229.534 29.4876 229.564 29.3186C229.594 29.1496 229.683 28.9964 229.813 28.8852C230.087 28.7082 230.402 28.6065 230.728 28.5902C231.053 28.5739 231.377 28.6437 231.667 28.7925C232.31 29.009 232.849 29.4586 233.177 30.0526C233.251 30.191 233.282 30.3481 233.267 30.5042C233.252 30.6603 233.191 30.8084 233.092 30.9301C232.993 31.0518 232.86 31.1416 232.711 31.1882C232.561 31.2348 232.401 31.2363 232.25 31.1923Z" fill="#2D1A47"/>
<path d="M221.048 30.3864C221.539 30.3308 221.975 30.2011 222.466 30.0991C222.982 30.0641 223.473 29.8625 223.865 29.5247C223.97 29.3932 224.028 29.2298 224.028 29.0614C224.028 28.893 223.97 28.7296 223.865 28.5981C223.626 28.3615 223.328 28.1942 223.001 28.1143C222.675 28.0343 222.333 28.0446 222.012 28.1441C221.347 28.236 220.739 28.5651 220.298 29.0706C220.185 29.1951 220.114 29.3521 220.096 29.5191C220.078 29.6861 220.113 29.8547 220.196 30.0006C220.279 30.1466 220.406 30.2624 220.56 30.3317C220.713 30.401 220.884 30.4201 221.048 30.3864Z" fill="#2D1A47"/>
<path d="M229.1 40.3007C228.8 40.719 228.416 41.0702 227.972 41.3318C227.529 41.5934 227.036 41.7598 226.524 41.8202C226.079 41.8855 225.626 41.8855 225.181 41.8202C225.015 41.8037 224.85 41.7727 224.69 41.7276C224.631 41.7153 224.579 41.6842 224.54 41.6389C224.502 41.5936 224.479 41.5368 224.476 41.4774V41.4774L224.671 39.1424C224.356 39.2814 222.753 39.9022 222.818 39.4575C223.114 35.6637 223.797 31.9102 224.856 28.2552C224.859 28.2418 224.865 28.2292 224.873 28.2179C224.881 28.2067 224.891 28.1972 224.903 28.1899C224.914 28.1826 224.927 28.1776 224.941 28.1753C224.954 28.173 224.968 28.1734 224.981 28.1764C224.995 28.1795 225.007 28.1851 225.019 28.1931C225.03 28.201 225.039 28.211 225.047 28.2227C225.054 28.2343 225.059 28.2472 225.061 28.2607C225.064 28.2743 225.063 28.2881 225.06 28.3015C224.801 31.804 223.93 35.2416 223.615 38.7625C224.187 38.5318 224.789 38.3821 225.403 38.3178C225.468 38.3178 225.088 41.1809 225.097 41.2087C225.784 41.3128 226.485 41.2779 227.159 41.106C227.832 40.9341 228.464 40.6287 229.017 40.208C229.082 40.1339 229.165 40.2173 229.1 40.3007Z" fill="#2D1A47"/>
<path d="M225.533 41.6443C226.014 42.2795 226.653 42.7778 227.386 43.0898C227.792 43.2523 228.24 43.2815 228.664 43.1731C229.591 42.9415 229.591 42.0983 229.443 41.3756C229.35 40.9906 229.213 40.6175 229.035 40.2637C228.043 41.0835 226.817 41.567 225.533 41.6443V41.6443Z" fill="#2D1A47"/>
<path d="M227.386 43.099C227.792 43.2616 228.24 43.2908 228.664 43.1824C229.591 42.9507 229.591 42.1075 229.443 41.3848C228.957 41.3973 228.49 41.5734 228.116 41.8844C227.743 42.1955 227.486 42.6234 227.386 43.099V43.099Z" fill="#FF9CBD"/>
<path d="M246.084 36.7889C241.822 37.1225 239.598 32.0541 240.524 27.9586C240.524 27.9586 229.211 29.5431 228.599 20.4534C227.699 21.7102 226.528 22.7488 225.173 23.4929C223.818 24.237 222.313 24.6675 220.77 24.7527L220.019 27.9494C218.852 27.6251 217.592 24.3265 220.418 21.7135C220.418 21.7135 220.575 17.1826 223.902 14.4307C224.8 13.6434 225.906 13.132 227.088 12.9578C228.27 12.7836 229.476 12.954 230.564 13.4485C232.526 12.0085 234.971 11.3873 237.383 11.7158C238.642 11.9074 239.836 12.3977 240.866 13.1457C241.896 13.8937 242.732 14.8776 243.304 16.0151C243.304 16.0151 248.928 17.0436 249.911 21.0279C250.215 22.1514 250.279 23.3268 250.097 24.4767C249.915 25.6265 249.491 26.7248 248.854 27.6992C248.854 27.6992 250.281 29.2558 249.586 32.6656C249.142 34.8524 247.362 36.687 246.084 36.7889Z" fill="#2D1A47"/>
<path d="M228.841 19.6382C228.766 20.3776 228.766 21.1226 228.841 21.862C228.898 22.5927 229.041 23.3141 229.267 24.0116C229.712 25.3867 230.658 26.5442 231.917 27.2546C233.213 27.9189 234.648 28.2681 236.105 28.2739C236.837 28.2739 237.578 28.2739 238.319 28.1997C239.061 28.1256 239.793 28.0237 240.534 27.9588C239.811 28.1349 239.079 28.2924 238.347 28.4592C237.615 28.626 236.855 28.5982 236.105 28.6723C234.568 28.7449 233.038 28.4261 231.657 27.7457C230.3 26.9614 229.303 25.6781 228.878 24.1691C228.484 22.686 228.471 21.1276 228.841 19.6382V19.6382Z" fill="#2D1A47"/>
<path d="M223.04 24.9659C224.276 24.5442 225.431 23.9178 226.459 23.1128C226.961 22.707 227.406 22.2365 227.784 21.7137C228.156 21.1755 228.467 20.5974 228.711 19.9902C228.653 20.6747 228.447 21.3385 228.108 21.936C227.778 22.5479 227.327 23.0868 226.783 23.5205C226.25 23.9527 225.653 24.2996 225.014 24.549C224.383 24.7958 223.716 24.9366 223.04 24.9659V24.9659Z" fill="#2D1A47"/>
<path d="M231.815 39.3094C232.705 39.2655 233.565 38.9726 234.297 38.4642C235.029 37.9558 235.604 37.2521 235.955 36.4333C236.307 35.6145 236.423 34.7134 236.288 33.8324C236.153 32.9514 235.774 32.1259 235.193 31.4498C234.612 30.7737 233.854 30.274 233.003 30.0077C232.153 29.7413 231.245 29.719 230.382 29.9432C229.519 30.1674 228.737 30.6291 228.124 31.2758C227.511 31.9226 227.091 32.7284 226.913 33.6017C226.667 34.8372 226.918 36.12 227.612 37.1715C228.306 38.2229 229.387 38.9579 230.62 39.2168C231.012 39.2986 231.414 39.3297 231.815 39.3094ZM231.379 30.4236C231.724 30.4053 232.07 30.4333 232.408 30.507C233.432 30.7217 234.336 31.3185 234.935 32.176C235.535 33.0336 235.785 34.0873 235.635 35.1229C235.485 36.1584 234.946 37.098 234.128 37.7502C233.31 38.4025 232.274 38.7185 231.231 38.6339C230.188 38.5494 229.217 38.0706 228.514 37.295C227.812 36.5195 227.432 35.5054 227.45 34.4592C227.469 33.4131 227.886 32.4134 228.616 31.6637C229.346 30.9139 230.334 30.4705 231.379 30.4236V30.4236Z" fill="#1DA1F3"/>
<path d="M220.909 38.5029C222.762 38.4102 224.291 36.4644 224.458 33.9905C224.568 32.8059 224.295 31.6172 223.68 30.5992C223.445 30.146 223.098 29.7608 222.671 29.4806C222.245 29.2005 221.753 29.0347 221.244 28.9993C220.735 28.964 220.226 29.0602 219.764 29.2787C219.303 29.4972 218.906 29.8307 218.611 30.2471C217.876 31.179 217.446 32.3145 217.379 33.4994C217.203 36.1216 218.648 38.3639 220.594 38.5029H220.909ZM220.965 29.6263H221.206C221.609 29.6739 221.995 29.8173 222.332 30.0445C222.669 30.2718 222.947 30.5764 223.142 30.9328C223.68 31.8403 223.919 32.8934 223.828 33.9441C223.67 36.2142 222.243 37.9747 220.64 37.8635C219.037 37.7524 217.861 35.8158 218.018 33.5457C218.069 32.4926 218.448 31.4819 219.102 30.6548C219.32 30.3572 219.599 30.1092 219.92 29.9271C220.241 29.7451 220.597 29.6331 220.965 29.5985V29.6263Z" fill="#1DA1F3"/>
<path d="M227.034 34.1573L227.479 33.7033C226.802 33.0454 225.19 32.1188 223.939 33.277L224.374 33.7403C225.486 32.7026 226.969 34.1017 227.034 34.1573Z" fill="#1DA1F3"/>
<path d="M247.187 36.9463L247.77 36.6868C247.65 36.4181 246.575 34.0183 245.167 33.6847C243.758 33.3512 236.234 33.4901 235.901 33.4994V34.1387C238.95 34.0306 242.003 34.0863 245.046 34.3055C245.954 34.5279 246.899 36.2791 247.187 36.9463Z" fill="#1DA1F3"/>
<path d="M242.063 36.5017C242.063 36.5017 245.222 30.9422 247.696 32.0634C250.17 33.1846 248.113 40.9215 245.445 42.2001C245.115 42.3933 244.748 42.5163 244.368 42.5615C243.989 42.6066 243.604 42.5729 243.238 42.4625C242.871 42.352 242.532 42.1672 242.241 41.9196C241.949 41.6719 241.712 41.3669 241.544 41.0234L242.063 36.5017Z" fill="#AD6359"/>
<path d="M247.075 34.2778C247.075 34.2778 247.131 34.3334 247.075 34.352C245.222 35.2785 244.351 37.1965 243.805 39.1238C243.899 38.9193 244.036 38.7377 244.208 38.5919C244.38 38.446 244.581 38.3394 244.798 38.2794C245.015 38.2194 245.243 38.2075 245.465 38.2445C245.687 38.2815 245.898 38.3666 246.084 38.4938C246.094 38.4995 246.101 38.5077 246.107 38.5174C246.113 38.5271 246.115 38.5382 246.115 38.5493C246.115 38.5605 246.113 38.5715 246.107 38.5813C246.101 38.591 246.094 38.5992 246.084 38.6049C245.733 38.5264 245.367 38.5582 245.036 38.6959C244.704 38.8335 244.423 39.0704 244.231 39.374C243.916 39.8894 243.655 40.4359 243.452 41.0048C243.378 41.1808 243.063 41.116 243.11 40.9121V40.8658C242.813 38.4011 244.425 34.7689 247.075 34.2778Z" fill="#2D1A47"/>
<path d="M233.232 58.1647H233.279C233.436 61.2595 234.001 68.357 238.977 67.4305C240.945 66.8831 242.718 65.7911 244.092 64.2801C246.773 61.4503 249.012 58.233 250.735 54.7364C250.782 54.6531 250.893 54.7364 250.865 54.8106C250.265 56.6203 249.454 58.3527 248.447 59.9716C247.327 61.8456 245.955 63.5572 244.37 65.0584C242.859 66.4483 241.034 67.8382 238.903 68.1903C237.989 68.3457 237.05 68.1854 236.24 67.7357C235.43 67.286 234.797 66.5738 234.446 65.7163C233.455 63.329 233.04 60.7423 233.232 58.1647Z" fill="#2D1A47"/>
<path d="M259.547 59.4529C270.147 68.7186 297.324 105.318 290.652 113.148C283.981 120.977 242.035 115.548 229.98 111.221C226.385 109.933 237.263 87.2779 241.229 86.3791C244.546 85.6193 262.457 91.744 262.855 90.7062C263.253 89.6684 259.76 81.5887 254.145 67.1156C247.668 50.4373 254.859 55.3481 259.547 59.4529Z" fill="#AD6359"/>
<path d="M223.531 81.1904C215.09 80.8661 212.876 82.117 205.926 78.0215C201.349 75.3622 197.68 77.1413 200.608 81.8112C205.398 89.4369 216.202 92.1425 220.214 92.0035L223.531 81.1904Z" fill="#AD6359"/>
<path d="M246.436 86.9813C246.436 86.9813 236.568 82.7283 227.618 81.4867C221.419 80.6343 207.733 80.2729 196.114 94.9035C193.334 98.3782 191.907 105.272 198.458 101.232C203.091 98.3689 205.194 95.1444 208.206 93.9677C208.206 93.9677 207.39 102.955 210.986 105.578C214.122 107.867 217.417 109.932 220.844 111.758C221.319 111.205 221.758 110.623 222.16 110.016C222.16 110.016 225.737 112.147 231.954 110.942L246.436 86.9813Z" fill="#AD6359"/>
<path d="M221.567 81.626C218.787 83.4235 213.08 87.3337 209.522 92.1611C205.537 97.526 199.329 108.941 203.295 111.842C206.223 113.973 208.984 109.822 208.984 109.822C208.984 109.822 207.409 115.075 210.476 116.419C213.256 117.642 215.211 114.306 215.211 114.306C215.211 114.306 214.794 117.66 217.713 118.328C221.224 119.124 221.502 111.962 225.755 109.692C226.691 109.182 221.567 81.626 221.567 81.626Z" fill="#AD6359"/>
<path d="M215.869 95.3853C212.15 99.323 209.719 104.301 208.901 109.654C208.901 109.793 208.984 109.877 209.021 109.756C210.733 104.718 213.048 99.9052 215.915 95.4223C215.915 95.4223 215.887 95.3853 215.869 95.3853Z" fill="#2D1A47"/>
<path d="M221.132 99.6108C219.334 101.631 215.498 108.145 215.025 114.26C215.025 114.399 215.118 114.482 215.155 114.353C216.604 109.237 218.625 104.302 221.178 99.6386C221.178 99.6386 221.187 99.583 221.132 99.6108Z" fill="#2D1A47"/>
<path d="M208.215 93.9214C205.583 94.9963 203.953 96.4973 201.822 98.3227C200.781 99.2365 199.689 100.09 198.551 100.88C197.504 101.593 195.966 102.659 194.696 101.807C194.394 101.542 194.168 101.202 194.041 100.821C193.914 100.439 193.891 100.031 193.974 99.6384C194.197 98.5051 194.598 97.4139 195.16 96.4047C195.16 96.4047 195.113 96.3305 195.095 96.4047C194.541 97.3244 194.084 98.2995 193.733 99.3141C193.522 100.012 193.522 100.757 193.733 101.454C194.279 102.909 196.068 102.928 197.272 102.381C197.989 102.037 198.669 101.621 199.301 101.139C199.922 100.695 200.524 100.213 201.154 99.7311C202.359 98.7304 203.499 97.6648 204.685 96.6455C205.86 95.6842 207.098 94.802 208.391 94.0048C208.402 93.9815 208.403 93.9547 208.395 93.9304C208.386 93.9061 208.368 93.8862 208.345 93.8751C208.321 93.864 208.295 93.8627 208.27 93.8714C208.246 93.8801 208.226 93.8981 208.215 93.9214V93.9214Z" fill="#2D1A47"/>
<path d="M246.436 86.9813L236.096 115.9C236.096 115.9 288.558 122.256 292.088 112.898C295.619 103.539 272.186 70.5625 262.188 61.2875C250.596 50.5299 249.67 54.681 253.015 64.9011C256.508 75.6123 262.735 90.9749 262.735 90.9749L246.436 86.9813Z" fill="#F5F6FF"/>
<path d="M279.061 96.757C276.51 95.3565 273.863 94.1396 271.139 93.1155C268.431 92.1232 265.653 91.3335 262.827 90.7527C261.224 90.3914 259.612 90.1134 257.991 89.8262C257.991 89.8262 257.935 89.891 257.991 89.9003C260.813 90.5128 263.598 91.2893 266.33 92.226C269.066 93.1217 271.775 94.0699 274.456 95.0706C275.985 95.6451 277.477 96.2751 278.978 96.9237C279 96.9348 279.025 96.9366 279.049 96.9288C279.072 96.921 279.092 96.9041 279.103 96.882C279.114 96.8599 279.116 96.8343 279.108 96.8109C279.1 96.7874 279.083 96.768 279.061 96.757V96.757Z" fill="#2D1A47"/>
<path d="M246.566 86.8889C246.834 86.9353 261.326 90.1598 261.808 90.3266C261.734 90.1227 258.463 82.9139 257.981 81.8577L257.842 81.5426C257.536 81.0793 257.231 80.616 256.916 80.1435C256.601 79.6709 256.184 78.9297 255.822 78.2903L256.99 80.0601C257.166 80.3381 257.342 80.616 257.509 80.9033C257.184 80.1528 256.869 79.4022 256.582 78.6517C256.082 77.4472 255.655 76.2333 255.155 75.0195H255.22C256.147 77.1229 257.212 79.1891 258.176 81.2925C259.139 83.3958 262.809 91.1049 262.809 91.1049C262.809 91.1049 246.807 87.204 246.492 87.1021C246.463 87.0922 246.44 87.0716 246.427 87.0447C246.414 87.0177 246.412 86.9867 246.422 86.9584C246.432 86.9302 246.453 86.907 246.48 86.8939C246.506 86.8809 246.537 86.8791 246.566 86.8889V86.8889Z" fill="#2D1A47"/>
<path d="M247.427 104.985C248.567 101.76 249.67 98.4985 250.93 95.3389C251.643 93.5321 252.348 91.7253 253.07 89.9185C253.07 89.8536 253.219 89.9185 253.2 89.9185C252.19 93.1985 251.171 96.4879 250.003 99.7216C248.836 102.955 247.724 106.208 246.529 109.376C245.843 111.193 245.108 112.99 244.323 114.769C244.323 114.769 244.249 114.769 244.259 114.769C245.157 111.471 246.288 108.237 247.427 104.985Z" fill="#2D1A47"/>
<path d="M235.475 116.391C235.901 115.464 236.401 114.204 236.892 113.324C237.013 113.083 237.189 113.12 237.096 113.324C236.781 114.13 236.55 115.029 236.234 115.863C236.976 115.927 237.708 115.983 238.44 116.066L240.988 116.335C242.656 116.508 244.323 116.666 245.991 116.808C249.364 117.086 252.743 117.293 256.128 117.429C262.92 117.742 269.725 117.699 276.513 117.299C278.366 117.178 280.302 117.021 282.193 116.808C284.083 116.595 286.177 116.335 287.752 115.983C287.798 115.983 287.817 116.048 287.752 116.066C286.187 116.565 284.585 116.939 282.962 117.188C281.257 117.438 279.552 117.651 277.838 117.799C274.419 118.105 270.99 118.225 267.562 118.253C260.767 118.309 253.972 118.08 247.177 117.568C245.278 117.429 243.388 117.262 241.488 117.076L238.625 116.771C237.68 116.697 235.401 116.548 235.475 116.391Z" fill="#2D1A47"/>
<path d="M167.881 115.751H233.937V118.707H167.881V115.751Z" fill="#F5F6FF"/>
<path d="M167.881 115.751V118.707H212.783L210.522 115.751H167.881Z" fill="#A6A6A6"/>
<path d="M203.703 118.707H145.894L137.527 77.9194H195.336L203.703 118.707Z" fill="#A6A6A6"/>
<path d="M200.997 118.707H143.188L134.821 77.9194H192.63L200.997 118.707Z" fill="#F5F6FF"/>
<path d="M162.702 96.7939C162.638 97.7041 162.883 98.6093 163.397 99.3628C163.912 100.116 164.666 100.674 165.537 100.945C167.186 101.297 168.567 100.018 168.632 98.0819C168.68 97.1729 168.422 96.274 167.9 95.5284C167.378 94.7828 166.621 94.2335 165.75 93.9679C164.147 93.588 162.757 94.8759 162.702 96.7939Z" fill="white"/>
<path d="M33.2595 203.378C34.1212 205.62 75.6039 255.914 78.4021 256.841C79.4584 257.193 87.1397 251.578 96.2202 244.527C98.1845 243.007 100.204 241.423 102.243 239.801C115.493 229.303 129.308 217.86 129.308 217.86L101.604 184.133L75.3074 207.001L69.5256 212.023C69.5256 212.023 45.0826 199.866 41.9044 199.162C38.7263 198.458 32.3977 201.135 33.2595 203.378Z" fill="#AD6359"/>
<path d="M33.2592 203.377C34.1209 205.62 75.6037 255.914 78.4019 256.841C79.6899 257.258 90.7624 248.891 102.243 239.801L75.372 207L69.5902 212.022C69.5902 212.022 45.0823 199.866 41.9042 199.162C38.726 198.457 32.3975 201.135 33.2592 203.377Z" fill="#F5F6FF"/>
<path d="M33.2593 203.377C34.121 205.62 75.6037 255.914 78.4019 256.841C79.4582 257.193 87.1395 251.578 96.22 244.527L69.5717 212.022C69.5717 212.022 45.0824 199.866 41.9042 199.162C38.7261 198.457 32.3975 201.135 33.2593 203.377Z" fill="#1DA1F3"/>
<path d="M35.8724 202.442C43.0348 210.697 71.1285 244.693 77.5682 253.403C77.6145 253.477 77.5682 253.514 77.5126 253.403C70.239 245.37 42.4048 211.142 35.7149 202.506C35.5852 202.368 35.7149 202.266 35.8724 202.442Z" fill="#2D1A47"/>
<path d="M46.3796 200.931C47.1772 201.849 47.7758 202.923 48.1378 204.084C48.4998 205.245 48.6173 206.468 48.483 207.677C48.2457 209.838 47.1916 211.827 45.5365 213.236C45.4809 213.236 45.4067 213.181 45.4531 213.134C46.8815 211.467 47.7333 209.383 47.8819 207.193C48.0305 205.002 47.4679 202.823 46.2777 200.978C46.2221 200.95 46.324 200.866 46.3796 200.931Z" fill="#2D1A47"/>
<path d="M66.0323 209.447C68.8676 212.782 70.8968 217.675 69.8683 222.048C69.8683 222.215 69.5904 222.159 69.5626 222.048C68.6727 217.822 67.334 213.703 65.569 209.762C65.5273 209.7 65.5116 209.625 65.5255 209.552C65.5394 209.479 65.5817 209.414 65.6432 209.373C65.7046 209.331 65.7801 209.315 65.8531 209.329C65.9261 209.343 65.9905 209.385 66.0323 209.447V209.447Z" fill="#2D1A47"/>
<path d="M62.8727 207.677C65.6987 211.012 67.7372 215.905 66.7087 220.278C66.7087 220.445 66.4214 220.389 66.3936 220.278C65.5098 216.052 64.1741 211.933 62.4094 207.992C62.3676 207.93 62.3519 207.855 62.3658 207.782C62.3797 207.709 62.4221 207.644 62.4835 207.603C62.5449 207.561 62.6204 207.545 62.6934 207.559C62.7664 207.573 62.8309 207.615 62.8727 207.677V207.677Z" fill="#2D1A47"/>
<path d="M59.7039 205.907C62.5392 209.243 64.5685 214.135 63.54 218.509C63.54 218.685 63.262 218.62 63.2342 218.509C62.3458 214.282 61.0069 210.163 59.2406 206.222C59.1988 206.161 59.1832 206.085 59.1971 206.012C59.211 205.939 59.2533 205.875 59.3147 205.833C59.3762 205.791 59.4517 205.776 59.5247 205.79C59.5977 205.804 59.6621 205.846 59.7039 205.907V205.907Z" fill="#2D1A47"/>
<path d="M56.544 204.137C59.3701 207.473 61.4086 212.374 60.3801 216.748C60.3337 216.915 60.0928 216.859 60.065 216.748C59.1784 212.522 57.8427 208.403 56.0807 204.462C56.0377 204.4 56.0209 204.324 56.0339 204.25C56.047 204.176 56.0888 204.111 56.1502 204.068C56.2117 204.025 56.2877 204.008 56.3615 204.021C56.4354 204.034 56.501 204.076 56.544 204.137V204.137Z" fill="#2D1A47"/>
<path d="M83.8224 244.656C86.9357 248.446 81.0427 253.292 77.9201 249.484C74.7975 245.676 80.6998 240.857 83.8224 244.656Z" fill="white"/>
<path d="M72.0366 198.365C74.8163 198.911 75.2518 202.201 74.6495 204.471C73.5405 208.344 71.4351 211.858 68.5434 214.663C68.4786 214.728 68.4044 214.663 68.3581 214.663C68.2841 214.702 68.2018 214.724 68.118 214.725C68.0342 214.726 67.9513 214.707 67.8762 214.67C67.8011 214.633 67.7358 214.579 67.6859 214.511C67.636 214.444 67.6028 214.366 67.5891 214.283C67.2648 210.512 66.4587 206.509 67.3111 202.757C67.8022 200.523 69.3588 197.855 72.0366 198.365ZM68.2469 208.427C68.3581 210.28 68.562 212.133 68.6083 213.987C69.8517 212.038 70.9959 210.028 72.0366 207.964C72.5311 206.958 72.9522 205.917 73.2967 204.851C73.8064 203.201 73.899 197.558 69.9425 200.218C67.8022 201.737 68.145 206.203 68.2469 208.427Z" fill="#2D1A47"/>
<path d="M74.2044 224.068C71.332 221.501 69.6735 217.786 67.7184 214.524C67.5145 214.191 67.811 213.839 68.1261 213.764C68.1247 213.747 68.1271 213.73 68.1331 213.713C68.1391 213.697 68.1486 213.682 68.161 213.67C68.1733 213.657 68.1882 213.648 68.2045 213.642C68.2209 213.636 68.2384 213.633 68.2558 213.635C72.2377 214.236 75.9919 215.871 79.1431 218.379C80.9962 219.87 82.5436 222.78 80.5607 224.865C78.5779 226.95 75.8908 225.569 74.2044 224.068ZM77.8088 224.522C82.5899 224.42 79.2357 219.889 77.8644 218.833C76.9603 218.171 76.0131 217.571 75.0291 217.035C72.9847 215.955 70.8846 214.984 68.7376 214.126C69.7847 215.664 70.6927 217.285 71.6749 218.861C72.8794 220.741 75.1773 224.577 77.8088 224.522Z" fill="#2D1A47"/>
<path d="M76.7064 201.849L107.496 238.337L200.358 172.217L209.512 165.731C209.512 165.731 212.144 167.464 216.1 169.585C221.595 172.541 229.647 176.266 236.735 177.22C248.632 178.777 266.534 178.388 276.383 164.878C284.722 153.5 281.841 138.832 281.841 138.832L268.729 133.375C268.729 133.375 237.56 108.042 217.564 107.514C209.077 107.273 196.79 113.861 185.431 120.718C174.071 127.575 76.7064 201.849 76.7064 201.849Z" fill="#2D1A47"/>
<path d="M209.512 165.694C209.512 165.694 212.144 167.426 216.1 169.548C222.947 161.144 237.476 145.856 237.921 145.309L209.512 165.694Z" fill="#190E27"/>
<path d="M257.324 124.934C259.177 126.194 261.03 127.528 262.818 128.825C264.606 130.123 266.524 131.29 268.201 132.68C269.879 134.07 271.611 135.608 273.261 137.137C274.057 137.869 274.845 138.61 275.614 139.379C276.423 140.115 277.176 140.911 277.866 141.76C277.921 141.844 277.81 141.936 277.727 141.89C276.853 141.284 276.021 140.622 275.234 139.907L272.631 137.748C270.953 136.358 269.249 134.969 267.571 133.616C265.894 132.263 264.375 130.716 262.725 129.307C261.076 127.899 259.121 126.416 257.268 125.036C257.268 124.971 257.268 124.906 257.324 124.934Z" fill="#190E27"/>
<path d="M86.2129 198.337C88.0661 200.301 89.808 202.414 91.55 204.49C93.2919 206.565 95.0339 208.659 96.7573 210.762C100.213 214.969 103.688 219.157 107.089 223.41C108.942 225.745 110.795 228.099 112.528 230.535C112.602 230.637 112.426 230.767 112.342 230.675C108.636 226.69 105.235 222.447 101.798 218.24C98.3603 214.033 94.9042 209.808 91.5222 205.555C89.669 203.22 87.7603 200.922 86.0554 198.458C85.9813 198.365 86.1388 198.235 86.2129 198.337Z" fill="#190E27"/>
<path d="M156.012 203.683C160.728 199.875 171.458 192.425 176.35 188.858C181.242 185.291 186.079 181.733 191.018 178.277C192.435 177.285 193.872 176.312 195.299 175.339C196.725 174.366 198.217 173.486 199.607 172.448C199.69 172.393 199.765 172.532 199.69 172.587C198.403 173.514 197.198 174.589 195.938 175.562C194.678 176.535 193.538 177.415 192.324 178.341C189.952 180.139 187.562 181.899 185.171 183.669C180.334 187.264 175.451 190.804 170.522 194.288C167.742 196.252 159.088 202.09 156.225 203.961C156.058 204.082 155.854 203.794 156.012 203.683Z" fill="#190E27"/>
<path d="M125.518 164.535C129.873 160.829 139.806 153.713 144.374 150.285C148.942 146.856 153.64 143.326 158.273 139.879L172.023 129.668C176.489 126.361 180.927 122.997 185.644 120.06C188.229 118.448 190.879 116.956 193.603 115.612C196.245 114.214 199.005 113.048 201.849 112.128C201.933 112.128 201.979 112.221 201.905 112.267C199.579 113.602 197.133 114.732 194.77 116.029C192.408 117.326 190.138 118.642 187.895 120.051C183.216 122.969 178.796 126.277 174.358 129.548C165.139 136.349 155.938 143.178 146.653 149.933C141.465 153.639 131.115 161.431 125.713 164.897C125.555 164.925 125.361 164.665 125.518 164.535Z" fill="#190E27"/>
<path d="M52.4542 14.8844C52.4542 14.8844 49.1166 41.6103 43.6302 47.6199C37.0262 54.8335 32.2663 53.7769 29.6094 57.5005C26.9475 53.7718 22.1723 54.8335 15.5785 47.6148C10.0921 41.6052 6.76465 14.8793 6.76465 14.8793C21.2173 7.86384 29.6247 0 29.6247 0C29.8685 0.254 38.2251 7.98068 52.4542 14.8844Z" fill="#1DA1F3"/>
<path opacity="0.1" d="M29.6094 0.0253996V57.5005C26.9475 53.7718 22.1723 54.8335 15.5785 47.6148C10.0921 41.6052 6.76465 14.8793 6.76465 14.8793C21.2172 7.86384 29.6246 0 29.6246 0L29.6094 0.0253996Z" fill="#1DA1F3"/>
<path d="M10.3054 17.0383C10.3054 17.0383 13.1197 39.6138 17.7527 44.6938C23.3407 50.7898 27.3641 49.9009 29.6094 53.0403C31.8548 49.9009 35.8934 50.7949 41.461 44.6938C46.094 39.6138 48.9083 17.0383 48.9083 17.0383C36.7163 11.11 29.6043 4.46533 29.6043 4.46533C29.6043 4.46533 22.5127 11.11 10.3054 17.0383Z" fill="#1DA1F3"/>
<path opacity="0.2" d="M48.9034 17.0384C48.9034 17.0384 46.084 39.6089 41.4511 44.694C35.8885 50.79 31.8499 49.901 29.6045 53.0353V4.47559C29.8179 4.67879 36.8841 11.2015 48.9034 17.0384Z" fill="white"/>
<path d="M29.6043 37.7037C34.5478 37.7037 38.5552 33.6962 38.5552 28.7527C38.5552 23.8092 34.5478 19.8018 29.6043 19.8018C24.6608 19.8018 20.6533 23.8092 20.6533 28.7527C20.6533 33.6962 24.6608 37.7037 29.6043 37.7037Z" fill="#1DA1F3"/>
<path d="M28.5884 34.5692L24.6006 30.4239L26.0789 29.0015L28.2785 31.2875L33.0131 24.0181L34.7352 25.1407L28.5884 34.5692Z" fill="white"/>
<path d="M48.9032 53.5739L47.6383 53.8127L47.3538 55.1436L47.0694 53.8127L45.8044 53.5739L47.0643 53.2691L47.3538 52.0093L47.6434 53.2691L48.9032 53.5739Z" fill="#1DA1F3"/>
<path d="M11.4079 43.4291L10.143 43.6628L9.85849 44.9988L9.57401 43.6628L8.30908 43.4291L9.56893 43.1192L9.85849 41.8594L10.1481 43.1192L11.4079 43.4291Z" fill="#1DA1F3"/>
<path d="M17.1837 8.25478L15.9188 8.48846L15.6344 9.81942L15.355 8.48846L14.085 8.2497L15.3499 7.9449L15.6344 6.68506L15.9239 7.9449L17.1837 8.25478Z" fill="#1DA1F3"/>
<path d="M46.6376 47.5742L45.9314 47.7062L45.774 48.453L45.6165 47.7062L44.9053 47.5742L45.6114 47.4014L45.774 46.6953L45.9314 47.4014L46.6376 47.5742Z" fill="#1DA1F3"/>
<path d="M51.5296 32.7253L50.8235 32.8574L50.666 33.6042L50.5086 32.8574L49.7974 32.7253L50.5035 32.5526L50.666 31.8516L50.8286 32.5526L51.5296 32.7253Z" fill="#1DA1F3"/>
<path d="M45.525 6.68548L44.8189 6.81756L44.6614 7.55924L44.4989 6.81756L43.7927 6.68548L44.4989 6.51276L44.6614 5.80664L44.8189 6.51276L45.525 6.68548Z" fill="#1DA1F3"/>
<path d="M27.4554 60.7109L26.7493 60.843L26.5867 61.5846L26.4293 60.843L25.7231 60.7109L26.4293 60.5381L26.5867 59.832L26.7493 60.5381L27.4554 60.7109Z" fill="#1DA1F3"/>
<path d="M7.47594 45.1664L6.76981 45.2985L6.60726 46.0453L6.44978 45.2985L5.74365 45.1664L6.44978 44.9937L6.60726 44.2876L6.76981 44.9937L7.47594 45.1664Z" fill="#1DA1F3"/>
<path d="M8.57822 24.4907L7.86702 24.6227L7.70954 25.3695L7.55206 24.6227L6.84595 24.4907L7.54698 24.3179L7.70954 23.6118L7.8721 24.3179L8.57822 24.4907Z" fill="#1DA1F3"/>
<path d="M38.2557 50.9219C38.2067 50.9296 38.162 50.9546 38.1298 50.9923C38.0975 51.03 38.0798 51.078 38.0798 51.1276C38.0798 51.1772 38.0975 51.2252 38.1298 51.2629C38.162 51.3006 38.2067 51.3256 38.2557 51.3333C38.3047 51.3256 38.3493 51.3006 38.3816 51.2629C38.4138 51.2252 38.4315 51.1772 38.4315 51.1276C38.4315 51.078 38.4138 51.03 38.3816 50.9923C38.3493 50.9546 38.3047 50.9296 38.2557 50.9219V50.9219Z" fill="#1DA1F3"/>
<path d="M5.64191 13.7412C5.5929 13.7489 5.54827 13.7739 5.51603 13.8116C5.48379 13.8493 5.46606 13.8973 5.46606 13.9469C5.46606 13.9966 5.48379 14.0446 5.51603 14.0823C5.54827 14.12 5.5929 14.145 5.64191 14.1527C5.69093 14.145 5.73557 14.12 5.76781 14.0823C5.80005 14.0446 5.81778 13.9966 5.81778 13.9469C5.81778 13.8973 5.80005 13.8493 5.76781 13.8116C5.73557 13.7739 5.69093 13.7489 5.64191 13.7412V13.7412Z" fill="#1DA1F3"/>
<path d="M44.6615 52.0752C44.6124 52.0829 44.5678 52.1079 44.5356 52.1456C44.5033 52.1833 44.4856 52.2313 44.4856 52.2809C44.4856 52.3306 44.5033 52.3785 44.5356 52.4163C44.5678 52.454 44.6124 52.479 44.6615 52.4867C44.7105 52.479 44.7551 52.454 44.7873 52.4163C44.8196 52.3785 44.8373 52.3306 44.8373 52.2809C44.8373 52.2313 44.8196 52.1833 44.7873 52.1456C44.7551 52.1079 44.7105 52.0829 44.6615 52.0752V52.0752Z" fill="#1DA1F3"/>
<path d="M23.8895 20.0459C23.8356 20.0459 23.7839 20.0673 23.7458 20.1054C23.7077 20.1435 23.6863 20.1952 23.6863 20.2491C23.6863 20.303 23.7077 20.3547 23.7458 20.3928C23.7839 20.4309 23.8356 20.4523 23.8895 20.4523C23.9434 20.4523 23.995 20.4309 24.0332 20.3928C24.0713 20.3547 24.0927 20.303 24.0927 20.2491C24.0927 20.1952 24.0713 20.1435 24.0332 20.1054C23.995 20.0673 23.9434 20.0459 23.8895 20.0459V20.0459Z" fill="#1DA1F3"/>
<path d="M4.90045 28.3057C4.85144 28.3134 4.8068 28.3384 4.77456 28.3761C4.74232 28.4138 4.72461 28.4618 4.72461 28.5114C4.72461 28.561 4.74232 28.609 4.77456 28.6467C4.8068 28.6845 4.85144 28.7094 4.90045 28.7171C4.94946 28.7094 4.99411 28.6845 5.02635 28.6467C5.05858 28.609 5.07629 28.561 5.07629 28.5114C5.07629 28.4618 5.05858 28.4138 5.02635 28.3761C4.99411 28.3384 4.94946 28.3134 4.90045 28.3057V28.3057Z" fill="#1DA1F3"/>
<path d="M0.120064 26.0703C0.0863116 26.0767 0.0558438 26.0946 0.0339186 26.121C0.0119933 26.1475 0 26.1807 0 26.2151C0 26.2494 0.0119933 26.2827 0.0339186 26.3091C0.0558438 26.3356 0.0863116 26.3535 0.120064 26.3599C0.153816 26.3535 0.184299 26.3356 0.206224 26.3091C0.22815 26.2827 0.240143 26.2494 0.240143 26.2151C0.240143 26.1807 0.22815 26.1475 0.206224 26.121C0.184299 26.0946 0.153816 26.0767 0.120064 26.0703V26.0703Z" fill="#1DA1F3"/>
<path d="M39.2514 4.0083C39.2177 4.01465 39.1872 4.0326 39.1653 4.05903C39.1433 4.08547 39.1313 4.11873 39.1313 4.15308C39.1313 4.18743 39.1433 4.22069 39.1653 4.24713C39.1872 4.27357 39.2177 4.29151 39.2514 4.29786C39.2852 4.29151 39.3156 4.27357 39.3376 4.24713C39.3595 4.22069 39.3715 4.18743 39.3715 4.15308C39.3715 4.11873 39.3595 4.08547 39.3376 4.05903C39.3156 4.0326 39.2852 4.01465 39.2514 4.0083V4.0083Z" fill="#1DA1F3"/>
<path d="M19.0024 53.6753C18.9687 53.6816 18.9382 53.6996 18.9163 53.726C18.8943 53.7525 18.8823 53.7857 18.8823 53.8201C18.8823 53.8544 18.8943 53.8877 18.9163 53.9141C18.9382 53.9406 18.9687 53.9585 19.0024 53.9648C19.0362 53.9585 19.0666 53.9406 19.0886 53.9141C19.1105 53.8877 19.1225 53.8544 19.1225 53.8201C19.1225 53.7857 19.1105 53.7525 19.0886 53.726C19.0666 53.6996 19.0362 53.6816 19.0024 53.6753V53.6753Z" fill="#1DA1F3"/>
<path d="M14.466 51.0083C14.3692 51.0193 14.28 51.0655 14.2151 51.1381C14.1503 51.2107 14.1145 51.3047 14.1145 51.402C14.1145 51.4993 14.1503 51.5933 14.2151 51.6659C14.28 51.7385 14.3692 51.7847 14.466 51.7957C14.5627 51.7847 14.6519 51.7385 14.7168 51.6659C14.7816 51.5933 14.8174 51.4993 14.8174 51.402C14.8174 51.3047 14.7816 51.2107 14.7168 51.1381C14.6519 51.0655 14.5627 51.0193 14.466 51.0083V51.0083Z" fill="#1DA1F3"/>
</svg>
