<svg width="59" height="59" viewBox="0 0 59 59" fill="none" xmlns="http://www.w3.org/2000/svg">
<rect x="1" y="1" width="57" height="57" rx="7" fill="#DDD4FF" stroke="#2A3680" stroke-width="2"/>
<path d="M39.6663 24.92C39.6525 24.7975 39.6256 24.6768 39.5863 24.56V24.44C39.5222 24.3029 39.4367 24.1768 39.333 24.0666L31.333 16.0666C31.2228 15.9629 31.0968 15.8774 30.9597 15.8133H30.8397L30.413 15.6666H22.333C21.2721 15.6666 20.2547 16.0881 19.5046 16.8382C18.7544 17.5883 18.333 18.6058 18.333 19.6666V38.3333C18.333 39.3942 18.7544 40.4116 19.5046 41.1617C20.2547 41.9119 21.2721 42.3333 22.333 42.3333H35.6663C36.7272 42.3333 37.7446 41.9119 38.4948 41.1617C39.2449 40.4116 39.6663 39.3942 39.6663 38.3333V25C39.6663 25 39.6663 25 39.6663 24.92ZM31.6663 20.2133L35.1197 23.6666H31.6663V20.2133ZM36.9997 38.3333C36.9997 38.6869 36.8592 39.0261 36.6091 39.2761C36.3591 39.5262 36.02 39.6666 35.6663 39.6666H22.333C21.9794 39.6666 21.6402 39.5262 21.3902 39.2761C21.1402 39.0261 20.9997 38.6869 20.9997 38.3333V19.6666C20.9997 19.313 21.1402 18.9739 21.3902 18.7238C21.6402 18.4738 21.9794 18.3333 22.333 18.3333H28.9997V25C28.9997 25.3536 29.1402 25.6927 29.3902 25.9428C29.6402 26.1928 29.9794 26.3333 30.333 26.3333H36.9997V38.3333Z" fill="#2A3680"/>
</svg>
