<svg width="59" height="59" viewBox="0 0 59 59" fill="none" xmlns="http://www.w3.org/2000/svg">
<rect x="1" y="1" width="57" height="57" rx="7" fill="#FFF7E4" stroke="#FABC1B" stroke-width="2"/>
<path fill-rule="evenodd" clip-rule="evenodd" d="M26.6891 23.0778L17.5393 23.0743C17.099 23.0743 16.6799 22.8882 16.3877 22.5629C16.0955 22.2376 15.9584 21.8044 16.011 21.3729C16.8021 14.8814 22.382 9.99767 29.0044 10C35.6271 10.0023 41.2032 14.8908 41.9891 21.3826C42.0413 21.8141 41.9043 22.2472 41.6117 22.5722C41.3194 22.8971 40.9004 23.0832 40.4601 23.0829L31.3099 23.0798L31.3087 26.5327C31.5244 26.5851 31.7368 26.6448 31.9466 26.7115L33.9756 25.4594C34.8322 24.9305 35.8687 24.7642 36.8514 24.998C37.8337 25.2318 38.6797 25.846 39.1985 26.7022V26.7029C39.5489 27.2807 39.5131 28.0093 39.1086 28.5514C38.7186 29.0737 38.0595 29.3238 37.4193 29.1989L37.0694 30.5735C38.0768 32.0877 38.664 33.9024 38.664 35.8532C38.664 37.9036 38.0147 39.8044 36.9142 41.3597C36.2744 42.2705 36.058 43.407 36.3192 44.485L36.3781 44.7417C36.5686 45.5288 36.3836 46.3586 35.8762 46.9942C35.3683 47.6293 34.5938 48 33.7741 48H32.7199C31.4811 48 30.4038 47.1609 30.1159 45.9713L29.9777 45.4013C29.656 45.4334 29.33 45.4501 29.0001 45.4501C28.6702 45.4501 28.3442 45.4334 28.0225 45.4013L27.8846 45.9713C27.5963 47.1609 26.5194 48 25.2806 48H24.2264C23.4068 48 22.6322 47.6293 22.1244 46.9942C21.6165 46.3586 21.4316 45.5288 21.622 44.7417L21.6841 44.4858C21.9453 43.407 21.7289 42.2694 21.0934 41.3647C19.9862 39.8063 19.3362 37.9048 19.3362 35.8532C19.3362 33.9024 19.9233 32.0877 20.9308 30.5735L20.5808 29.1989C19.9406 29.3238 19.2816 29.0737 18.8916 28.5514C18.487 28.0093 18.4517 27.2807 18.8016 26.7029C18.8016 26.7026 18.8016 26.7026 18.802 26.7022C19.3208 25.846 20.1665 25.2318 21.1492 24.998C22.1315 24.7642 23.168 24.9305 24.025 25.4594L26.0536 26.7115C26.2621 26.6452 26.4734 26.5858 26.6879 26.5335L26.6891 23.0778ZM23.1817 44.8394C23.5446 43.34 23.2438 41.7587 22.3538 40.4919C21.4217 39.1801 20.8758 37.5795 20.8758 35.8532C20.8758 31.3956 24.5163 27.7766 29.0001 27.7766C33.4838 27.7766 37.1243 31.3956 37.1243 35.8532C37.1243 37.5795 36.5784 39.1801 35.6487 40.4934C34.7595 41.7599 34.4587 43.34 34.8216 44.8386C34.8397 44.9259 34.8605 45.0116 34.8809 45.0953C34.9618 45.43 34.8833 45.7824 34.6672 46.0527C34.4516 46.3226 34.1225 46.48 33.7741 46.48H32.7199C32.1932 46.48 31.7357 46.1233 31.6131 45.618C31.4112 44.7847 31.1359 43.6474 31.1359 43.6474C30.4553 43.8316 29.7393 43.9301 29.0001 43.9301C28.2613 43.9301 27.5453 43.8316 26.8642 43.6474C26.8642 43.6474 26.5889 44.7847 26.387 45.618C26.2649 46.1233 25.8069 46.48 25.2806 46.48H24.2264C23.8781 46.48 23.5489 46.3226 23.3329 46.0527C23.1173 45.7824 23.0387 45.43 23.1196 45.0953C23.1397 45.0116 23.1605 44.9259 23.1817 44.8394ZM29.0001 35.878C27.931 35.878 26.9982 36.2634 26.4106 36.7877C25.8293 37.3069 25.5312 37.9688 25.5312 38.6609C25.5312 39.3531 25.8293 40.015 26.4106 40.5338C26.9982 41.0584 27.931 41.4434 29.0001 41.4434C30.0692 41.4434 31.002 41.0584 31.5896 40.5338C32.1712 40.015 32.4693 39.3531 32.4693 38.6609C32.4693 37.9688 32.1712 37.3069 31.5896 36.7877C31.002 36.2634 30.0692 35.878 29.0001 35.878ZM29.0001 37.398C30.0648 37.398 30.9297 37.9641 30.9297 38.6609C30.9297 39.3577 30.0648 39.9234 29.0001 39.9234C27.9353 39.9234 27.0708 39.3577 27.0708 38.6609C27.0708 37.9641 27.9353 37.398 29.0001 37.398ZM32.0793 33.479C32.5043 33.479 32.8491 33.8198 32.8491 34.239C32.8491 34.6585 32.5043 34.999 32.0793 34.999C31.6544 34.999 31.3095 34.6585 31.3095 34.239C31.3095 33.8198 31.6544 33.479 32.0793 33.479ZM25.9208 33.479C26.3458 33.479 26.6906 33.8198 26.6906 34.239C26.6906 34.6585 26.3458 34.999 25.9208 34.999C25.4959 34.999 25.151 34.6585 25.151 34.239C25.151 33.8198 25.4959 33.479 25.9208 33.479ZM24.3396 27.4463L23.2088 26.7483C22.7025 26.4358 22.0902 26.3377 21.5097 26.4757C20.9292 26.6138 20.4296 26.9767 20.1233 27.4823C20.1233 27.4827 20.1229 27.4827 20.1229 27.4831C20.0914 27.5351 20.0946 27.6006 20.1311 27.6495C20.1676 27.6983 20.2301 27.7208 20.2898 27.7065C20.3 27.7041 20.3102 27.7014 20.3208 27.6991C21.0855 27.5153 21.8569 27.9752 22.0486 28.7286L22.1421 29.0946C22.7893 28.4471 23.5289 27.8906 24.3396 27.4463ZM35.8585 29.0946L35.9516 28.7286C36.1436 27.9752 36.915 27.5153 37.6793 27.6991C37.6899 27.7014 37.7001 27.7041 37.7104 27.7065C37.7701 27.7208 37.8329 27.6983 37.8694 27.6495C37.9056 27.6006 37.9087 27.5351 37.8773 27.4831C37.8773 27.4827 37.8773 27.4827 37.8769 27.4823C37.5705 26.9767 37.0709 26.6138 36.4904 26.4757C35.9099 26.3377 35.2976 26.4358 34.7917 26.7483L33.661 27.4463C34.4716 27.8906 35.2112 28.4475 35.8585 29.0946ZM29.7691 26.2865L29.7703 23.079L28.2287 23.0786L28.2275 26.2869C28.4824 26.2667 28.7401 26.2566 29.0001 26.2566C29.2585 26.2566 29.515 26.2667 29.7691 26.2865ZM31.3083 11.7488C33.2772 14.7888 34.5997 18.1239 35.2756 21.5609L40.4605 21.5629C39.8607 16.6073 36.0969 12.7108 31.3083 11.7488ZM29.2994 11.5239C29.2012 11.5212 29.1026 11.52 29.004 11.52C28.9054 11.52 28.8068 11.5212 28.709 11.5235C26.5068 14.5871 25.0351 18.0118 24.2936 21.557L33.7069 21.5605C32.9681 18.0145 31.4988 14.5887 29.2994 11.5239ZM26.6997 11.7468C21.9103 12.7054 18.1433 16.5992 17.5397 21.5543L22.7249 21.5563C23.4036 18.1192 24.7284 14.7853 26.6997 11.7468Z" fill="#FABC1B"/>
</svg>
