<svg width="59" height="59" viewBox="0 0 59 59" fill="none" xmlns="http://www.w3.org/2000/svg">
<rect x="1" y="1" width="57" height="57" rx="7" fill="#DAF0FB" stroke="#1DA1F3" stroke-width="2"/>
<path fill-rule="evenodd" clip-rule="evenodd" d="M30 31.8024C35.299 31.8024 39.7412 34.9014 40.8976 40.2006H19.1024C20.2588 34.9014 24.701 31.8024 30 31.8024ZM24.4 23.4042C24.4 20.3165 26.9116 17.8054 30 17.8054C33.0884 17.8054 35.6 20.3165 35.6 23.4042C35.6 26.492 33.0884 29.003 30 29.003C26.9116 29.003 24.4 26.492 24.4 23.4042ZM35.2612 29.945C36.2414 29.1598 37.0325 28.1643 37.5758 27.0321C38.1191 25.8999 38.4008 24.66 38.4 23.4042C38.401 21.9843 38.0419 20.5874 37.3563 19.3439C36.6706 18.1004 35.6808 17.0509 34.4794 16.2937C33.2779 15.5365 31.9041 15.0963 30.4862 15.0141C29.0684 14.9319 27.6528 15.2105 26.3719 15.8238C25.091 16.4371 23.9865 17.3651 23.1617 18.521C22.3369 19.677 21.8187 21.023 21.6556 22.4336C21.4925 23.8441 21.6897 25.2729 22.2289 26.5865C22.7681 27.9001 23.6317 29.0556 24.7388 29.945C19.6162 31.8696 16 36.6244 16 43H44C44 36.6244 40.3838 31.8696 35.2612 29.945Z" fill="#1DA1F3"/>
</svg>
