<svg width="24" height="24" viewBox="0 0 24 24" fill="none" xmlns="http://www.w3.org/2000/svg">    <path fill-rule="evenodd" clip-rule="evenodd" d="M12 12.0026C9.3528 12.0026 7.2 9.85026 7.2 7.20363C7.2 4.557 9.3528 2.40467 12 2.40467C14.6472 2.40467 16.8 4.557 16.8 7.20363C16.8 9.85026 14.6472 12.0026 12 12.0026ZM16.5096 12.81C17.3498 12.137 18.0278 11.2837 18.4935 10.3133C18.9592 9.3428 19.2007 8.28 19.2 7.20363C19.2009 5.98655 18.8931 4.78918 18.3054 3.72333C17.7177 2.65747 16.8693 1.75788 15.8395 1.10885C14.8097 0.459833 13.6321 0.08252 12.4168 0.0120698C11.2015 -0.0583805 9.98815 0.180432 8.89021 0.706109C7.79227 1.23179 6.84558 2.02721 6.13861 3.01801C5.43164 4.00882 4.98747 5.16261 4.84764 6.37163C4.70782 7.58066 4.87689 8.80536 5.33906 9.93131C5.80123 11.0573 6.54142 12.0477 7.49041 12.81C3.09961 14.4596 0 18.5352 0 24H2.4C2.4 18.0013 6.7068 14.4021 12 14.4021C17.2932 14.4021 21.6 18.0013 21.6 24H24C24 18.5352 20.9004 14.4596 16.5096 12.81Z" fill="black"/></svg>