<svg width="59" height="59" viewBox="0 0 59 59" fill="none" xmlns="http://www.w3.org/2000/svg">
<rect x="1" y="1" width="57" height="57" rx="7" fill="#DAF0FB" stroke="#1DA1F3" stroke-width="2"/>
<path d="M42.9564 25.4568C42.8744 25.2177 42.7253 25.0077 42.5271 24.8522C42.3289 24.6967 42.0902 24.6025 41.8399 24.5809L34.453 23.4959L31.1425 16.7374C31.0362 16.5164 30.8702 16.33 30.6635 16.1996C30.4569 16.0692 30.2179 16 29.9741 16C29.7302 16 29.4912 16.0692 29.2846 16.1996C29.0779 16.33 28.912 16.5164 28.8057 16.7374L25.4952 23.4828L18.1082 24.5809C17.8679 24.6153 17.642 24.7168 17.4562 24.874C17.2703 25.0311 17.1319 25.2375 17.0566 25.4699C16.9878 25.6969 16.9816 25.9385 17.0388 26.1688C17.0959 26.3991 17.2143 26.6094 17.3812 26.7771L22.7429 32.0061L21.4447 39.4313C21.3983 39.6764 21.4226 39.9297 21.5146 40.1613C21.6066 40.393 21.7625 40.5933 21.964 40.7385C22.1603 40.8799 22.3918 40.9633 22.6326 40.9795C22.8734 40.9956 23.1139 40.9439 23.3271 40.8301L29.9741 37.3397L36.595 40.8431C36.7773 40.9466 36.983 41.0007 37.1922 41C37.4672 41.001 37.7354 40.914 37.9582 40.7516C38.1596 40.6063 38.3155 40.406 38.4075 40.1744C38.4996 39.9428 38.5238 39.6894 38.4775 39.4444L37.1793 32.0192L42.541 26.7902C42.7284 26.6303 42.8669 26.4201 42.9405 26.1841C43.014 25.948 43.0195 25.6959 42.9564 25.4568ZM34.9723 30.6858C34.82 30.8341 34.7061 31.0176 34.6405 31.2204C34.5749 31.4232 34.5595 31.6391 34.5958 31.8492L35.5305 37.3266L30.6491 34.7121C30.4613 34.6114 30.2518 34.5587 30.039 34.5587C29.8262 34.5587 29.6166 34.6114 29.4288 34.7121L24.5474 37.3266L25.4822 31.8492C25.5184 31.6391 25.5031 31.4232 25.4375 31.2204C25.3718 31.0176 25.2579 30.8341 25.1057 30.6858L21.211 26.764L26.6765 25.9666C26.8869 25.9372 27.0868 25.8562 27.2588 25.7309C27.4308 25.6055 27.5697 25.4396 27.6632 25.2476L29.9741 20.267L32.4147 25.2607C32.5083 25.4527 32.6471 25.6186 32.8191 25.7439C32.9912 25.8693 33.1911 25.9502 33.4014 25.9797L38.867 26.7771L34.9723 30.6858Z" fill="#1DA1F3"/>
</svg>
