<svg width="428" height="915" viewBox="0 0 428 915" fill="none" xmlns="http://www.w3.org/2000/svg">
<rect x="1" width="427" height="914" fill="#321292"/>
<rect x="1" width="427" height="914" fill="#321292"/>
<g style="mix-blend-mode:overlay" opacity="0.6">
<rect y="1" width="427" height="914" fill="#DAF0FB"/>
</g>
<path d="M426.504 452.224L426.504 735.5L426.505 913.5L1.50436 913.5L1.50437 836L2.00439 649.5L2.00437 452.224C2.00437 452.224 71.6565 542.092 106.005 452.224C140.489 362 194.489 310 252.489 394C303.584 468 331 215.016 426.504 215C426.508 215 426.504 452.224 426.504 452.224Z" fill="#2A3680"/>
<g opacity="0.2" clip-path="url(#clip0_1027_3009)">
<path d="M345.893 193.5C257.922 193.5 257.781 318.589 345.893 318.589C434.005 318.589 434.051 193.5 345.893 193.5Z" fill="#EBEBEB"/>
<path d="M399.424 267.767C394.724 289.286 376.903 307.954 345.924 307.954C272.816 307.954 272.924 204.134 345.924 204.134H347.365C278.658 205.387 279.002 303.71 348.712 303.71C377.216 303.741 394.098 287.359 399.424 267.767Z" fill="#DBDBDB"/>
<path d="M340.791 427.257C275.013 427.257 274.903 520.788 340.791 520.788C406.679 520.788 406.663 427.257 340.791 427.257Z" fill="#EBEBEB"/>
<path d="M380.822 482.792C377.282 498.876 363.939 512.768 340.775 512.768C286.116 512.768 286.195 435.149 340.775 435.149H341.856C290.486 436.089 290.737 509.604 342.856 509.604C364.127 509.636 376.797 497.373 380.822 482.792Z" fill="#DBDBDB"/>
<path d="M341.182 445.424C341.614 445.411 342.035 445.568 342.353 445.86C342.672 446.153 342.864 446.558 342.889 446.99V449.59C347.454 449.899 351.842 451.478 355.559 454.148C355.848 454.297 356.092 454.521 356.266 454.796C356.439 455.072 356.536 455.389 356.546 455.714C356.498 456.163 356.279 456.576 355.935 456.867C355.591 457.159 355.148 457.307 354.698 457.28C354.227 457.298 353.768 457.135 353.414 456.826C350.318 454.458 346.626 452.994 342.749 452.597V470.811C353.555 472.894 358.113 476.606 358.113 482.996C358.113 489.887 351.848 494.773 342.89 495.04V500.114C342.89 500.567 342.71 501.001 342.39 501.321C342.069 501.641 341.635 501.821 341.183 501.821C340.73 501.821 340.296 501.641 339.976 501.321C339.655 501.001 339.476 500.567 339.476 500.114V494.977C333.614 494.625 328.013 492.432 323.47 488.712C323.23 488.574 323.032 488.375 322.895 488.136C322.757 487.897 322.685 487.625 322.687 487.349C322.74 486.917 322.949 486.52 323.275 486.231C323.601 485.943 324.021 485.783 324.457 485.783C324.925 485.774 325.381 485.936 325.741 486.237C329.606 489.659 334.473 491.741 339.617 492.173V473.505C328.936 471.359 324.535 467.773 324.535 461.258C324.535 454.743 330.8 449.668 339.476 449.481V446.991C339.5 446.559 339.691 446.154 340.01 445.861C340.329 445.568 340.749 445.411 341.182 445.424ZM339.616 470.169V452.409C332.709 452.534 328.152 456.309 328.152 461.009C328.152 465.426 330.439 468.166 339.616 470.187V470.169ZM342.748 474.131V492.11C349.858 491.985 354.494 488.195 354.494 483.246C354.494 478.782 351.988 476.046 342.748 474.146V474.131Z" fill="#DBDBDB"/>
<path d="M91.7656 314.392C32.5496 325.026 48.1956 412.746 107.506 402.092C166.816 391.438 151.092 303.746 91.7656 314.392Z" fill="#DBDBDB"/>
<path d="M97.3241 313.394C40.9421 323.527 56.6041 411.263 113.064 401.094C169.524 390.925 153.862 303.26 97.3241 313.394Z" fill="#EBEBEB"/>
<path d="M140.99 359.314C140.69 374.976 131.59 390.089 111.719 393.66C64.8125 402.07 51.8285 329.26 98.6565 320.865L99.5805 320.708C55.7285 329.508 68.2575 398.408 112.972 390.386C131.296 387.113 140.019 373.613 140.99 359.314Z" fill="#DBDBDB"/>
</g>
<g opacity="0.2">
<path d="M79.9527 583.935C0.752701 598.14 21.6607 715.492 101.002 701.235C180.343 686.978 159.295 569.699 79.9527 583.935Z" fill="#DBDBDB"/>
<path d="M87.3924 582.589C11.9034 596.215 32.8274 713.472 108.441 699.91C184.055 686.348 163.006 569.026 87.3924 582.589Z" fill="#EBEBEB"/>
<path d="M145.794 644.013C145.387 664.921 133.265 685.172 106.64 689.933C43.9003 701.194 26.5313 603.795 89.1773 592.565C89.5878 592.526 89.9958 592.463 90.3993 592.377C31.6533 604.139 48.4893 696.291 108.313 685.563C132.713 681.178 144.494 663.136 145.794 644.013Z" fill="#DBDBDB"/>
</g>
<g opacity="0.15">
<g opacity="0.15">
<g opacity="0.15">
<path opacity="0.15" d="M397.503 251.767C392.803 273.286 374.982 291.954 344.003 291.954C270.895 291.954 271.003 188.134 344.003 188.134H345.444C276.737 189.387 277.081 287.71 346.791 287.71C375.295 287.741 392.177 271.359 397.503 251.767Z" fill="#DBDBDB"/>
</g>
<g opacity="0.15">
<path opacity="0.15" d="M338.869 411.257C273.091 411.257 272.981 504.788 338.869 504.788C404.757 504.788 404.741 411.257 338.869 411.257Z" fill="#EBEBEB"/>
<path opacity="0.15" d="M378.9 466.792C375.36 482.876 362.017 496.768 338.853 496.768C284.194 496.768 284.273 419.149 338.853 419.149H339.934C288.564 420.089 288.815 493.604 340.934 493.604C362.205 493.636 374.875 481.373 378.9 466.792Z" fill="#DBDBDB"/>
<path opacity="0.15" d="M339.26 429.424C339.692 429.411 340.113 429.568 340.431 429.86C340.75 430.153 340.942 430.558 340.967 430.99V433.59C345.532 433.899 349.92 435.478 353.637 438.148C353.926 438.297 354.17 438.521 354.344 438.796C354.517 439.072 354.614 439.389 354.624 439.714C354.576 440.163 354.358 440.576 354.013 440.867C353.669 441.159 353.226 441.307 352.776 441.28C352.305 441.298 351.846 441.135 351.492 440.826C348.396 438.458 344.704 436.994 340.827 436.597V454.811C351.633 456.894 356.191 460.606 356.191 466.996C356.191 473.887 349.926 478.773 340.968 479.04V484.114C340.968 484.567 340.788 485.001 340.468 485.321C340.148 485.641 339.713 485.821 339.261 485.821C338.808 485.821 338.374 485.641 338.054 485.321C337.734 485.001 337.554 484.567 337.554 484.114V478.977C331.692 478.625 326.091 476.432 321.548 472.712C321.309 472.574 321.11 472.375 320.973 472.136C320.835 471.897 320.763 471.625 320.765 471.349C320.818 470.917 321.027 470.52 321.353 470.231C321.679 469.943 322.099 469.783 322.535 469.783C323.003 469.774 323.46 469.936 323.819 470.237C327.684 473.659 332.551 475.741 337.695 476.173V457.505C327.014 455.359 322.613 451.773 322.613 445.258C322.613 438.743 328.878 433.668 337.554 433.481V430.991C337.578 430.559 337.77 430.154 338.088 429.861C338.407 429.568 338.827 429.411 339.26 429.424ZM337.694 454.169V436.409C330.787 436.534 326.23 440.309 326.23 445.009C326.23 449.426 328.517 452.166 337.694 454.187V454.169ZM340.826 458.131V476.11C347.936 475.985 352.572 472.195 352.572 467.246C352.572 462.782 350.066 460.046 340.826 458.146V458.131Z" fill="#DBDBDB"/>
</g>
<g opacity="0.15">
<path opacity="0.15" d="M91.0308 470.311C11.8308 484.516 32.7388 601.868 112.08 587.611C191.421 573.354 170.373 456.075 91.0308 470.311Z" fill="#DBDBDB"/>
<path opacity="0.15" d="M98.4705 468.965C22.9815 482.591 43.9055 599.848 119.52 586.286C195.134 572.724 174.085 455.402 98.4705 468.965Z" fill="#EBEBEB"/>
<path opacity="0.15" d="M156.872 530.389C156.465 551.297 144.343 571.548 117.718 576.309C54.9784 587.57 37.6094 490.171 100.255 478.941C100.666 478.901 101.074 478.838 101.477 478.753C42.7314 490.515 59.5674 582.667 119.391 571.939C143.791 567.554 155.572 549.512 156.872 530.389Z" fill="#DBDBDB"/>
<path opacity="0.15" d="M103.013 491.705C103.525 491.616 104.051 491.73 104.48 492.022C104.909 492.315 105.208 492.762 105.313 493.271L105.913 496.544C111.298 496.018 116.718 497.109 121.481 499.676C122.311 500.13 122.812 500.537 122.953 501.352C123.04 501.899 122.91 502.458 122.591 502.912C122.273 503.365 121.79 503.676 121.246 503.779C120.977 503.836 120.7 503.838 120.431 503.784C120.161 503.73 119.906 503.622 119.68 503.466C115.679 501.159 111.091 500.07 106.48 500.334L110.521 523.309C123.41 523.685 129.471 527.409 130.881 535.415C132.447 544.076 126.181 551.499 116.112 553.661L117.255 560.02C117.335 560.534 117.211 561.059 116.91 561.482C116.608 561.906 116.152 562.194 115.64 562.286C115.128 562.377 114.6 562.265 114.17 561.972C113.741 561.679 113.442 561.23 113.34 560.72L112.181 554.267C105.241 554.962 98.2681 553.307 92.3809 549.567C92.1113 549.45 91.8692 549.279 91.6701 549.063C91.471 548.847 91.3195 548.592 91.2251 548.314C91.1308 548.036 91.0959 547.741 91.1226 547.448C91.1492 547.156 91.2369 546.872 91.38 546.616C91.5231 546.36 91.7184 546.136 91.9532 545.96C92.188 545.783 92.4573 545.658 92.7434 545.593C93.0296 545.527 93.3264 545.522 93.6146 545.578C93.9029 545.634 94.1762 545.75 94.4169 545.918C99.4705 549.361 105.549 550.975 111.645 550.491L107.526 527.218C94.7929 526.718 88.9359 523.13 87.4639 514.971C85.9919 506.812 92.0369 499.137 101.964 497.117L101.4 493.985C101.323 493.47 101.448 492.946 101.749 492.521C102.049 492.096 102.502 491.804 103.013 491.705ZM106.787 523.028L102.778 500.757C94.9469 502.323 90.5149 508.024 91.5639 513.897C92.5639 519.457 95.7929 522.417 106.787 523.059V523.028ZM111.266 527.366L115.307 549.934C123.451 548.368 127.915 542.62 126.807 536.402C125.789 530.78 122.312 527.851 111.271 527.397L111.266 527.366Z" fill="#DBDBDB"/>
</g>
<g opacity="0.15">
<path opacity="0.15" d="M139.068 343.314C138.768 358.976 129.668 374.089 109.797 377.66C62.8906 386.07 49.9066 313.26 96.7346 304.865L97.6586 304.708C53.8066 313.508 66.3356 382.408 111.05 374.386C129.374 371.113 138.097 357.613 139.068 343.314Z" fill="#DBDBDB"/>
<path opacity="0.15" d="M106.68 314.355C107.064 314.42 107.41 314.626 107.651 314.933C107.891 315.24 108.008 315.626 107.98 316.015L107.68 318.474C111.651 319.251 115.296 321.204 118.142 324.081C118.384 324.259 118.575 324.497 118.698 324.772C118.821 325.046 118.87 325.348 118.842 325.647C118.789 325.953 118.651 326.237 118.442 326.467C118.234 326.697 117.964 326.862 117.665 326.944C117.366 327.027 117.05 327.022 116.754 326.931C116.457 326.84 116.193 326.666 115.992 326.43C113.631 323.91 110.58 322.139 107.221 321.34L105.201 338.568C114.332 341.7 117.855 345.631 117.151 351.661C116.384 358.192 110.351 362.17 102.617 361.512L102.053 366.32C102.001 366.709 101.798 367.062 101.487 367.302C101.177 367.543 100.784 367.651 100.395 367.603C100.005 367.556 99.6496 367.357 99.4059 367.049C99.1621 366.742 99.0495 366.35 99.0925 365.96L99.6715 361.105C94.5601 360.106 89.9294 357.427 86.5155 353.494C86.3579 353.349 86.2315 353.174 86.1443 352.978C86.057 352.783 86.0106 352.571 86.0079 352.357C86.0053 352.143 86.0465 351.931 86.1289 351.733C86.2114 351.536 86.3333 351.357 86.4874 351.208C86.6414 351.06 86.8242 350.944 87.0245 350.869C87.2249 350.793 87.4385 350.76 87.6524 350.77C87.8662 350.78 88.0757 350.834 88.268 350.928C88.4603 351.022 88.6313 351.154 88.7705 351.317C91.6405 354.89 95.648 357.372 100.126 358.349L102.193 340.777C93.1875 337.645 89.7575 333.823 90.4925 327.668C91.2275 321.513 97.1925 317.331 104.729 318.036L105.011 315.687C105.069 315.297 105.272 314.943 105.58 314.696C105.888 314.45 106.277 314.328 106.671 314.356L106.68 314.355ZM102.561 337.612L104.55 320.792C98.5495 320.213 94.1815 323.313 93.6645 327.761C93.1795 331.943 94.9175 334.761 102.565 337.612H102.561ZM104.832 341.684L102.832 358.724C109.018 359.324 113.432 356.218 113.983 351.535C114.483 347.259 112.636 344.409 104.837 341.684H104.832Z" fill="#DBDBDB"/>
</g>
</g>
</g>
<path d="M205.301 696.517C207.831 697.337 280.021 696.697 282.761 694.937C283.761 694.277 284.321 683.757 284.591 671.027C284.651 668.277 290.101 623.977 290.101 623.977L241.841 624.257L238.051 671.257C238.051 671.257 210.511 683.867 207.721 686.127C204.931 688.387 202.771 695.697 205.301 696.517Z" fill="#AD6359"/>
<path d="M205.301 696.517C207.831 697.337 280.021 696.707 282.771 694.937C283.581 694.407 284.081 687.757 284.391 678.717C272.131 680.567 230.201 686.777 220.961 685.867C214.671 685.247 218.721 681.367 223.241 678.207C216.241 681.557 209.061 685.077 207.721 686.157C204.941 688.427 202.771 695.697 205.301 696.517Z" fill="#263238"/>
<path d="M358.831 445.117C358.831 445.117 303.961 541.117 302.541 547.857C300.361 558.177 287.651 670.587 287.651 670.587L233.651 670.257C233.651 670.257 244.341 569.887 253.491 540.257C258.491 524.087 284.781 480.257 297.101 458.607C298.201 456.667 297.881 447.817 297.881 447.817L358.831 445.117Z" fill="#455A64"/>
<path d="M238.832 661.257C247.212 661.087 272.562 660.387 283.722 661.257C283.802 661.257 283.802 661.407 283.722 661.427C279.892 662.017 247.212 661.617 238.832 661.427C238.815 661.444 238.793 661.455 238.77 661.46C238.747 661.464 238.723 661.462 238.701 661.453C238.679 661.444 238.66 661.428 238.647 661.409C238.634 661.389 238.627 661.366 238.627 661.342C238.627 661.318 238.634 661.295 238.647 661.275C238.66 661.256 238.679 661.24 238.701 661.231C238.723 661.222 238.747 661.22 238.77 661.224C238.793 661.229 238.815 661.24 238.832 661.257Z" fill="#263238"/>
<path d="M349.371 453.977C345.771 459.787 341.961 465.477 338.281 471.227C334.601 476.977 330.921 482.757 327.281 488.557C320.041 500.15 312.988 511.84 306.121 523.627C302.771 529.06 299.916 534.783 297.591 540.727C295.474 546.692 293.904 552.838 292.901 559.087C291.831 565.367 291.161 571.697 290.531 578.017C289.864 584.757 289.198 591.494 288.531 598.227C287.161 612.007 284.061 636.477 282.691 650.227C282.524 651.914 282.364 653.604 282.211 655.297C282.211 655.547 282.631 655.597 282.661 655.347C284.211 641.647 287.201 617.227 288.591 603.517C289.291 596.684 289.984 589.854 290.671 583.027C291.311 576.687 291.921 570.327 292.831 564.027C293.664 557.802 294.961 551.649 296.711 545.617C298.653 539.366 301.282 533.349 304.551 527.677C311.121 515.947 318.121 504.407 325.121 492.887C332.121 481.367 339.331 469.687 346.741 458.277C347.651 456.867 348.571 455.467 349.521 454.077C349.631 453.967 349.444 453.867 349.371 453.977Z" fill="#263238"/>
<path d="M337.121 700.437C339.781 700.247 408.121 671.577 409.971 668.917C410.049 668.763 410.084 668.59 410.071 668.417C410.071 666.057 405.171 657.847 401.071 647.057C400.821 646.367 377.371 606.757 377.371 606.757L332.721 625.137L358.011 664.767C358.011 664.767 337.221 686.767 335.481 689.927C333.741 693.087 334.474 700.617 337.121 700.437Z" fill="#AD6359"/>
<path d="M337.121 700.437C339.771 700.237 408.121 671.587 409.961 668.917C410.039 668.759 410.073 668.583 410.061 668.407C410.061 666.517 406.871 660.827 403.501 653.067C391.181 662.137 352.621 686.067 345.361 686.627C341.531 686.897 344.711 680.567 347.231 676.347C341.871 682.197 336.331 688.347 335.481 689.927C333.761 693.067 334.471 700.617 337.121 700.437Z" fill="#263238"/>
<path d="M353.981 665.767L403.981 644.867C403.981 644.867 337.661 543.567 337.121 536.767C336.641 530.767 363.341 477.867 364.231 462.547C365.231 446.007 357.081 433.317 348.231 425.487L297.861 447.837C297.861 447.837 302.261 456.837 310.931 461.597C310.931 461.597 285.111 522.647 286.851 541.297C288.591 559.947 353.981 665.767 353.981 665.767Z" fill="#455A64"/>
<path d="M351.641 656.247C358.861 653.027 356.741 653.847 364.001 650.717C367.561 649.187 390.911 639.137 394.481 638.287C394.561 638.287 394.611 638.397 394.541 638.437C391.441 640.387 367.911 650.027 364.331 651.497C357.011 654.497 359.081 653.497 351.731 656.497C351.698 656.507 351.663 656.504 351.632 656.489C351.602 656.474 351.578 656.447 351.566 656.415C351.555 656.383 351.556 656.347 351.57 656.316C351.584 656.285 351.609 656.26 351.641 656.247Z" fill="#263238"/>
<path d="M302.401 460.577C307.81 461.77 313.108 463.416 318.241 465.497C318.277 465.515 318.305 465.546 318.321 465.583C318.336 465.62 318.338 465.661 318.326 465.699C318.314 465.738 318.289 465.77 318.255 465.792C318.221 465.814 318.181 465.822 318.141 465.817C312.821 464.337 307.421 462.957 302.201 461.197C302.131 461.161 302.077 461.102 302.047 461.03C302.017 460.957 302.013 460.876 302.037 460.802C302.061 460.727 302.111 460.664 302.178 460.623C302.245 460.581 302.324 460.565 302.401 460.577Z" fill="#263238"/>
<path d="M308.521 458.367C309.035 459.257 309.493 460.179 309.891 461.127C310.268 461.849 310.506 462.637 310.591 463.447C310.588 463.481 310.576 463.513 310.555 463.539C310.534 463.566 310.506 463.585 310.474 463.596C310.442 463.607 310.408 463.608 310.375 463.599C310.343 463.59 310.313 463.572 310.291 463.547C309.737 462.898 309.288 462.165 308.961 461.377C308.511 460.527 308.041 459.677 307.611 458.817C307.326 458.247 308.201 457.827 308.521 458.367Z" fill="#263238"/>
<path d="M307.831 453.507C307.501 452.717 307.181 451.917 306.831 451.137C306.481 450.357 306.061 449.517 305.771 448.677C305.721 448.547 305.511 448.677 305.571 448.777C305.891 449.567 306.111 450.417 306.371 451.237C306.631 452.057 306.921 452.877 307.201 453.687C307.731 455.207 308.371 456.687 309.041 458.177C308.191 458.232 307.34 458.095 306.551 457.777C305.751 457.286 305.128 456.554 304.771 455.687C304.301 454.797 303.871 453.897 303.381 453.017C302.805 452.062 302.313 451.058 301.911 450.017C301.911 449.887 301.661 450.017 301.711 450.107C302.442 452.317 303.394 454.448 304.551 456.467C305.041 457.247 305.431 458.067 306.311 458.367C307.288 458.631 308.311 458.685 309.311 458.527C309.441 458.527 309.591 458.527 309.551 458.337C309.021 456.767 308.481 455.077 307.831 453.507Z" fill="#263238"/>
<path d="M310.121 463.577C308.331 467.497 306.761 471.407 305.121 475.317C303.481 479.227 301.961 483.007 300.481 486.887C297.481 494.734 294.815 502.7 292.481 510.787C291.328 514.787 290.275 518.807 289.321 522.847C288.371 526.907 286.781 534.207 286.771 538.377C286.771 547.077 296.141 565.377 298.031 569.147C299.191 571.477 299.571 571.147 299.031 569.977C297.441 566.657 288.291 547.467 287.811 539.517C287.571 535.407 289.291 529.587 290.171 525.577C291.051 521.567 292.091 517.417 293.171 513.377C295.371 505.377 298.011 497.617 300.731 489.827C302.251 485.457 303.891 481.137 305.441 476.777C306.991 472.417 308.611 468.437 310.331 463.647C310.337 463.633 310.34 463.618 310.34 463.603C310.34 463.587 310.337 463.572 310.33 463.558C310.324 463.544 310.315 463.532 310.303 463.522C310.292 463.511 310.279 463.504 310.264 463.499C310.25 463.494 310.234 463.492 310.219 463.494C310.204 463.495 310.189 463.499 310.176 463.507C310.162 463.514 310.151 463.524 310.141 463.536C310.132 463.548 310.125 463.562 310.121 463.577Z" fill="#263238"/>
<path d="M348.121 450.207C347.211 449.887 345.971 450.447 345.061 450.617C343.884 450.83 342.695 450.963 341.501 451.017C340.324 451.07 339.144 451.044 337.971 450.937C336.789 450.93 335.626 450.638 334.581 450.087C332.855 448.866 331.373 447.333 330.211 445.567C328.815 443.772 327.662 441.802 326.781 439.707C326.731 439.577 326.551 439.707 326.591 439.797C326.981 440.997 327.281 442.207 327.771 443.377C328.258 444.474 328.826 445.534 329.471 446.547C330.651 448.437 332.011 450.457 334.011 451.547C336.011 452.637 338.791 452.607 341.111 452.447C342.457 452.354 343.794 452.16 345.111 451.867C346.111 451.657 347.651 451.477 348.251 450.637C348.275 450.601 348.29 450.561 348.297 450.518C348.303 450.476 348.3 450.432 348.288 450.391C348.275 450.35 348.254 450.312 348.225 450.28C348.196 450.248 348.16 450.223 348.121 450.207Z" fill="#263238"/>
<path d="M389.511 635.467C381.101 623.077 345.712 562.157 337.832 549.377C335.942 546.317 333.771 543.267 332.541 539.867C331.201 536.177 331.891 532.577 333.021 528.937C335.134 522.266 337.628 515.722 340.491 509.337C343.311 502.927 346.352 496.607 349.342 490.267C352.332 483.927 355.472 477.667 357.692 471.067C359.822 464.767 360.582 458.247 358.812 451.767C357.042 445.287 353.351 439.577 349.491 434.207L346.411 429.977C346.331 429.867 346.172 429.977 346.252 430.107C350.502 435.697 354.651 441.617 357.181 448.217C358.474 451.469 359.218 454.912 359.381 458.407C359.444 461.952 358.938 465.483 357.881 468.867C355.931 475.467 352.791 481.727 349.881 487.937C346.971 494.147 343.882 500.587 340.972 506.987C338.039 513.407 335.445 519.976 333.202 526.667C332.202 529.667 331.132 532.777 331.202 535.957C331.322 539.447 333.021 542.577 334.791 545.497C342.461 558.207 377.672 618.697 386.032 631.037C387.082 632.597 388.141 634.147 389.201 635.707C389.236 635.737 389.281 635.755 389.327 635.756C389.373 635.757 389.418 635.742 389.455 635.714C389.491 635.686 389.517 635.646 389.527 635.601C389.537 635.556 389.532 635.509 389.511 635.467Z" fill="#263238"/>
<path d="M317.962 390.947C317.332 414.167 313.482 438.947 304.252 446.947C296.352 453.827 281.102 466.217 259.382 467.707C255.072 467.997 254.542 434.327 259.162 434.467C268.282 434.757 283.462 427.737 286.532 424.377C288.062 422.707 298.042 398.557 305.472 383.567C314.492 365.377 318.222 381.697 317.962 390.947Z" fill="#AD6359"/>
<path d="M246.401 473.187C253.261 471.987 263.591 469.187 266.941 466.677C270.081 464.287 263.431 434.907 259.401 434.477C246.851 433.147 230.921 439.287 226.221 444.617C221.521 449.947 239.291 474.427 246.401 473.187Z" fill="#AD6359"/>
<path d="M256.24 434.297C256.24 434.297 224.91 427.587 227.76 440.117C228.61 443.847 236.54 458.117 239.44 456.597C243.18 454.597 240.99 448.027 238.95 444.117C238.95 444.117 248.41 447.807 252.95 441.987C254.67 439.738 255.801 437.094 256.24 434.297Z" fill="#AD6359"/>
<path d="M227.591 439.067C227.753 440.568 228.134 442.037 228.721 443.427C229.267 444.833 229.908 446.199 230.641 447.517C232.084 450.188 233.757 452.727 235.641 455.107C236.136 455.741 236.722 456.297 237.381 456.757C237.757 457.023 238.187 457.204 238.641 457.287C238.893 457.328 239.149 457.328 239.401 457.287C239.65 457.243 239.889 457.159 240.111 457.037C240.901 456.593 241.51 455.885 241.831 455.037C242.107 454.257 242.245 453.435 242.241 452.607C242.207 451.039 241.899 449.489 241.331 448.027C240.814 446.594 240.192 445.2 239.471 443.857L238.811 444.577C239.902 444.959 241.027 445.237 242.171 445.407C243.309 445.582 244.461 445.642 245.611 445.587C246.756 445.52 247.885 445.284 248.961 444.887C250.033 444.5 251.019 443.906 251.861 443.137C250.947 443.77 249.933 444.243 248.861 444.537C247.797 444.816 246.7 444.947 245.601 444.927C244.501 444.917 243.406 444.797 242.331 444.567C241.263 444.349 240.219 444.031 239.211 443.617L237.981 443.097L238.551 444.337C239.197 445.655 239.755 447.015 240.221 448.407C240.707 449.752 240.971 451.167 241.001 452.597C241.001 453.947 240.571 455.387 239.551 455.917C238.531 456.447 237.461 455.367 236.551 454.307C235.641 453.247 234.731 452.007 233.871 450.797C233.011 449.587 232.171 448.367 231.391 447.097C229.714 444.634 228.432 441.925 227.591 439.067Z" fill="#263238"/>
<path d="M315.661 428.217L289.931 416.407C289.931 416.407 298.121 392.907 305.121 381.627C312.121 370.347 318.271 371.797 318.831 388.407C319.391 405.017 315.661 428.217 315.661 428.217Z" fill="#003366"/>
<path d="M292.75 412.537C296.39 413.737 299.94 415.277 303.46 416.797C306.98 418.317 310.4 419.907 313.76 421.687C313.83 421.687 313.76 421.827 313.76 421.797C310.18 420.417 306.64 418.917 303.13 417.377C299.62 415.837 296.13 414.377 292.75 412.667C292.62 412.627 292.68 412.507 292.75 412.537Z" fill="#263238"/>
<path opacity="0.1" d="M302.461 422.157L315.661 428.217C315.661 428.217 319.361 405.017 318.801 388.407C318.601 382.687 317.741 378.777 316.411 376.557L302.461 422.157Z" fill="black"/>
<path d="M299.87 412.647L296.94 448.647L321.72 444.347L323.43 444.057L361.89 437.387H362.02C362.02 437.387 361.77 436.627 361.27 435.247C358.27 426.787 346.79 395.357 335.7 378.997C334.85 377.737 334 376.567 333.15 375.507L332.54 374.747C331.396 373.341 329.995 372.167 328.41 371.287C322.23 367.887 315.08 370.597 311.8 373.447C310.51 374.567 297.8 392.087 296.56 399.387C295.492 405.767 299.87 412.647 299.87 412.647Z" fill="#006B70"/>
<path d="M310.261 410.087C313.213 410.358 316.141 410.846 319.021 411.547C320.451 411.917 321.851 412.347 323.251 412.817C323.941 413.047 324.641 413.247 325.351 413.457C326.081 413.689 326.837 413.834 327.601 413.887C327.614 413.887 327.627 413.892 327.636 413.902C327.646 413.911 327.651 413.924 327.651 413.937C327.651 413.95 327.646 413.963 327.636 413.972C327.627 413.982 327.614 413.987 327.601 413.987C326.879 414.037 326.153 414.037 325.431 413.987C324.733 413.899 324.042 413.765 323.361 413.587C321.911 413.227 320.471 412.807 319.021 412.427C316.111 411.677 313.191 410.917 310.221 410.377C310.121 410.307 310.121 410.077 310.261 410.087Z" fill="#263238"/>
<path d="M302.961 412.687C305.393 412.437 307.837 412.327 310.281 412.357C311.501 412.357 312.721 412.457 313.931 412.577L315.681 412.777C316.311 412.857 316.941 413.027 317.581 413.107C317.641 413.107 317.651 413.217 317.581 413.207C316.971 413.157 316.361 413.207 315.751 413.207H313.921L310.271 413.117C307.821 413.027 305.391 412.967 302.951 412.957C302.821 412.887 302.831 412.707 302.961 412.687Z" fill="#263238"/>
<path d="M327.671 373.767C327.051 374.767 319.561 380.057 314.671 378.167C313.121 377.547 316.121 368.767 316.121 368.767L316.191 368.067L317.191 358.287L330.191 355.007L332.031 354.617C332.031 354.617 331.581 357.267 331.031 360.617C331.014 360.776 330.984 360.933 330.941 361.087C330.911 361.257 330.891 361.447 330.851 361.627C330.771 362.117 330.681 362.627 330.591 363.127C330.501 363.627 330.451 363.877 330.361 364.277C330.271 364.677 330.191 365.057 330.111 365.467C329.486 368.286 328.671 371.059 327.671 373.767Z" fill="#AD6359"/>
<path d="M330.951 360.577C329.171 362.827 326.922 364.662 324.361 365.956C321.8 367.249 318.988 367.97 316.121 368.067L317.121 358.287L330.121 355.007L331.961 354.617C331.961 354.617 331.541 357.267 330.951 360.577Z" fill="#263238"/>
<path d="M307.791 341.687C303.011 358.257 312.391 362.987 315.971 364.017C319.211 364.947 330.381 367.707 336.851 351.717C343.321 335.727 337.121 328.267 329.851 325.717C322.581 323.167 312.561 325.107 307.791 341.687Z" fill="#AD6359"/>
<path d="M312.621 337.767C313.015 337.822 313.413 337.852 313.811 337.857C314.225 337.947 314.657 337.897 315.041 337.717C315.151 337.637 315.23 337.523 315.267 337.392C315.303 337.261 315.294 337.122 315.241 336.997C315.106 336.762 314.911 336.567 314.675 336.433C314.439 336.3 314.172 336.232 313.901 336.237C313.35 336.161 312.79 336.293 312.331 336.607C312.229 336.684 312.153 336.789 312.11 336.909C312.068 337.029 312.062 337.159 312.093 337.283C312.124 337.406 312.19 337.518 312.284 337.604C312.378 337.69 312.495 337.747 312.621 337.767Z" fill="#263238"/>
<path d="M324.982 343.367C324.662 343.13 324.355 342.877 324.062 342.607C323.7 342.367 323.426 342.016 323.282 341.607C323.263 341.473 323.287 341.336 323.352 341.218C323.417 341.099 323.519 341.004 323.642 340.947C323.902 340.874 324.178 340.871 324.44 340.939C324.702 341.008 324.94 341.145 325.132 341.337C325.577 341.668 325.884 342.153 325.992 342.697C326.02 342.825 326.008 342.959 325.959 343.08C325.91 343.202 325.825 343.305 325.716 343.378C325.607 343.45 325.478 343.488 325.347 343.486C325.216 343.484 325.089 343.443 324.982 343.367Z" fill="#263238"/>
<path d="M320.971 345.767C320.971 345.767 321.041 345.847 321.031 345.897C320.641 347.007 320.381 348.337 321.281 349.037V349.097C320.071 348.557 320.43 346.767 320.971 345.767Z" fill="#263238"/>
<path d="M322.342 344.947C324.192 345.377 323.192 349.037 321.482 348.637C319.772 348.237 320.802 344.587 322.342 344.947Z" fill="#263238"/>
<path d="M323.012 345.337C323.272 345.627 323.482 346.077 323.862 346.227C324.242 346.377 324.732 346.097 325.132 345.807C325.14 345.807 325.148 345.808 325.154 345.811C325.161 345.814 325.168 345.819 325.172 345.825C325.177 345.831 325.181 345.837 325.182 345.845C325.184 345.852 325.184 345.86 325.182 345.867C325.002 346.567 324.532 347.217 323.752 347.117C322.972 347.017 322.752 346.267 322.752 345.517C322.741 345.377 322.901 345.217 323.012 345.337Z" fill="#263238"/>
<path d="M314.121 342.977C314.121 342.977 314.021 342.977 314.011 343.057C313.741 344.197 313.251 345.467 312.121 345.577V345.637C313.431 345.767 314.071 344.107 314.121 342.977Z" fill="#263238"/>
<path d="M313.431 341.527C311.641 340.907 310.531 344.527 312.191 345.107C313.851 345.687 314.931 342.047 313.431 341.527Z" fill="#263238"/>
<path d="M312.601 341.537C312.261 341.637 311.871 341.897 311.521 341.817C311.171 341.737 310.941 341.237 310.801 340.817H310.731C310.501 341.507 310.511 342.297 311.141 342.637C311.771 342.977 312.331 342.487 312.711 341.847C312.781 341.767 312.741 341.487 312.601 341.537Z" fill="#263238"/>
<path d="M317.631 354.427C317.301 354.637 316.941 354.947 316.521 354.887C316.097 354.781 315.699 354.591 315.351 354.327H315.291C315.394 354.6 315.572 354.838 315.803 355.014C316.035 355.191 316.311 355.299 316.601 355.327C316.849 355.321 317.089 355.24 317.29 355.095C317.492 354.951 317.645 354.75 317.731 354.517C317.771 354.447 317.681 354.397 317.631 354.427Z" fill="#263238"/>
<path d="M314.12 349.007C314.12 349.007 313.4 350.627 313.12 351.417C313.12 351.497 313.29 351.587 313.55 351.677C314.198 351.998 314.922 352.133 315.642 352.067C316.362 352.002 317.05 351.739 317.63 351.307C317.71 351.247 317.63 351.137 317.54 351.167C316.329 351.572 315.02 351.572 313.81 351.167C313.81 350.937 315.12 348.437 315 348.387C314.363 348.271 313.715 348.237 313.07 348.287C314.46 344.867 316.39 341.697 317.72 338.287C317.732 338.262 317.735 338.233 317.726 338.206C317.718 338.18 317.7 338.157 317.676 338.143C317.652 338.129 317.623 338.125 317.596 338.131C317.569 338.137 317.545 338.154 317.53 338.177C315.375 341.516 313.563 345.064 312.12 348.767C311.915 349.177 313.72 349.047 314.12 349.007Z" fill="#263238"/>
<path d="M314.121 351.627C314.406 352.324 314.868 352.934 315.461 353.397C315.792 353.641 316.19 353.777 316.601 353.787C317.501 353.787 317.731 353.027 317.751 352.327C317.759 351.954 317.726 351.582 317.651 351.217C316.549 351.728 315.311 351.871 314.121 351.627Z" fill="#263238"/>
<path d="M315.481 353.397C315.812 353.641 316.21 353.777 316.621 353.787C317.521 353.787 317.751 353.027 317.771 352.327C317.325 352.214 316.853 352.259 316.436 352.454C316.019 352.649 315.682 352.982 315.481 353.397Z" fill="#FF9CBD"/>
<path d="M335.291 352.827C331.291 351.307 334.291 338.347 334.691 336.757C334.391 337.757 332.791 342.967 332.331 343.037C331.899 342.876 331.494 342.65 331.131 342.367C331.334 341.746 331.491 341.111 331.601 340.467C331.661 340.167 331.281 341.057 330.751 342.117L330.071 341.657C330.557 340.347 330.87 338.979 331.001 337.587C331.001 337.067 330.181 339.217 329.061 340.977C325.922 338.781 322.548 336.943 319.001 335.497C318.001 335.107 317.111 334.827 316.321 334.597C316.702 333.688 317.036 332.761 317.321 331.817C316.709 332.638 316.177 333.516 315.731 334.437C315.301 334.327 314.901 334.217 314.541 334.137C315.161 331.947 317.341 328.847 316.821 329.257C315.251 330.535 313.937 332.099 312.951 333.867C311.391 333.657 310.881 333.807 310.951 333.417C311.111 332.697 313.401 326.227 319.591 323.417C326.311 320.327 337.491 323.277 340.741 332.617C340.741 332.617 346.241 338.617 345.311 343.887C344.381 349.157 337.631 353.697 335.291 352.827Z" fill="#263238"/>
<path d="M340.971 333.497C338.541 330.897 334.971 314.567 349.281 309.747C363.391 305.007 375.801 324.467 364.121 334.857C356.271 341.837 346.121 339.017 340.971 333.497Z" fill="#263238"/>
<path d="M321.031 353.017C322.06 353.272 323.14 353.233 324.148 352.905C325.155 352.577 326.051 351.972 326.731 351.16C327.412 350.348 327.852 349.36 327.999 348.311C328.146 347.261 327.996 346.191 327.565 345.223C327.135 344.255 326.441 343.427 325.562 342.833C324.684 342.24 323.657 341.905 322.598 341.867C321.538 341.829 320.49 342.089 319.571 342.618C318.652 343.146 317.901 343.922 317.401 344.857C316.697 346.18 316.545 347.728 316.98 349.162C317.415 350.596 318.401 351.799 319.721 352.507C320.134 352.734 320.574 352.905 321.031 353.017ZM323.561 342.767C323.954 342.864 324.334 343.009 324.691 343.197C325.798 343.783 326.64 344.769 327.045 345.954C327.45 347.139 327.388 348.434 326.872 349.575C326.355 350.716 325.423 351.617 324.265 352.094C323.107 352.572 321.811 352.589 320.64 352.144C319.469 351.698 318.513 350.823 317.965 349.697C317.418 348.571 317.32 347.278 317.693 346.082C318.065 344.886 318.88 343.878 319.97 343.262C321.061 342.646 322.345 342.469 323.561 342.767Z" fill="#003366"/>
<path d="M308.901 348.397C311.001 348.917 313.441 347.227 314.471 344.467C314.993 343.156 315.088 341.714 314.741 340.347C314.626 339.756 314.361 339.205 313.973 338.745C313.585 338.285 313.085 337.932 312.522 337.72C311.959 337.507 311.351 337.443 310.756 337.531C310.16 337.62 309.598 337.86 309.121 338.227C307.966 339.037 307.092 340.187 306.621 341.517C305.531 344.437 306.401 347.517 308.621 348.287L308.901 348.397ZM311.971 338.317C312.067 338.336 312.161 338.367 312.251 338.407C312.695 338.596 313.087 338.889 313.393 339.262C313.699 339.634 313.911 340.075 314.011 340.547C314.315 341.762 314.231 343.042 313.771 344.207C312.771 346.737 310.601 348.207 308.771 347.577C306.941 346.947 306.311 344.307 307.261 341.777C307.675 340.597 308.448 339.576 309.471 338.857C309.827 338.597 310.233 338.414 310.664 338.321C311.094 338.228 311.54 338.227 311.971 338.317Z" fill="#003366"/>
<path d="M317.341 345.537L318.001 345.167C317.451 344.167 315.931 342.587 314.121 343.487L314.461 344.157C316.121 343.357 317.291 345.447 317.341 345.537Z" fill="#003366"/>
<path d="M340.431 355.767L341.181 355.677C341.181 355.327 340.731 352.227 339.241 351.387C337.751 350.547 328.031 347.927 327.611 347.817L327.421 348.547C330.231 349.307 337.801 351.427 338.871 352.037C339.941 352.647 340.331 354.887 340.431 355.767Z" fill="#003366"/>
<path d="M333.851 352.237C333.851 352.237 338.581 347.677 340.721 349.467C342.861 351.257 338.571 358.367 335.551 358.857C335.169 358.948 334.772 358.96 334.384 358.893C333.997 358.826 333.627 358.681 333.297 358.467C332.967 358.253 332.684 357.974 332.465 357.647C332.245 357.321 332.095 356.953 332.021 356.567L333.851 352.237Z" fill="#AD6359"/>
<path d="M339.441 351.477V351.547C337.311 351.967 335.911 353.547 334.811 355.337C334.963 355.161 335.151 355.02 335.362 354.924C335.574 354.827 335.803 354.777 336.036 354.777C336.268 354.777 336.498 354.827 336.709 354.924C336.92 355.02 337.109 355.161 337.261 355.337C337.261 355.337 337.261 355.447 337.181 355.427C336.856 355.251 336.485 355.179 336.118 355.222C335.751 355.265 335.406 355.42 335.131 355.667C334.669 356.081 334.253 356.543 333.891 357.047C333.761 357.207 333.461 357.047 333.571 356.857C334.041 354.327 336.691 351.197 339.441 351.477Z" fill="#263238"/>
<path d="M316.011 368.767L317.121 377.187L329.121 369.927L331.031 373.707C331.031 373.707 317.831 386.707 317.951 386.017L316.471 378.627L310.761 382.057L314.051 370.637L316.011 368.767Z" fill="#EBEBEB"/>
<path d="M312.041 376.317C312.651 374.447 313.211 372.557 313.901 370.717C313.901 370.647 314.041 370.647 314.041 370.717C313.951 372.647 311.591 379.777 311.161 381.517C311.401 381.367 316.401 378.517 316.431 378.627C316.851 379.837 317.941 385.227 317.991 385.707C320.081 383.637 328.761 375.597 331.091 373.707C331.105 373.7 331.12 373.698 331.135 373.701C331.15 373.704 331.163 373.712 331.174 373.723C331.184 373.734 331.19 373.749 331.191 373.764C331.193 373.779 331.189 373.794 331.181 373.807C329.181 376.047 317.951 386.707 317.841 386.647C317.197 384.072 316.686 381.465 316.311 378.837C315.421 379.507 310.261 382.837 310.311 382.517C310.782 380.422 311.36 378.353 312.041 376.317Z" fill="#263238"/>
<path d="M235.121 437.877C238.551 439.217 235.011 442.497 235.011 442.497C235.011 442.497 241.251 438.997 244.261 441.747C247.271 444.497 242.741 448.227 242.421 448.507C242.751 448.317 248.571 445.257 251.321 448.327C254.071 451.397 249.061 454.597 248.731 454.797C249.101 454.727 253.971 453.797 255.531 456.637C258.191 461.467 245.791 464.097 243.531 467.937C243.531 467.937 246.811 472.937 246.961 473.117C246.961 473.117 238.011 475.447 232.961 472.117C232.222 471.643 231.668 470.929 231.391 470.096C231.115 469.262 231.132 468.359 231.441 467.537C231.441 467.537 227.751 468.837 225.521 466.487C224.381 465.277 225.301 462.367 225.301 462.367C225.301 462.367 222.301 463.287 220.441 461.067C218.951 459.307 220.111 456.667 220.111 456.667C220.111 456.667 216.821 456.207 215.891 453.917C213.995 449.257 227.731 435.017 235.121 437.877Z" fill="#AD6359"/>
<path d="M220.232 456.187C220.182 456.237 220.102 456.187 220.142 456.127C223.628 450.106 228.858 445.284 235.142 442.297C235.352 442.207 235.582 442.497 235.372 442.637C229.696 446.397 224.596 450.962 220.232 456.187Z" fill="#263238"/>
<path d="M225.2 462.377C225.15 462.437 225.05 462.377 225.09 462.287C228.6 456.347 234.94 450.517 242.42 448.217C242.68 448.137 242.99 448.327 242.7 448.437C237.84 450.347 229.23 457.417 225.2 462.377Z" fill="#263238"/>
<path d="M249.287 454.817C242.207 457.297 236.627 461.817 231.567 467.247C231.507 467.317 231.407 467.247 231.447 467.147C233.197 463.807 236.787 460.667 239.787 458.467C242.53 456.369 245.774 455.024 249.197 454.567C249.342 454.547 249.442 454.767 249.287 454.817Z" fill="#263238"/>
<path d="M234.991 442.497C236.252 441.94 237.561 441.498 238.901 441.177C240.191 440.823 241.552 440.823 242.841 441.177C243.427 441.36 243.923 441.756 244.231 442.287C244.542 442.826 244.707 443.436 244.711 444.057C244.66 444.674 244.482 445.273 244.188 445.817C243.893 446.36 243.489 446.837 243.001 447.217L240.691 449.157L243.541 448.157C244.801 447.692 246.129 447.435 247.471 447.397C248.094 447.344 248.72 447.424 249.31 447.63C249.899 447.837 250.438 448.167 250.891 448.597C251.307 449.001 251.571 449.535 251.64 450.11C251.71 450.685 251.579 451.267 251.271 451.757C250.561 452.842 249.587 453.73 248.441 454.337L245.331 456.107L248.831 455.457C249.819 455.269 250.828 455.209 251.831 455.277C252.772 455.304 253.684 455.611 254.451 456.157C254.788 456.416 255.045 456.764 255.193 457.162C255.342 457.56 255.376 457.991 255.291 458.407C254.966 459.307 254.39 460.095 253.631 460.677C252.011 461.973 250.288 463.137 248.481 464.157C247.591 464.707 246.691 465.267 245.821 465.857C244.911 466.403 244.127 467.136 243.521 468.007C244.208 467.222 245.04 466.577 245.971 466.107C246.881 465.577 247.811 465.107 248.741 464.627C250.654 463.707 252.475 462.609 254.181 461.347C255.123 460.682 255.847 459.753 256.261 458.677C256.425 458.068 256.408 457.425 256.21 456.826C256.013 456.227 255.645 455.699 255.151 455.307C254.219 454.605 253.097 454.197 251.931 454.137C250.827 454.039 249.714 454.086 248.621 454.277L249.021 455.397C250.39 454.709 251.556 453.675 252.401 452.397C252.848 451.671 253.028 450.812 252.911 449.967C252.773 449.143 252.389 448.38 251.811 447.777C251.237 447.234 250.555 446.818 249.808 446.558C249.062 446.297 248.269 446.198 247.481 446.267C246.004 446.325 244.548 446.629 243.171 447.167L243.701 448.087C244.291 447.6 244.766 446.989 245.095 446.298C245.423 445.607 245.596 444.852 245.601 444.087C245.559 443.323 245.321 442.583 244.911 441.937C244.482 441.281 243.828 440.804 243.071 440.597C241.656 440.309 240.188 440.419 238.831 440.917C237.496 441.298 236.208 441.828 234.991 442.497Z" fill="#263238"/>
<path d="M301.631 454.367C303.011 452.977 302.301 452.247 298.841 452.657C295.381 453.067 282.061 457.657 280.841 452.867C279.621 448.077 298.531 441.867 304.341 441.647C310.151 441.427 319.631 443.017 319.631 443.017C316.211 444.967 308.321 450.467 301.631 454.367Z" fill="#AD6359"/>
<path d="M333.801 418.877C337.501 417.877 341.311 417.167 345.081 416.477C348.851 415.787 352.581 415.227 356.361 414.837C356.378 414.837 356.395 414.844 356.407 414.856C356.419 414.868 356.426 414.885 356.426 414.902C356.426 414.919 356.419 414.936 356.407 414.948C356.395 414.96 356.378 414.967 356.361 414.967C352.611 415.797 348.841 416.507 345.061 417.177C341.281 417.847 337.571 418.557 333.811 419.017C333.751 419.017 333.731 418.897 333.801 418.877Z" fill="#263238"/>
<path d="M268.137 365.12C193.815 365.12 193.695 470.802 268.137 470.802C342.579 470.802 342.618 365.12 268.137 365.12Z" fill="#1DA1F3"/>
<path d="M313.363 427.864C309.393 446.044 294.336 461.817 268.163 461.817C206.397 461.817 206.49 374.104 268.163 374.104H269.38C211.333 375.163 211.624 458.231 270.518 458.231C294.601 458.258 308.864 444.417 313.363 427.864Z" fill="#003366"/>
<path d="M193.703 539.608C172.441 552.896 191.303 583.15 212.599 569.84C233.895 556.531 215.01 526.291 193.703 539.608Z" fill="#1DA1F3"/>
<path d="M217.862 549.474C219.977 555.385 218.489 562.589 211.002 567.269C193.333 578.312 177.676 553.204 195.32 542.176L195.668 541.959C179.251 552.64 194.188 576.352 211.036 565.822C217.928 561.521 219.534 555.011 217.862 549.474Z" fill="#003366"/>
<path d="M47.4516 455.556C6.88169 480.913 42.872 538.64 83.5064 513.244C124.141 487.848 88.1081 430.146 47.4516 455.556Z" fill="#1DA1F3"/>
<path d="M93.5446 474.377C97.579 485.652 94.7414 499.401 80.451 508.333C46.7354 529.405 16.8612 481.495 50.5267 460.454L51.1915 460.038C19.867 480.419 48.3657 525.664 80.5133 505.572C93.6722 497.368 96.7359 484.947 93.5446 474.377Z" fill="#003366"/>
<path d="M331.441 468.919C321.155 474.591 308.585 481.84 295.696 481.145C294.258 481.099 292.878 480.571 291.777 479.645C285.996 479.438 284.361 476.617 284.361 476.617C279.033 474.761 277.747 471.65 277.747 471.65C277.747 471.65 270.968 471.329 270.475 467.16C269.92 462.483 279.558 463.852 285.318 461.332C298.518 455.566 315.663 443.652 319.263 441.632L331.441 468.919Z" fill="#AD6359"/>
<path d="M304.122 465.657C300.387 467.333 296.541 468.75 292.612 469.897C288.24 470.888 283.801 471.556 279.332 471.897C279.303 471.897 279.275 471.909 279.254 471.929C279.233 471.95 279.222 471.978 279.222 472.007C279.222 472.036 279.233 472.064 279.254 472.085C279.275 472.106 279.303 472.117 279.332 472.117C288.034 472.346 296.632 470.185 304.192 465.867C304.382 465.767 304.332 465.587 304.122 465.657Z" fill="#263238"/>
<path d="M308.62 472.917C304.83 474.227 298.15 476.497 285.67 476.647C285.67 476.647 285.61 476.717 285.67 476.717C293.524 477.667 301.488 476.414 308.67 473.097C308.91 472.997 308.87 472.827 308.62 472.917Z" fill="#263238"/>
<path d="M310.951 476.857C304.421 478.857 300.061 479.277 292.951 479.667C292.951 479.667 292.901 479.747 292.951 479.747C301.121 480.147 304.131 479.367 311.091 477.077C311.291 476.997 311.211 476.767 310.951 476.857Z" fill="#263238"/>
<path d="M342.811 386.927C355.121 406.597 366.361 433.587 364.321 438.367C360.211 448.007 345.321 461.837 327.411 471.507C323.601 473.567 308.771 448.207 312.701 445.767C320.441 440.947 334.211 429.907 334.841 427.767C335.471 425.627 330.451 404.347 328.331 387.767C325.751 367.567 337.901 379.087 342.811 386.927Z" fill="#AD6359"/>
<path d="M361.561 419.217L333.561 423.657C333.561 423.657 327.351 399.557 326.891 386.317C326.431 373.077 332.381 370.837 342.051 384.317C351.721 397.797 361.561 419.217 361.561 419.217Z" fill="#006B70"/>
<path d="M333.401 423.587C332.011 418.377 331.031 412.987 330.051 407.637C329.071 402.287 328.251 396.987 327.641 391.587C327.641 391.487 327.781 391.447 327.801 391.587C328.961 396.887 329.971 402.237 330.921 407.587C331.871 412.937 332.921 418.197 333.571 423.587C333.564 423.605 333.553 423.62 333.538 423.631C333.523 423.642 333.504 423.648 333.486 423.648C333.467 423.648 333.449 423.642 333.433 423.631C333.418 423.62 333.407 423.605 333.401 423.587Z" fill="#263238"/>
<path d="M112.896 342.936L109.393 345.022C108.384 344.022 107.186 343.239 105.874 342.721L110.963 339.69C111.383 339.44 111.685 339.028 111.801 338.547C111.917 338.066 111.838 337.553 111.581 337.123C111.325 336.693 110.912 336.379 110.434 336.252C109.955 336.125 109.45 336.194 109.03 336.444L91.5926 346.83C91.1722 347.08 90.8708 347.491 90.7548 347.973C90.6388 348.454 90.7176 348.966 90.974 349.397C91.2303 349.827 91.6432 350.141 92.1217 350.268C92.6003 350.395 93.1053 350.326 93.5257 350.075L99.0739 346.771C100.123 346.151 101.33 345.848 102.555 345.896C103.781 345.944 104.975 346.342 106 347.043L95.4588 353.321C95.0384 353.572 94.7371 353.983 94.621 354.464C94.505 354.946 94.5839 355.458 94.8402 355.888C95.0966 356.319 95.5094 356.632 95.988 356.759C96.4665 356.886 96.9716 356.817 97.392 356.567L108.488 349.958C109.101 351.419 109.179 353.043 108.707 354.535C108.236 356.026 107.246 357.286 105.919 358.084L100.292 361.435C100.213 361.472 100.139 361.516 100.07 361.568C99.9547 361.613 99.8478 361.677 99.7527 361.756C99.6671 361.858 99.5981 361.974 99.5482 362.098L99.4256 362.325C99.3866 362.457 99.3672 362.594 99.368 362.733C99.3578 362.837 99.3553 362.941 99.3607 363.045C99.4042 363.15 99.4629 363.249 99.5346 363.337C99.5181 363.567 99.5661 363.797 99.673 364.002C99.7106 364.082 99.756 364.158 99.8084 364.23C99.8561 364.347 99.9213 364.456 100.002 364.554C100.104 364.643 100.22 364.715 100.344 364.768C100.344 364.768 100.421 364.898 100.571 364.897L116.848 370.592C117.316 370.756 117.826 370.727 118.265 370.511C118.704 370.295 119.036 369.909 119.189 369.439C119.342 368.969 119.303 368.453 119.08 368.004C118.857 367.556 118.469 367.211 118.001 367.047L105.681 362.623L107.773 361.377C109.96 360.087 111.572 358.004 112.291 355.541C113.011 353.077 112.785 350.412 111.659 348.07L114.829 346.181C115.249 345.931 115.551 345.52 115.667 345.038C115.783 344.557 115.704 344.045 115.448 343.614C115.191 343.184 114.778 342.871 114.3 342.743C113.821 342.616 113.316 342.685 112.896 342.936Z" fill="#563E82"/>
<path d="M280.073 407.278H275.826C275.456 405.862 274.801 404.538 273.904 403.389H280.073C280.583 403.389 281.072 403.184 281.432 402.819C281.793 402.455 281.995 401.96 281.995 401.444C281.995 400.929 281.793 400.434 281.432 400.07C281.072 399.705 280.583 399.5 280.073 399.5H258.932C258.422 399.5 257.933 399.705 257.573 400.07C257.212 400.434 257.01 400.929 257.01 401.444C257.01 401.96 257.212 402.455 257.573 402.819C257.933 403.184 258.422 403.389 258.932 403.389H265.659C266.928 403.393 268.169 403.761 269.241 404.449C270.312 405.137 271.169 406.118 271.713 407.278H258.932C258.422 407.278 257.933 407.483 257.573 407.847C257.212 408.212 257.01 408.706 257.01 409.222C257.01 409.738 257.212 410.232 257.573 410.597C257.933 410.962 258.422 411.167 258.932 411.167H272.385C272.155 412.782 271.359 414.259 270.142 415.33C268.925 416.401 267.368 416.993 265.755 417H258.932C258.842 416.991 258.752 416.991 258.663 417C258.535 416.98 258.406 416.98 258.278 417C258.147 417.045 258.024 417.111 257.913 417.194L257.683 417.331C257.577 417.427 257.487 417.538 257.414 417.661C257.349 417.747 257.291 417.838 257.241 417.933C257.224 418.049 257.224 418.167 257.241 418.283C257.104 418.477 257.024 418.706 257.01 418.944C257.001 419.035 257.001 419.126 257.01 419.217C256.99 419.345 256.99 419.477 257.01 419.605C257.055 419.738 257.119 419.863 257.202 419.975C257.202 419.975 257.202 420.13 257.337 420.208L268.868 433.819C269.2 434.211 269.671 434.454 270.179 434.494C270.688 434.534 271.191 434.368 271.578 434.033C271.966 433.698 272.206 433.221 272.245 432.707C272.285 432.193 272.121 431.684 271.79 431.292L263.122 420.889H265.659C268.303 420.9 270.856 419.908 272.813 418.108C274.77 416.308 275.989 413.831 276.229 411.167H280.073C280.583 411.167 281.072 410.962 281.432 410.597C281.793 410.232 281.995 409.738 281.995 409.222C281.995 408.706 281.793 408.212 281.432 407.847C281.072 407.483 280.583 407.278 280.073 407.278Z" fill="#003366"/>
<path d="M67.7045 467.706L64.4411 470.425C63.2504 469.574 61.9004 468.975 60.4753 468.667L65.2152 464.718C65.6068 464.392 65.8513 463.921 65.8948 463.411C65.9383 462.9 65.7773 462.39 65.4472 461.994C65.1171 461.598 64.645 461.347 64.1347 461.298C63.6243 461.248 63.1176 461.404 62.726 461.73L46.4832 475.262C46.0915 475.589 45.8471 476.059 45.8036 476.57C45.7601 477.081 45.9211 477.59 46.2512 477.987C46.5813 478.383 47.0534 478.633 47.5637 478.683C48.0741 478.732 48.5808 478.577 48.9724 478.25L54.1406 473.945C55.1184 473.136 56.3077 472.623 57.5712 472.466C58.8347 472.309 60.1209 472.514 61.2812 473.057L51.4616 481.238C51.07 481.564 50.8256 482.035 50.782 482.546C50.7385 483.056 50.8995 483.566 51.2296 483.962C51.5597 484.358 52.0319 484.609 52.5422 484.658C53.0525 484.708 53.5592 484.552 53.9509 484.226L64.2872 475.614C65.144 477.003 65.4779 478.648 65.2282 480.249C64.9785 481.851 64.1617 483.303 62.9267 484.34L57.6847 488.708C57.6102 488.758 57.5409 488.816 57.478 488.88C57.3673 488.946 57.2677 489.029 57.1827 489.126C57.1109 489.244 57.0582 489.374 57.0266 489.509L56.9365 489.761C56.9172 489.903 56.9188 490.046 56.9414 490.187C56.9471 490.295 56.9609 490.402 56.9827 490.507C57.0438 490.607 57.1193 490.698 57.2067 490.776C57.2257 491.013 57.3109 491.24 57.4527 491.432C57.5037 491.507 57.5621 491.577 57.627 491.641C57.6942 491.753 57.7782 491.853 57.8759 491.94C57.995 492.013 58.1246 492.067 58.26 492.101C58.26 492.101 58.3596 492.22 58.5127 492.194L76.0848 495.27C76.5902 495.359 77.1079 495.243 77.5241 494.949C77.9402 494.654 78.2206 494.205 78.3037 493.7C78.3868 493.194 78.2657 492.674 77.967 492.253C77.6684 491.833 77.2167 491.547 76.7112 491.458L63.393 489.014L65.3421 487.39C67.3811 485.705 68.7072 483.309 69.0586 480.674C69.4101 478.038 68.7613 475.355 67.2404 473.154L70.1937 470.694C70.5853 470.367 70.8298 469.897 70.8733 469.386C70.9168 468.875 70.7558 468.366 70.4257 467.969C70.0956 467.573 69.6235 467.323 69.1131 467.273C68.6028 467.224 68.0961 467.38 67.7045 467.706Z" fill="#003366"/>
<path d="M204.079 548.017L202.486 549.344C201.905 548.929 201.246 548.637 200.551 548.486L202.864 546.559C203.055 546.399 203.175 546.17 203.196 545.921C203.217 545.671 203.138 545.422 202.977 545.229C202.816 545.036 202.586 544.914 202.337 544.889C202.088 544.865 201.84 544.941 201.649 545.1L193.721 551.705C193.53 551.864 193.411 552.094 193.39 552.343C193.368 552.593 193.447 552.841 193.608 553.035C193.769 553.228 194 553.35 194.249 553.375C194.498 553.399 194.745 553.323 194.936 553.164L197.459 551.062C197.936 550.667 198.517 550.417 199.133 550.34C199.75 550.264 200.378 550.364 200.944 550.629L196.151 554.622C195.96 554.781 195.841 555.011 195.82 555.26C195.798 555.509 195.877 555.758 196.038 555.951C196.199 556.145 196.43 556.267 196.679 556.291C196.928 556.315 197.175 556.239 197.366 556.08L202.411 551.877C202.829 552.555 202.992 553.357 202.87 554.139C202.749 554.921 202.35 555.63 201.747 556.136L199.189 558.268C199.152 558.292 199.118 558.32 199.088 558.352C199.034 558.384 198.985 558.424 198.944 558.472C198.909 558.53 198.883 558.593 198.867 558.659L198.823 558.782C198.814 558.851 198.815 558.921 198.826 558.99C198.829 559.042 198.835 559.094 198.846 559.146C198.876 559.195 198.913 559.239 198.955 559.277C198.965 559.393 199.006 559.504 199.075 559.597C199.1 559.634 199.129 559.668 199.16 559.699C199.193 559.754 199.234 559.803 199.282 559.845C199.34 559.881 199.403 559.907 199.469 559.924C199.469 559.924 199.518 559.982 199.593 559.969L208.169 561.47C208.416 561.514 208.669 561.458 208.872 561.314C209.075 561.17 209.212 560.951 209.252 560.704C209.293 560.457 209.234 560.203 209.088 559.998C208.942 559.793 208.722 559.653 208.475 559.61L201.975 558.417L202.926 557.624C203.921 556.802 204.568 555.633 204.74 554.346C204.912 553.06 204.595 551.75 203.853 550.676L205.294 549.475C205.485 549.316 205.604 549.086 205.626 548.837C205.647 548.588 205.568 548.339 205.407 548.146C205.246 547.952 205.016 547.83 204.767 547.806C204.518 547.782 204.27 547.858 204.079 548.017Z" fill="#003366"/>
<path d="M365.357 239.766H358.113C357.481 237.351 356.366 235.093 354.835 233.133H365.357C366.227 233.133 367.06 232.783 367.675 232.162C368.29 231.54 368.635 230.696 368.635 229.816C368.635 228.937 368.29 228.093 367.675 227.471C367.06 226.849 366.227 226.5 365.357 226.5H329.299C328.429 226.5 327.595 226.849 326.981 227.471C326.366 228.093 326.02 228.937 326.02 229.816C326.02 230.696 326.366 231.54 326.981 232.162C327.595 232.783 328.429 233.133 329.299 233.133H340.772C342.936 233.141 345.054 233.767 346.881 234.941C348.708 236.115 350.17 237.787 351.098 239.766H329.299C328.429 239.766 327.595 240.115 326.981 240.737C326.366 241.359 326.02 242.203 326.02 243.082C326.02 243.962 326.366 244.805 326.981 245.427C327.595 246.049 328.429 246.399 329.299 246.399H352.245C351.852 249.153 350.494 251.673 348.418 253.5C346.342 255.326 343.687 256.337 340.936 256.348H329.299C329.146 256.333 328.992 256.333 328.84 256.348C328.622 256.314 328.401 256.314 328.184 256.348C327.961 256.425 327.75 256.537 327.561 256.68L327.168 256.912C326.988 257.076 326.834 257.266 326.709 257.476C326.599 257.623 326.5 257.778 326.414 257.94C326.385 258.138 326.385 258.339 326.414 258.537C326.18 258.868 326.044 259.259 326.02 259.665C326.005 259.819 326.005 259.974 326.02 260.129C325.987 260.349 325.987 260.572 326.02 260.792C326.097 261.018 326.207 261.231 326.348 261.422C326.348 261.422 326.348 261.688 326.578 261.82L346.246 285.035C346.811 285.704 347.616 286.118 348.483 286.186C349.349 286.255 350.207 285.972 350.868 285.4C351.529 284.828 351.938 284.015 352.006 283.138C352.073 282.261 351.794 281.392 351.229 280.724L336.445 262.981H340.772C345.283 263 349.637 261.307 352.974 258.238C356.312 255.168 358.391 250.943 358.801 246.399H365.357C366.227 246.399 367.06 246.049 367.675 245.427C368.29 244.805 368.635 243.962 368.635 243.082C368.635 242.203 368.29 241.359 367.675 240.737C367.06 240.115 366.227 239.766 365.357 239.766Z" fill="#563E82"/>
<path d="M108.149 618.213L102.16 621.78C100.434 620.071 98.3866 618.731 96.1442 617.845L104.844 612.663C105.563 612.235 106.078 611.532 106.277 610.709C106.475 609.886 106.34 609.01 105.902 608.275C105.464 607.539 104.758 607.003 103.939 606.785C103.121 606.568 102.258 606.686 101.539 607.114L71.7263 624.871C71.0075 625.299 70.4923 626.002 70.2939 626.825C70.0956 627.648 70.2304 628.524 70.6687 629.259C71.1069 629.995 71.8128 630.531 72.631 630.749C73.4492 630.966 74.3127 630.848 75.0315 630.42L84.5173 624.77C86.3105 623.711 88.374 623.192 90.4695 623.274C92.565 623.357 94.607 624.036 96.3597 625.235L78.3366 635.969C77.6178 636.397 77.1025 637.1 76.9042 637.923C76.7058 638.746 76.8406 639.622 77.2789 640.358C77.7172 641.094 78.4231 641.629 79.2413 641.847C80.0594 642.065 80.9229 641.946 81.6417 641.518L100.613 630.219C101.661 632.717 101.794 635.494 100.988 638.044C100.181 640.594 98.4896 642.748 96.2208 644.112L86.5994 649.842C86.4655 649.904 86.3384 649.98 86.22 650.068C86.0233 650.147 85.8405 650.255 85.6779 650.391C85.5315 650.565 85.4135 650.763 85.3282 650.975L85.1187 651.363C85.052 651.589 85.0188 651.824 85.0202 652.061C85.0027 652.238 84.9985 652.416 85.0076 652.595C85.0821 652.774 85.1823 652.943 85.3051 653.094C85.2768 653.486 85.3588 653.88 85.5417 654.231C85.606 654.368 85.6835 654.498 85.7731 654.619C85.8546 654.82 85.9661 655.007 86.1036 655.174C86.2791 655.326 86.4765 655.449 86.6886 655.54C86.6886 655.54 86.8208 655.762 87.0766 655.76L114.906 665.497C115.706 665.778 116.578 665.728 117.328 665.359C118.079 664.989 118.648 664.33 118.909 663.526C119.171 662.723 119.103 661.84 118.722 661.073C118.341 660.306 117.678 659.718 116.877 659.437L95.8128 651.872L99.3904 649.742C103.129 647.536 105.886 643.976 107.116 639.764C108.345 635.552 107.959 630.995 106.034 626.99L111.454 623.762C112.173 623.334 112.688 622.631 112.887 621.808C113.085 620.985 112.95 620.109 112.512 619.373C112.074 618.637 111.368 618.102 110.55 617.884C109.732 617.666 108.868 617.785 108.149 618.213Z" fill="#5557AB"/>
<defs>
<clipPath id="clip0_1027_3009">
<rect width="369" height="411.314" fill="white" transform="translate(42.9951 193.5)"/>
</clipPath>
</defs>
</svg>
