<svg width="59" height="59" viewBox="0 0 59 59" fill="none" xmlns="http://www.w3.org/2000/svg">
<rect x="1" y="1" width="57" height="57" rx="7" fill="#DDD4FF" stroke="#2A3680" stroke-width="2"/>
<path d="M37.8017 31.6168C37.0339 31.6219 36.2767 31.7967 35.5846 32.1289C34.8925 32.461 34.2827 32.9421 33.799 33.5377L27.1711 30.4876C27.4828 29.5346 27.4828 28.5073 27.1711 27.5544L33.799 24.5043C34.5808 25.4465 35.6708 26.0826 36.8766 26.3004C38.0823 26.5181 39.3264 26.3035 40.3891 25.6943C41.4518 25.0852 42.2649 24.1207 42.6849 22.9711C43.1049 21.8215 43.1048 20.5607 42.6846 19.4112C42.2644 18.2617 41.4511 17.2974 40.3883 16.6884C39.3254 16.0795 38.0814 15.8651 36.8757 16.083C35.6699 16.301 34.5801 16.9373 33.7984 17.8797C33.0167 18.822 32.5935 20.0099 32.6034 21.2336C32.6073 21.5428 32.6377 21.8511 32.6943 22.1551L25.8326 25.309C25.101 24.5946 24.1746 24.1117 23.1695 23.9208C22.1643 23.7299 21.1251 23.8395 20.1821 24.2358C19.239 24.6321 18.434 25.2976 17.868 26.1488C17.3019 27 17 27.9991 17 29.021C17 30.0428 17.3019 31.0419 17.868 31.8932C18.434 32.7444 19.239 33.4098 20.1821 33.8062C21.1251 34.2025 22.1643 34.3121 23.1695 34.1212C24.1746 33.9303 25.101 33.4474 25.8326 32.733L32.6943 35.8869C32.6377 36.1909 32.6073 36.4992 32.6034 36.8084C32.6034 37.8352 32.9083 38.8389 33.4795 39.6927C34.0506 40.5464 34.8625 41.2119 35.8124 41.6048C36.7622 41.9978 37.8075 42.1006 38.8158 41.9002C39.8242 41.6999 40.7505 41.2055 41.4774 40.4794C42.2044 39.7534 42.6995 38.8283 42.9001 37.8212C43.1007 36.8142 42.9977 35.7703 42.6043 34.8217C42.2109 33.873 41.5446 33.0622 40.6897 32.4917C39.8349 31.9213 38.8298 31.6168 37.8017 31.6168ZM37.8017 18.6378C38.3158 18.6378 38.8183 18.79 39.2457 19.0752C39.6731 19.3605 40.0063 19.7659 40.203 20.2402C40.3997 20.7145 40.4512 21.2365 40.3509 21.74C40.2506 22.2435 40.0031 22.7061 39.6396 23.0691C39.2761 23.4321 38.8129 23.6793 38.3088 23.7795C37.8046 23.8797 37.282 23.8283 36.807 23.6318C36.3321 23.4353 35.9262 23.1026 35.6406 22.6757C35.355 22.2489 35.2025 21.747 35.2025 21.2336C35.2025 20.5451 35.4764 19.8849 35.9638 19.3981C36.4512 18.9113 37.1123 18.6378 37.8017 18.6378ZM22.2068 31.6168C21.6927 31.6168 21.1902 31.4645 20.7627 31.1793C20.3353 30.8941 20.0022 30.4887 19.8054 30.0144C19.6087 29.54 19.5573 29.0181 19.6575 28.5146C19.7578 28.011 20.0054 27.5485 20.3689 27.1855C20.7324 26.8224 21.1955 26.5752 21.6997 26.4751C22.2039 26.3749 22.7265 26.4263 23.2014 26.6228C23.6763 26.8192 24.0823 27.152 24.3679 27.5788C24.6535 28.0057 24.8059 28.5076 24.8059 29.021C24.8059 29.7094 24.5321 30.3697 24.0446 30.8565C23.5572 31.3433 22.8961 31.6168 22.2068 31.6168ZM37.8017 39.4042C37.2876 39.4042 36.7851 39.252 36.3577 38.9667C35.9302 38.6815 35.5971 38.2761 35.4004 37.8018C35.2037 37.3274 35.1522 36.8055 35.2525 36.302C35.3528 35.7984 35.6003 35.3359 35.9638 34.9729C36.3273 34.6099 36.7904 34.3626 37.2946 34.2625C37.7988 34.1623 38.3214 34.2137 38.7963 34.4102C39.2713 34.6067 39.6772 34.9394 39.9628 35.3662C40.2484 35.7931 40.4008 36.295 40.4008 36.8084C40.4008 37.4968 40.127 38.1571 39.6396 38.6439C39.1521 39.1307 38.491 39.4042 37.8017 39.4042Z" fill="#2A3680"/>
</svg>
