<svg width="428" height="915" viewBox="0 0 428 915" fill="none" xmlns="http://www.w3.org/2000/svg">
<rect width="427" height="914" fill="#321292"/>
<rect width="427" height="914" fill="#321292"/>
<rect x="1" y="1" width="427" height="914" fill="#471CD1"/>
<path d="M425.504 261.224L425.505 544.5L425.505 915L0.504364 915L0.504418 645L1.00443 458.5L1.00442 261.224C1.00442 261.224 70.6565 351.092 105.005 261.224C139.489 171 193.489 119 251.489 203C302.584 277 330.001 24.0159 425.504 23.9999C425.508 23.9999 425.504 261.224 425.504 261.224Z" fill="#2A3680"/>
<g opacity="0.2" clip-path="url(#clip0_1027_3011)">
<path d="M173.108 186.692V450.436C173.108 457.895 167.534 463.917 160.65 463.917H37.6795C30.7187 463.917 25.1406 457.872 25.1406 450.436V186.692C25.1406 171.496 30.714 170.725 37.6115 170.725H62.2669C63.6907 170.725 64.8661 172.355 64.8661 174.375V175.243C64.8661 179.975 67.4542 179.991 70.623 179.991H127.616C130.819 179.991 133.395 179.991 133.395 175.243V174.375C133.395 172.357 134.536 170.725 136.005 170.725H160.638C167.534 170.76 173.108 172.743 173.108 186.692Z" fill="white"/>
<path d="M173.677 186.693C173.688 184.399 173.49 182.108 173.084 179.85C172.695 177.49 171.675 175.279 170.132 173.452C168.432 171.702 166.157 170.625 163.727 170.418C162.572 170.278 161.409 170.214 160.246 170.225H136.38C135.649 170.15 134.917 170.363 134.339 170.819C133.824 171.244 133.43 171.799 133.199 172.427C132.869 173.283 132.729 174.202 132.789 175.118V176.007C132.832 176.99 132.484 177.949 131.821 178.676C131.002 179.237 130.02 179.51 129.029 179.452H70.4047C69.5069 179.489 68.6079 179.42 67.7264 179.246C67.2912 179.159 66.8893 178.952 66.5666 178.647C66.244 178.343 66.0137 177.953 65.9023 177.524C65.6792 176.676 65.5906 175.798 65.6397 174.923V174.342C65.6531 173.627 65.5033 172.919 65.2017 172.271C64.9002 171.622 64.4548 171.052 63.8995 170.602C63.6008 170.373 63.2599 170.207 62.8965 170.111C62.6145 170.033 62.3216 170.002 62.0296 170.019H38.4579C36.5288 169.953 34.5977 170.067 32.6899 170.361C31.4795 170.598 30.3211 171.05 29.2696 171.695C28.24 172.406 27.3734 173.327 26.7274 174.399C26.501 174.764 26.3027 175.145 26.1341 175.54L25.8826 176.064L25.6896 176.634C25.5436 177.007 25.4179 177.388 25.313 177.775L24.9144 179.516L24.6518 181.228C24.4058 183.527 24.3001 185.839 24.3354 188.151L24 440.856V451.121C24.0534 452.353 24.2482 453.575 24.5806 454.762C25.2401 457.161 26.5232 459.342 28.2992 461.082C30.0753 462.823 32.2808 464.062 34.6911 464.673C35.7593 464.895 36.8478 465.006 37.939 465.003H38.3265L157.819 464.845H161.3C162.53 464.779 163.743 464.533 164.902 464.115C166.061 463.682 167.157 463.096 168.162 462.374C169.136 461.652 170.01 460.805 170.762 459.854C172.282 457.939 173.308 455.68 173.748 453.274C173.937 452.098 174.022 450.907 174 449.716L173.677 186.693ZM171.967 452.923C171.566 455.008 170.663 456.964 169.335 458.621C168.669 459.44 167.903 460.172 167.055 460.799C166.188 461.42 165.241 461.919 164.239 462.282C162.499 462.838 160.669 463.053 158.848 462.915L38.3408 462.757C37.2885 462.788 36.2364 462.692 35.2069 462.472C33.1869 461.949 31.3414 460.9 29.8579 459.431C28.3744 457.963 27.3058 456.128 26.7606 454.113C26.4909 453.103 26.3318 452.066 26.286 451.022V440.841L25.9553 188.069C25.9177 185.826 26.0165 183.582 26.2512 181.351C26.4364 179.187 27.0609 177.084 28.0863 175.17C28.6072 174.294 29.3082 173.538 30.1429 172.954C31.0263 172.4 32.0038 172.013 33.0269 171.813C34.8445 171.536 36.6835 171.426 38.5211 171.482H61.9109C62.3123 171.419 62.7224 171.517 63.0515 171.756C63.394 172.063 63.6677 172.439 63.8545 172.86C64.0412 173.281 64.1369 173.736 64.1352 174.196V174.758C64.0915 175.777 64.2068 176.797 64.4769 177.78C64.674 178.453 65.0432 179.062 65.5479 179.548C66.0721 180.008 66.703 180.33 67.383 180.484C68.3542 180.68 69.3451 180.76 70.335 180.723H129.016C130.315 180.766 131.59 180.363 132.629 179.581C133.544 178.625 134.043 177.346 134.02 176.023V175.059C133.975 174.307 134.08 173.554 134.328 172.843C134.458 172.421 134.724 172.053 135.085 171.798C135.445 171.543 135.88 171.415 136.322 171.434H160.259C161.369 171.416 162.479 171.473 163.581 171.605C165.736 171.763 167.76 172.699 169.276 174.239C170.685 175.906 171.614 177.924 171.966 180.078C172.37 182.283 172.569 184.52 172.559 186.761L172.171 446.273V448.291C172.249 449.838 172.181 451.389 171.967 452.923Z" fill="#DBDBDB"/>
<path d="M58.0129 176.447L57.7741 176.686L57.638 176.822C57.3417 176.518 56.9872 176.276 56.5955 176.111C56.2039 175.947 55.7831 175.863 55.3583 175.865C54.934 175.866 54.5141 175.951 54.1228 176.115C53.7316 176.28 53.3767 176.52 53.0787 176.822L52.9537 176.686L52.7148 176.458L53.0233 176.195C53.2376 176.021 53.4711 175.872 53.7194 175.751C54.0095 175.6 54.3212 175.496 54.6433 175.442C54.795 175.431 54.9472 175.431 55.0989 175.442H55.8171C56.1056 175.475 56.3888 175.545 56.6603 175.648C56.8623 175.717 57.0572 175.805 57.2425 175.91C57.4364 176.023 57.6196 176.153 57.7898 176.298L58.0414 176.526L58.0129 176.447Z" fill="#A6A6A6"/>
<path d="M53.7964 177.568L53.4199 177.202C53.8326 176.78 54.3742 176.507 54.9592 176.426C55.3724 176.369 55.7932 176.408 56.1887 176.541C56.5842 176.674 56.9436 176.896 57.2389 177.191L56.8623 177.568C56.4522 177.159 55.8967 176.929 55.3175 176.929C54.7384 176.929 54.1828 177.159 53.7727 177.568H53.7964Z" fill="#A6A6A6"/>
<path d="M56.5086 177.945L56.132 178.321C55.9193 178.117 55.6359 178.003 55.341 178.003C55.0462 178.003 54.7627 178.117 54.55 178.321L54.1846 177.956C54.3364 177.802 54.517 177.68 54.7162 177.596C54.9153 177.512 55.129 177.468 55.345 177.467C55.5611 177.466 55.7752 177.508 55.9751 177.59C56.1751 177.672 56.3568 177.792 56.5101 177.945H56.5086Z" fill="#A6A6A6"/>
<path d="M55.6766 178.663C55.6766 178.731 55.6562 178.797 55.6181 178.854C55.5801 178.91 55.5261 178.954 55.463 178.98C55.3999 179.005 55.3306 179.011 55.264 178.997C55.1974 178.983 55.1366 178.949 55.0893 178.9C55.042 178.852 55.0103 178.79 54.9984 178.723C54.9865 178.655 54.9949 178.586 55.0225 178.524C55.05 178.462 55.0955 178.409 55.1532 178.373C55.2108 178.337 55.2779 178.319 55.3459 178.321C55.4346 178.324 55.5187 178.361 55.5804 178.425C55.6421 178.489 55.6767 178.574 55.6766 178.663Z" fill="#A6A6A6"/>
<path d="M34.7939 177.171C34.7939 176.977 34.8515 176.787 34.9593 176.626C35.067 176.464 35.2202 176.338 35.3994 176.264C35.5786 176.19 35.7759 176.17 35.9662 176.208C36.1564 176.246 36.3312 176.34 36.4683 176.477C36.6055 176.614 36.6989 176.789 36.7368 176.979C36.7746 177.17 36.7552 177.367 36.681 177.546C36.6067 177.726 36.481 177.879 36.3197 177.987C36.1584 178.095 35.9688 178.152 35.7748 178.152C35.5146 178.152 35.2651 178.049 35.0812 177.865C34.8973 177.681 34.7939 177.431 34.7939 177.171Z" fill="#A6A6A6"/>
<path d="M37.8838 177.171C37.8838 176.977 37.9413 176.787 38.0491 176.626C38.1569 176.464 38.3101 176.338 38.4893 176.264C38.6685 176.19 38.8657 176.17 39.056 176.208C39.2463 176.246 39.421 176.34 39.5582 176.477C39.6954 176.614 39.7888 176.789 39.8266 176.979C39.8645 177.17 39.845 177.367 39.7708 177.546C39.6966 177.726 39.5708 177.879 39.4095 177.987C39.2482 178.095 39.0586 178.152 38.8646 178.152C38.6045 178.152 38.355 178.049 38.1711 177.865C37.9872 177.681 37.8838 177.431 37.8838 177.171Z" fill="#A6A6A6"/>
<path d="M40.9736 177.171C40.9736 176.977 41.0311 176.787 41.1389 176.626C41.2467 176.464 41.3999 176.338 41.5791 176.264C41.7583 176.19 41.9555 176.17 42.1458 176.208C42.3361 176.246 42.5108 176.34 42.648 176.477C42.7852 176.614 42.8786 176.789 42.9164 176.979C42.9543 177.17 42.9348 177.367 42.8606 177.546C42.7864 177.726 42.6607 177.879 42.4994 177.987C42.3381 178.095 42.1485 178.152 41.9545 178.152C41.6943 178.152 41.4448 178.049 41.2609 177.865C41.0769 177.681 40.9736 177.431 40.9736 177.171Z" fill="#A6A6A6"/>
<path d="M44.0615 177.171C44.0615 176.977 44.1191 176.787 44.2268 176.626C44.3346 176.464 44.4878 176.338 44.667 176.264C44.8462 176.19 45.0434 176.17 45.2337 176.208C45.4239 176.246 45.5988 176.34 45.7359 176.477C45.8731 176.614 45.9665 176.789 46.0044 176.979C46.0422 177.17 46.0228 177.367 45.9485 177.546C45.8743 177.726 45.7486 177.879 45.5873 177.987C45.426 178.095 45.2363 178.152 45.0424 178.152C44.7822 178.152 44.5327 178.049 44.3488 177.865C44.1648 177.681 44.0615 177.431 44.0615 177.171Z" fill="#A6A6A6"/>
<path d="M47.1514 177.171C47.1514 176.977 47.2089 176.787 47.3167 176.626C47.4244 176.464 47.5777 176.338 47.7569 176.264C47.9361 176.19 48.1333 176.17 48.3236 176.208C48.5138 176.246 48.6886 176.34 48.8258 176.477C48.9629 176.614 49.0563 176.789 49.0942 176.979C49.132 177.17 49.1126 177.367 49.0384 177.546C48.9641 177.726 48.8384 177.879 48.6771 177.987C48.5158 178.095 48.3262 178.152 48.1322 178.152C47.8721 178.152 47.6226 178.049 47.4387 177.865C47.2547 177.681 47.1514 177.431 47.1514 177.171Z" fill="#A6A6A6"/>
<path d="M162.005 179.314H154.025V175.618H162.005V179.314ZM154.437 178.904H161.595V176.017H154.437V178.904Z" fill="#A6A6A6"/>
<path d="M159.829 176.246H154.688V178.687H159.829V176.246Z" fill="#A6A6A6"/>
<path d="M162.724 176.474H162.017V178.459H162.724V176.474Z" fill="#A6A6A6"/>
<path d="M89.281 408.748C89.281 409.174 89.1547 409.591 88.9179 409.945C88.6811 410.3 88.3446 410.576 87.9509 410.739C87.5572 410.903 87.1239 410.945 86.706 410.862C86.288 410.779 85.9041 410.574 85.6028 410.272C85.3014 409.971 85.0962 409.586 85.0131 409.168C84.9299 408.75 84.9726 408.317 85.1357 407.923C85.2988 407.529 85.5749 407.192 85.9293 406.955C86.2836 406.718 86.7002 406.592 87.1263 406.592C87.6978 406.592 88.2459 406.819 88.65 407.223C89.054 407.628 89.281 408.176 89.281 408.748Z" fill="#DBDBDB"/>
<path d="M114.39 408.751C114.392 409.397 114.203 410.029 113.846 410.566C113.489 411.104 112.981 411.524 112.385 411.773C111.789 412.021 111.134 412.088 110.5 411.963C109.867 411.838 109.285 411.529 108.828 411.073C108.371 410.617 108.059 410.036 107.933 409.403C107.806 408.769 107.87 408.113 108.116 407.516C108.363 406.919 108.781 406.409 109.317 406.05C109.853 405.691 110.484 405.5 111.13 405.5C111.992 405.5 112.82 405.842 113.431 406.451C114.042 407.061 114.387 407.888 114.39 408.751Z" fill="#4361EE"/>
<path d="M101.284 408.748C101.284 409.174 101.158 409.591 100.921 409.945C100.684 410.3 100.348 410.576 99.9539 410.739C99.5601 410.903 99.1269 410.945 98.7089 410.862C98.2909 410.779 97.907 410.574 97.6057 410.272C97.3043 409.971 97.0991 409.586 97.016 409.168C96.9329 408.75 96.9756 408.317 97.1386 407.923C97.3017 407.529 97.5779 407.192 97.9322 406.955C98.2865 406.718 98.7031 406.592 99.1293 406.592C99.7007 406.592 100.249 406.819 100.653 407.223C101.057 407.628 101.284 408.176 101.284 408.748Z" fill="#DBDBDB"/>
<path d="M44.6724 211.226C44.21 211.513 43.7063 211.726 43.179 211.86C42.511 212.025 41.8165 212.055 41.137 211.946C40.4574 211.837 39.8068 211.593 39.224 211.226C38.2671 210.634 37.5294 209.745 37.1228 208.695C36.7163 207.645 36.663 206.49 36.971 205.407C37.279 204.324 37.9316 203.371 38.8297 202.692C39.7279 202.014 40.8227 201.647 41.9481 201.647C43.0736 201.647 44.1684 202.014 45.0666 202.692C45.9648 203.371 46.6173 204.324 46.9253 205.407C47.2333 206.49 47.18 207.645 46.7734 208.695C46.3669 209.745 45.6293 210.634 44.6724 211.226Z" fill="#EBEBEB"/>
<path d="M43.5268 206.22C43.5242 206.583 43.3957 206.935 43.1631 207.214C42.9306 207.494 42.6085 207.684 42.2515 207.753C41.8946 207.822 41.5248 207.765 41.2052 207.592C40.8856 207.418 40.6358 207.14 40.4985 206.803C40.3611 206.466 40.3445 206.092 40.4517 205.744C40.5588 205.397 40.783 205.097 41.0861 204.896C41.3891 204.696 41.7524 204.606 42.1141 204.643C42.4757 204.68 42.8134 204.841 43.0696 205.099C43.216 205.246 43.3318 205.421 43.4102 205.614C43.4887 205.806 43.5283 206.012 43.5268 206.22Z" fill="white"/>
<path d="M44.6701 210.573V211.223C44.2077 211.51 43.704 211.723 43.1767 211.856C42.5088 212.022 41.8143 212.052 41.1347 211.943C40.4552 211.834 39.8045 211.589 39.2217 211.223V210.59C39.2217 209.867 39.5087 209.174 40.0196 208.663C40.5305 208.151 41.2234 207.864 41.9459 207.864C42.6684 207.864 43.3613 208.151 43.8722 208.663C44.3831 209.174 44.6701 209.867 44.6701 210.59V210.573Z" fill="white"/>
<path d="M161.024 201.621H150.583V203.674H161.024V201.621Z" fill="#EBEBEB"/>
<path d="M161.024 205.784H150.583V207.837H161.024V205.784Z" fill="#EBEBEB"/>
<path d="M161.024 209.936H150.583V211.989H161.024V209.936Z" fill="#EBEBEB"/>
<path d="M161.024 226.564H36.7666V389.43H161.024V226.564Z" fill="#EBEBEB"/>
<path d="M47.1617 410.907C47.0415 410.837 46.9436 410.734 46.8789 410.611C46.8143 410.488 46.7856 410.349 46.7962 410.21V409.736C46.7858 409.597 46.8146 409.458 46.8792 409.335C46.9438 409.212 47.0417 409.109 47.1617 409.039L48.0048 408.548L46.4228 405.812L45.5797 406.287C45.4608 406.36 45.3239 406.399 45.1842 406.399C45.0445 406.399 44.9075 406.36 44.7887 406.287C44.6603 406.194 44.523 406.114 44.3789 406.047C44.2552 405.984 44.1515 405.888 44.0792 405.769C44.0069 405.65 43.9688 405.514 43.9692 405.375V404.406H40.8052V405.398C40.8056 405.538 40.7675 405.674 40.6952 405.793C40.6229 405.911 40.5191 406.008 40.3955 406.071C40.2514 406.137 40.1141 406.217 39.9857 406.31C39.8669 406.384 39.7299 406.423 39.5902 406.423C39.4505 406.423 39.3135 406.384 39.1947 406.31L38.3515 405.835L36.7695 408.572L37.6127 409.063C37.7347 409.131 37.8343 409.233 37.8992 409.357C37.9641 409.48 37.9915 409.62 37.9782 409.759V410.234C37.9915 410.373 37.9641 410.513 37.8992 410.637C37.8343 410.761 37.7347 410.863 37.6127 410.931L36.7695 411.421L38.3515 414.158L39.1837 413.683C39.3025 413.61 39.4394 413.571 39.5792 413.571C39.7189 413.571 39.8558 413.61 39.9747 413.683L40.3844 413.922C40.5081 413.983 40.6123 414.077 40.6848 414.194C40.7573 414.311 40.7952 414.446 40.7941 414.584V415.553H43.9581V414.538C43.957 414.4 43.995 414.265 44.0675 414.148C44.14 414.031 44.2441 413.937 44.3679 413.876L44.7776 413.637C44.8955 413.561 45.0328 413.521 45.1731 413.521C45.3134 413.521 45.4507 413.561 45.5686 413.637L46.4118 414.112L47.9938 411.375L47.1617 410.907ZM42.3856 412.572C41.7871 412.572 41.2069 412.365 40.744 411.985C40.281 411.606 39.9639 411.077 39.8466 410.49C39.7293 409.903 39.8191 409.293 40.1007 408.764C40.3822 408.236 40.8381 407.821 41.3908 407.591C41.9434 407.362 42.5587 407.33 43.1317 407.503C43.7048 407.676 44.2003 408.042 44.5338 408.54C44.8673 409.037 45.0182 409.635 44.9608 410.231C44.9035 410.827 44.6414 411.385 44.2192 411.809C43.733 412.296 43.0737 412.571 42.3856 412.572Z" fill="#4361EE"/>
<path d="M161.024 415.548H148.166V404.393H161.024V415.548ZM149.001 414.715H160.196V405.237H149.001V414.715Z" fill="#4361EE"/>
<path d="M148.589 415.136L152.069 411.784L155.233 415.136H148.589Z" fill="#4361EE"/>
<path d="M153.068 415.136L157.207 409.891L160.603 415.136H153.068Z" fill="#4361EE"/>
<path d="M153.148 409.584C153.15 409.83 153.079 410.072 152.943 410.278C152.807 410.484 152.614 410.645 152.386 410.74C152.159 410.836 151.908 410.861 151.666 410.814C151.424 410.766 151.202 410.648 151.028 410.473C150.853 410.299 150.735 410.076 150.687 409.834C150.64 409.592 150.665 409.342 150.761 409.114C150.856 408.887 151.017 408.693 151.223 408.557C151.429 408.421 151.67 408.35 151.917 408.352C152.242 408.355 152.554 408.486 152.784 408.716C153.014 408.946 153.145 409.258 153.148 409.584Z" fill="#4361EE"/>
<path d="M78.1829 226.564L78.3189 307.997L78.1829 389.43L78.0342 307.997L78.1829 226.564Z" fill="white"/>
<path d="M119.6 226.564L119.749 307.997L119.6 389.43L119.464 307.997L119.6 226.564Z" fill="white"/>
<path d="M161.024 280.854L98.8899 280.99L36.7666 280.854L98.8899 280.705L161.024 280.854Z" fill="white"/>
<path d="M161.024 335.142L98.8899 335.278L36.7666 335.142L98.8899 334.993L161.024 335.142Z" fill="white"/>
</g>
<path d="M282.4 592.031C282.4 592.031 285.886 640.433 285.886 640.47C285.886 649.952 285.813 658.265 285.338 662.568V662.629C285.329 663.646 285.096 664.649 284.655 665.566L284.594 665.627C281.779 667.553 206.026 670.149 203.356 669.345C200.687 668.54 202.747 660.812 205.599 658.375C208.451 655.937 237.034 641.957 237.034 641.957L234.023 593.567L282.4 592.031Z" fill="#D3766A"/>
<path d="M285.886 630.292V640.47C285.886 649.952 285.813 658.265 285.338 662.568V662.629C285.225 663.631 284.996 664.617 284.655 665.566L284.594 665.627C281.779 667.553 206.026 670.149 203.356 669.345C200.687 668.54 202.747 660.813 205.599 658.375C208.451 655.937 237.034 641.957 237.034 641.957L236.9 631.633L285.886 630.292Z" fill="white"/>
<path d="M203.344 669.345C206.026 670.149 281.779 667.553 284.594 665.627C285.679 664.908 285.947 653.853 285.886 640.47V640.055L236.997 641.177V642.005C236.997 642.005 208.451 655.974 205.562 658.424C202.674 660.874 200.675 668.552 203.344 669.345Z" fill="#1DA1F3"/>
<path d="M204.112 666.383C216.861 665.627 268.395 663.811 281.072 664.03C281.169 664.03 281.169 664.104 281.072 664.116C268.444 665.14 216.898 666.553 204.112 666.553C203.844 666.59 203.832 666.395 204.112 666.383Z" fill="#263238"/>
<path d="M232.89 642.298C237.875 641.189 244.055 641.749 248.016 645.199C248.162 645.333 248.016 645.552 247.809 645.504C242.954 644.117 237.965 643.255 232.927 642.932C232.842 642.937 232.76 642.908 232.697 642.852C232.634 642.796 232.596 642.717 232.591 642.633C232.586 642.549 232.615 642.467 232.671 642.404C232.727 642.341 232.806 642.303 232.89 642.298Z" fill="#263238"/>
<path d="M229.379 644.614C234.377 643.505 240.544 644.065 244.506 647.515C244.664 647.637 244.506 647.856 244.311 647.807C239.455 646.426 234.466 645.568 229.428 645.248C229.386 645.253 229.342 645.249 229.301 645.237C229.26 645.225 229.222 645.205 229.188 645.178C229.155 645.15 229.128 645.117 229.108 645.079C229.088 645.041 229.076 644.999 229.073 644.956C229.07 644.913 229.075 644.87 229.089 644.83C229.103 644.789 229.125 644.752 229.153 644.72C229.182 644.688 229.217 644.662 229.256 644.644C229.294 644.625 229.337 644.615 229.379 644.614Z" fill="#263238"/>
<path d="M225.832 646.917C230.818 645.808 236.997 646.369 240.959 649.818C241.105 649.952 240.959 650.172 240.751 650.123C235.897 648.737 230.907 647.875 225.869 647.551C225.827 647.554 225.786 647.548 225.746 647.534C225.707 647.52 225.671 647.499 225.639 647.471C225.608 647.443 225.583 647.41 225.565 647.372C225.547 647.335 225.536 647.294 225.534 647.253C225.531 647.211 225.537 647.169 225.551 647.13C225.565 647.09 225.586 647.054 225.614 647.023C225.641 646.992 225.675 646.967 225.712 646.948C225.75 646.93 225.791 646.92 225.832 646.917Z" fill="#263238"/>
<path d="M288.812 642.566L235.779 641.506C235.779 641.506 229.307 546.08 230.513 514.267C231.83 479.712 246.663 376.888 246.663 376.888H291.396C291.396 376.888 279.951 480.115 279.707 514.682C279.536 546.726 288.812 642.566 288.812 642.566Z" fill="#263238"/>
<path d="M255.464 376.888L282.364 469.961C285.558 425.875 291.396 376.888 291.396 376.888H255.464Z" fill="#37474F"/>
<path d="M282.949 381.995L280.109 412.687L277.476 443.39C275.782 463.879 274.185 484.356 272.966 504.894C272.674 510.014 272.491 515.169 272.564 520.325C272.637 525.481 272.881 530.613 273.137 535.744C273.657 546.015 274.319 556.274 275.124 566.521C275.928 576.767 276.741 587.01 277.561 597.248L280.426 627.903L278.134 597.163C277.37 586.916 276.651 576.67 275.977 566.423C275.331 556.16 274.636 545.922 274.161 535.659C273.917 530.531 273.742 525.404 273.637 520.277C273.637 515.157 273.791 510.038 274.1 504.919C275.209 484.405 276.83 463.916 278.329 443.427L282.949 381.995Z" fill="#37474F"/>
<path d="M237.997 632.657C246.274 632.584 243.897 632.486 252.173 632.51C256.232 632.51 282.852 632.608 286.63 633.291C286.646 633.297 286.66 633.308 286.669 633.322C286.679 633.336 286.684 633.353 286.684 633.37C286.684 633.387 286.679 633.403 286.669 633.418C286.66 633.432 286.646 633.443 286.63 633.449C282.84 634.034 256.159 633.449 252.161 633.388C243.885 633.205 246.261 633.169 237.985 632.9C237.839 632.9 237.839 632.657 237.997 632.657Z" fill="#37474F"/>
<path d="M368.598 566.045C368.598 566.045 394.195 607.621 394.195 607.658C398.351 616.19 401.837 623.722 403.287 627.793C403.294 627.817 403.294 627.843 403.287 627.866C403.734 628.78 403.96 629.787 403.946 630.804C403.946 630.804 403.946 630.804 403.946 630.877C402.251 633.827 335.104 669.028 332.349 669.467C329.594 669.905 328.132 662.08 329.643 658.643C331.154 655.206 350.851 630.219 350.851 630.219L325.706 588.46L368.598 566.045Z" fill="#D3766A"/>
<path d="M403.959 630.816C403.965 630.84 403.965 630.865 403.959 630.889C402.253 633.851 335.105 669.04 332.35 669.479C329.596 669.917 328.133 662.092 329.644 658.655C331.156 655.218 350.853 630.231 350.853 630.231L346.367 622.771C357.337 616.921 377.29 606.658 389.674 600.283L394.208 607.67C398.364 616.202 401.863 623.734 403.289 627.805C403.294 627.829 403.294 627.854 403.289 627.879C403.747 628.789 403.977 629.797 403.959 630.816Z" fill="white"/>
<path d="M332.337 669.479C335.104 669.04 402.24 633.851 403.934 630.889C404.604 629.768 400.046 619.688 394.183 607.67C394.122 607.548 394.061 607.414 393.988 607.292L350.426 629.512L350.828 630.231C350.828 630.231 331.155 655.194 329.619 658.655C328.084 662.117 329.583 669.93 332.337 669.479Z" fill="#1DA1F3"/>
<path d="M331.74 666.468C342.905 660.264 388.552 636.277 400.07 630.987C400.156 630.987 400.192 630.987 400.07 631.06C389.1 637.459 343.295 661.069 331.813 666.663C331.618 666.773 331.496 666.602 331.74 666.468Z" fill="#263238"/>
<path d="M347.269 632.279C351.291 629.11 357.093 626.94 362.164 628.33C362.359 628.33 362.273 628.659 362.164 628.683C357.191 629.545 352.325 630.934 347.647 632.827C347.611 632.852 347.57 632.87 347.528 632.879C347.485 632.888 347.441 632.888 347.398 632.881C347.355 632.873 347.314 632.856 347.277 632.833C347.24 632.809 347.209 632.778 347.184 632.742C347.159 632.706 347.141 632.665 347.132 632.623C347.123 632.58 347.123 632.536 347.131 632.493C347.138 632.45 347.155 632.409 347.179 632.372C347.202 632.335 347.233 632.304 347.269 632.279Z" fill="#263238"/>
<path d="M345.026 635.899C349.036 632.73 354.85 630.56 359.909 631.95C360.104 631.95 360.03 632.279 359.909 632.315C354.931 633.167 350.06 634.552 345.38 636.447C345.307 636.489 345.221 636.502 345.139 636.482C345.058 636.462 344.987 636.412 344.942 636.341C344.896 636.271 344.88 636.186 344.895 636.103C344.911 636.021 344.958 635.948 345.026 635.899Z" fill="#263238"/>
<path d="M342.868 639.519C346.891 636.35 352.693 634.18 357.763 635.57C357.958 635.57 357.873 635.899 357.763 635.935C352.787 636.793 347.917 638.178 343.234 640.067C343.198 640.092 343.158 640.108 343.115 640.117C343.073 640.125 343.029 640.125 342.987 640.116C342.944 640.108 342.904 640.091 342.868 640.067C342.832 640.043 342.801 640.012 342.777 639.976C342.753 639.94 342.736 639.9 342.728 639.857C342.72 639.815 342.72 639.771 342.728 639.729C342.737 639.686 342.753 639.646 342.777 639.61C342.802 639.574 342.832 639.543 342.868 639.519Z" fill="#263238"/>
<path d="M251.246 376.839C251.441 377.766 254.574 392.295 257.828 404.776C260.18 413.893 262.618 421.84 264.008 422.73C265.58 423.669 273.271 427.069 275.855 428.142C275.855 428.142 293.151 514.487 302.28 541.265C310.703 565.972 345.575 632.011 345.575 632.011L396.158 606.414C396.158 606.414 356.654 539.376 352.498 527.358C346.062 508.722 321.941 417.659 321.941 417.659C321.941 417.659 322.124 389.162 312.519 376.718L251.246 376.839Z" fill="#263238"/>
<path d="M346.331 622.187C353.559 618.152 351.426 619.212 358.702 615.251C362.261 613.313 385.664 600.625 389.296 599.406C389.369 599.406 389.442 599.503 389.369 599.552C386.322 601.88 362.712 614.178 359.117 616.043C351.804 619.858 353.839 618.688 346.44 622.418C346.245 622.479 346.245 622.272 346.331 622.187Z" fill="#37474F"/>
<path d="M308.972 409.859C307.582 409.505 306.095 409.383 304.694 409.164C303.548 408.981 302.414 408.786 301.281 408.53C299.115 408.147 297.062 407.285 295.272 406.007C293.309 404.483 292.322 402.168 291.371 399.913C290.811 398.596 290.226 397.28 289.641 395.976C289.36 395.342 289.068 394.757 288.775 394.074C288.375 393.341 288.021 392.584 287.715 391.807C287.715 391.685 287.495 391.746 287.544 391.807C287.734 392.342 287.893 392.887 288.02 393.44C288.215 394.074 288.397 394.659 288.592 395.354C288.946 396.488 289.287 397.621 289.653 398.743C290.222 400.82 291.04 402.822 292.091 404.703C294.175 408.03 297.917 409.371 301.647 409.834C302.719 409.981 303.792 410.054 304.877 410.115C306.231 410.237 307.593 410.237 308.948 410.115C309.13 410.2 309.191 409.907 308.972 409.859Z" fill="#37474F"/>
<path d="M259.925 420.743C265.41 422.742 270.712 425.213 275.77 428.13C275.806 428.154 275.832 428.19 275.843 428.231C275.855 428.272 275.852 428.316 275.835 428.356C275.817 428.395 275.787 428.427 275.748 428.446C275.709 428.465 275.665 428.469 275.624 428.459C270.273 426.155 264.837 423.961 259.62 421.377C259.545 421.331 259.49 421.26 259.466 421.176C259.441 421.092 259.448 421.002 259.486 420.923C259.524 420.844 259.59 420.782 259.671 420.749C259.752 420.716 259.842 420.714 259.925 420.743Z" fill="#37474F"/>
<path d="M258.315 384.165C258.315 383.982 258.657 383.933 258.657 384.165C258.651 390.124 258.948 396.08 259.546 402.009C259.802 404.752 261.984 419.963 266.786 418.854C267.579 418.659 268.005 417.879 268.115 416.672C268.091 415.101 267.878 413.537 267.481 412.016C266.945 408.831 266.539 405.633 266.262 402.424C265.706 396.436 265.771 390.407 266.457 384.433C266.467 384.4 266.487 384.371 266.514 384.35C266.542 384.329 266.575 384.318 266.61 384.318C266.644 384.318 266.678 384.329 266.705 384.35C266.733 384.371 266.753 384.4 266.762 384.433C266.631 392.735 267.124 401.034 268.237 409.262C268.834 413.211 270.833 419.171 266.689 419.768C262.545 420.366 259.754 410.42 259.242 407.689C257.916 399.921 257.605 392.013 258.315 384.165Z" fill="#37474F"/>
<path d="M266.653 419.232C267.083 420.258 267.441 421.313 267.725 422.389C268.03 423.216 268.183 424.091 268.176 424.973C268.17 425.008 268.153 425.041 268.128 425.067C268.103 425.093 268.071 425.111 268.036 425.119C268.001 425.127 267.964 425.124 267.931 425.111C267.897 425.098 267.868 425.075 267.847 425.046C267.348 424.268 266.974 423.417 266.738 422.523C266.372 421.548 265.982 420.585 265.653 419.598C265.624 419.47 265.642 419.337 265.705 419.222C265.767 419.107 265.869 419.019 265.992 418.974C266.114 418.929 266.249 418.93 266.371 418.978C266.493 419.025 266.593 419.116 266.653 419.232Z" fill="#37474F"/>
<path d="M382.518 598.102C375.315 584.548 367.892 571.116 360.445 557.696C356.788 551.077 352.936 544.544 349.475 537.84C346.176 531.195 343.499 524.259 341.479 517.12C337.018 502.639 332.796 488.09 328.815 473.472C324.833 458.853 321.095 444.174 317.601 429.434C316.724 425.777 315.761 422.121 315.054 418.342C314.414 414.587 314.414 410.75 315.054 406.994C315.594 403.495 315.622 399.935 315.139 396.427C314.59 392.925 313.775 389.469 312.701 386.091C312.141 384.311 311.482 382.544 310.922 380.776C310.915 380.756 310.905 380.738 310.891 380.722C310.878 380.706 310.861 380.693 310.843 380.683C310.824 380.673 310.804 380.668 310.783 380.666C310.762 380.664 310.741 380.666 310.721 380.673C310.701 380.679 310.682 380.69 310.666 380.703C310.65 380.717 310.637 380.733 310.627 380.752C310.618 380.771 310.612 380.791 310.61 380.812C310.608 380.833 310.611 380.854 310.617 380.874C312.799 388.017 315.029 395.232 314.554 402.814C314.335 406.47 313.335 410.005 313.433 413.662C313.667 417.292 314.284 420.887 315.273 424.388C318.71 439.217 322.403 453.982 326.353 468.682C330.302 483.381 334.474 498.008 338.87 512.561C341.016 519.643 343.027 526.834 346.074 533.599C349.121 540.364 352.985 546.763 356.629 553.235C364.089 566.651 371.674 579.965 379.386 593.177L382.348 598.199C382.353 598.212 382.362 598.223 382.372 598.232C382.382 598.241 382.394 598.248 382.407 598.253C382.42 598.257 382.434 598.258 382.448 598.257C382.461 598.255 382.475 598.251 382.487 598.244C382.499 598.238 382.509 598.228 382.517 598.217C382.525 598.206 382.531 598.193 382.534 598.18C382.537 598.167 382.537 598.153 382.534 598.139C382.532 598.126 382.526 598.113 382.518 598.102Z" fill="#37474F"/>
<path d="M277.757 306.425C270.944 319.211 240.533 347.611 229.368 348.818C221.287 349.695 192.046 328.913 184.099 321.491C176.444 314.324 201.809 292.481 206.599 296.382C213.364 301.879 228.368 317.944 231.525 318.321C233.731 318.577 246.932 311.557 267.287 298.527C278.562 291.372 281.828 298.844 277.757 306.425Z" fill="#D3766A"/>
<path d="M196.543 285.119C191.9 282.816 186.792 279.793 181.368 279.232C175.944 278.671 170.618 285.229 170.399 287.264C170.179 289.3 170.618 302.257 176.005 302.915C181.393 303.573 179.333 293.42 179.662 292.323C179.991 291.226 180.381 289.885 181.393 290.056C182.404 290.226 199.14 300.916 199.14 300.916L196.543 285.119Z" fill="#D3766A"/>
<path d="M196.104 285.826C195.799 285.826 182.063 278.318 176.663 277.757C171.263 277.197 165.925 283.754 165.693 285.79C165.461 287.825 165.912 300.782 171.3 301.44C176.687 302.098 174.64 291.945 174.956 290.86C175.273 289.775 175.676 288.422 176.675 288.593C177.675 288.764 194.422 299.441 194.422 299.441L196.104 285.826Z" fill="#D3766A"/>
<path d="M173.165 300.989C173.834 300.09 174.254 299.03 174.384 297.917C174.649 296.784 174.728 295.615 174.616 294.456C174.44 293.449 174.342 292.43 174.323 291.409C174.456 290.412 174.838 289.465 175.432 288.654C175.944 287.947 176.651 288.301 177.346 288.654C178.302 289.158 179.226 289.72 180.113 290.336C181.076 290.97 182.039 291.628 182.989 292.286C184.005 292.921 184.978 293.621 185.903 294.383C185.919 294.395 185.93 294.414 185.935 294.434C185.939 294.454 185.935 294.476 185.925 294.494C185.914 294.511 185.897 294.525 185.878 294.532C185.858 294.538 185.836 294.537 185.817 294.529C184.933 294.05 184.075 293.525 183.245 292.957L180.332 291.165C179.418 290.616 178.541 290.031 177.614 289.495C177.297 289.3 176.651 288.849 176.249 288.898C175.847 288.947 175.506 289.922 175.372 290.239C175.029 291.18 174.97 292.201 175.201 293.176C175.357 294.172 175.422 295.179 175.396 296.187C175.373 297.14 175.179 298.081 174.823 298.966C174.383 299.746 173.855 300.474 173.251 301.135C173.263 301.208 173.104 301.074 173.165 300.989Z" fill="#263238"/>
<path d="M211.45 302.062C211.45 302.062 198.201 286.631 195.422 283.535C189.852 277.355 164.95 263.399 161.293 262.558C157.637 261.717 155.443 269.055 172.263 279.049C181.149 284.303 182.16 289.897 181.612 292.847C181.064 295.797 177.541 301.014 172.544 300.258C167.546 299.502 165.23 291.787 160.684 290.409C156.138 289.032 158.185 297.857 160.83 303.134C163.661 308.266 167.887 312.492 173.019 315.323C177.151 317.48 189.864 324.916 189.864 324.916L211.45 302.062Z" fill="#D3766A"/>
<path d="M166.803 295.967C168.509 297.661 170.46 299.819 172.897 300.221C175.335 300.623 177.334 299.173 178.784 297.223C180.348 295.329 181.125 292.908 180.954 290.458C180.652 288.203 179.699 286.085 178.212 284.364C176.401 282.284 174.299 280.478 171.971 279C171.873 279 171.971 278.793 172.093 278.854C174.275 280.171 181.088 283.986 181.746 290.507C181.899 293.011 181.088 295.48 179.479 297.405C178.114 299.258 176.261 300.989 173.811 300.879C170.813 300.757 168.57 298.039 166.657 296.004C166.559 295.931 166.718 295.882 166.803 295.967Z" fill="#263238"/>
<path d="M207.147 296.857L188.571 334.837C188.571 334.837 220.116 351.329 230.013 349.842C239.91 348.354 267.432 323.489 277.927 307.644C284.314 297.978 279.073 290.348 266.055 298.003C252.647 305.877 233.889 316.737 232.524 317.042C231.159 317.346 207.147 296.857 207.147 296.857Z" fill="#C7C7C7"/>
<path d="M206.319 320.832C207.538 317.968 212.218 306.437 213.169 303.488C213.169 303.488 213.169 303.402 213.083 303.488C211.621 306.12 206.648 317.358 205.441 320.235C202.901 325.903 200.671 331.705 198.762 337.616C198.762 337.726 198.896 337.823 198.945 337.714C201.772 332.265 203.954 326.5 206.319 320.832Z" fill="#263238"/>
<path d="M277.933 307.644C269.4 320.515 249.655 339.335 237.234 346.733L273.862 294.98C280.89 293.993 282.864 300.197 277.933 307.644Z" fill="#A6A6A6"/>
<path d="M312.531 376.84C312.348 377.047 247.37 377.717 246.712 376.84C245.737 375.621 260.96 310.326 266.628 298.21C269.066 293.042 281.779 291.677 287.069 296.162C300.281 307.461 313.201 376.108 312.531 376.84Z" fill="white"/>
<path d="M285.898 294.846C285.898 294.846 278.731 328.45 278.061 330.876C277.391 333.301 274.831 394.684 274.831 394.684L319.43 389.309C319.43 389.309 309.922 355.18 308.862 353.571C307.802 351.962 299.33 315.786 292.419 302.61C289.287 296.674 285.898 294.846 285.898 294.846Z" fill="#C7C7C7"/>
<path d="M268.152 296.309C268.152 296.309 264.63 323.197 264.496 324.794C264.362 326.39 252.307 392.88 252.307 392.88L240.776 386.712C240.776 386.712 253.063 342.991 253.611 340.907C254.16 338.823 263.581 304.536 265.129 300.782C266.677 297.028 268.152 296.309 268.152 296.309Z" fill="#C7C7C7"/>
<path d="M236.242 352.559L252.087 388.918C252.238 389.11 252.335 389.339 252.369 389.581C252.402 389.823 252.371 390.069 252.278 390.295C252.185 390.52 252.033 390.717 251.839 390.865C251.645 391.013 251.415 391.107 251.173 391.137L231.598 394.367C230.994 394.416 230.388 394.294 229.849 394.016C229.311 393.739 228.861 393.315 228.55 392.794L212.705 356.435C212.55 356.245 212.45 356.016 212.414 355.773C212.378 355.53 212.409 355.282 212.502 355.054C212.596 354.827 212.749 354.63 212.946 354.482C213.142 354.335 213.375 354.243 213.619 354.217L233.182 350.999C233.788 350.939 234.398 351.055 234.941 351.331C235.483 351.608 235.934 352.034 236.242 352.559Z" fill="#37474F"/>
<path d="M233.913 352.925L249.759 389.272C249.913 389.464 250.013 389.693 250.048 389.937C250.083 390.181 250.053 390.429 249.959 390.657C249.866 390.884 249.713 391.083 249.517 391.232C249.321 391.38 249.089 391.474 248.845 391.503L229.233 394.72C228.631 394.772 228.028 394.654 227.491 394.378C226.954 394.102 226.506 393.68 226.198 393.16L210.353 356.801C210.198 356.611 210.097 356.382 210.061 356.139C210.026 355.895 210.056 355.647 210.15 355.42C210.243 355.193 210.397 354.995 210.593 354.848C210.79 354.701 211.022 354.609 211.267 354.583L230.83 351.353C231.44 351.294 232.055 351.41 232.601 351.689C233.147 351.968 233.603 352.396 233.913 352.925Z" fill="#455A64"/>
<path d="M228.843 355.546C228.907 355.872 229.066 356.172 229.299 356.408C229.533 356.644 229.831 356.805 230.157 356.872C230.482 356.939 230.82 356.908 231.128 356.783C231.436 356.657 231.7 356.444 231.886 356.169C232.073 355.894 232.174 355.57 232.177 355.238C232.179 354.906 232.084 354.58 231.902 354.303C231.72 354.025 231.459 353.807 231.154 353.677C230.848 353.547 230.511 353.51 230.184 353.571C229.966 353.612 229.758 353.696 229.573 353.817C229.387 353.939 229.228 354.096 229.103 354.279C228.978 354.463 228.891 354.669 228.847 354.887C228.802 355.104 228.801 355.328 228.843 355.546Z" fill="#263238"/>
<path d="M294.151 303.756C306.839 319.601 334.228 355.972 327.158 365.053C315.53 379.984 286.009 394.05 276.709 397.353C272.687 398.791 256.585 369.904 260.303 367.271C264.764 364.102 293.724 350.987 293.797 349.549C293.871 348.111 287.301 327.987 284.668 312.081C281.402 292.335 288.859 297.125 294.151 303.756Z" fill="#D3766A"/>
<path d="M275.05 364.431C275.05 364.431 262.435 361.421 254.098 359.848C249.442 358.959 241.336 358.166 237.619 359.081C232.061 360.446 209.694 369.721 211.827 375.194C213.765 380.155 231.963 369.733 231.963 369.733C231.963 369.733 212.668 378.619 216.118 384.153C219.567 389.686 238.533 375.194 238.533 375.194C238.533 375.194 218.909 384.762 223.346 389.918C226.698 393.806 244.64 381.642 244.64 381.642C244.64 381.642 227.831 389.991 231.11 394.135C234.767 398.718 251.989 388.541 251.989 388.541C262.082 397.694 270.48 398.548 276.732 397.353C278.159 397.085 275.05 364.431 275.05 364.431Z" fill="#D3766A"/>
<path d="M237.534 366.686C222.834 372.147 217.288 379.326 217.471 379.168C221.859 375.365 229.66 371.074 231.927 369.916C234.194 368.758 235.376 367.93 237.583 366.772C237.644 366.735 237.595 366.662 237.534 366.686Z" fill="#263238"/>
<path d="M242.787 374.146C236.737 376.088 231.079 379.089 226.077 383.007C225.894 383.178 226.004 383.202 226.223 383.092C228.99 381.532 239.984 375.633 242.824 374.207C242.861 374.195 242.824 374.134 242.787 374.146Z" fill="#263238"/>
<path d="M247.736 380.265C243.077 381.865 238.757 384.32 234.999 387.505C234.816 387.651 234.999 387.712 235.206 387.59C239.387 385.091 242.653 383.117 247.797 380.423C247.882 380.374 247.834 380.228 247.736 380.265Z" fill="#263238"/>
<path d="M269.164 362.213L287.606 396.841C287.606 396.841 326.159 373.463 328.645 363.249C331.132 353.035 301.903 310.277 293.298 301.684C284.693 293.091 282.169 296.918 282.925 307.181C283.681 317.444 293.395 349.074 293.237 349.683C293.078 350.292 269.164 362.213 269.164 362.213Z" fill="#C7C7C7"/>
<path d="M289.47 334.703C288.811 332.33 288.165 329.954 287.532 327.573C287.202 326.354 286.886 325.135 286.532 323.916C286.374 323.355 286.227 322.783 286.057 322.21C285.984 321.929 285.874 321.649 285.813 321.369C285.746 320.978 285.631 320.598 285.472 320.235C285.472 320.174 285.338 320.235 285.35 320.235C285.371 320.537 285.407 320.839 285.459 321.137C285.559 321.507 285.641 321.881 285.703 322.258L286.069 323.989C286.325 325.208 286.593 326.354 286.886 327.524L286.995 327.987C287 327.947 287 327.906 286.995 327.865C286.496 326.646 285.971 325.342 285.459 324.087H285.362C285.74 325.403 286.154 326.683 286.654 327.963C286.934 328.694 287.263 329.413 287.593 330.12C287.995 331.693 288.373 333.265 288.811 334.825C290.091 339.701 291.408 344.576 293.077 349.232C291.054 350.28 288.97 351.243 286.983 352.304C284.996 353.364 282.936 354.461 280.889 355.558C278.841 356.655 276.854 357.728 274.855 358.849L272.015 360.482C270.979 361.067 270.016 361.786 268.98 362.347C268.871 362.347 268.98 362.567 269.078 362.506C270.163 361.933 271.333 361.506 272.43 360.97C273.527 360.434 274.368 360.019 275.331 359.519C277.378 358.483 279.402 357.399 281.425 356.326C283.448 355.253 285.484 354.181 287.519 353.084C289.555 351.987 291.481 350.78 293.48 349.683C293.511 349.668 293.539 349.646 293.56 349.619C293.581 349.591 293.595 349.559 293.602 349.525C293.645 349.494 293.678 349.45 293.695 349.4C293.713 349.35 293.714 349.295 293.699 349.244C292.322 344.369 290.823 339.554 289.47 334.703Z" fill="#263238"/>
<path d="M286.41 375.365C285.033 372.866 279.487 362.871 277.878 360.494H277.793C278.853 363.054 284.034 373.073 285.399 375.584C288.004 380.67 290.885 385.609 294.028 390.381C294.089 390.466 294.248 390.381 294.199 390.308C291.968 385.177 289.104 380.313 286.41 375.365Z" fill="#263238"/>
<path d="M316.7 376.657C314.53 377.973 295.528 391.966 291.104 394.598C290.848 394.745 291.177 394.818 291.42 394.672C295.942 391.941 312.921 380.533 316.822 376.852C316.992 376.705 316.888 376.547 316.7 376.657Z" fill="#263238"/>
<path d="M272.137 307.266C276.196 307.729 283.107 300.306 285.167 295.077C285.313 294.724 284.375 291.25 283.448 286.984C282.9 284.388 282.351 281.487 282.035 278.805L265.689 284.9C267.037 288.145 267.987 291.542 268.517 295.016C268.554 295.385 268.554 295.757 268.517 296.126V296.308C268.432 298.441 268.237 306.803 272.137 307.266Z" fill="#D3766A"/>
<path d="M268.529 296.126C268.536 296.187 268.536 296.248 268.529 296.309C269.112 296.322 269.695 296.29 270.272 296.211C280.023 294.846 280.877 282.657 280.925 279.257L276.842 280.768L265.689 284.9C267.043 288.143 267.993 291.541 268.517 295.017C268.558 295.385 268.562 295.757 268.529 296.126Z" fill="#263238"/>
<path d="M284.264 262.375C285.642 268.469 281.193 285.534 276.634 289.105C270.04 294.236 259.887 293.98 255.694 286.241C251.623 278.696 257.827 256.549 262.849 253.404C270.247 248.76 282.229 253.319 284.264 262.375Z" fill="#D3766A"/>
<path d="M266.385 272.297C266.385 272.297 266.458 272.37 266.446 272.419C266.117 273.564 265.934 274.917 266.872 275.575V275.636C265.617 275.161 265.885 273.357 266.385 272.297Z" fill="#263238"/>
<path d="M267.725 271.395C269.614 271.724 268.798 275.478 267.055 275.161C265.312 274.844 266.14 271.078 267.725 271.395Z" fill="#263238"/>
<path d="M259.839 270.7C259.839 270.7 259.741 270.7 259.729 270.785C259.522 272.004 259.071 273.223 257.938 273.418V273.479C259.254 273.576 259.827 271.846 259.839 270.7Z" fill="#263238"/>
<path d="M259.058 269.262C257.229 268.713 256.279 272.431 257.973 272.918C259.667 273.406 260.606 269.713 259.058 269.262Z" fill="#263238"/>
<path d="M269.566 269.993C269.105 269.744 268.658 269.472 268.225 269.176C267.713 268.943 267.287 268.555 267.006 268.067C266.953 267.898 266.956 267.716 267.016 267.549C267.075 267.382 267.187 267.239 267.335 267.141C267.664 266.993 268.025 266.935 268.383 266.974C268.741 267.013 269.082 267.146 269.371 267.36C270.02 267.702 270.516 268.277 270.76 268.969C270.806 269.128 270.805 269.297 270.757 269.456C270.71 269.615 270.617 269.756 270.492 269.864C270.366 269.972 270.212 270.041 270.048 270.064C269.884 270.087 269.716 270.062 269.566 269.993Z" fill="#263238"/>
<path d="M258.023 267.068C258.548 267.08 259.074 267.055 259.596 266.995C260.151 267.044 260.707 266.912 261.18 266.617C261.315 266.498 261.405 266.336 261.436 266.159C261.467 265.982 261.437 265.799 261.351 265.642C261.135 265.356 260.848 265.133 260.518 264.994C260.189 264.855 259.829 264.805 259.474 264.849C258.736 264.835 258.019 265.096 257.463 265.581C257.341 265.698 257.256 265.848 257.219 266.013C257.182 266.178 257.194 266.35 257.254 266.509C257.314 266.667 257.418 266.804 257.555 266.903C257.692 267.003 257.854 267.06 258.023 267.068Z" fill="#263238"/>
<path d="M265.69 282.998C265.349 283.206 264.995 283.523 264.568 283.474C264.129 283.371 263.714 283.18 263.35 282.913C263.467 283.177 263.653 283.405 263.889 283.573C264.125 283.74 264.402 283.84 264.69 283.864C264.943 283.859 265.188 283.775 265.391 283.624C265.594 283.473 265.746 283.263 265.824 283.023C265.8 283.011 265.739 282.962 265.69 282.998Z" fill="#263238"/>
<path d="M265.215 279.256C264.823 279.658 264.352 279.974 263.832 280.184C263.311 280.394 262.753 280.493 262.192 280.475C261.703 280.466 261.218 280.383 260.754 280.232L260.498 280.146L260.242 280.049C260.183 280.025 260.134 279.982 260.103 279.926C260.072 279.871 260.061 279.807 260.071 279.744C260.066 279.708 260.066 279.671 260.071 279.634V279.537C260.242 278.635 260.62 277.294 260.62 277.294C260.254 277.379 258.426 277.769 258.56 277.294C259.531 273.282 260.903 269.379 262.655 265.642C262.667 265.615 262.689 265.595 262.716 265.584C262.743 265.574 262.773 265.574 262.8 265.585C262.826 265.596 262.848 265.617 262.86 265.643C262.871 265.67 262.872 265.7 262.862 265.727C261.997 269.384 260.425 272.967 259.535 276.697C260.186 276.552 260.855 276.498 261.522 276.538C261.644 276.599 260.742 279.122 260.705 279.525C261.423 279.755 262.181 279.84 262.932 279.773C263.684 279.706 264.414 279.489 265.081 279.135C265.227 279.086 265.3 279.183 265.215 279.256Z" fill="#263238"/>
<path d="M261.388 279.866C261.742 280.609 262.279 281.251 262.948 281.731C263.309 281.969 263.734 282.092 264.167 282.084C265.142 282.084 265.386 281.195 265.386 280.427C265.373 280.015 265.316 279.607 265.215 279.208C264.045 279.839 262.701 280.07 261.388 279.866Z" fill="#263238"/>
<path d="M262.947 281.731C263.309 281.969 263.733 282.092 264.166 282.084C265.141 282.084 265.385 281.194 265.385 280.427C264.891 280.338 264.382 280.419 263.94 280.655C263.497 280.892 263.148 281.271 262.947 281.731Z" fill="#FF98B9"/>
<path d="M278.098 271.078C277.233 267.604 279.646 262.107 278.098 260.449C274.734 256.866 266.726 262.521 261.595 262.119C256.463 261.717 255.232 258.463 256.475 254.44C257.719 250.418 261.351 248.066 267.006 247.7C271.929 247.546 276.749 249.13 280.621 252.173C280.621 252.173 279.536 250.052 280.061 249.467C280.585 248.882 282.852 251.015 283.534 251.905C284.012 252.652 284.355 253.477 284.546 254.343C285.306 254.234 286.078 254.234 286.838 254.343C287.935 254.52 288.936 255.076 289.665 255.915C289.738 256.22 287.91 256.305 286.63 256.256C286.63 256.256 288.727 259.596 288.459 262.278C288.19 264.959 282.913 277.379 281.901 277.428C280.585 277.453 278.452 272.419 278.098 271.078Z" fill="#263238"/>
<path d="M286.155 255.842C287.296 256.946 288.114 258.341 288.519 259.877C288.877 261.729 288.734 263.644 288.105 265.422C286.826 268.8 285.191 272.032 283.23 275.064C283.169 275.161 283.327 275.247 283.388 275.161C285.662 271.987 287.43 268.48 288.629 264.764C289.446 261.656 288.958 257.89 286.155 255.842Z" fill="#263238"/>
<path d="M278.403 259.109C276.91 258.794 275.372 258.765 273.869 259.023C272.463 259.381 271.107 259.913 269.834 260.608C266.927 262.058 263.67 262.662 260.437 262.351V262.424C263.385 262.917 266.412 262.527 269.139 261.303C270.504 260.634 271.903 260.04 273.332 259.523C274.996 259.206 276.699 259.157 278.378 259.377C278.414 259.38 278.449 259.369 278.477 259.346C278.504 259.323 278.521 259.29 278.525 259.255C278.528 259.219 278.517 259.184 278.494 259.157C278.471 259.129 278.438 259.112 278.403 259.109Z" fill="#263238"/>
<path d="M277.671 250.43C275.736 249.264 273.648 248.374 271.467 247.785C269.39 247.163 267.22 246.908 265.056 247.029C263.187 247.077 261.376 247.683 259.855 248.769C258.335 249.855 257.174 251.372 256.524 253.124C255.885 255.023 255.981 257.093 256.792 258.926C256.804 258.948 256.825 258.965 256.849 258.972C256.873 258.98 256.9 258.979 256.923 258.968C256.946 258.957 256.964 258.938 256.974 258.914C256.983 258.891 256.984 258.864 256.975 258.84C256.329 257.161 256.244 255.317 256.734 253.585C257.224 251.854 258.262 250.328 259.693 249.236C262.935 246.871 267.189 247.029 270.906 247.944C273.227 248.56 275.477 249.413 277.622 250.491C277.622 250.491 277.683 250.442 277.671 250.43Z" fill="#263238"/>
<path d="M267.871 278.513C268.804 278.586 269.738 278.396 270.568 277.965C271.398 277.533 272.09 276.878 272.565 276.073C273.041 275.267 273.281 274.345 273.258 273.41C273.236 272.475 272.951 271.565 272.437 270.784C271.923 270.003 271.2 269.381 270.35 268.99C269.501 268.6 268.558 268.455 267.631 268.574C266.703 268.692 265.827 269.068 265.102 269.659C264.378 270.251 263.834 271.034 263.532 271.919C263.106 273.173 263.195 274.545 263.78 275.734C264.366 276.922 265.399 277.83 266.653 278.257C267.046 278.396 267.456 278.482 267.871 278.513ZM268.615 269.213C268.973 269.239 269.325 269.313 269.663 269.432C270.705 269.79 271.571 270.53 272.085 271.504C272.6 272.478 272.724 273.611 272.432 274.673C272.14 275.734 271.454 276.645 270.514 277.219C269.574 277.792 268.451 277.986 267.373 277.76C266.295 277.535 265.344 276.907 264.713 276.004C264.082 275.102 263.819 273.993 263.977 272.903C264.136 271.813 264.704 270.825 265.565 270.139C266.427 269.454 267.518 269.122 268.615 269.213Z" fill="#1DA1F3"/>
<path d="M256.62 276.221C258.534 276.368 260.423 274.552 260.923 271.992C261.194 270.766 261.07 269.486 260.569 268.335C260.373 267.84 260.06 267.4 259.657 267.052C259.253 266.704 258.772 266.458 258.253 266.336C257.727 266.252 257.188 266.294 256.682 266.459C256.175 266.625 255.715 266.908 255.34 267.287C254.445 268.158 253.844 269.288 253.622 270.517C253.085 273.223 254.292 275.746 256.303 276.148L256.62 276.221ZM257.839 266.982H258.083C258.498 267.086 258.883 267.287 259.205 267.569C259.527 267.851 259.778 268.205 259.935 268.603C260.359 269.621 260.466 270.743 260.24 271.821C259.765 274.174 258.046 275.807 256.388 275.478C254.731 275.149 253.78 273.04 254.243 270.602C254.438 269.511 254.971 268.509 255.767 267.738C256.044 267.47 256.376 267.263 256.74 267.133C257.103 267.003 257.49 266.951 257.875 266.982H257.839Z" fill="#1DA1F3"/>
<path d="M263.582 272.516L264.106 272.102C263.484 271.322 261.936 270.139 260.449 271.188L260.839 271.724C262.143 270.785 263.533 272.443 263.582 272.516Z" fill="#1DA1F3"/>
<path d="M285.18 278.123L285.826 277.94C285.74 277.635 284.948 275.003 283.522 274.466C282.096 273.93 273.247 273.052 272.869 273.016L272.796 273.674C275.368 273.942 282.267 274.71 283.29 275.1C284.314 275.49 284.972 277.404 285.18 278.123Z" fill="#1DA1F3"/>
<path d="M279.514 276.197C279.514 276.197 283.951 270.98 286.352 272.614C288.753 274.247 285.048 282.072 281.964 282.889C281.576 283.021 281.166 283.073 280.757 283.043C280.349 283.012 279.95 282.9 279.586 282.712C279.222 282.525 278.9 282.265 278.638 281.95C278.376 281.635 278.181 281.27 278.063 280.878L279.514 276.197Z" fill="#D3766A"/>
<path d="M285.228 274.832C285.228 274.832 285.289 274.832 285.228 274.905C284.227 275.295 283.318 275.888 282.559 276.648C281.799 277.407 281.206 278.316 280.816 279.317C280.959 279.122 281.142 278.959 281.353 278.84C281.564 278.721 281.798 278.648 282.04 278.627C282.281 278.607 282.524 278.638 282.753 278.719C282.981 278.8 283.189 278.93 283.363 279.098V279.208C283.006 279.056 282.611 279.018 282.232 279.099C281.852 279.179 281.507 279.375 281.243 279.659C280.81 280.141 280.429 280.668 280.109 281.231C279.987 281.402 279.67 281.231 279.756 281.06C279.926 278.391 282.352 274.832 285.228 274.832Z" fill="#263238"/>
<path d="M268.445 296.028L273.077 305.779L284.68 292.372L288.434 296.199C288.434 296.199 277.574 316.993 277.464 316.091L272.821 307.754L267.263 314.104L266.812 299.063L268.445 296.028Z" fill="white"/>
<path d="M266.592 306.669C266.592 304.231 266.592 301.684 266.665 299.197C266.665 299.112 266.799 299.063 266.824 299.197C267.47 301.55 267.397 311.057 267.543 313.324C267.775 313.044 272.711 307.717 272.772 307.79C273.747 309.107 277.16 315.177 277.391 315.725C279.11 312.422 285.729 300.392 287.813 297.247C287.824 297.228 287.842 297.215 287.862 297.208C287.883 297.202 287.905 297.203 287.925 297.212C287.945 297.221 287.96 297.238 287.969 297.257C287.977 297.277 287.978 297.3 287.971 297.32C286.484 300.782 277.745 316.981 277.586 316.944C275.809 314.094 274.181 311.152 272.711 308.132C271.894 309.265 266.946 315.25 266.909 314.884C266.655 312.153 266.55 309.411 266.592 306.669Z" fill="#263238"/>
<defs>
<clipPath id="clip0_1027_3011">
<rect width="150" height="295" fill="white" transform="translate(24 170)"/>
</clipPath>
</defs>
</svg>
