<svg width="25" height="25" viewBox="0 0 25 25" fill="none" xmlns="http://www.w3.org/2000/svg">    <path d="M12.4999 13.361C8.81645 13.361 5.8194 10.364 5.8194 6.68052C5.8194 2.99705 8.81645 0 12.4999 0C16.1834 0 19.1804 2.99705 19.1804 6.68052C19.1804 10.364 16.1834 13.361 12.4999 13.361ZM12.4999 1.67013C9.73669 1.67013 7.48953 3.91729 7.48953 6.68052C7.48953 9.44375 9.73669 11.6909 12.4999 11.6909C15.2632 11.6909 17.5103 9.44375 17.5103 6.68052C17.5103 3.91729 15.2632 1.67013 12.4999 1.67013Z" fill="black"/>    <path d="M14.1667 25H0.833333C0.3725 25 0 24.6275 0 24.1686V16.6864C0 16.4661 0.0875 16.2541 0.244167 16.0987C0.439167 15.9033 2.21083 14.1924 4.16667 14.1924C5.78667 14.1924 7.87667 15.4136 8.57917 15.8551H12.5C13.8783 15.8551 15 16.9741 15 18.3492C15 18.4963 14.9867 18.6401 14.9625 18.7806L21.5383 16.0471C22.3117 15.7254 23.1892 15.811 23.8867 16.2741C24.5842 16.738 25 17.5136 25 18.3492C25 18.6443 24.8433 18.9186 24.5867 19.0674L14.5867 24.8869C14.4592 24.9609 14.3142 25 14.1667 25ZM1.66667 23.3373H13.9408L23.2242 17.9351C23.1617 17.8262 23.0725 17.7315 22.9625 17.6575C22.7267 17.5003 22.44 17.4729 22.18 17.5818L14.4883 20.7792C14.3858 20.8216 14.2767 20.8432 14.1667 20.8432H7.5C7.03917 20.8432 6.66667 20.4708 6.66667 20.0119C6.66667 19.553 7.03917 19.1805 7.5 19.1805H12.5C12.96 19.1805 13.3333 18.8072 13.3333 18.3492C13.3333 17.8911 12.96 17.5178 12.5 17.5178H8.33333C8.16917 17.5178 8.0075 17.4687 7.87083 17.379C7.23333 16.955 5.3225 15.8551 4.16667 15.8551C3.25833 15.8551 2.21083 16.5867 1.66667 17.0514V23.3373Z" fill="black"/>    <path d="M14.581 5.01467H13.7335C13.6596 4.72878 13.5291 4.46152 13.35 4.2295H14.581C14.6827 4.2295 14.7802 4.18814 14.8521 4.11452C14.924 4.04089 14.9644 3.94104 14.9644 3.83692C14.9644 3.7328 14.924 3.63294 14.8521 3.55932C14.7802 3.4857 14.6827 3.44434 14.581 3.44434H10.3628C10.2611 3.44434 10.1635 3.4857 10.0916 3.55932C10.0197 3.63294 9.97929 3.7328 9.97929 3.83692C9.97929 3.94104 10.0197 4.04089 10.0916 4.11452C10.1635 4.18814 10.2611 4.2295 10.3628 4.2295H11.7049C11.9581 4.23041 12.2059 4.30462 12.4196 4.44355C12.6334 4.58248 12.8044 4.78048 12.9129 5.01467H10.3628C10.2611 5.01467 10.1635 5.05603 10.0916 5.12965C10.0197 5.20327 9.97929 5.30313 9.97929 5.40725C9.97929 5.51137 10.0197 5.61122 10.0916 5.68485C10.1635 5.75847 10.2611 5.79983 10.3628 5.79983H13.0471C13.0011 6.12591 12.8422 6.42423 12.5994 6.64041C12.3565 6.85659 12.0459 6.97625 11.7241 6.97758H10.3628C10.3449 6.97574 10.3269 6.97574 10.3091 6.97758C10.2837 6.97353 10.2578 6.97353 10.2324 6.97758C10.2062 6.98669 10.1817 6.99994 10.1595 7.01684L10.1135 7.04432C10.0925 7.06374 10.0744 7.08623 10.0598 7.11106C10.047 7.12846 10.0354 7.14683 10.0253 7.16602C10.0219 7.18944 10.0219 7.21326 10.0253 7.23668C9.99798 7.27584 9.98202 7.32212 9.97929 7.37016C9.97749 7.38844 9.97749 7.40685 9.97929 7.42512C9.97533 7.45114 9.97533 7.47762 9.97929 7.50364C9.98819 7.5304 10.0011 7.55557 10.0176 7.57823C10.0176 7.57823 10.0176 7.60964 10.0445 7.62534L12.3453 10.3734C12.4114 10.4525 12.5055 10.5016 12.6069 10.5097C12.7083 10.5178 12.8087 10.4843 12.886 10.4166C12.9633 10.3489 13.0112 10.2526 13.0191 10.1488C13.027 10.045 12.9943 9.94219 12.9282 9.86306L11.1987 7.76274H11.7049C12.2326 7.76498 12.7419 7.56463 13.1324 7.20124C13.5228 6.83785 13.7661 6.33782 13.814 5.79983H14.581C14.6827 5.79983 14.7802 5.75847 14.8521 5.68485C14.924 5.61122 14.9644 5.51137 14.9644 5.40725C14.9644 5.30313 14.924 5.20327 14.8521 5.12965C14.7802 5.05603 14.6827 5.01467 14.581 5.01467Z" fill="black"/></svg>